%TF.GenerationSoftware,KiCad,Pcbnew,9.0.2*%
%TF.CreationDate,2026-05-04T14:37:54-07:00*%
%TF.ProjectId,BLV_PCB,424c565f-5043-4422-9e6b-696361645f70,rev?*%
%TF.SameCoordinates,Original*%
%TF.FileFunction,Copper,L2,Inr*%
%TF.FilePolarity,Positive*%
%FSLAX46Y46*%
G04 Gerber Fmt 4.6, Leading zero omitted, Abs format (unit mm)*
G04 Created by KiCad (PCBNEW 9.0.2) date 2026-05-04 14:37:54*
%MOMM*%
%LPD*%
G01*
G04 APERTURE LIST*
G04 Aperture macros list*
%AMRoundRect*
0 Rectangle with rounded corners*
0 $1 Rounding radius*
0 $2 $3 $4 $5 $6 $7 $8 $9 X,Y pos of 4 corners*
0 Add a 4 corners polygon primitive as box body*
4,1,4,$2,$3,$4,$5,$6,$7,$8,$9,$2,$3,0*
0 Add four circle primitives for the rounded corners*
1,1,$1+$1,$2,$3*
1,1,$1+$1,$4,$5*
1,1,$1+$1,$6,$7*
1,1,$1+$1,$8,$9*
0 Add four rect primitives between the rounded corners*
20,1,$1+$1,$2,$3,$4,$5,0*
20,1,$1+$1,$4,$5,$6,$7,0*
20,1,$1+$1,$6,$7,$8,$9,0*
20,1,$1+$1,$8,$9,$2,$3,0*%
G04 Aperture macros list end*
%TA.AperFunction,ComponentPad*%
%ADD10C,5.600000*%
%TD*%
%TA.AperFunction,ComponentPad*%
%ADD11C,1.500000*%
%TD*%
%TA.AperFunction,ComponentPad*%
%ADD12RoundRect,0.250000X-0.625000X0.350000X-0.625000X-0.350000X0.625000X-0.350000X0.625000X0.350000X0*%
%TD*%
%TA.AperFunction,ComponentPad*%
%ADD13O,1.750000X1.200000*%
%TD*%
%TA.AperFunction,ComponentPad*%
%ADD14R,1.700000X1.700000*%
%TD*%
%TA.AperFunction,ComponentPad*%
%ADD15C,1.700000*%
%TD*%
%TA.AperFunction,HeatsinkPad*%
%ADD16O,1.000000X2.100000*%
%TD*%
%TA.AperFunction,HeatsinkPad*%
%ADD17O,1.000000X1.600000*%
%TD*%
%TA.AperFunction,ComponentPad*%
%ADD18C,3.300000*%
%TD*%
%TA.AperFunction,ComponentPad*%
%ADD19C,2.400000*%
%TD*%
%TA.AperFunction,ComponentPad*%
%ADD20O,3.500000X2.500000*%
%TD*%
%TA.AperFunction,ComponentPad*%
%ADD21C,2.500000*%
%TD*%
%TA.AperFunction,ComponentPad*%
%ADD22C,2.050000*%
%TD*%
%TA.AperFunction,ComponentPad*%
%ADD23C,2.250000*%
%TD*%
%TA.AperFunction,ViaPad*%
%ADD24C,0.600000*%
%TD*%
%TA.AperFunction,ViaPad*%
%ADD25C,0.700000*%
%TD*%
G04 APERTURE END LIST*
D10*
%TO.N,N/C*%
%TO.C,H34*%
X134500000Y-125500000D03*
%TD*%
D11*
%TO.N,/GNSS & MicroSD/DAT1*%
%TO.C,TP31*%
X143000000Y-93000000D03*
%TD*%
%TO.N,/GNSS & MicroSD/EXTINT*%
%TO.C,TP34*%
X169000000Y-122000000D03*
%TD*%
D10*
%TO.N,N/C*%
%TO.C,H33*%
X215500000Y-125500000D03*
%TD*%
%TO.N,N/C*%
%TO.C,H32*%
X215500000Y-44500000D03*
%TD*%
D12*
%TO.N,/Cube2_UART_TX*%
%TO.C,J33*%
X136050000Y-82000000D03*
D13*
%TO.N,/Cube2_UART_RX*%
X136050000Y-84000000D03*
%TO.N,unconnected-(J33-Pin_3-Pad3)*%
X136050000Y-86000000D03*
%TO.N,GND*%
X136050000Y-88000000D03*
%TD*%
D12*
%TO.N,/Cube1_UART_TX*%
%TO.C,J32*%
X136050000Y-66740000D03*
D13*
%TO.N,/Cube1_UART_RX*%
X136050000Y-68740000D03*
%TO.N,unconnected-(J32-Pin_3-Pad3)*%
X136050000Y-70740000D03*
%TO.N,GND*%
X136050000Y-72740000D03*
%TD*%
D11*
%TO.N,/GNSS & MicroSD/~{SAFEBOOT}*%
%TO.C,TP35*%
X169000000Y-128000000D03*
%TD*%
D14*
%TO.N,GND*%
%TO.C,J34*%
X142000000Y-87040000D03*
D15*
%TO.N,/Cube2_UART_RX*%
X142000000Y-84500000D03*
%TO.N,/Cube2_UART_TX*%
X142000000Y-81960000D03*
%TD*%
D11*
%TO.N,/GNSS & MicroSD/DAT2*%
%TO.C,TP32*%
X135000000Y-113000000D03*
%TD*%
%TO.N,/GNSS & MicroSD/TIMEPULSE*%
%TO.C,TP33*%
X169000000Y-125000000D03*
%TD*%
D16*
%TO.N,unconnected-(J41-SHIELD-PadS1)_1*%
%TO.C,J41*%
X174662000Y-122670000D03*
D17*
%TO.N,unconnected-(J41-SHIELD-PadS1)_3*%
X174662000Y-126850000D03*
D16*
%TO.N,unconnected-(J41-SHIELD-PadS1)_2*%
X183302000Y-122670000D03*
D17*
%TO.N,unconnected-(J41-SHIELD-PadS1)*%
X183302000Y-126850000D03*
%TD*%
D14*
%TO.N,+3V3*%
%TO.C,J39*%
X133500000Y-116225000D03*
D15*
%TO.N,GND*%
X133500000Y-118765000D03*
%TD*%
D18*
%TO.N,*%
%TO.C,U33*%
X211500000Y-112600000D03*
X195500000Y-57400000D03*
D19*
X211500000Y-49200000D03*
D20*
%TO.N,CELL-*%
X203500000Y-120720000D03*
%TO.N,CELL+*%
X203500000Y-49280000D03*
%TD*%
D14*
%TO.N,GND*%
%TO.C,J36*%
X140350000Y-72420000D03*
D15*
%TO.N,/Cube1_UART_RX*%
X140350000Y-69880000D03*
%TO.N,/Cube1_UART_TX*%
X140350000Y-67340000D03*
%TD*%
D16*
%TO.N,unconnected-(J38-SHIELD-PadS1)*%
%TO.C,J38*%
X161120000Y-46990000D03*
D17*
%TO.N,unconnected-(J38-SHIELD-PadS1)_3*%
X161120000Y-42810000D03*
D16*
%TO.N,unconnected-(J38-SHIELD-PadS1)_1*%
X152480000Y-46990000D03*
D17*
%TO.N,unconnected-(J38-SHIELD-PadS1)_2*%
X152480000Y-42810000D03*
%TD*%
D14*
%TO.N,/MCU/I2C0_SCL*%
%TO.C,J71*%
X146000000Y-118800000D03*
D15*
%TO.N,/MCU/I2C0_SDA*%
X143460000Y-118800000D03*
%TO.N,+3V3*%
X140920000Y-118800000D03*
%TO.N,GND*%
X138380000Y-118800000D03*
%TD*%
D14*
%TO.N,GND*%
%TO.C,J37*%
X154160000Y-88900000D03*
D15*
%TO.N,/MCU/SWCLK*%
X156700000Y-88900000D03*
%TO.N,/MCU/SWD*%
X159240000Y-88900000D03*
%TD*%
D14*
%TO.N,GND*%
%TO.C,J35*%
X140350000Y-57180000D03*
D15*
%TO.N,/Cube0_UART_RX*%
X140350000Y-54640000D03*
%TO.N,/Cube0_UART_TX*%
X140350000Y-52100000D03*
%TD*%
D11*
%TO.N,/GNSS & MicroSD/LNA_EN*%
%TO.C,TP36*%
X146750000Y-112500000D03*
%TD*%
D21*
%TO.N,unconnected-(SW33-Pad1)*%
%TO.C,SW33*%
X172800000Y-45500000D03*
%TO.N,/Power/V_SWITCH*%
X177500000Y-45500000D03*
%TO.N,/Power/IN+*%
X182200000Y-45500000D03*
%TD*%
D22*
%TO.N,/RF/LoRa_ANT*%
%TO.C,J40*%
X160500000Y-100700000D03*
D23*
%TO.N,GND*%
X157960000Y-98160000D03*
X157960000Y-103240000D03*
X163040000Y-98160000D03*
X163040000Y-103240000D03*
%TD*%
D12*
%TO.N,/Cube0_UART_TX*%
%TO.C,J31*%
X136050000Y-51500000D03*
D13*
%TO.N,/Cube0_UART_RX*%
X136050000Y-53500000D03*
%TO.N,unconnected-(J31-Pin_3-Pad3)*%
X136050000Y-55500000D03*
%TO.N,GND*%
X136050000Y-57500000D03*
%TD*%
D10*
%TO.N,N/C*%
%TO.C,H31*%
X134500000Y-44500000D03*
%TD*%
D24*
%TO.N,+3V3*%
X146400000Y-126100000D03*
D25*
X155200000Y-124100000D03*
X150000000Y-54800000D03*
D24*
X172600000Y-50400000D03*
X161482265Y-74775000D03*
D25*
X165493670Y-66482022D03*
D24*
X132500000Y-59800000D03*
D25*
X151500000Y-54800000D03*
X153000000Y-56300000D03*
D24*
X134700000Y-103600000D03*
X135500000Y-102800000D03*
X135500000Y-103600000D03*
X132600000Y-90300000D03*
D25*
X150000000Y-122500000D03*
X153000000Y-54800000D03*
D24*
X161500000Y-58950000D03*
X134700000Y-102800000D03*
D25*
X150000000Y-53300000D03*
X155200000Y-122500000D03*
X154400000Y-123300000D03*
X165500000Y-64500000D03*
X154400000Y-124100000D03*
X155200000Y-123300000D03*
X151500000Y-53300000D03*
D24*
X154200000Y-96600000D03*
D25*
X154400000Y-122500000D03*
X165500000Y-62500000D03*
D24*
X132600000Y-75100000D03*
D25*
X163500000Y-66500000D03*
D24*
X139600000Y-115100000D03*
D25*
X163500000Y-64500000D03*
D24*
X137200000Y-94000000D03*
D25*
X163500000Y-62500000D03*
D24*
%TO.N,+1V1*%
X162000000Y-70400000D03*
X157475000Y-64440000D03*
X157768413Y-76206587D03*
X152675000Y-70000000D03*
X157475000Y-63600000D03*
%TO.N,VBUS*%
X154350000Y-47905000D03*
X191500000Y-57800000D03*
X188500000Y-57800000D03*
X185405000Y-49175000D03*
X184300000Y-49200000D03*
X159250000Y-47905000D03*
%TO.N,+5V*%
X186600000Y-68180000D03*
X173600000Y-65000000D03*
X181700000Y-68160000D03*
X180100000Y-68100000D03*
%TO.N,/GNSS & MicroSD/SPI_CS1*%
X153200000Y-116400000D03*
X153240000Y-97600000D03*
X153500000Y-75250000D03*
%TO.N,/MCU/RF_RXEN*%
X164800000Y-72800000D03*
X188800000Y-83748451D03*
%TO.N,/GNSS & MicroSD/SPI_MOSI*%
X139600000Y-106300000D03*
X152000000Y-104400000D03*
X148300000Y-104400000D03*
X139600000Y-103700000D03*
%TO.N,/GNSS & MicroSD/SPI_MISO*%
X149250000Y-100300000D03*
X140800000Y-100600000D03*
X149250000Y-103400000D03*
X140800000Y-106400000D03*
%TO.N,/MCU/RF_TXEN*%
X189000000Y-81748451D03*
X165200000Y-72000000D03*
%TO.N,CELL+*%
X201000000Y-51500000D03*
X206250000Y-49250000D03*
X206250000Y-47000000D03*
X196000000Y-47500000D03*
X206250000Y-51500000D03*
X203500000Y-47000000D03*
X198500000Y-47500000D03*
X203500000Y-51500000D03*
X191000000Y-109875000D03*
X196000000Y-49500000D03*
X201000000Y-47000000D03*
X193750000Y-49500000D03*
X198500000Y-49500000D03*
X201000000Y-49250000D03*
X193750000Y-47500000D03*
%TO.N,/GNSS & MicroSD/SPI_CS0*%
X142100000Y-105400000D03*
X148300000Y-98200000D03*
%TO.N,/GNSS & MicroSD/LNA_EN*%
X151200000Y-111800000D03*
%TO.N,/Power/Cout*%
X190700000Y-115100000D03*
X192600000Y-122400000D03*
%TO.N,/MCU/I2C0_SCL*%
X175800000Y-50200000D03*
X139100000Y-126800000D03*
X165700000Y-68610000D03*
%TO.N,/MCU/I2C0_SDA*%
X177800000Y-50200000D03*
X141100000Y-125400000D03*
X166800000Y-68610000D03*
X148100000Y-123400000D03*
%TO.N,GND*%
X131500000Y-71500000D03*
X206000000Y-86000000D03*
X141700000Y-101200000D03*
X178000000Y-67948451D03*
X172750000Y-67948451D03*
X184300000Y-53800000D03*
X138400000Y-52500000D03*
X131500000Y-62000000D03*
X189000000Y-100500000D03*
X211000000Y-127000000D03*
X180232000Y-118000000D03*
X158500000Y-127500000D03*
X206000000Y-56000000D03*
D25*
X151200000Y-110700000D03*
D24*
X175000000Y-41000000D03*
X201000000Y-101000000D03*
X217000000Y-106000000D03*
X164775000Y-70200000D03*
X189400000Y-62000000D03*
D25*
X161175000Y-64740000D03*
D24*
X158600000Y-69800000D03*
X206000000Y-111000000D03*
X171000000Y-107948451D03*
X181100000Y-72700000D03*
X206000000Y-106000000D03*
X171000000Y-82948451D03*
X138500000Y-43000000D03*
X171000000Y-87948451D03*
X172800000Y-51300000D03*
X189905000Y-46700000D03*
X163000000Y-58900000D03*
X142500000Y-95000000D03*
X206000000Y-96000000D03*
X149900000Y-70000000D03*
X187400000Y-62000000D03*
X211000000Y-96000000D03*
X217000000Y-66000000D03*
X133000000Y-107500000D03*
X137500000Y-79000000D03*
X186000000Y-92948451D03*
X176682000Y-128500000D03*
X176700000Y-54000000D03*
X146700000Y-53800000D03*
X189400000Y-63800000D03*
X192700000Y-126300000D03*
D25*
X149200000Y-62000000D03*
D24*
X146000000Y-78250000D03*
X196000000Y-116000000D03*
X131500000Y-66000000D03*
X206000000Y-91000000D03*
X171000000Y-60900000D03*
D25*
X147200000Y-62000000D03*
D24*
X143500000Y-43000000D03*
D25*
X160000000Y-86000000D03*
D24*
X167700000Y-112500000D03*
X217000000Y-71000000D03*
X176000000Y-74948451D03*
X145000000Y-109000000D03*
X211000000Y-106000000D03*
D25*
X154000000Y-78500000D03*
D24*
X201000000Y-116000000D03*
X181232000Y-116500000D03*
D25*
X153500000Y-84000000D03*
D24*
X179000000Y-64800000D03*
X211000000Y-66000000D03*
X131500000Y-76600000D03*
X145000000Y-106000000D03*
X163000000Y-60450000D03*
X158500000Y-58500000D03*
D25*
X149200000Y-59500000D03*
D24*
X217000000Y-111000000D03*
X176682000Y-126000000D03*
X189500000Y-109575000D03*
X186000000Y-97948451D03*
X171000000Y-97948451D03*
X165000000Y-96000000D03*
X176800000Y-51750000D03*
X131500000Y-94000000D03*
X138100000Y-101500000D03*
X193750000Y-125250000D03*
X163500000Y-93500000D03*
X206000000Y-76000000D03*
X157000000Y-109500000D03*
D25*
X153500000Y-80000000D03*
D24*
X175250000Y-72698451D03*
X201000000Y-106000000D03*
X193750000Y-124250000D03*
X206000000Y-116000000D03*
D25*
X158000000Y-86000000D03*
D24*
X211000000Y-91000000D03*
X148500000Y-46500000D03*
X196000000Y-61000000D03*
D25*
X148500000Y-64500000D03*
D24*
X154000000Y-41500000D03*
X181000000Y-92948451D03*
X175250000Y-67948451D03*
X145500000Y-93500000D03*
X196000000Y-101000000D03*
D25*
X149200000Y-57000000D03*
D24*
X189000000Y-103000000D03*
X168500000Y-65000000D03*
X144650000Y-49500000D03*
X190250000Y-71000000D03*
X188405000Y-46700000D03*
X139500000Y-90000000D03*
X168500000Y-70948451D03*
X138300000Y-63200000D03*
X178000000Y-72698451D03*
X162000000Y-114500000D03*
X196000000Y-81000000D03*
X148850000Y-49500000D03*
D25*
X147200000Y-59500000D03*
D24*
X211000000Y-71000000D03*
X156200000Y-71000000D03*
X217000000Y-121000000D03*
X211000000Y-76000000D03*
X146700000Y-54900000D03*
X193700000Y-126300000D03*
X133000000Y-121500000D03*
X189905000Y-47800000D03*
X133500000Y-48500000D03*
X192405000Y-51400000D03*
X138400000Y-54700000D03*
X131500000Y-82500000D03*
X201000000Y-56000000D03*
X176232000Y-120000000D03*
X131500000Y-52000000D03*
X193700000Y-115900000D03*
X181000000Y-107948451D03*
X171200000Y-111750000D03*
X163250000Y-111250000D03*
X206000000Y-61000000D03*
X206000000Y-101000000D03*
X201000000Y-81000000D03*
X156200000Y-72200000D03*
X171000000Y-102948451D03*
X166500000Y-111000000D03*
X140400000Y-60600000D03*
X176000000Y-97948451D03*
X181682000Y-128500000D03*
X176750000Y-50675000D03*
X189000000Y-90500000D03*
X172000000Y-115000000D03*
X144000000Y-112500000D03*
X171000000Y-121000000D03*
X179000000Y-65800000D03*
X206000000Y-81000000D03*
D25*
X147200000Y-57000000D03*
X161175000Y-63940000D03*
D24*
X167700000Y-111000000D03*
X211000000Y-121000000D03*
X192750000Y-125250000D03*
D25*
X152200000Y-63900000D03*
D24*
X196000000Y-111000000D03*
X188405000Y-49400000D03*
X217000000Y-51000000D03*
X184300000Y-51000000D03*
X162900000Y-53450000D03*
X172750000Y-72698451D03*
X189000000Y-98000000D03*
X143500000Y-46500000D03*
X173300000Y-116600000D03*
X142500000Y-108500000D03*
X206000000Y-127000000D03*
X154700000Y-60900000D03*
X166500000Y-112500000D03*
D25*
X151200000Y-115200000D03*
D24*
X196000000Y-127000000D03*
X163500000Y-127500000D03*
X178400000Y-51100000D03*
X150600000Y-67800000D03*
D25*
X153500000Y-86000000D03*
D24*
X164800000Y-68200000D03*
X155000000Y-53500000D03*
X211000000Y-101000000D03*
X161875000Y-66890000D03*
X162000000Y-119500000D03*
X157000000Y-114500000D03*
X211000000Y-61000000D03*
X186905000Y-47800000D03*
X153500000Y-127500000D03*
X181000000Y-102948451D03*
X158800000Y-78800000D03*
X185500000Y-72698451D03*
X201000000Y-96000000D03*
X171000000Y-92948451D03*
X176000000Y-87948451D03*
X134500000Y-108500000D03*
X159000000Y-41500000D03*
X201000000Y-86000000D03*
X164775000Y-71200000D03*
X201000000Y-61000000D03*
X186000000Y-87948451D03*
X190600000Y-62000000D03*
X192750000Y-124250000D03*
X168500000Y-105448451D03*
X158600000Y-72200000D03*
X172500000Y-127000000D03*
X146000000Y-88500000D03*
X211000000Y-81000000D03*
X208500000Y-49000000D03*
X186905000Y-46700000D03*
X181000000Y-97948451D03*
X148500000Y-43000000D03*
X192600000Y-65200000D03*
X166700000Y-41100000D03*
X217000000Y-61000000D03*
X137600000Y-127800000D03*
X196000000Y-96000000D03*
X164500000Y-41000000D03*
X140000000Y-65000000D03*
X141700000Y-103400000D03*
X196000000Y-86000000D03*
X217000000Y-116000000D03*
X208500000Y-47000000D03*
X176000000Y-82948451D03*
X180000000Y-41000000D03*
X178400000Y-52000000D03*
X138500000Y-46500000D03*
X157375000Y-71000000D03*
X163500000Y-56000000D03*
X191000000Y-92948451D03*
X156200000Y-69800000D03*
X143200000Y-58000000D03*
D25*
X160000000Y-84000000D03*
D24*
X201000000Y-71000000D03*
X142450000Y-49500000D03*
X146000000Y-83500000D03*
X133000000Y-112500000D03*
X192000000Y-71000000D03*
X211000000Y-116000000D03*
X176000000Y-102948451D03*
X176700000Y-55300000D03*
X158500000Y-53500000D03*
X217000000Y-91000000D03*
X208500000Y-51000000D03*
X181682000Y-126000000D03*
X171000000Y-77948451D03*
X201000000Y-91000000D03*
D25*
X153500000Y-82000000D03*
D24*
X173000000Y-121000000D03*
X206000000Y-66000000D03*
X170000000Y-41000000D03*
X189000000Y-87948451D03*
X163600000Y-90600000D03*
X131500000Y-88000000D03*
X164500000Y-56000000D03*
X217000000Y-86000000D03*
X186500000Y-111000000D03*
X211000000Y-86000000D03*
X146500000Y-127600000D03*
D25*
X160000000Y-82000000D03*
D24*
X155575000Y-78300000D03*
X217000000Y-76000000D03*
X163000000Y-123500000D03*
X143500000Y-53800000D03*
X139500000Y-75000000D03*
X188405000Y-50600000D03*
X206000000Y-71000000D03*
X182482000Y-118500000D03*
X142500000Y-98500000D03*
X172500000Y-123500000D03*
X164000000Y-56800000D03*
X185405000Y-46700000D03*
X186000000Y-107948451D03*
X157375000Y-69800000D03*
X158600000Y-71000000D03*
X146650000Y-49500000D03*
X196000000Y-106000000D03*
X191405000Y-46700000D03*
X187600000Y-52100000D03*
X210000000Y-41346359D03*
X186000000Y-82948451D03*
X181000000Y-77948451D03*
X201000000Y-66000000D03*
X157375000Y-72200000D03*
X163250000Y-112250000D03*
X190700000Y-126300000D03*
X183000000Y-72698451D03*
X162000000Y-124500000D03*
X157000000Y-119500000D03*
X171000000Y-74948451D03*
X169900000Y-50500000D03*
X192600000Y-64000000D03*
X201000000Y-111000000D03*
X181000000Y-82948451D03*
X163300000Y-76600000D03*
X191700000Y-126300000D03*
D25*
X159400000Y-80100000D03*
D24*
X187400000Y-63800000D03*
X190600000Y-63800000D03*
X211000000Y-56000000D03*
X162000000Y-109500000D03*
X176500000Y-65500000D03*
X176000000Y-77948451D03*
X133000000Y-99500000D03*
X217000000Y-81000000D03*
X135200000Y-63200000D03*
X217000000Y-101000000D03*
X188405000Y-47800000D03*
X147000000Y-76000000D03*
X150700000Y-72000000D03*
X201000000Y-76000000D03*
X185000000Y-41000000D03*
X131500000Y-57500000D03*
X176000000Y-92948451D03*
X176000000Y-107948451D03*
X217000000Y-96000000D03*
X157000000Y-124500000D03*
X201000000Y-127000000D03*
X145200000Y-63200000D03*
X164000000Y-55100000D03*
X138100000Y-100700000D03*
D25*
X156000000Y-86000000D03*
X151200000Y-108600000D03*
D24*
X186000000Y-102948451D03*
X196000000Y-91000000D03*
X133000000Y-103500000D03*
X217000000Y-56000000D03*
X143200000Y-59000000D03*
X181000000Y-87948451D03*
X140400000Y-59100000D03*
%TO.N,/Power/IN-*%
X165700000Y-50700000D03*
X183500000Y-67400000D03*
X178800000Y-63500000D03*
X161100000Y-52700000D03*
%TD*%
%TA.AperFunction,Conductor*%
%TO.N,+1V1*%
G36*
X157918039Y-63119685D02*
G01*
X157963794Y-63172489D01*
X157975000Y-63224000D01*
X157975000Y-65600000D01*
X162438681Y-70063681D01*
X162472166Y-70125004D01*
X162475000Y-70151362D01*
X162475000Y-72448638D01*
X162455315Y-72515677D01*
X162438681Y-72536319D01*
X158311319Y-76663681D01*
X158249996Y-76697166D01*
X158223638Y-76700000D01*
X157399000Y-76700000D01*
X157331961Y-76680315D01*
X157286206Y-76627511D01*
X157275000Y-76576000D01*
X157275000Y-73124000D01*
X157294685Y-73056961D01*
X157347489Y-73011206D01*
X157399000Y-73000000D01*
X159375000Y-73000000D01*
X159375000Y-69000000D01*
X155375000Y-69000000D01*
X155375000Y-70376000D01*
X155355315Y-70443039D01*
X155302511Y-70488794D01*
X155251000Y-70500000D01*
X152299000Y-70500000D01*
X152231961Y-70480315D01*
X152186206Y-70427511D01*
X152175000Y-70376000D01*
X152175000Y-69651362D01*
X152194685Y-69584323D01*
X152211319Y-69563681D01*
X153173871Y-68601128D01*
X153176130Y-68598927D01*
X156975000Y-64994872D01*
X156975000Y-63224000D01*
X156994685Y-63156961D01*
X157047489Y-63111206D01*
X157099000Y-63100000D01*
X157851000Y-63100000D01*
X157918039Y-63119685D01*
G37*
%TD.AperFunction*%
%TD*%
%TA.AperFunction,Conductor*%
%TO.N,GND*%
G36*
X215502855Y-40200632D02*
G01*
X215890991Y-40218576D01*
X215902381Y-40219632D01*
X216284363Y-40272916D01*
X216295607Y-40275018D01*
X216671043Y-40363320D01*
X216682033Y-40366447D01*
X217047732Y-40489017D01*
X217058399Y-40493150D01*
X217411212Y-40648932D01*
X217421465Y-40654037D01*
X217758382Y-40841699D01*
X217768120Y-40847728D01*
X218035848Y-41031126D01*
X218086303Y-41065688D01*
X218095443Y-41072591D01*
X218392143Y-41318968D01*
X218400607Y-41326684D01*
X218673315Y-41599392D01*
X218681031Y-41607856D01*
X218927408Y-41904556D01*
X218934311Y-41913696D01*
X219152271Y-42231879D01*
X219158300Y-42241617D01*
X219345962Y-42578534D01*
X219351067Y-42588787D01*
X219506849Y-42941600D01*
X219510987Y-42952280D01*
X219633548Y-43317953D01*
X219636682Y-43328969D01*
X219724979Y-43704384D01*
X219727084Y-43715643D01*
X219780366Y-44097611D01*
X219781423Y-44109016D01*
X219799366Y-44497143D01*
X219799498Y-44502869D01*
X219799496Y-125460113D01*
X219799496Y-125497124D01*
X219799364Y-125502851D01*
X219781419Y-125890980D01*
X219780362Y-125902384D01*
X219727080Y-126284352D01*
X219724975Y-126295611D01*
X219636679Y-126671027D01*
X219633545Y-126682043D01*
X219510984Y-127047715D01*
X219506847Y-127058395D01*
X219351065Y-127411209D01*
X219345959Y-127421462D01*
X219158297Y-127758379D01*
X219152268Y-127768117D01*
X218934308Y-128086300D01*
X218927405Y-128095440D01*
X218681028Y-128392141D01*
X218673312Y-128400605D01*
X218400605Y-128673312D01*
X218392141Y-128681028D01*
X218095440Y-128927405D01*
X218086300Y-128934308D01*
X217768117Y-129152268D01*
X217758379Y-129158297D01*
X217421462Y-129345959D01*
X217411209Y-129351065D01*
X217058395Y-129506847D01*
X217047715Y-129510984D01*
X216682043Y-129633545D01*
X216671027Y-129636679D01*
X216295611Y-129724975D01*
X216284352Y-129727080D01*
X215902384Y-129780362D01*
X215890980Y-129781419D01*
X215502851Y-129799364D01*
X215497124Y-129799496D01*
X145924000Y-129799496D01*
X145856961Y-129779811D01*
X145811206Y-129727007D01*
X145800000Y-129675496D01*
X145800000Y-127906379D01*
X168049500Y-127906379D01*
X168049500Y-128093620D01*
X168086025Y-128277243D01*
X168086027Y-128277251D01*
X168157676Y-128450228D01*
X168157681Y-128450237D01*
X168261697Y-128605907D01*
X168261700Y-128605911D01*
X168394088Y-128738299D01*
X168394092Y-128738302D01*
X168549762Y-128842318D01*
X168549768Y-128842321D01*
X168549769Y-128842322D01*
X168722749Y-128913973D01*
X168906379Y-128950499D01*
X168906383Y-128950500D01*
X168906384Y-128950500D01*
X169093617Y-128950500D01*
X169093618Y-128950499D01*
X169277251Y-128913973D01*
X169450231Y-128842322D01*
X169605908Y-128738302D01*
X169738302Y-128605908D01*
X169842322Y-128450231D01*
X169913973Y-128277251D01*
X169950500Y-128093616D01*
X169950500Y-127906384D01*
X169913973Y-127722749D01*
X169842322Y-127549769D01*
X169842321Y-127549768D01*
X169842318Y-127549762D01*
X169738302Y-127394092D01*
X169738299Y-127394088D01*
X169605911Y-127261700D01*
X169605907Y-127261697D01*
X169541999Y-127218995D01*
X173961499Y-127218995D01*
X173988418Y-127354322D01*
X173988421Y-127354332D01*
X174041221Y-127481804D01*
X174041228Y-127481817D01*
X174117885Y-127596541D01*
X174117888Y-127596545D01*
X174215454Y-127694111D01*
X174215458Y-127694114D01*
X174330182Y-127770771D01*
X174330195Y-127770778D01*
X174457667Y-127823578D01*
X174457672Y-127823580D01*
X174457676Y-127823580D01*
X174457677Y-127823581D01*
X174593004Y-127850500D01*
X174593007Y-127850500D01*
X174730995Y-127850500D01*
X174822041Y-127832389D01*
X174866328Y-127823580D01*
X174993811Y-127770775D01*
X175108542Y-127694114D01*
X175206114Y-127596542D01*
X175282775Y-127481811D01*
X175335580Y-127354328D01*
X175354005Y-127261700D01*
X175362500Y-127218995D01*
X182601499Y-127218995D01*
X182628418Y-127354322D01*
X182628421Y-127354332D01*
X182681221Y-127481804D01*
X182681228Y-127481817D01*
X182757885Y-127596541D01*
X182757888Y-127596545D01*
X182855454Y-127694111D01*
X182855458Y-127694114D01*
X182970182Y-127770771D01*
X182970195Y-127770778D01*
X183097667Y-127823578D01*
X183097672Y-127823580D01*
X183097676Y-127823580D01*
X183097677Y-127823581D01*
X183233004Y-127850500D01*
X183233007Y-127850500D01*
X183370995Y-127850500D01*
X183462041Y-127832389D01*
X183506328Y-127823580D01*
X183633811Y-127770775D01*
X183748542Y-127694114D01*
X183846114Y-127596542D01*
X183922775Y-127481811D01*
X183975580Y-127354328D01*
X183994005Y-127261700D01*
X184002500Y-127218995D01*
X184002500Y-126481004D01*
X183975581Y-126345677D01*
X183975580Y-126345676D01*
X183975580Y-126345672D01*
X183975578Y-126345667D01*
X183922778Y-126218195D01*
X183922771Y-126218182D01*
X183846114Y-126103458D01*
X183846111Y-126103454D01*
X183748545Y-126005888D01*
X183748541Y-126005885D01*
X183633817Y-125929228D01*
X183633804Y-125929221D01*
X183506332Y-125876421D01*
X183506322Y-125876418D01*
X183370995Y-125849500D01*
X183370993Y-125849500D01*
X183233007Y-125849500D01*
X183233005Y-125849500D01*
X183097677Y-125876418D01*
X183097667Y-125876421D01*
X182970195Y-125929221D01*
X182970182Y-125929228D01*
X182855458Y-126005885D01*
X182855454Y-126005888D01*
X182757888Y-126103454D01*
X182757885Y-126103458D01*
X182681228Y-126218182D01*
X182681221Y-126218195D01*
X182628421Y-126345667D01*
X182628418Y-126345677D01*
X182601500Y-126481004D01*
X182601500Y-126481007D01*
X182601500Y-127218993D01*
X182601500Y-127218995D01*
X182601499Y-127218995D01*
X175362500Y-127218995D01*
X175362500Y-126481004D01*
X175335581Y-126345677D01*
X175335580Y-126345676D01*
X175335580Y-126345672D01*
X175335578Y-126345667D01*
X175282778Y-126218195D01*
X175282771Y-126218182D01*
X175206114Y-126103458D01*
X175206111Y-126103454D01*
X175108545Y-126005888D01*
X175108541Y-126005885D01*
X174993817Y-125929228D01*
X174993804Y-125929221D01*
X174866332Y-125876421D01*
X174866322Y-125876418D01*
X174730995Y-125849500D01*
X174730993Y-125849500D01*
X174593007Y-125849500D01*
X174593005Y-125849500D01*
X174457677Y-125876418D01*
X174457667Y-125876421D01*
X174330195Y-125929221D01*
X174330182Y-125929228D01*
X174215458Y-126005885D01*
X174215454Y-126005888D01*
X174117888Y-126103454D01*
X174117885Y-126103458D01*
X174041228Y-126218182D01*
X174041221Y-126218195D01*
X173988421Y-126345667D01*
X173988418Y-126345677D01*
X173961500Y-126481004D01*
X173961500Y-126481007D01*
X173961500Y-127218993D01*
X173961500Y-127218995D01*
X173961499Y-127218995D01*
X169541999Y-127218995D01*
X169450237Y-127157681D01*
X169450228Y-127157676D01*
X169277251Y-127086027D01*
X169277243Y-127086025D01*
X169093620Y-127049500D01*
X169093616Y-127049500D01*
X168906384Y-127049500D01*
X168906379Y-127049500D01*
X168722756Y-127086025D01*
X168722748Y-127086027D01*
X168549771Y-127157676D01*
X168549762Y-127157681D01*
X168394092Y-127261697D01*
X168394088Y-127261700D01*
X168261700Y-127394088D01*
X168261697Y-127394092D01*
X168157681Y-127549762D01*
X168157676Y-127549771D01*
X168086027Y-127722748D01*
X168086025Y-127722756D01*
X168049500Y-127906379D01*
X145800000Y-127906379D01*
X145800000Y-126507176D01*
X145819685Y-126440137D01*
X145872489Y-126394382D01*
X145941647Y-126384438D01*
X146005203Y-126413463D01*
X146011681Y-126419495D01*
X146092686Y-126500500D01*
X146206814Y-126566392D01*
X146334108Y-126600500D01*
X146334110Y-126600500D01*
X146465890Y-126600500D01*
X146465892Y-126600500D01*
X146593186Y-126566392D01*
X146707314Y-126500500D01*
X146800500Y-126407314D01*
X146866392Y-126293186D01*
X146900500Y-126165892D01*
X146900500Y-126034108D01*
X146866392Y-125906814D01*
X146800500Y-125792686D01*
X146707314Y-125699500D01*
X146650250Y-125666554D01*
X146593187Y-125633608D01*
X146489803Y-125605907D01*
X146465892Y-125599500D01*
X146334108Y-125599500D01*
X146206812Y-125633608D01*
X146092686Y-125699500D01*
X146092683Y-125699502D01*
X146011681Y-125780505D01*
X145950358Y-125813990D01*
X145880666Y-125809006D01*
X145824733Y-125767134D01*
X145800316Y-125701670D01*
X145800000Y-125692824D01*
X145800000Y-125050000D01*
X145656379Y-124906379D01*
X168049500Y-124906379D01*
X168049500Y-125093620D01*
X168086025Y-125277243D01*
X168086027Y-125277251D01*
X168157676Y-125450228D01*
X168157681Y-125450237D01*
X168261697Y-125605907D01*
X168261700Y-125605911D01*
X168394088Y-125738299D01*
X168394092Y-125738302D01*
X168549762Y-125842318D01*
X168549768Y-125842321D01*
X168549769Y-125842322D01*
X168722749Y-125913973D01*
X168906379Y-125950499D01*
X168906383Y-125950500D01*
X168906384Y-125950500D01*
X169093617Y-125950500D01*
X169093618Y-125950499D01*
X169277251Y-125913973D01*
X169450231Y-125842322D01*
X169605908Y-125738302D01*
X169738302Y-125605908D01*
X169842322Y-125450231D01*
X169891506Y-125331491D01*
X212499500Y-125331491D01*
X212499500Y-125668508D01*
X212537231Y-126003381D01*
X212537233Y-126003397D01*
X212612223Y-126331953D01*
X212612227Y-126331965D01*
X212723532Y-126650054D01*
X212869752Y-126953683D01*
X212869754Y-126953686D01*
X213049054Y-127239039D01*
X213067124Y-127261698D01*
X213242662Y-127481817D01*
X213259175Y-127502523D01*
X213497477Y-127740825D01*
X213760961Y-127950946D01*
X214046314Y-128130246D01*
X214349949Y-128276469D01*
X214588848Y-128360063D01*
X214668034Y-128387772D01*
X214668046Y-128387776D01*
X214996606Y-128462767D01*
X215331492Y-128500499D01*
X215331493Y-128500500D01*
X215331496Y-128500500D01*
X215668507Y-128500500D01*
X215668507Y-128500499D01*
X216003394Y-128462767D01*
X216331954Y-128387776D01*
X216650051Y-128276469D01*
X216953686Y-128130246D01*
X217239039Y-127950946D01*
X217502523Y-127740825D01*
X217740825Y-127502523D01*
X217950946Y-127239039D01*
X218130246Y-126953686D01*
X218276469Y-126650051D01*
X218387776Y-126331954D01*
X218462767Y-126003394D01*
X218500500Y-125668504D01*
X218500500Y-125331496D01*
X218462767Y-124996606D01*
X218387776Y-124668046D01*
X218381636Y-124650500D01*
X218343152Y-124540517D01*
X218276469Y-124349949D01*
X218130246Y-124046314D01*
X217950946Y-123760961D01*
X217740825Y-123497477D01*
X217502523Y-123259175D01*
X217239039Y-123049054D01*
X216953686Y-122869754D01*
X216953683Y-122869752D01*
X216650054Y-122723532D01*
X216331965Y-122612227D01*
X216331953Y-122612223D01*
X216003397Y-122537233D01*
X216003381Y-122537231D01*
X215668508Y-122499500D01*
X215668504Y-122499500D01*
X215331496Y-122499500D01*
X215331491Y-122499500D01*
X214996618Y-122537231D01*
X214996602Y-122537233D01*
X214668046Y-122612223D01*
X214668034Y-122612227D01*
X214349945Y-122723532D01*
X214046316Y-122869752D01*
X213760962Y-123049053D01*
X213497477Y-123259174D01*
X213259174Y-123497477D01*
X213049053Y-123760962D01*
X212869752Y-124046316D01*
X212723532Y-124349945D01*
X212612227Y-124668034D01*
X212612223Y-124668046D01*
X212537233Y-124996602D01*
X212537231Y-124996618D01*
X212499500Y-125331491D01*
X169891506Y-125331491D01*
X169913973Y-125277251D01*
X169950500Y-125093616D01*
X169950500Y-124906384D01*
X169913973Y-124722749D01*
X169842322Y-124549769D01*
X169842321Y-124549768D01*
X169842318Y-124549762D01*
X169738302Y-124394092D01*
X169738299Y-124394088D01*
X169605911Y-124261700D01*
X169605907Y-124261697D01*
X169450237Y-124157681D01*
X169450228Y-124157676D01*
X169277251Y-124086027D01*
X169277243Y-124086025D01*
X169093620Y-124049500D01*
X169093616Y-124049500D01*
X168906384Y-124049500D01*
X168906379Y-124049500D01*
X168722756Y-124086025D01*
X168722748Y-124086027D01*
X168549771Y-124157676D01*
X168549762Y-124157681D01*
X168394092Y-124261697D01*
X168394088Y-124261700D01*
X168261700Y-124394088D01*
X168261697Y-124394092D01*
X168157681Y-124549762D01*
X168157676Y-124549771D01*
X168086027Y-124722748D01*
X168086025Y-124722756D01*
X168049500Y-124906379D01*
X145656379Y-124906379D01*
X144350000Y-123600000D01*
X139662500Y-123600000D01*
X139662499Y-123600000D01*
X138200000Y-125062499D01*
X138200000Y-129675496D01*
X138180315Y-129742535D01*
X138127511Y-129788290D01*
X138076000Y-129799496D01*
X134502872Y-129799496D01*
X134497145Y-129799364D01*
X134109015Y-129781419D01*
X134097611Y-129780362D01*
X133715643Y-129727080D01*
X133704384Y-129724975D01*
X133328969Y-129636678D01*
X133317953Y-129633544D01*
X132952272Y-129510980D01*
X132941592Y-129506842D01*
X132588796Y-129351067D01*
X132578548Y-129345964D01*
X132375212Y-129232707D01*
X132241618Y-129158295D01*
X132231880Y-129152266D01*
X131913698Y-128934307D01*
X131904558Y-128927404D01*
X131607857Y-128681027D01*
X131599393Y-128673311D01*
X131326687Y-128400604D01*
X131318971Y-128392140D01*
X131295774Y-128364205D01*
X131072591Y-128095435D01*
X131065690Y-128086298D01*
X131025741Y-128027980D01*
X130885725Y-127823581D01*
X130847731Y-127768116D01*
X130841702Y-127758378D01*
X130751561Y-127596545D01*
X130654028Y-127421440D01*
X130648936Y-127411213D01*
X130493150Y-127058390D01*
X130489022Y-127047736D01*
X130366450Y-126682029D01*
X130363323Y-126671039D01*
X130275021Y-126295603D01*
X130272918Y-126284352D01*
X130247684Y-126103454D01*
X130219636Y-125902377D01*
X130218580Y-125890980D01*
X130217907Y-125876418D01*
X130200634Y-125502829D01*
X130200503Y-125497187D01*
X130200503Y-125331491D01*
X131499500Y-125331491D01*
X131499500Y-125668508D01*
X131537231Y-126003381D01*
X131537233Y-126003397D01*
X131612223Y-126331953D01*
X131612227Y-126331965D01*
X131723532Y-126650054D01*
X131869752Y-126953683D01*
X131869754Y-126953686D01*
X132049054Y-127239039D01*
X132067124Y-127261698D01*
X132242662Y-127481817D01*
X132259175Y-127502523D01*
X132497477Y-127740825D01*
X132760961Y-127950946D01*
X133046314Y-128130246D01*
X133349949Y-128276469D01*
X133588848Y-128360063D01*
X133668034Y-128387772D01*
X133668046Y-128387776D01*
X133996606Y-128462767D01*
X134331492Y-128500499D01*
X134331493Y-128500500D01*
X134331496Y-128500500D01*
X134668507Y-128500500D01*
X134668507Y-128500499D01*
X135003394Y-128462767D01*
X135331954Y-128387776D01*
X135650051Y-128276469D01*
X135953686Y-128130246D01*
X136239039Y-127950946D01*
X136502523Y-127740825D01*
X136740825Y-127502523D01*
X136950946Y-127239039D01*
X137130246Y-126953686D01*
X137276469Y-126650051D01*
X137387776Y-126331954D01*
X137462767Y-126003394D01*
X137500500Y-125668504D01*
X137500500Y-125331496D01*
X137462767Y-124996606D01*
X137387776Y-124668046D01*
X137381636Y-124650500D01*
X137343152Y-124540517D01*
X137276469Y-124349949D01*
X137130246Y-124046314D01*
X136950946Y-123760961D01*
X136740825Y-123497477D01*
X136577456Y-123334108D01*
X147599500Y-123334108D01*
X147599500Y-123465892D01*
X147611985Y-123512486D01*
X147633608Y-123593187D01*
X147659481Y-123637999D01*
X147699500Y-123707314D01*
X147792686Y-123800500D01*
X147906814Y-123866392D01*
X148034108Y-123900500D01*
X148034110Y-123900500D01*
X148165890Y-123900500D01*
X148165892Y-123900500D01*
X148293186Y-123866392D01*
X148407314Y-123800500D01*
X148500500Y-123707314D01*
X148566392Y-123593186D01*
X148600500Y-123465892D01*
X148600500Y-123334108D01*
X148566392Y-123206814D01*
X148500500Y-123092686D01*
X148407314Y-122999500D01*
X148322442Y-122950499D01*
X148293187Y-122933608D01*
X148189777Y-122905900D01*
X148165892Y-122899500D01*
X148034108Y-122899500D01*
X147906812Y-122933608D01*
X147792686Y-122999500D01*
X147792683Y-122999502D01*
X147699502Y-123092683D01*
X147699500Y-123092686D01*
X147633608Y-123206812D01*
X147628058Y-123227527D01*
X147599500Y-123334108D01*
X136577456Y-123334108D01*
X136502523Y-123259175D01*
X136239039Y-123049054D01*
X135953686Y-122869754D01*
X135953683Y-122869752D01*
X135650054Y-122723532D01*
X135331965Y-122612227D01*
X135331953Y-122612223D01*
X135016784Y-122540289D01*
X135003398Y-122537233D01*
X135003381Y-122537231D01*
X134668508Y-122499500D01*
X134668504Y-122499500D01*
X134331496Y-122499500D01*
X134331491Y-122499500D01*
X133996618Y-122537231D01*
X133996602Y-122537233D01*
X133668046Y-122612223D01*
X133668034Y-122612227D01*
X133349945Y-122723532D01*
X133046316Y-122869752D01*
X132760962Y-123049053D01*
X132497477Y-123259174D01*
X132259174Y-123497477D01*
X132049053Y-123760962D01*
X131869752Y-124046316D01*
X131723532Y-124349945D01*
X131612227Y-124668034D01*
X131612223Y-124668046D01*
X131537233Y-124996602D01*
X131537231Y-124996618D01*
X131499500Y-125331491D01*
X130200503Y-125331491D01*
X130200503Y-122427525D01*
X149449500Y-122427525D01*
X149449500Y-122572475D01*
X149485631Y-122707316D01*
X149487017Y-122712488D01*
X149559488Y-122838011D01*
X149559490Y-122838013D01*
X149559491Y-122838015D01*
X149661985Y-122940509D01*
X149661986Y-122940510D01*
X149661988Y-122940511D01*
X149787511Y-123012982D01*
X149787512Y-123012982D01*
X149787515Y-123012984D01*
X149927525Y-123050500D01*
X149927528Y-123050500D01*
X150072472Y-123050500D01*
X150072475Y-123050500D01*
X150212485Y-123012984D01*
X150338015Y-122940509D01*
X150440509Y-122838015D01*
X150512984Y-122712485D01*
X150550500Y-122572475D01*
X150550500Y-122427525D01*
X153849500Y-122427525D01*
X153849500Y-122572475D01*
X153885631Y-122707316D01*
X153887017Y-122712488D01*
X153959482Y-122838000D01*
X153975955Y-122905900D01*
X153959482Y-122962000D01*
X153887017Y-123087511D01*
X153887016Y-123087515D01*
X153849500Y-123227525D01*
X153849500Y-123372475D01*
X153882995Y-123497477D01*
X153887017Y-123512488D01*
X153959482Y-123638000D01*
X153975955Y-123705900D01*
X153959482Y-123762000D01*
X153887017Y-123887511D01*
X153887016Y-123887515D01*
X153849500Y-124027525D01*
X153849500Y-124172475D01*
X153873408Y-124261698D01*
X153887017Y-124312488D01*
X153959488Y-124438011D01*
X153959490Y-124438013D01*
X153959491Y-124438015D01*
X154061985Y-124540509D01*
X154061986Y-124540510D01*
X154061988Y-124540511D01*
X154187511Y-124612982D01*
X154187512Y-124612982D01*
X154187515Y-124612984D01*
X154327525Y-124650500D01*
X154327528Y-124650500D01*
X154472472Y-124650500D01*
X154472475Y-124650500D01*
X154612485Y-124612984D01*
X154738002Y-124540516D01*
X154805899Y-124524044D01*
X154861996Y-124540515D01*
X154987515Y-124612984D01*
X155127525Y-124650500D01*
X155127528Y-124650500D01*
X155272472Y-124650500D01*
X155272475Y-124650500D01*
X155412485Y-124612984D01*
X155538015Y-124540509D01*
X155640509Y-124438015D01*
X155712984Y-124312485D01*
X155750500Y-124172475D01*
X155750500Y-124027525D01*
X155712984Y-123887515D01*
X155640516Y-123761997D01*
X155624044Y-123694101D01*
X155640515Y-123638003D01*
X155712984Y-123512485D01*
X155750500Y-123372475D01*
X155750500Y-123288995D01*
X173961499Y-123288995D01*
X173988418Y-123424322D01*
X173988421Y-123424332D01*
X174041221Y-123551804D01*
X174041228Y-123551817D01*
X174117885Y-123666541D01*
X174117888Y-123666545D01*
X174215454Y-123764111D01*
X174215458Y-123764114D01*
X174330182Y-123840771D01*
X174330195Y-123840778D01*
X174457667Y-123893578D01*
X174457672Y-123893580D01*
X174457676Y-123893580D01*
X174457677Y-123893581D01*
X174593004Y-123920500D01*
X174593007Y-123920500D01*
X174730995Y-123920500D01*
X174831544Y-123900499D01*
X174866328Y-123893580D01*
X174993811Y-123840775D01*
X175108542Y-123764114D01*
X175206114Y-123666542D01*
X175282775Y-123551811D01*
X175335580Y-123424328D01*
X175362500Y-123288993D01*
X175362500Y-123143982D01*
X175666500Y-123143982D01*
X175666500Y-123256018D01*
X175695497Y-123364237D01*
X175751515Y-123461263D01*
X175830737Y-123540485D01*
X175927763Y-123596503D01*
X176035982Y-123625500D01*
X176035984Y-123625500D01*
X176148016Y-123625500D01*
X176148018Y-123625500D01*
X176256237Y-123596503D01*
X176353263Y-123540485D01*
X176432485Y-123461263D01*
X176488503Y-123364237D01*
X176517500Y-123256018D01*
X176517500Y-123143982D01*
X181446500Y-123143982D01*
X181446500Y-123256018D01*
X181475497Y-123364237D01*
X181531515Y-123461263D01*
X181610737Y-123540485D01*
X181707763Y-123596503D01*
X181815982Y-123625500D01*
X181815984Y-123625500D01*
X181928016Y-123625500D01*
X181928018Y-123625500D01*
X182036237Y-123596503D01*
X182133263Y-123540485D01*
X182212485Y-123461263D01*
X182268503Y-123364237D01*
X182288664Y-123288995D01*
X182601499Y-123288995D01*
X182628418Y-123424322D01*
X182628421Y-123424332D01*
X182681221Y-123551804D01*
X182681228Y-123551817D01*
X182757885Y-123666541D01*
X182757888Y-123666545D01*
X182855454Y-123764111D01*
X182855458Y-123764114D01*
X182970182Y-123840771D01*
X182970195Y-123840778D01*
X183097667Y-123893578D01*
X183097672Y-123893580D01*
X183097676Y-123893580D01*
X183097677Y-123893581D01*
X183233004Y-123920500D01*
X183233007Y-123920500D01*
X183370995Y-123920500D01*
X183471544Y-123900499D01*
X183506328Y-123893580D01*
X183633811Y-123840775D01*
X183748542Y-123764114D01*
X183846114Y-123666542D01*
X183922775Y-123551811D01*
X183975580Y-123424328D01*
X184002500Y-123288993D01*
X184002500Y-122334108D01*
X192099500Y-122334108D01*
X192099500Y-122465891D01*
X192133608Y-122593187D01*
X192144601Y-122612227D01*
X192199500Y-122707314D01*
X192292686Y-122800500D01*
X192406814Y-122866392D01*
X192534108Y-122900500D01*
X192534110Y-122900500D01*
X192665890Y-122900500D01*
X192665892Y-122900500D01*
X192793186Y-122866392D01*
X192907314Y-122800500D01*
X193000500Y-122707314D01*
X193066392Y-122593186D01*
X193100500Y-122465892D01*
X193100500Y-122334108D01*
X193066392Y-122206814D01*
X193000500Y-122092686D01*
X192907314Y-121999500D01*
X192820712Y-121949500D01*
X192793187Y-121933608D01*
X192726229Y-121915667D01*
X192665892Y-121899500D01*
X192534108Y-121899500D01*
X192406812Y-121933608D01*
X192292686Y-121999500D01*
X192292683Y-121999502D01*
X192199502Y-122092683D01*
X192199500Y-122092686D01*
X192133608Y-122206812D01*
X192099500Y-122334108D01*
X184002500Y-122334108D01*
X184002500Y-122051007D01*
X184002500Y-122051004D01*
X183975581Y-121915677D01*
X183975580Y-121915676D01*
X183975580Y-121915672D01*
X183938593Y-121826377D01*
X183922778Y-121788195D01*
X183922771Y-121788182D01*
X183846114Y-121673458D01*
X183846111Y-121673454D01*
X183748545Y-121575888D01*
X183748541Y-121575885D01*
X183633817Y-121499228D01*
X183633804Y-121499221D01*
X183506332Y-121446421D01*
X183506322Y-121446418D01*
X183370995Y-121419500D01*
X183370993Y-121419500D01*
X183233007Y-121419500D01*
X183233005Y-121419500D01*
X183097677Y-121446418D01*
X183097667Y-121446421D01*
X182970195Y-121499221D01*
X182970182Y-121499228D01*
X182855458Y-121575885D01*
X182855454Y-121575888D01*
X182757888Y-121673454D01*
X182757885Y-121673458D01*
X182681228Y-121788182D01*
X182681221Y-121788195D01*
X182628421Y-121915667D01*
X182628418Y-121915677D01*
X182601500Y-122051004D01*
X182601500Y-122051007D01*
X182601500Y-123288993D01*
X182601500Y-123288995D01*
X182601499Y-123288995D01*
X182288664Y-123288995D01*
X182297500Y-123256018D01*
X182297500Y-123143982D01*
X182268503Y-123035763D01*
X182212485Y-122938737D01*
X182133263Y-122859515D01*
X182036237Y-122803497D01*
X181928018Y-122774500D01*
X181815982Y-122774500D01*
X181707763Y-122803497D01*
X181707760Y-122803498D01*
X181610740Y-122859513D01*
X181610734Y-122859517D01*
X181531517Y-122938734D01*
X181531513Y-122938740D01*
X181475498Y-123035760D01*
X181475497Y-123035763D01*
X181446500Y-123143982D01*
X176517500Y-123143982D01*
X176488503Y-123035763D01*
X176432485Y-122938737D01*
X176353263Y-122859515D01*
X176256237Y-122803497D01*
X176148018Y-122774500D01*
X176035982Y-122774500D01*
X175927763Y-122803497D01*
X175927760Y-122803498D01*
X175830740Y-122859513D01*
X175830734Y-122859517D01*
X175751517Y-122938734D01*
X175751513Y-122938740D01*
X175695498Y-123035760D01*
X175695497Y-123035763D01*
X175666500Y-123143982D01*
X175362500Y-123143982D01*
X175362500Y-122051007D01*
X175362500Y-122051004D01*
X175335581Y-121915677D01*
X175335580Y-121915676D01*
X175335580Y-121915672D01*
X175298593Y-121826377D01*
X175282778Y-121788195D01*
X175282771Y-121788182D01*
X175206114Y-121673458D01*
X175206111Y-121673454D01*
X175108545Y-121575888D01*
X175108541Y-121575885D01*
X174993817Y-121499228D01*
X174993804Y-121499221D01*
X174866332Y-121446421D01*
X174866322Y-121446418D01*
X174730995Y-121419500D01*
X174730993Y-121419500D01*
X174593007Y-121419500D01*
X174593005Y-121419500D01*
X174457677Y-121446418D01*
X174457667Y-121446421D01*
X174330195Y-121499221D01*
X174330182Y-121499228D01*
X174215458Y-121575885D01*
X174215454Y-121575888D01*
X174117888Y-121673454D01*
X174117885Y-121673458D01*
X174041228Y-121788182D01*
X174041221Y-121788195D01*
X173988421Y-121915667D01*
X173988418Y-121915677D01*
X173961500Y-122051004D01*
X173961500Y-122051007D01*
X173961500Y-123288993D01*
X173961500Y-123288995D01*
X173961499Y-123288995D01*
X155750500Y-123288995D01*
X155750500Y-123227525D01*
X155712984Y-123087515D01*
X155640516Y-122961997D01*
X155624044Y-122894101D01*
X155640515Y-122838003D01*
X155712984Y-122712485D01*
X155750500Y-122572475D01*
X155750500Y-122427525D01*
X155712984Y-122287515D01*
X155707053Y-122277243D01*
X155640511Y-122161988D01*
X155640506Y-122161982D01*
X155538017Y-122059493D01*
X155538015Y-122059491D01*
X155448273Y-122007678D01*
X155448272Y-122007677D01*
X155412488Y-121987017D01*
X155412489Y-121987017D01*
X155401006Y-121983940D01*
X155272475Y-121949500D01*
X155127525Y-121949500D01*
X154998993Y-121983940D01*
X154987511Y-121987017D01*
X154862000Y-122059482D01*
X154794100Y-122075955D01*
X154738000Y-122059482D01*
X154612488Y-121987017D01*
X154612489Y-121987017D01*
X154601006Y-121983940D01*
X154472475Y-121949500D01*
X154327525Y-121949500D01*
X154198993Y-121983940D01*
X154187511Y-121987017D01*
X154061988Y-122059488D01*
X154061982Y-122059493D01*
X153959493Y-122161982D01*
X153959488Y-122161988D01*
X153887017Y-122287511D01*
X153887016Y-122287515D01*
X153849500Y-122427525D01*
X150550500Y-122427525D01*
X150512984Y-122287515D01*
X150507053Y-122277243D01*
X150440511Y-122161988D01*
X150440506Y-122161982D01*
X150338017Y-122059493D01*
X150338011Y-122059488D01*
X150212488Y-121987017D01*
X150212489Y-121987017D01*
X150201006Y-121983940D01*
X150072475Y-121949500D01*
X149927525Y-121949500D01*
X149798993Y-121983940D01*
X149787511Y-121987017D01*
X149661988Y-122059488D01*
X149661982Y-122059493D01*
X149559493Y-122161982D01*
X149559488Y-122161988D01*
X149487017Y-122287511D01*
X149487016Y-122287515D01*
X149449500Y-122427525D01*
X130200503Y-122427525D01*
X130200503Y-121906379D01*
X168049500Y-121906379D01*
X168049500Y-122093620D01*
X168086025Y-122277243D01*
X168086027Y-122277251D01*
X168157676Y-122450228D01*
X168157681Y-122450237D01*
X168261697Y-122605907D01*
X168261700Y-122605911D01*
X168394088Y-122738299D01*
X168394092Y-122738302D01*
X168549762Y-122842318D01*
X168549768Y-122842321D01*
X168549769Y-122842322D01*
X168722749Y-122913973D01*
X168856166Y-122940511D01*
X168906379Y-122950499D01*
X168906383Y-122950500D01*
X168906384Y-122950500D01*
X169093617Y-122950500D01*
X169093618Y-122950499D01*
X169277251Y-122913973D01*
X169450231Y-122842322D01*
X169605908Y-122738302D01*
X169738302Y-122605908D01*
X169842322Y-122450231D01*
X169913973Y-122277251D01*
X169950500Y-122093616D01*
X169950500Y-121906384D01*
X169913973Y-121722749D01*
X169842322Y-121549769D01*
X169842321Y-121549768D01*
X169842318Y-121549762D01*
X169738302Y-121394092D01*
X169738299Y-121394088D01*
X169605911Y-121261700D01*
X169605907Y-121261697D01*
X169450237Y-121157681D01*
X169450228Y-121157676D01*
X169277251Y-121086027D01*
X169277243Y-121086025D01*
X169093620Y-121049500D01*
X169093616Y-121049500D01*
X168906384Y-121049500D01*
X168906379Y-121049500D01*
X168722756Y-121086025D01*
X168722748Y-121086027D01*
X168549771Y-121157676D01*
X168549762Y-121157681D01*
X168394092Y-121261697D01*
X168394088Y-121261700D01*
X168261700Y-121394088D01*
X168261697Y-121394092D01*
X168157681Y-121549762D01*
X168157676Y-121549771D01*
X168086027Y-121722748D01*
X168086025Y-121722756D01*
X168049500Y-121906379D01*
X130200503Y-121906379D01*
X130200503Y-120605837D01*
X201549500Y-120605837D01*
X201549500Y-120834162D01*
X201585215Y-121059660D01*
X201655770Y-121276803D01*
X201759421Y-121480228D01*
X201893621Y-121664937D01*
X202055063Y-121826379D01*
X202239772Y-121960579D01*
X202291658Y-121987016D01*
X202443196Y-122064229D01*
X202443198Y-122064229D01*
X202443201Y-122064231D01*
X202533651Y-122093620D01*
X202660339Y-122134784D01*
X202885838Y-122170500D01*
X202885843Y-122170500D01*
X204114162Y-122170500D01*
X204339660Y-122134784D01*
X204556799Y-122064231D01*
X204760228Y-121960579D01*
X204944937Y-121826379D01*
X205106379Y-121664937D01*
X205240579Y-121480228D01*
X205344231Y-121276799D01*
X205414784Y-121059660D01*
X205416393Y-121049500D01*
X205450500Y-120834162D01*
X205450500Y-120605837D01*
X205414784Y-120380339D01*
X205344229Y-120163196D01*
X205240578Y-119959771D01*
X205106379Y-119775063D01*
X204944937Y-119613621D01*
X204760228Y-119479421D01*
X204741061Y-119469655D01*
X204556803Y-119375770D01*
X204339660Y-119305215D01*
X204114162Y-119269500D01*
X204114157Y-119269500D01*
X202885843Y-119269500D01*
X202885838Y-119269500D01*
X202660339Y-119305215D01*
X202443196Y-119375770D01*
X202239771Y-119479421D01*
X202055061Y-119613622D01*
X201893622Y-119775061D01*
X201759421Y-119959771D01*
X201655770Y-120163196D01*
X201585215Y-120380339D01*
X201549500Y-120605837D01*
X130200503Y-120605837D01*
X130200503Y-118696530D01*
X139869500Y-118696530D01*
X139869500Y-118903469D01*
X139909868Y-119106412D01*
X139909870Y-119106420D01*
X139989059Y-119297598D01*
X140046541Y-119383626D01*
X140104024Y-119469657D01*
X140250342Y-119615975D01*
X140250345Y-119615977D01*
X140422402Y-119730941D01*
X140613580Y-119810130D01*
X140758052Y-119838867D01*
X140816530Y-119850499D01*
X140816534Y-119850500D01*
X140816535Y-119850500D01*
X141023466Y-119850500D01*
X141023467Y-119850499D01*
X141226420Y-119810130D01*
X141417598Y-119730941D01*
X141589655Y-119615977D01*
X141735977Y-119469655D01*
X141850941Y-119297598D01*
X141930130Y-119106420D01*
X141970500Y-118903465D01*
X141970500Y-118696535D01*
X141970499Y-118696530D01*
X142409500Y-118696530D01*
X142409500Y-118903469D01*
X142449868Y-119106412D01*
X142449870Y-119106420D01*
X142529059Y-119297598D01*
X142586541Y-119383626D01*
X142644024Y-119469657D01*
X142790342Y-119615975D01*
X142790345Y-119615977D01*
X142962402Y-119730941D01*
X143153580Y-119810130D01*
X143298052Y-119838867D01*
X143356530Y-119850499D01*
X143356534Y-119850500D01*
X143356535Y-119850500D01*
X143563466Y-119850500D01*
X143563467Y-119850499D01*
X143766420Y-119810130D01*
X143957598Y-119730941D01*
X144129655Y-119615977D01*
X144275977Y-119469655D01*
X144390941Y-119297598D01*
X144470130Y-119106420D01*
X144510500Y-118903465D01*
X144510500Y-118696535D01*
X144470130Y-118493580D01*
X144390941Y-118302402D01*
X144275977Y-118130345D01*
X144275975Y-118130342D01*
X144129657Y-117984024D01*
X144049173Y-117930247D01*
X144949500Y-117930247D01*
X144949500Y-119669752D01*
X144961131Y-119728229D01*
X144961132Y-119728230D01*
X145005447Y-119794552D01*
X145071769Y-119838867D01*
X145071770Y-119838868D01*
X145130247Y-119850499D01*
X145130250Y-119850500D01*
X145130252Y-119850500D01*
X146869750Y-119850500D01*
X146869751Y-119850499D01*
X146884568Y-119847552D01*
X146928229Y-119838868D01*
X146928229Y-119838867D01*
X146928231Y-119838867D01*
X146994552Y-119794552D01*
X147038867Y-119728231D01*
X147038867Y-119728229D01*
X147038868Y-119728229D01*
X147050499Y-119669752D01*
X147050500Y-119669750D01*
X147050500Y-117930249D01*
X147050499Y-117930247D01*
X147038868Y-117871770D01*
X147038867Y-117871769D01*
X146994552Y-117805447D01*
X146928230Y-117761132D01*
X146928229Y-117761131D01*
X146869752Y-117749500D01*
X146869748Y-117749500D01*
X145130252Y-117749500D01*
X145130247Y-117749500D01*
X145071770Y-117761131D01*
X145071769Y-117761132D01*
X145005447Y-117805447D01*
X144961132Y-117871769D01*
X144961131Y-117871770D01*
X144949500Y-117930247D01*
X144049173Y-117930247D01*
X143961655Y-117871770D01*
X143957598Y-117869059D01*
X143766420Y-117789870D01*
X143766412Y-117789868D01*
X143563469Y-117749500D01*
X143563465Y-117749500D01*
X143356535Y-117749500D01*
X143356530Y-117749500D01*
X143153587Y-117789868D01*
X143153579Y-117789870D01*
X142962403Y-117869058D01*
X142790342Y-117984024D01*
X142644024Y-118130342D01*
X142529058Y-118302403D01*
X142449870Y-118493579D01*
X142449868Y-118493587D01*
X142409500Y-118696530D01*
X141970499Y-118696530D01*
X141930130Y-118493580D01*
X141850941Y-118302402D01*
X141735977Y-118130345D01*
X141735975Y-118130342D01*
X141589657Y-117984024D01*
X141421655Y-117871770D01*
X141417598Y-117869059D01*
X141226420Y-117789870D01*
X141226412Y-117789868D01*
X141023469Y-117749500D01*
X141023465Y-117749500D01*
X140816535Y-117749500D01*
X140816530Y-117749500D01*
X140613587Y-117789868D01*
X140613579Y-117789870D01*
X140422403Y-117869058D01*
X140250342Y-117984024D01*
X140104024Y-118130342D01*
X139989058Y-118302403D01*
X139909870Y-118493579D01*
X139909868Y-118493587D01*
X139869500Y-118696530D01*
X130200503Y-118696530D01*
X130200503Y-115355247D01*
X132449500Y-115355247D01*
X132449500Y-117094752D01*
X132461131Y-117153229D01*
X132461132Y-117153230D01*
X132505447Y-117219552D01*
X132571769Y-117263867D01*
X132571770Y-117263868D01*
X132630247Y-117275499D01*
X132630250Y-117275500D01*
X132630252Y-117275500D01*
X134369750Y-117275500D01*
X134369751Y-117275499D01*
X134384568Y-117272552D01*
X134428229Y-117263868D01*
X134428229Y-117263867D01*
X134428231Y-117263867D01*
X134494552Y-117219552D01*
X134538867Y-117153231D01*
X134538867Y-117153229D01*
X134538868Y-117153229D01*
X134550499Y-117094752D01*
X134550500Y-117094750D01*
X134550500Y-116334108D01*
X152699500Y-116334108D01*
X152699500Y-116465891D01*
X152733608Y-116593187D01*
X152766554Y-116650250D01*
X152799500Y-116707314D01*
X152892686Y-116800500D01*
X153006814Y-116866392D01*
X153134108Y-116900500D01*
X153134110Y-116900500D01*
X153265890Y-116900500D01*
X153265892Y-116900500D01*
X153393186Y-116866392D01*
X153507314Y-116800500D01*
X153600500Y-116707314D01*
X153666392Y-116593186D01*
X153700500Y-116465892D01*
X153700500Y-116334108D01*
X153666392Y-116206814D01*
X153600500Y-116092686D01*
X153507314Y-115999500D01*
X153450250Y-115966554D01*
X153393187Y-115933608D01*
X153329539Y-115916554D01*
X153265892Y-115899500D01*
X153134108Y-115899500D01*
X153006812Y-115933608D01*
X152892686Y-115999500D01*
X152892683Y-115999502D01*
X152799502Y-116092683D01*
X152799500Y-116092686D01*
X152733608Y-116206812D01*
X152699500Y-116334108D01*
X134550500Y-116334108D01*
X134550500Y-115355249D01*
X134550499Y-115355247D01*
X134538868Y-115296770D01*
X134538867Y-115296769D01*
X134494552Y-115230447D01*
X134428230Y-115186132D01*
X134428229Y-115186131D01*
X134369752Y-115174500D01*
X134369748Y-115174500D01*
X132630252Y-115174500D01*
X132630247Y-115174500D01*
X132571770Y-115186131D01*
X132571769Y-115186132D01*
X132505447Y-115230447D01*
X132461132Y-115296769D01*
X132461131Y-115296770D01*
X132449500Y-115355247D01*
X130200503Y-115355247D01*
X130200503Y-115034108D01*
X139099500Y-115034108D01*
X139099500Y-115165892D01*
X139104923Y-115186131D01*
X139133608Y-115293187D01*
X139135677Y-115296770D01*
X139199500Y-115407314D01*
X139292686Y-115500500D01*
X139406814Y-115566392D01*
X139534108Y-115600500D01*
X139534110Y-115600500D01*
X139665890Y-115600500D01*
X139665892Y-115600500D01*
X139793186Y-115566392D01*
X139907314Y-115500500D01*
X140000500Y-115407314D01*
X140066392Y-115293186D01*
X140100500Y-115165892D01*
X140100500Y-115034108D01*
X190199500Y-115034108D01*
X190199500Y-115165892D01*
X190204923Y-115186131D01*
X190233608Y-115293187D01*
X190235677Y-115296770D01*
X190299500Y-115407314D01*
X190392686Y-115500500D01*
X190506814Y-115566392D01*
X190634108Y-115600500D01*
X190634110Y-115600500D01*
X190765890Y-115600500D01*
X190765892Y-115600500D01*
X190893186Y-115566392D01*
X191007314Y-115500500D01*
X191100500Y-115407314D01*
X191166392Y-115293186D01*
X191200500Y-115165892D01*
X191200500Y-115034108D01*
X191166392Y-114906814D01*
X191100500Y-114792686D01*
X191007314Y-114699500D01*
X190950250Y-114666554D01*
X190893187Y-114633608D01*
X190829539Y-114616554D01*
X190765892Y-114599500D01*
X190634108Y-114599500D01*
X190506812Y-114633608D01*
X190392686Y-114699500D01*
X190392683Y-114699502D01*
X190299502Y-114792683D01*
X190299500Y-114792686D01*
X190233608Y-114906812D01*
X190199500Y-115034108D01*
X140100500Y-115034108D01*
X140066392Y-114906814D01*
X140000500Y-114792686D01*
X139907314Y-114699500D01*
X139850250Y-114666554D01*
X139793187Y-114633608D01*
X139729539Y-114616554D01*
X139665892Y-114599500D01*
X139534108Y-114599500D01*
X139406812Y-114633608D01*
X139292686Y-114699500D01*
X139292683Y-114699502D01*
X139199502Y-114792683D01*
X139199500Y-114792686D01*
X139133608Y-114906812D01*
X139099500Y-115034108D01*
X130200503Y-115034108D01*
X130200503Y-112906379D01*
X134049500Y-112906379D01*
X134049500Y-113093620D01*
X134086025Y-113277243D01*
X134086027Y-113277251D01*
X134157676Y-113450228D01*
X134157681Y-113450237D01*
X134261697Y-113605907D01*
X134261700Y-113605911D01*
X134394088Y-113738299D01*
X134394092Y-113738302D01*
X134549762Y-113842318D01*
X134549768Y-113842321D01*
X134549769Y-113842322D01*
X134722749Y-113913973D01*
X134906379Y-113950499D01*
X134906383Y-113950500D01*
X134906384Y-113950500D01*
X135093617Y-113950500D01*
X135093618Y-113950499D01*
X135277251Y-113913973D01*
X135450231Y-113842322D01*
X135605908Y-113738302D01*
X135738302Y-113605908D01*
X135842322Y-113450231D01*
X135913973Y-113277251D01*
X135950500Y-113093616D01*
X135950500Y-112906384D01*
X135913973Y-112722749D01*
X135842322Y-112549769D01*
X135842321Y-112549768D01*
X135842318Y-112549762D01*
X135788477Y-112469183D01*
X135746512Y-112406379D01*
X145799500Y-112406379D01*
X145799500Y-112593620D01*
X145836025Y-112777243D01*
X145836027Y-112777251D01*
X145907676Y-112950228D01*
X145907681Y-112950237D01*
X146011697Y-113105907D01*
X146011700Y-113105911D01*
X146144088Y-113238299D01*
X146144092Y-113238302D01*
X146299762Y-113342318D01*
X146299768Y-113342321D01*
X146299769Y-113342322D01*
X146472749Y-113413973D01*
X146655017Y-113450228D01*
X146656379Y-113450499D01*
X146656383Y-113450500D01*
X146656384Y-113450500D01*
X146843617Y-113450500D01*
X146843618Y-113450499D01*
X147027251Y-113413973D01*
X147200231Y-113342322D01*
X147355908Y-113238302D01*
X147488302Y-113105908D01*
X147592322Y-112950231D01*
X147663973Y-112777251D01*
X147700500Y-112593616D01*
X147700500Y-112478711D01*
X209649500Y-112478711D01*
X209649500Y-112721288D01*
X209681161Y-112961785D01*
X209743947Y-113196104D01*
X209804511Y-113342318D01*
X209836776Y-113420212D01*
X209958064Y-113630289D01*
X209958066Y-113630292D01*
X209958067Y-113630293D01*
X210105733Y-113822736D01*
X210105739Y-113822743D01*
X210277256Y-113994260D01*
X210277262Y-113994265D01*
X210469711Y-114141936D01*
X210679788Y-114263224D01*
X210903900Y-114356054D01*
X211138211Y-114418838D01*
X211318586Y-114442584D01*
X211378711Y-114450500D01*
X211378712Y-114450500D01*
X211621289Y-114450500D01*
X211669388Y-114444167D01*
X211861789Y-114418838D01*
X212096100Y-114356054D01*
X212320212Y-114263224D01*
X212530289Y-114141936D01*
X212722738Y-113994265D01*
X212894265Y-113822738D01*
X213041936Y-113630289D01*
X213163224Y-113420212D01*
X213256054Y-113196100D01*
X213318838Y-112961789D01*
X213350500Y-112721288D01*
X213350500Y-112478712D01*
X213318838Y-112238211D01*
X213256054Y-112003900D01*
X213163224Y-111779788D01*
X213041936Y-111569711D01*
X212981018Y-111490321D01*
X212894266Y-111377263D01*
X212894260Y-111377256D01*
X212722743Y-111205739D01*
X212722736Y-111205733D01*
X212530293Y-111058067D01*
X212530292Y-111058066D01*
X212530289Y-111058064D01*
X212320212Y-110936776D01*
X212320205Y-110936773D01*
X212096104Y-110843947D01*
X211861785Y-110781161D01*
X211621289Y-110749500D01*
X211621288Y-110749500D01*
X211378712Y-110749500D01*
X211378711Y-110749500D01*
X211138214Y-110781161D01*
X210903895Y-110843947D01*
X210679794Y-110936773D01*
X210679785Y-110936777D01*
X210469706Y-111058067D01*
X210277263Y-111205733D01*
X210277256Y-111205739D01*
X210105739Y-111377256D01*
X210105733Y-111377263D01*
X209958067Y-111569706D01*
X209836777Y-111779785D01*
X209836773Y-111779794D01*
X209743947Y-112003895D01*
X209681161Y-112238214D01*
X209649500Y-112478711D01*
X147700500Y-112478711D01*
X147700500Y-112406384D01*
X147663973Y-112222749D01*
X147592322Y-112049769D01*
X147592321Y-112049768D01*
X147592318Y-112049762D01*
X147488302Y-111894092D01*
X147488299Y-111894088D01*
X147355911Y-111761700D01*
X147355907Y-111761697D01*
X147314617Y-111734108D01*
X150699500Y-111734108D01*
X150699500Y-111865891D01*
X150733608Y-111993187D01*
X150766121Y-112049500D01*
X150799500Y-112107314D01*
X150892686Y-112200500D01*
X151006814Y-112266392D01*
X151134108Y-112300500D01*
X151134110Y-112300500D01*
X151265890Y-112300500D01*
X151265892Y-112300500D01*
X151393186Y-112266392D01*
X151507314Y-112200500D01*
X151600500Y-112107314D01*
X151666392Y-111993186D01*
X151700500Y-111865892D01*
X151700500Y-111734108D01*
X151666392Y-111606814D01*
X151600500Y-111492686D01*
X151507314Y-111399500D01*
X151450250Y-111366554D01*
X151393187Y-111333608D01*
X151329539Y-111316554D01*
X151265892Y-111299500D01*
X151134108Y-111299500D01*
X151006812Y-111333608D01*
X150892686Y-111399500D01*
X150892683Y-111399502D01*
X150799502Y-111492683D01*
X150799500Y-111492686D01*
X150733608Y-111606812D01*
X150699500Y-111734108D01*
X147314617Y-111734108D01*
X147200237Y-111657681D01*
X147200228Y-111657676D01*
X147027251Y-111586027D01*
X147027243Y-111586025D01*
X146843620Y-111549500D01*
X146843616Y-111549500D01*
X146656384Y-111549500D01*
X146656379Y-111549500D01*
X146472756Y-111586025D01*
X146472748Y-111586027D01*
X146299771Y-111657676D01*
X146299762Y-111657681D01*
X146144092Y-111761697D01*
X146144088Y-111761700D01*
X146011700Y-111894088D01*
X146011697Y-111894092D01*
X145907681Y-112049762D01*
X145907676Y-112049771D01*
X145836027Y-112222748D01*
X145836025Y-112222756D01*
X145799500Y-112406379D01*
X135746512Y-112406379D01*
X135738302Y-112394092D01*
X135738299Y-112394088D01*
X135605911Y-112261700D01*
X135605907Y-112261697D01*
X135450237Y-112157681D01*
X135450228Y-112157676D01*
X135277251Y-112086027D01*
X135277243Y-112086025D01*
X135093620Y-112049500D01*
X135093616Y-112049500D01*
X134906384Y-112049500D01*
X134906379Y-112049500D01*
X134722756Y-112086025D01*
X134722748Y-112086027D01*
X134549771Y-112157676D01*
X134549762Y-112157681D01*
X134394092Y-112261697D01*
X134394088Y-112261700D01*
X134261700Y-112394088D01*
X134261697Y-112394092D01*
X134157681Y-112549762D01*
X134157676Y-112549771D01*
X134086027Y-112722748D01*
X134086025Y-112722756D01*
X134049500Y-112906379D01*
X130200503Y-112906379D01*
X130200503Y-109809108D01*
X190499500Y-109809108D01*
X190499500Y-109940891D01*
X190533608Y-110068187D01*
X190566554Y-110125250D01*
X190599500Y-110182314D01*
X190692686Y-110275500D01*
X190806814Y-110341392D01*
X190934108Y-110375500D01*
X190934110Y-110375500D01*
X191065890Y-110375500D01*
X191065892Y-110375500D01*
X191193186Y-110341392D01*
X191307314Y-110275500D01*
X191400500Y-110182314D01*
X191466392Y-110068186D01*
X191500500Y-109940892D01*
X191500500Y-109809108D01*
X191466392Y-109681814D01*
X191400500Y-109567686D01*
X191307314Y-109474500D01*
X191250250Y-109441554D01*
X191193187Y-109408608D01*
X191129539Y-109391554D01*
X191065892Y-109374500D01*
X190934108Y-109374500D01*
X190806812Y-109408608D01*
X190692686Y-109474500D01*
X190692683Y-109474502D01*
X190599502Y-109567683D01*
X190599500Y-109567686D01*
X190533608Y-109681812D01*
X190499500Y-109809108D01*
X130200503Y-109809108D01*
X130200503Y-106234108D01*
X139099500Y-106234108D01*
X139099500Y-106365891D01*
X139133608Y-106493187D01*
X139133610Y-106493190D01*
X139199500Y-106607314D01*
X139292686Y-106700500D01*
X139406814Y-106766392D01*
X139534108Y-106800500D01*
X139534110Y-106800500D01*
X139665890Y-106800500D01*
X139665892Y-106800500D01*
X139793186Y-106766392D01*
X139907314Y-106700500D01*
X140000500Y-106607314D01*
X140066392Y-106493186D01*
X140066826Y-106491563D01*
X140067567Y-106490347D01*
X140069500Y-106485682D01*
X140070227Y-106485983D01*
X140103184Y-106431904D01*
X140166028Y-106401370D01*
X140235405Y-106409658D01*
X140289286Y-106454139D01*
X140306376Y-106491556D01*
X140333608Y-106593186D01*
X140399500Y-106707314D01*
X140492686Y-106800500D01*
X140606814Y-106866392D01*
X140734108Y-106900500D01*
X140734110Y-106900500D01*
X140865890Y-106900500D01*
X140865892Y-106900500D01*
X140993186Y-106866392D01*
X141107314Y-106800500D01*
X141200500Y-106707314D01*
X141266392Y-106593186D01*
X141300500Y-106465892D01*
X141300500Y-106334108D01*
X141266392Y-106206814D01*
X141200500Y-106092686D01*
X141107314Y-105999500D01*
X141050250Y-105966554D01*
X140993187Y-105933608D01*
X140929539Y-105916554D01*
X140865892Y-105899500D01*
X140734108Y-105899500D01*
X140606812Y-105933608D01*
X140492686Y-105999500D01*
X140492683Y-105999502D01*
X140399502Y-106092683D01*
X140399500Y-106092686D01*
X140333608Y-106206812D01*
X140333171Y-106208446D01*
X140332425Y-106209668D01*
X140330500Y-106214318D01*
X140329774Y-106214017D01*
X140296803Y-106268105D01*
X140233955Y-106298632D01*
X140164580Y-106290334D01*
X140110704Y-106245847D01*
X140093623Y-106208444D01*
X140066392Y-106106814D01*
X140000500Y-105992686D01*
X139907314Y-105899500D01*
X139849968Y-105866391D01*
X139793187Y-105833608D01*
X139729539Y-105816554D01*
X139665892Y-105799500D01*
X139534108Y-105799500D01*
X139406812Y-105833608D01*
X139292686Y-105899500D01*
X139292683Y-105899502D01*
X139199502Y-105992683D01*
X139199500Y-105992686D01*
X139133608Y-106106812D01*
X139099500Y-106234108D01*
X130200503Y-106234108D01*
X130200503Y-105334108D01*
X141599500Y-105334108D01*
X141599500Y-105465891D01*
X141633608Y-105593187D01*
X141666554Y-105650250D01*
X141699500Y-105707314D01*
X141792686Y-105800500D01*
X141906814Y-105866392D01*
X142034108Y-105900500D01*
X142034110Y-105900500D01*
X142165890Y-105900500D01*
X142165892Y-105900500D01*
X142293186Y-105866392D01*
X142407314Y-105800500D01*
X142500500Y-105707314D01*
X142566392Y-105593186D01*
X142600500Y-105465892D01*
X142600500Y-105334108D01*
X142566392Y-105206814D01*
X142500500Y-105092686D01*
X142407314Y-104999500D01*
X142350250Y-104966554D01*
X142293187Y-104933608D01*
X142229539Y-104916554D01*
X142165892Y-104899500D01*
X142034108Y-104899500D01*
X141906812Y-104933608D01*
X141792686Y-104999500D01*
X141792683Y-104999502D01*
X141699502Y-105092683D01*
X141699500Y-105092686D01*
X141633608Y-105206812D01*
X141599500Y-105334108D01*
X130200503Y-105334108D01*
X130200503Y-104334108D01*
X147799500Y-104334108D01*
X147799500Y-104465891D01*
X147833608Y-104593187D01*
X147866554Y-104650250D01*
X147899500Y-104707314D01*
X147992686Y-104800500D01*
X148106814Y-104866392D01*
X148234108Y-104900500D01*
X148234110Y-104900500D01*
X148365890Y-104900500D01*
X148365892Y-104900500D01*
X148493186Y-104866392D01*
X148607314Y-104800500D01*
X148700500Y-104707314D01*
X148766392Y-104593186D01*
X148800500Y-104465892D01*
X148800500Y-104334108D01*
X151499500Y-104334108D01*
X151499500Y-104465891D01*
X151533608Y-104593187D01*
X151566554Y-104650250D01*
X151599500Y-104707314D01*
X151692686Y-104800500D01*
X151806814Y-104866392D01*
X151934108Y-104900500D01*
X151934110Y-104900500D01*
X152065890Y-104900500D01*
X152065892Y-104900500D01*
X152193186Y-104866392D01*
X152307314Y-104800500D01*
X152400500Y-104707314D01*
X152466392Y-104593186D01*
X152500500Y-104465892D01*
X152500500Y-104334108D01*
X152466392Y-104206814D01*
X152400500Y-104092686D01*
X152307314Y-103999500D01*
X152242380Y-103962010D01*
X152193187Y-103933608D01*
X152129539Y-103916554D01*
X152065892Y-103899500D01*
X151934108Y-103899500D01*
X151806812Y-103933608D01*
X151692686Y-103999500D01*
X151692683Y-103999502D01*
X151599502Y-104092683D01*
X151599500Y-104092686D01*
X151533608Y-104206812D01*
X151499500Y-104334108D01*
X148800500Y-104334108D01*
X148766392Y-104206814D01*
X148700500Y-104092686D01*
X148607314Y-103999500D01*
X148542380Y-103962010D01*
X148493187Y-103933608D01*
X148429539Y-103916554D01*
X148365892Y-103899500D01*
X148234108Y-103899500D01*
X148106812Y-103933608D01*
X147992686Y-103999500D01*
X147992683Y-103999502D01*
X147899502Y-104092683D01*
X147899500Y-104092686D01*
X147833608Y-104206812D01*
X147799500Y-104334108D01*
X130200503Y-104334108D01*
X130200503Y-102734108D01*
X134199500Y-102734108D01*
X134199500Y-102865891D01*
X134233608Y-102993187D01*
X134266554Y-103050250D01*
X134299500Y-103107314D01*
X134299502Y-103107316D01*
X134304505Y-103112319D01*
X134337990Y-103173642D01*
X134333006Y-103243334D01*
X134304505Y-103287681D01*
X134299502Y-103292683D01*
X134299500Y-103292686D01*
X134233608Y-103406812D01*
X134217778Y-103465892D01*
X134199500Y-103534108D01*
X134199500Y-103665892D01*
X134216554Y-103729539D01*
X134233608Y-103793187D01*
X134266554Y-103850250D01*
X134299500Y-103907314D01*
X134392686Y-104000500D01*
X134506814Y-104066392D01*
X134634108Y-104100500D01*
X134634110Y-104100500D01*
X134765890Y-104100500D01*
X134765892Y-104100500D01*
X134893186Y-104066392D01*
X135007314Y-104000500D01*
X135012319Y-103995495D01*
X135073642Y-103962010D01*
X135143334Y-103966994D01*
X135187681Y-103995495D01*
X135192686Y-104000500D01*
X135306814Y-104066392D01*
X135434108Y-104100500D01*
X135434110Y-104100500D01*
X135565890Y-104100500D01*
X135565892Y-104100500D01*
X135693186Y-104066392D01*
X135807314Y-104000500D01*
X135900500Y-103907314D01*
X135966392Y-103793186D01*
X136000500Y-103665892D01*
X136000500Y-103634108D01*
X139099500Y-103634108D01*
X139099500Y-103765891D01*
X139133608Y-103893187D01*
X139156946Y-103933608D01*
X139199500Y-104007314D01*
X139292686Y-104100500D01*
X139406814Y-104166392D01*
X139534108Y-104200500D01*
X139534110Y-104200500D01*
X139665890Y-104200500D01*
X139665892Y-104200500D01*
X139793186Y-104166392D01*
X139907314Y-104100500D01*
X140000500Y-104007314D01*
X140066392Y-103893186D01*
X140100500Y-103765892D01*
X140100500Y-103634108D01*
X140066392Y-103506814D01*
X140042764Y-103465890D01*
X140000503Y-103392691D01*
X140000502Y-103392690D01*
X140000500Y-103392686D01*
X139941922Y-103334108D01*
X148749500Y-103334108D01*
X148749500Y-103465891D01*
X148783608Y-103593187D01*
X148816554Y-103650250D01*
X148849500Y-103707314D01*
X148942686Y-103800500D01*
X149056814Y-103866392D01*
X149184108Y-103900500D01*
X149184110Y-103900500D01*
X149315890Y-103900500D01*
X149315892Y-103900500D01*
X149443186Y-103866392D01*
X149557314Y-103800500D01*
X149650500Y-103707314D01*
X149716392Y-103593186D01*
X149750500Y-103465892D01*
X149750500Y-103334108D01*
X149716392Y-103206814D01*
X149650500Y-103092686D01*
X149557314Y-102999500D01*
X149500250Y-102966554D01*
X149443187Y-102933608D01*
X149379539Y-102916554D01*
X149315892Y-102899500D01*
X149184108Y-102899500D01*
X149056812Y-102933608D01*
X148942686Y-102999500D01*
X148942683Y-102999502D01*
X148849502Y-103092683D01*
X148849500Y-103092686D01*
X148783608Y-103206812D01*
X148749500Y-103334108D01*
X139941922Y-103334108D01*
X139907314Y-103299500D01*
X139850250Y-103266554D01*
X139793187Y-103233608D01*
X139693188Y-103206814D01*
X139665892Y-103199500D01*
X139534108Y-103199500D01*
X139406812Y-103233608D01*
X139292686Y-103299500D01*
X139292683Y-103299502D01*
X139199502Y-103392683D01*
X139199500Y-103392686D01*
X139133608Y-103506812D01*
X139099500Y-103634108D01*
X136000500Y-103634108D01*
X136000500Y-103534108D01*
X135966392Y-103406814D01*
X135900500Y-103292686D01*
X135895495Y-103287681D01*
X135862010Y-103226358D01*
X135866994Y-103156666D01*
X135895495Y-103112319D01*
X135900500Y-103107314D01*
X135966392Y-102993186D01*
X136000500Y-102865892D01*
X136000500Y-102734108D01*
X135966392Y-102606814D01*
X135900500Y-102492686D01*
X135807314Y-102399500D01*
X135750250Y-102366554D01*
X135693187Y-102333608D01*
X135629539Y-102316554D01*
X135565892Y-102299500D01*
X135434108Y-102299500D01*
X135306812Y-102333608D01*
X135192686Y-102399500D01*
X135192683Y-102399502D01*
X135187681Y-102404505D01*
X135126358Y-102437990D01*
X135056666Y-102433006D01*
X135012319Y-102404505D01*
X135007316Y-102399502D01*
X135007314Y-102399500D01*
X134950250Y-102366554D01*
X134893187Y-102333608D01*
X134829539Y-102316554D01*
X134765892Y-102299500D01*
X134634108Y-102299500D01*
X134506812Y-102333608D01*
X134392686Y-102399500D01*
X134392683Y-102399502D01*
X134299502Y-102492683D01*
X134299500Y-102492686D01*
X134233608Y-102606812D01*
X134199500Y-102734108D01*
X130200503Y-102734108D01*
X130200503Y-100534108D01*
X140299500Y-100534108D01*
X140299500Y-100665891D01*
X140333608Y-100793187D01*
X140366554Y-100850250D01*
X140399500Y-100907314D01*
X140492686Y-101000500D01*
X140606814Y-101066392D01*
X140734108Y-101100500D01*
X140734110Y-101100500D01*
X140865890Y-101100500D01*
X140865892Y-101100500D01*
X140993186Y-101066392D01*
X141107314Y-101000500D01*
X141200500Y-100907314D01*
X141266392Y-100793186D01*
X141300500Y-100665892D01*
X141300500Y-100534108D01*
X141266392Y-100406814D01*
X141242764Y-100365890D01*
X141200503Y-100292691D01*
X141200502Y-100292690D01*
X141200500Y-100292686D01*
X141141922Y-100234108D01*
X148749500Y-100234108D01*
X148749500Y-100365892D01*
X148766554Y-100429539D01*
X148783608Y-100493187D01*
X148808717Y-100536676D01*
X148849500Y-100607314D01*
X148942686Y-100700500D01*
X149056814Y-100766392D01*
X149184108Y-100800500D01*
X149184110Y-100800500D01*
X149315890Y-100800500D01*
X149315892Y-100800500D01*
X149443186Y-100766392D01*
X149557314Y-100700500D01*
X149650500Y-100607314D01*
X149652673Y-100603551D01*
X159274500Y-100603551D01*
X159274500Y-100796449D01*
X159275142Y-100800500D01*
X159304675Y-100986969D01*
X159304676Y-100986972D01*
X159364285Y-101170429D01*
X159451859Y-101342302D01*
X159565241Y-101498359D01*
X159701641Y-101634759D01*
X159857698Y-101748141D01*
X160029571Y-101835715D01*
X160213028Y-101895324D01*
X160403551Y-101925500D01*
X160403552Y-101925500D01*
X160596448Y-101925500D01*
X160596449Y-101925500D01*
X160786972Y-101895324D01*
X160970429Y-101835715D01*
X161142302Y-101748141D01*
X161298359Y-101634759D01*
X161434759Y-101498359D01*
X161548141Y-101342302D01*
X161635715Y-101170429D01*
X161695324Y-100986972D01*
X161725500Y-100796449D01*
X161725500Y-100603551D01*
X161695324Y-100413028D01*
X161635715Y-100229571D01*
X161548141Y-100057698D01*
X161434759Y-99901641D01*
X161298359Y-99765241D01*
X161142302Y-99651859D01*
X160970429Y-99564285D01*
X160786972Y-99504676D01*
X160786970Y-99504675D01*
X160786969Y-99504675D01*
X160640614Y-99481495D01*
X160596449Y-99474500D01*
X160403551Y-99474500D01*
X160367697Y-99480178D01*
X160213030Y-99504675D01*
X160029568Y-99564286D01*
X159857697Y-99651859D01*
X159768661Y-99716547D01*
X159701641Y-99765241D01*
X159701639Y-99765243D01*
X159701638Y-99765243D01*
X159565243Y-99901638D01*
X159565243Y-99901639D01*
X159565241Y-99901641D01*
X159516547Y-99968661D01*
X159451859Y-100057697D01*
X159364286Y-100229568D01*
X159304675Y-100413030D01*
X159274500Y-100603551D01*
X149652673Y-100603551D01*
X149716392Y-100493186D01*
X149750500Y-100365892D01*
X149750500Y-100234108D01*
X149716392Y-100106814D01*
X149650500Y-99992686D01*
X149557314Y-99899500D01*
X149500250Y-99866554D01*
X149443187Y-99833608D01*
X149379539Y-99816554D01*
X149315892Y-99799500D01*
X149184108Y-99799500D01*
X149056812Y-99833608D01*
X148942686Y-99899500D01*
X148942683Y-99899502D01*
X148849502Y-99992683D01*
X148849500Y-99992686D01*
X148783608Y-100106812D01*
X148750716Y-100229568D01*
X148749500Y-100234108D01*
X141141922Y-100234108D01*
X141107314Y-100199500D01*
X141050250Y-100166554D01*
X140993187Y-100133608D01*
X140893188Y-100106814D01*
X140865892Y-100099500D01*
X140734108Y-100099500D01*
X140606812Y-100133608D01*
X140492686Y-100199500D01*
X140492683Y-100199502D01*
X140399502Y-100292683D01*
X140399500Y-100292686D01*
X140333608Y-100406812D01*
X140299500Y-100534108D01*
X130200503Y-100534108D01*
X130200503Y-98134108D01*
X147799500Y-98134108D01*
X147799500Y-98265891D01*
X147833608Y-98393187D01*
X147866554Y-98450250D01*
X147899500Y-98507314D01*
X147992686Y-98600500D01*
X148106814Y-98666392D01*
X148234108Y-98700500D01*
X148234110Y-98700500D01*
X148365890Y-98700500D01*
X148365892Y-98700500D01*
X148493186Y-98666392D01*
X148607314Y-98600500D01*
X148700500Y-98507314D01*
X148766392Y-98393186D01*
X148800500Y-98265892D01*
X148800500Y-98134108D01*
X148766392Y-98006814D01*
X148700500Y-97892686D01*
X148607314Y-97799500D01*
X148550250Y-97766554D01*
X148493187Y-97733608D01*
X148429539Y-97716554D01*
X148365892Y-97699500D01*
X148234108Y-97699500D01*
X148106812Y-97733608D01*
X147992686Y-97799500D01*
X147992683Y-97799502D01*
X147899502Y-97892683D01*
X147899500Y-97892686D01*
X147833608Y-98006812D01*
X147799500Y-98134108D01*
X130200503Y-98134108D01*
X130200503Y-97534108D01*
X152739500Y-97534108D01*
X152739500Y-97665891D01*
X152773608Y-97793187D01*
X152806554Y-97850250D01*
X152839500Y-97907314D01*
X152932686Y-98000500D01*
X153046814Y-98066392D01*
X153174108Y-98100500D01*
X153174110Y-98100500D01*
X153305890Y-98100500D01*
X153305892Y-98100500D01*
X153433186Y-98066392D01*
X153547314Y-98000500D01*
X153640500Y-97907314D01*
X153706392Y-97793186D01*
X153740500Y-97665892D01*
X153740500Y-97534108D01*
X153706392Y-97406814D01*
X153640500Y-97292686D01*
X153547314Y-97199500D01*
X153490250Y-97166554D01*
X153433187Y-97133608D01*
X153369539Y-97116554D01*
X153305892Y-97099500D01*
X153174108Y-97099500D01*
X153046812Y-97133608D01*
X152932686Y-97199500D01*
X152932683Y-97199502D01*
X152839502Y-97292683D01*
X152839500Y-97292686D01*
X152773608Y-97406812D01*
X152739500Y-97534108D01*
X130200503Y-97534108D01*
X130200503Y-96534108D01*
X153699500Y-96534108D01*
X153699500Y-96665891D01*
X153733608Y-96793187D01*
X153766554Y-96850250D01*
X153799500Y-96907314D01*
X153892686Y-97000500D01*
X154006814Y-97066392D01*
X154134108Y-97100500D01*
X154134110Y-97100500D01*
X154265890Y-97100500D01*
X154265892Y-97100500D01*
X154393186Y-97066392D01*
X154507314Y-97000500D01*
X154600500Y-96907314D01*
X154666392Y-96793186D01*
X154700500Y-96665892D01*
X154700500Y-96534108D01*
X154666392Y-96406814D01*
X154600500Y-96292686D01*
X154507314Y-96199500D01*
X154450250Y-96166554D01*
X154393187Y-96133608D01*
X154329539Y-96116554D01*
X154265892Y-96099500D01*
X154134108Y-96099500D01*
X154006812Y-96133608D01*
X153892686Y-96199500D01*
X153892683Y-96199502D01*
X153799502Y-96292683D01*
X153799500Y-96292686D01*
X153733608Y-96406812D01*
X153699500Y-96534108D01*
X130200503Y-96534108D01*
X130200502Y-93934108D01*
X136699500Y-93934108D01*
X136699500Y-94065891D01*
X136733608Y-94193187D01*
X136766554Y-94250250D01*
X136799500Y-94307314D01*
X136892686Y-94400500D01*
X137006814Y-94466392D01*
X137134108Y-94500500D01*
X137134110Y-94500500D01*
X137265890Y-94500500D01*
X137265892Y-94500500D01*
X137393186Y-94466392D01*
X137507314Y-94400500D01*
X137600500Y-94307314D01*
X137666392Y-94193186D01*
X137700500Y-94065892D01*
X137700500Y-93934108D01*
X137666392Y-93806814D01*
X137600500Y-93692686D01*
X137507314Y-93599500D01*
X137450250Y-93566554D01*
X137393187Y-93533608D01*
X137329539Y-93516554D01*
X137265892Y-93499500D01*
X137134108Y-93499500D01*
X137006812Y-93533608D01*
X136892686Y-93599500D01*
X136892683Y-93599502D01*
X136799502Y-93692683D01*
X136799500Y-93692686D01*
X136733608Y-93806812D01*
X136699500Y-93934108D01*
X130200502Y-93934108D01*
X130200502Y-92906379D01*
X142049500Y-92906379D01*
X142049500Y-93093620D01*
X142086025Y-93277243D01*
X142086027Y-93277251D01*
X142157676Y-93450228D01*
X142157681Y-93450237D01*
X142261697Y-93605907D01*
X142261700Y-93605911D01*
X142394088Y-93738299D01*
X142394092Y-93738302D01*
X142549762Y-93842318D01*
X142549768Y-93842321D01*
X142549769Y-93842322D01*
X142722749Y-93913973D01*
X142906379Y-93950499D01*
X142906383Y-93950500D01*
X142906384Y-93950500D01*
X143093617Y-93950500D01*
X143093618Y-93950499D01*
X143277251Y-93913973D01*
X143450231Y-93842322D01*
X143605908Y-93738302D01*
X143738302Y-93605908D01*
X143842322Y-93450231D01*
X143913973Y-93277251D01*
X143950500Y-93093616D01*
X143950500Y-92906384D01*
X143913973Y-92722749D01*
X143842322Y-92549769D01*
X143842321Y-92549768D01*
X143842318Y-92549762D01*
X143738302Y-92394092D01*
X143738299Y-92394088D01*
X143605911Y-92261700D01*
X143605907Y-92261697D01*
X143450237Y-92157681D01*
X143450228Y-92157676D01*
X143277251Y-92086027D01*
X143277243Y-92086025D01*
X143093620Y-92049500D01*
X143093616Y-92049500D01*
X142906384Y-92049500D01*
X142906379Y-92049500D01*
X142722756Y-92086025D01*
X142722748Y-92086027D01*
X142549771Y-92157676D01*
X142549762Y-92157681D01*
X142394092Y-92261697D01*
X142394088Y-92261700D01*
X142261700Y-92394088D01*
X142261697Y-92394092D01*
X142157681Y-92549762D01*
X142157676Y-92549771D01*
X142086027Y-92722748D01*
X142086025Y-92722756D01*
X142049500Y-92906379D01*
X130200502Y-92906379D01*
X130200502Y-90234108D01*
X132099500Y-90234108D01*
X132099500Y-90365891D01*
X132133608Y-90493187D01*
X132166554Y-90550250D01*
X132199500Y-90607314D01*
X132292686Y-90700500D01*
X132406814Y-90766392D01*
X132534108Y-90800500D01*
X132534110Y-90800500D01*
X132665890Y-90800500D01*
X132665892Y-90800500D01*
X132793186Y-90766392D01*
X132907314Y-90700500D01*
X133000500Y-90607314D01*
X133066392Y-90493186D01*
X133100500Y-90365892D01*
X133100500Y-90234108D01*
X133066392Y-90106814D01*
X133000500Y-89992686D01*
X132907314Y-89899500D01*
X132850250Y-89866554D01*
X132793187Y-89833608D01*
X132729539Y-89816554D01*
X132665892Y-89799500D01*
X132534108Y-89799500D01*
X132406812Y-89833608D01*
X132292686Y-89899500D01*
X132292683Y-89899502D01*
X132199502Y-89992683D01*
X132199500Y-89992686D01*
X132133608Y-90106812D01*
X132099500Y-90234108D01*
X130200502Y-90234108D01*
X130200502Y-88796530D01*
X155649500Y-88796530D01*
X155649500Y-89003469D01*
X155689868Y-89206412D01*
X155689870Y-89206420D01*
X155769058Y-89397596D01*
X155884024Y-89569657D01*
X156030342Y-89715975D01*
X156030345Y-89715977D01*
X156202402Y-89830941D01*
X156393580Y-89910130D01*
X156596530Y-89950499D01*
X156596534Y-89950500D01*
X156596535Y-89950500D01*
X156803466Y-89950500D01*
X156803467Y-89950499D01*
X157006420Y-89910130D01*
X157197598Y-89830941D01*
X157369655Y-89715977D01*
X157515977Y-89569655D01*
X157630941Y-89397598D01*
X157710130Y-89206420D01*
X157750500Y-89003465D01*
X157750500Y-88796535D01*
X157750499Y-88796530D01*
X158189500Y-88796530D01*
X158189500Y-89003469D01*
X158229868Y-89206412D01*
X158229870Y-89206420D01*
X158309058Y-89397596D01*
X158424024Y-89569657D01*
X158570342Y-89715975D01*
X158570345Y-89715977D01*
X158742402Y-89830941D01*
X158933580Y-89910130D01*
X159136530Y-89950499D01*
X159136534Y-89950500D01*
X159136535Y-89950500D01*
X159343466Y-89950500D01*
X159343467Y-89950499D01*
X159546420Y-89910130D01*
X159737598Y-89830941D01*
X159909655Y-89715977D01*
X160055977Y-89569655D01*
X160170941Y-89397598D01*
X160250130Y-89206420D01*
X160290500Y-89003465D01*
X160290500Y-88796535D01*
X160250130Y-88593580D01*
X160170941Y-88402402D01*
X160055977Y-88230345D01*
X160055975Y-88230342D01*
X159909657Y-88084024D01*
X159823626Y-88026541D01*
X159737598Y-87969059D01*
X159546420Y-87889870D01*
X159546412Y-87889868D01*
X159343469Y-87849500D01*
X159343465Y-87849500D01*
X159136535Y-87849500D01*
X159136530Y-87849500D01*
X158933587Y-87889868D01*
X158933579Y-87889870D01*
X158742403Y-87969058D01*
X158570342Y-88084024D01*
X158424024Y-88230342D01*
X158309058Y-88402403D01*
X158229870Y-88593579D01*
X158229868Y-88593587D01*
X158189500Y-88796530D01*
X157750499Y-88796530D01*
X157710130Y-88593580D01*
X157630941Y-88402402D01*
X157515977Y-88230345D01*
X157515975Y-88230342D01*
X157369657Y-88084024D01*
X157283626Y-88026541D01*
X157197598Y-87969059D01*
X157006420Y-87889870D01*
X157006412Y-87889868D01*
X156803469Y-87849500D01*
X156803465Y-87849500D01*
X156596535Y-87849500D01*
X156596530Y-87849500D01*
X156393587Y-87889868D01*
X156393579Y-87889870D01*
X156202403Y-87969058D01*
X156030342Y-88084024D01*
X155884024Y-88230342D01*
X155769058Y-88402403D01*
X155689870Y-88593579D01*
X155689868Y-88593587D01*
X155649500Y-88796530D01*
X130200502Y-88796530D01*
X130200501Y-85921153D01*
X134974500Y-85921153D01*
X134974500Y-86078846D01*
X135005261Y-86233489D01*
X135005264Y-86233501D01*
X135065602Y-86379172D01*
X135065609Y-86379185D01*
X135153210Y-86510288D01*
X135153213Y-86510292D01*
X135264707Y-86621786D01*
X135264711Y-86621789D01*
X135395814Y-86709390D01*
X135395827Y-86709397D01*
X135541498Y-86769735D01*
X135541503Y-86769737D01*
X135696153Y-86800499D01*
X135696156Y-86800500D01*
X135696158Y-86800500D01*
X136403844Y-86800500D01*
X136403845Y-86800499D01*
X136558497Y-86769737D01*
X136704179Y-86709394D01*
X136835289Y-86621789D01*
X136946789Y-86510289D01*
X137034394Y-86379179D01*
X137094737Y-86233497D01*
X137125500Y-86078842D01*
X137125500Y-85921158D01*
X137125500Y-85921155D01*
X137125499Y-85921153D01*
X137094738Y-85766510D01*
X137094737Y-85766503D01*
X137094735Y-85766498D01*
X137034397Y-85620827D01*
X137034390Y-85620814D01*
X136946789Y-85489711D01*
X136946786Y-85489707D01*
X136835292Y-85378213D01*
X136835288Y-85378210D01*
X136704185Y-85290609D01*
X136704172Y-85290602D01*
X136558501Y-85230264D01*
X136558489Y-85230261D01*
X136403845Y-85199500D01*
X136403842Y-85199500D01*
X135696158Y-85199500D01*
X135696155Y-85199500D01*
X135541510Y-85230261D01*
X135541498Y-85230264D01*
X135395827Y-85290602D01*
X135395814Y-85290609D01*
X135264711Y-85378210D01*
X135264707Y-85378213D01*
X135153213Y-85489707D01*
X135153210Y-85489711D01*
X135065609Y-85620814D01*
X135065602Y-85620827D01*
X135005264Y-85766498D01*
X135005261Y-85766510D01*
X134974500Y-85921153D01*
X130200501Y-85921153D01*
X130200501Y-83921153D01*
X134974500Y-83921153D01*
X134974500Y-84078846D01*
X135005261Y-84233489D01*
X135005264Y-84233501D01*
X135065602Y-84379172D01*
X135065609Y-84379185D01*
X135153210Y-84510288D01*
X135153213Y-84510292D01*
X135264707Y-84621786D01*
X135264711Y-84621789D01*
X135395814Y-84709390D01*
X135395827Y-84709397D01*
X135541498Y-84769735D01*
X135541503Y-84769737D01*
X135696153Y-84800499D01*
X135696156Y-84800500D01*
X135696158Y-84800500D01*
X136403844Y-84800500D01*
X136403845Y-84800499D01*
X136558497Y-84769737D01*
X136704179Y-84709394D01*
X136835289Y-84621789D01*
X136946789Y-84510289D01*
X137022800Y-84396530D01*
X140949500Y-84396530D01*
X140949500Y-84603469D01*
X140989868Y-84806412D01*
X140989870Y-84806420D01*
X141069058Y-84997596D01*
X141184024Y-85169657D01*
X141330342Y-85315975D01*
X141330345Y-85315977D01*
X141502402Y-85430941D01*
X141693580Y-85510130D01*
X141896530Y-85550499D01*
X141896534Y-85550500D01*
X141896535Y-85550500D01*
X142103466Y-85550500D01*
X142103467Y-85550499D01*
X142306420Y-85510130D01*
X142497598Y-85430941D01*
X142669655Y-85315977D01*
X142815977Y-85169655D01*
X142930941Y-84997598D01*
X143010130Y-84806420D01*
X143050500Y-84603465D01*
X143050500Y-84396535D01*
X143010130Y-84193580D01*
X142930941Y-84002402D01*
X142815977Y-83830345D01*
X142815975Y-83830342D01*
X142669657Y-83684024D01*
X142667464Y-83682559D01*
X188299500Y-83682559D01*
X188299500Y-83814342D01*
X188333608Y-83941638D01*
X188366554Y-83998701D01*
X188399500Y-84055765D01*
X188492686Y-84148951D01*
X188606814Y-84214843D01*
X188734108Y-84248951D01*
X188734110Y-84248951D01*
X188865890Y-84248951D01*
X188865892Y-84248951D01*
X188993186Y-84214843D01*
X189107314Y-84148951D01*
X189200500Y-84055765D01*
X189266392Y-83941637D01*
X189300500Y-83814343D01*
X189300500Y-83682559D01*
X189266392Y-83555265D01*
X189200500Y-83441137D01*
X189107314Y-83347951D01*
X189050250Y-83315005D01*
X188993187Y-83282059D01*
X188929539Y-83265005D01*
X188865892Y-83247951D01*
X188734108Y-83247951D01*
X188606812Y-83282059D01*
X188492686Y-83347951D01*
X188492683Y-83347953D01*
X188399502Y-83441134D01*
X188399500Y-83441137D01*
X188333608Y-83555263D01*
X188299500Y-83682559D01*
X142667464Y-83682559D01*
X142575055Y-83620814D01*
X142497598Y-83569059D01*
X142306420Y-83489870D01*
X142306412Y-83489868D01*
X142103469Y-83449500D01*
X142103465Y-83449500D01*
X141896535Y-83449500D01*
X141896530Y-83449500D01*
X141693587Y-83489868D01*
X141693579Y-83489870D01*
X141502403Y-83569058D01*
X141330342Y-83684024D01*
X141184024Y-83830342D01*
X141069058Y-84002403D01*
X140989870Y-84193579D01*
X140989868Y-84193587D01*
X140949500Y-84396530D01*
X137022800Y-84396530D01*
X137034394Y-84379179D01*
X137034397Y-84379172D01*
X137049384Y-84342991D01*
X137094735Y-84233501D01*
X137094737Y-84233497D01*
X137125500Y-84078842D01*
X137125500Y-83921158D01*
X137125500Y-83921155D01*
X137125499Y-83921153D01*
X137104253Y-83814342D01*
X137094737Y-83766503D01*
X137094735Y-83766498D01*
X137034397Y-83620827D01*
X137034390Y-83620814D01*
X136946789Y-83489711D01*
X136946786Y-83489707D01*
X136835292Y-83378213D01*
X136835288Y-83378210D01*
X136704185Y-83290609D01*
X136704172Y-83290602D01*
X136558501Y-83230264D01*
X136558489Y-83230261D01*
X136403845Y-83199500D01*
X136403842Y-83199500D01*
X135696158Y-83199500D01*
X135696155Y-83199500D01*
X135541510Y-83230261D01*
X135541498Y-83230264D01*
X135395827Y-83290602D01*
X135395814Y-83290609D01*
X135264711Y-83378210D01*
X135264707Y-83378213D01*
X135153213Y-83489707D01*
X135153210Y-83489711D01*
X135065609Y-83620814D01*
X135065602Y-83620827D01*
X135005264Y-83766498D01*
X135005261Y-83766510D01*
X134974500Y-83921153D01*
X130200501Y-83921153D01*
X130200501Y-81595730D01*
X134974500Y-81595730D01*
X134974500Y-82404269D01*
X134977353Y-82434699D01*
X134977353Y-82434701D01*
X135022206Y-82562880D01*
X135022207Y-82562882D01*
X135102850Y-82672150D01*
X135212118Y-82752793D01*
X135254845Y-82767744D01*
X135340299Y-82797646D01*
X135370730Y-82800500D01*
X135370734Y-82800500D01*
X136729270Y-82800500D01*
X136759699Y-82797646D01*
X136759701Y-82797646D01*
X136823790Y-82775219D01*
X136887882Y-82752793D01*
X136997150Y-82672150D01*
X137077793Y-82562882D01*
X137100219Y-82498790D01*
X137122646Y-82434701D01*
X137122646Y-82434699D01*
X137125500Y-82404269D01*
X137125500Y-81856530D01*
X140949500Y-81856530D01*
X140949500Y-82063469D01*
X140989868Y-82266412D01*
X140989870Y-82266420D01*
X141069058Y-82457596D01*
X141184024Y-82629657D01*
X141330342Y-82775975D01*
X141330345Y-82775977D01*
X141502402Y-82890941D01*
X141693580Y-82970130D01*
X141896530Y-83010499D01*
X141896534Y-83010500D01*
X141896535Y-83010500D01*
X142103466Y-83010500D01*
X142103467Y-83010499D01*
X142306420Y-82970130D01*
X142497598Y-82890941D01*
X142669655Y-82775977D01*
X142815977Y-82629655D01*
X142930941Y-82457598D01*
X143010130Y-82266420D01*
X143050500Y-82063465D01*
X143050500Y-81856535D01*
X143015894Y-81682559D01*
X188499500Y-81682559D01*
X188499500Y-81814342D01*
X188533608Y-81941638D01*
X188566554Y-81998701D01*
X188599500Y-82055765D01*
X188692686Y-82148951D01*
X188806814Y-82214843D01*
X188934108Y-82248951D01*
X188934110Y-82248951D01*
X189065890Y-82248951D01*
X189065892Y-82248951D01*
X189193186Y-82214843D01*
X189307314Y-82148951D01*
X189400500Y-82055765D01*
X189466392Y-81941637D01*
X189500500Y-81814343D01*
X189500500Y-81682559D01*
X189466392Y-81555265D01*
X189400500Y-81441137D01*
X189307314Y-81347951D01*
X189207533Y-81290342D01*
X189193187Y-81282059D01*
X189129539Y-81265005D01*
X189065892Y-81247951D01*
X188934108Y-81247951D01*
X188806812Y-81282059D01*
X188692686Y-81347951D01*
X188692683Y-81347953D01*
X188599502Y-81441134D01*
X188599500Y-81441137D01*
X188533608Y-81555263D01*
X188499500Y-81682559D01*
X143015894Y-81682559D01*
X143010130Y-81653580D01*
X142930941Y-81462402D01*
X142815977Y-81290345D01*
X142815975Y-81290342D01*
X142669657Y-81144024D01*
X142583626Y-81086541D01*
X142497598Y-81029059D01*
X142306420Y-80949870D01*
X142306412Y-80949868D01*
X142103469Y-80909500D01*
X142103465Y-80909500D01*
X141896535Y-80909500D01*
X141896530Y-80909500D01*
X141693587Y-80949868D01*
X141693579Y-80949870D01*
X141502403Y-81029058D01*
X141330342Y-81144024D01*
X141184024Y-81290342D01*
X141069058Y-81462403D01*
X140989870Y-81653579D01*
X140989868Y-81653587D01*
X140949500Y-81856530D01*
X137125500Y-81856530D01*
X137125500Y-81595730D01*
X137122646Y-81565300D01*
X137122646Y-81565298D01*
X137089006Y-81469163D01*
X137077793Y-81437118D01*
X136997150Y-81327850D01*
X136887882Y-81247207D01*
X136887880Y-81247206D01*
X136759700Y-81202353D01*
X136729270Y-81199500D01*
X136729266Y-81199500D01*
X135370734Y-81199500D01*
X135370730Y-81199500D01*
X135340300Y-81202353D01*
X135340298Y-81202353D01*
X135212119Y-81247206D01*
X135212117Y-81247207D01*
X135102850Y-81327850D01*
X135022207Y-81437117D01*
X135022206Y-81437119D01*
X134977353Y-81565298D01*
X134977353Y-81565300D01*
X134974500Y-81595730D01*
X130200501Y-81595730D01*
X130200501Y-75034108D01*
X132099500Y-75034108D01*
X132099500Y-75165892D01*
X132116554Y-75229539D01*
X132133608Y-75293187D01*
X132146717Y-75315892D01*
X132199500Y-75407314D01*
X132292686Y-75500500D01*
X132406814Y-75566392D01*
X132534108Y-75600500D01*
X132534110Y-75600500D01*
X132665890Y-75600500D01*
X132665892Y-75600500D01*
X132793186Y-75566392D01*
X132907314Y-75500500D01*
X133000500Y-75407314D01*
X133066392Y-75293186D01*
X133095619Y-75184108D01*
X152999500Y-75184108D01*
X152999500Y-75315891D01*
X153033608Y-75443187D01*
X153066554Y-75500250D01*
X153099500Y-75557314D01*
X153192686Y-75650500D01*
X153306814Y-75716392D01*
X153434108Y-75750500D01*
X153434110Y-75750500D01*
X153565890Y-75750500D01*
X153565892Y-75750500D01*
X153693186Y-75716392D01*
X153807314Y-75650500D01*
X153900500Y-75557314D01*
X153966392Y-75443186D01*
X154000500Y-75315892D01*
X154000500Y-75184108D01*
X153966392Y-75056814D01*
X153900500Y-74942686D01*
X153807314Y-74849500D01*
X153708910Y-74792686D01*
X153693187Y-74783608D01*
X153629539Y-74766554D01*
X153565892Y-74749500D01*
X153434108Y-74749500D01*
X153306812Y-74783608D01*
X153192686Y-74849500D01*
X153192683Y-74849502D01*
X153099502Y-74942683D01*
X153099500Y-74942686D01*
X153033608Y-75056812D01*
X152999500Y-75184108D01*
X133095619Y-75184108D01*
X133100500Y-75165892D01*
X133100500Y-75034108D01*
X133066392Y-74906814D01*
X133000500Y-74792686D01*
X132907314Y-74699500D01*
X132822148Y-74650329D01*
X132793187Y-74633608D01*
X132699320Y-74608457D01*
X132665892Y-74599500D01*
X132534108Y-74599500D01*
X132406812Y-74633608D01*
X132292686Y-74699500D01*
X132292683Y-74699502D01*
X132199502Y-74792683D01*
X132199500Y-74792686D01*
X132133608Y-74906812D01*
X132117163Y-74968187D01*
X132099500Y-75034108D01*
X130200501Y-75034108D01*
X130200501Y-70661153D01*
X134974500Y-70661153D01*
X134974500Y-70818846D01*
X135005261Y-70973489D01*
X135005264Y-70973501D01*
X135065602Y-71119172D01*
X135065609Y-71119185D01*
X135153210Y-71250288D01*
X135153213Y-71250292D01*
X135264707Y-71361786D01*
X135264711Y-71361789D01*
X135395814Y-71449390D01*
X135395827Y-71449397D01*
X135541498Y-71509735D01*
X135541503Y-71509737D01*
X135661510Y-71533608D01*
X135696153Y-71540499D01*
X135696156Y-71540500D01*
X135696158Y-71540500D01*
X136403844Y-71540500D01*
X136403845Y-71540499D01*
X136558497Y-71509737D01*
X136704179Y-71449394D01*
X136835289Y-71361789D01*
X136946789Y-71250289D01*
X137034394Y-71119179D01*
X137094737Y-70973497D01*
X137125500Y-70818842D01*
X137125500Y-70661158D01*
X137125500Y-70661155D01*
X137125499Y-70661153D01*
X137094737Y-70506503D01*
X137067578Y-70440935D01*
X137034397Y-70360827D01*
X137034390Y-70360814D01*
X136946789Y-70229711D01*
X136946786Y-70229707D01*
X136835292Y-70118213D01*
X136835288Y-70118210D01*
X136704185Y-70030609D01*
X136704172Y-70030602D01*
X136558501Y-69970264D01*
X136558489Y-69970261D01*
X136403845Y-69939500D01*
X136403842Y-69939500D01*
X135696158Y-69939500D01*
X135696155Y-69939500D01*
X135541510Y-69970261D01*
X135541498Y-69970264D01*
X135395827Y-70030602D01*
X135395814Y-70030609D01*
X135264711Y-70118210D01*
X135264707Y-70118213D01*
X135153213Y-70229707D01*
X135153210Y-70229711D01*
X135065609Y-70360814D01*
X135065602Y-70360827D01*
X135005264Y-70506498D01*
X135005261Y-70506510D01*
X134974500Y-70661153D01*
X130200501Y-70661153D01*
X130200501Y-69776530D01*
X139299500Y-69776530D01*
X139299500Y-69983469D01*
X139339868Y-70186412D01*
X139339870Y-70186420D01*
X139419058Y-70377596D01*
X139534024Y-70549657D01*
X139680342Y-70695975D01*
X139680345Y-70695977D01*
X139852402Y-70810941D01*
X140043580Y-70890130D01*
X140246530Y-70930499D01*
X140246534Y-70930500D01*
X140246535Y-70930500D01*
X140453466Y-70930500D01*
X140453467Y-70930499D01*
X140656420Y-70890130D01*
X140847598Y-70810941D01*
X141019655Y-70695977D01*
X141165977Y-70549655D01*
X141280941Y-70377598D01*
X141360130Y-70186420D01*
X141400500Y-69983465D01*
X141400500Y-69776535D01*
X141375602Y-69651362D01*
X151869500Y-69651362D01*
X151869500Y-70376000D01*
X151869501Y-70376009D01*
X151876481Y-70440935D01*
X151876483Y-70440947D01*
X151887688Y-70492453D01*
X151898644Y-70530654D01*
X151898646Y-70530658D01*
X151955323Y-70627568D01*
X151955325Y-70627571D01*
X152001081Y-70680376D01*
X152001091Y-70680387D01*
X152045807Y-70722548D01*
X152045809Y-70722549D01*
X152045813Y-70722553D01*
X152145889Y-70773439D01*
X152212928Y-70793124D01*
X152299000Y-70805500D01*
X152299003Y-70805500D01*
X155250990Y-70805500D01*
X155251000Y-70805500D01*
X155315941Y-70798518D01*
X155367452Y-70787312D01*
X155405658Y-70776354D01*
X155502571Y-70719675D01*
X155555375Y-70673920D01*
X155555382Y-70673912D01*
X155555387Y-70673908D01*
X155597548Y-70629192D01*
X155597553Y-70629187D01*
X155648439Y-70529111D01*
X155668124Y-70462072D01*
X155680500Y-70376000D01*
X155680500Y-69429500D01*
X155700185Y-69362461D01*
X155752989Y-69316706D01*
X155804500Y-69305500D01*
X158945500Y-69305500D01*
X159012539Y-69325185D01*
X159058294Y-69377989D01*
X159069500Y-69429500D01*
X159069500Y-72570500D01*
X159049815Y-72637539D01*
X158997011Y-72683294D01*
X158945500Y-72694500D01*
X157399000Y-72694500D01*
X157398991Y-72694500D01*
X157398990Y-72694501D01*
X157334064Y-72701481D01*
X157334052Y-72701483D01*
X157282546Y-72712688D01*
X157244345Y-72723644D01*
X157244341Y-72723646D01*
X157147431Y-72780323D01*
X157147428Y-72780325D01*
X157094623Y-72826081D01*
X157094612Y-72826091D01*
X157052451Y-72870807D01*
X157052445Y-72870816D01*
X157001560Y-72970890D01*
X156981877Y-73037921D01*
X156981876Y-73037928D01*
X156969500Y-73124000D01*
X156969500Y-76576000D01*
X156969501Y-76576009D01*
X156976481Y-76640935D01*
X156976483Y-76640947D01*
X156987688Y-76692453D01*
X156998644Y-76730654D01*
X156998646Y-76730658D01*
X157055323Y-76827568D01*
X157055325Y-76827571D01*
X157101081Y-76880376D01*
X157101091Y-76880387D01*
X157145807Y-76922548D01*
X157145809Y-76922549D01*
X157145813Y-76922553D01*
X157245889Y-76973439D01*
X157312928Y-76993124D01*
X157399000Y-77005500D01*
X157399003Y-77005500D01*
X158223639Y-77005500D01*
X158225559Y-77005397D01*
X158256297Y-77003749D01*
X158282655Y-77000915D01*
X158289660Y-77000080D01*
X158396407Y-76965297D01*
X158457730Y-76931812D01*
X158470099Y-76922553D01*
X158526425Y-76880387D01*
X158527340Y-76879702D01*
X160770084Y-74636958D01*
X160831407Y-74603473D01*
X160901099Y-74608457D01*
X160957032Y-74650329D01*
X160981449Y-74715793D01*
X160981765Y-74724639D01*
X160981765Y-74840892D01*
X160984072Y-74849502D01*
X161015873Y-74968187D01*
X161048819Y-75025250D01*
X161081765Y-75082314D01*
X161174951Y-75175500D01*
X161289079Y-75241392D01*
X161416373Y-75275500D01*
X161416375Y-75275500D01*
X161548155Y-75275500D01*
X161548157Y-75275500D01*
X161675451Y-75241392D01*
X161789579Y-75175500D01*
X161882765Y-75082314D01*
X161948657Y-74968186D01*
X161982765Y-74840892D01*
X161982765Y-74709108D01*
X161948657Y-74581814D01*
X161882765Y-74467686D01*
X161789579Y-74374500D01*
X161732515Y-74341554D01*
X161675452Y-74308608D01*
X161611804Y-74291554D01*
X161548157Y-74274500D01*
X161431904Y-74274500D01*
X161364865Y-74254815D01*
X161319110Y-74202011D01*
X161309166Y-74132853D01*
X161338191Y-74069297D01*
X161344223Y-74062819D01*
X162654702Y-72752340D01*
X162671079Y-72734108D01*
X164299500Y-72734108D01*
X164299500Y-72865892D01*
X164316554Y-72929539D01*
X164333608Y-72993187D01*
X164359436Y-73037921D01*
X164399500Y-73107314D01*
X164492686Y-73200500D01*
X164606814Y-73266392D01*
X164734108Y-73300500D01*
X164734110Y-73300500D01*
X164865890Y-73300500D01*
X164865892Y-73300500D01*
X164993186Y-73266392D01*
X165107314Y-73200500D01*
X165200500Y-73107314D01*
X165266392Y-72993186D01*
X165300500Y-72865892D01*
X165300500Y-72734108D01*
X165271873Y-72627269D01*
X165273536Y-72557420D01*
X165312699Y-72499558D01*
X165359549Y-72475404D01*
X165393186Y-72466392D01*
X165507314Y-72400500D01*
X165600500Y-72307314D01*
X165666392Y-72193186D01*
X165700500Y-72065892D01*
X165700500Y-71934108D01*
X165666392Y-71806814D01*
X165600500Y-71692686D01*
X165507314Y-71599500D01*
X165450250Y-71566554D01*
X165393187Y-71533608D01*
X165304090Y-71509735D01*
X165265892Y-71499500D01*
X165134108Y-71499500D01*
X165006812Y-71533608D01*
X164892686Y-71599500D01*
X164892683Y-71599502D01*
X164799502Y-71692683D01*
X164799500Y-71692686D01*
X164733608Y-71806812D01*
X164699500Y-71934108D01*
X164699500Y-72065893D01*
X164728126Y-72172730D01*
X164726463Y-72242580D01*
X164687300Y-72300442D01*
X164640446Y-72324596D01*
X164606814Y-72333608D01*
X164606812Y-72333608D01*
X164606812Y-72333609D01*
X164492686Y-72399500D01*
X164492683Y-72399502D01*
X164399502Y-72492683D01*
X164399500Y-72492686D01*
X164333608Y-72606812D01*
X164306676Y-72707325D01*
X164299500Y-72734108D01*
X162671079Y-72734108D01*
X162676558Y-72728008D01*
X162693192Y-72707366D01*
X162697553Y-72701825D01*
X162748439Y-72601749D01*
X162768124Y-72534710D01*
X162780500Y-72448638D01*
X162780500Y-70151362D01*
X162778749Y-70118703D01*
X162775915Y-70092345D01*
X162775080Y-70085340D01*
X162740297Y-69978593D01*
X162740295Y-69978588D01*
X162706810Y-69917266D01*
X162654710Y-69847670D01*
X162654705Y-69847665D01*
X162654702Y-69847660D01*
X162654698Y-69847656D01*
X162654692Y-69847649D01*
X161351151Y-68544108D01*
X165199500Y-68544108D01*
X165199500Y-68675892D01*
X165200735Y-68680500D01*
X165233608Y-68803187D01*
X165242647Y-68818842D01*
X165299500Y-68917314D01*
X165392686Y-69010500D01*
X165506814Y-69076392D01*
X165634108Y-69110500D01*
X165634110Y-69110500D01*
X165765890Y-69110500D01*
X165765892Y-69110500D01*
X165893186Y-69076392D01*
X166007314Y-69010500D01*
X166100500Y-68917314D01*
X166142613Y-68844371D01*
X166193180Y-68796156D01*
X166261787Y-68782933D01*
X166326652Y-68808901D01*
X166357386Y-68844371D01*
X166399500Y-68917314D01*
X166492686Y-69010500D01*
X166606814Y-69076392D01*
X166734108Y-69110500D01*
X166734110Y-69110500D01*
X166865890Y-69110500D01*
X166865892Y-69110500D01*
X166993186Y-69076392D01*
X167107314Y-69010500D01*
X167200500Y-68917314D01*
X167266392Y-68803186D01*
X167300500Y-68675892D01*
X167300500Y-68544108D01*
X167266392Y-68416814D01*
X167200500Y-68302686D01*
X167107314Y-68209500D01*
X167031783Y-68165892D01*
X166993187Y-68143608D01*
X166929539Y-68126554D01*
X166865892Y-68109500D01*
X166734108Y-68109500D01*
X166606812Y-68143608D01*
X166492686Y-68209500D01*
X166492683Y-68209502D01*
X166399502Y-68302683D01*
X166399500Y-68302686D01*
X166357387Y-68375628D01*
X166306820Y-68423843D01*
X166238212Y-68437065D01*
X166173348Y-68411097D01*
X166142613Y-68375628D01*
X166141203Y-68373186D01*
X166100500Y-68302686D01*
X166007314Y-68209500D01*
X165931783Y-68165892D01*
X165893187Y-68143608D01*
X165829539Y-68126554D01*
X165765892Y-68109500D01*
X165634108Y-68109500D01*
X165506812Y-68143608D01*
X165392686Y-68209500D01*
X165392683Y-68209502D01*
X165299502Y-68302683D01*
X165299500Y-68302686D01*
X165233608Y-68416812D01*
X165209577Y-68506498D01*
X165199500Y-68544108D01*
X161351151Y-68544108D01*
X160841151Y-68034108D01*
X179599500Y-68034108D01*
X179599500Y-68165891D01*
X179633608Y-68293187D01*
X179666484Y-68350129D01*
X179699500Y-68407314D01*
X179792686Y-68500500D01*
X179868217Y-68544108D01*
X179896603Y-68560497D01*
X179906814Y-68566392D01*
X180034108Y-68600500D01*
X180034110Y-68600500D01*
X180165890Y-68600500D01*
X180165892Y-68600500D01*
X180293186Y-68566392D01*
X180407314Y-68500500D01*
X180500500Y-68407314D01*
X180566392Y-68293186D01*
X180600500Y-68165892D01*
X180600500Y-68094108D01*
X181199500Y-68094108D01*
X181199500Y-68225892D01*
X181204859Y-68245891D01*
X181233608Y-68353187D01*
X181252050Y-68385129D01*
X181299500Y-68467314D01*
X181392686Y-68560500D01*
X181506814Y-68626392D01*
X181634108Y-68660500D01*
X181634110Y-68660500D01*
X181765890Y-68660500D01*
X181765892Y-68660500D01*
X181893186Y-68626392D01*
X182007314Y-68560500D01*
X182100500Y-68467314D01*
X182166392Y-68353186D01*
X182200500Y-68225892D01*
X182200500Y-68114108D01*
X186099500Y-68114108D01*
X186099500Y-68245891D01*
X186133608Y-68373187D01*
X186158797Y-68416814D01*
X186199500Y-68487314D01*
X186292686Y-68580500D01*
X186406814Y-68646392D01*
X186534108Y-68680500D01*
X186534110Y-68680500D01*
X186665890Y-68680500D01*
X186665892Y-68680500D01*
X186793186Y-68646392D01*
X186907314Y-68580500D01*
X187000500Y-68487314D01*
X187066392Y-68373186D01*
X187100500Y-68245892D01*
X187100500Y-68114108D01*
X187066392Y-67986814D01*
X187000500Y-67872686D01*
X186907314Y-67779500D01*
X186850250Y-67746554D01*
X186793187Y-67713608D01*
X186718544Y-67693608D01*
X186665892Y-67679500D01*
X186534108Y-67679500D01*
X186406812Y-67713608D01*
X186292686Y-67779500D01*
X186292683Y-67779502D01*
X186199502Y-67872683D01*
X186199500Y-67872686D01*
X186133608Y-67986812D01*
X186099500Y-68114108D01*
X182200500Y-68114108D01*
X182200500Y-68094108D01*
X182166392Y-67966814D01*
X182100500Y-67852686D01*
X182007314Y-67759500D01*
X181916929Y-67707316D01*
X181893187Y-67693608D01*
X181829539Y-67676554D01*
X181765892Y-67659500D01*
X181634108Y-67659500D01*
X181506812Y-67693608D01*
X181392686Y-67759500D01*
X181392683Y-67759502D01*
X181299502Y-67852683D01*
X181299500Y-67852686D01*
X181233608Y-67966812D01*
X181228249Y-67986814D01*
X181199500Y-68094108D01*
X180600500Y-68094108D01*
X180600500Y-68034108D01*
X180566392Y-67906814D01*
X180500500Y-67792686D01*
X180407314Y-67699500D01*
X180338032Y-67659500D01*
X180293187Y-67633608D01*
X180229539Y-67616554D01*
X180165892Y-67599500D01*
X180034108Y-67599500D01*
X179906812Y-67633608D01*
X179792686Y-67699500D01*
X179792683Y-67699502D01*
X179699502Y-67792683D01*
X179699500Y-67792686D01*
X179633608Y-67906812D01*
X179599500Y-68034108D01*
X160841151Y-68034108D01*
X160141151Y-67334108D01*
X182999500Y-67334108D01*
X182999500Y-67465891D01*
X183033608Y-67593187D01*
X183037253Y-67599500D01*
X183099500Y-67707314D01*
X183192686Y-67800500D01*
X183306814Y-67866392D01*
X183434108Y-67900500D01*
X183434110Y-67900500D01*
X183565890Y-67900500D01*
X183565892Y-67900500D01*
X183693186Y-67866392D01*
X183807314Y-67800500D01*
X183900500Y-67707314D01*
X183966392Y-67593186D01*
X184000500Y-67465892D01*
X184000500Y-67334108D01*
X183966392Y-67206814D01*
X183900500Y-67092686D01*
X183807314Y-66999500D01*
X183750250Y-66966554D01*
X183693187Y-66933608D01*
X183629539Y-66916554D01*
X183565892Y-66899500D01*
X183434108Y-66899500D01*
X183306812Y-66933608D01*
X183192686Y-66999500D01*
X183192683Y-66999502D01*
X183099502Y-67092683D01*
X183099500Y-67092686D01*
X183033608Y-67206812D01*
X182999500Y-67334108D01*
X160141151Y-67334108D01*
X159234568Y-66427525D01*
X162949500Y-66427525D01*
X162949500Y-66572475D01*
X162982199Y-66694507D01*
X162987017Y-66712488D01*
X163059488Y-66838011D01*
X163059490Y-66838013D01*
X163059491Y-66838015D01*
X163161985Y-66940509D01*
X163161986Y-66940510D01*
X163161988Y-66940511D01*
X163287511Y-67012982D01*
X163287512Y-67012982D01*
X163287515Y-67012984D01*
X163427525Y-67050500D01*
X163427528Y-67050500D01*
X163572472Y-67050500D01*
X163572475Y-67050500D01*
X163712485Y-67012984D01*
X163838015Y-66940509D01*
X163940509Y-66838015D01*
X164012984Y-66712485D01*
X164050500Y-66572475D01*
X164050500Y-66427525D01*
X164045683Y-66409547D01*
X164943170Y-66409547D01*
X164943170Y-66554497D01*
X164974211Y-66670342D01*
X164980687Y-66694510D01*
X165053158Y-66820033D01*
X165053160Y-66820035D01*
X165053161Y-66820037D01*
X165155655Y-66922531D01*
X165155656Y-66922532D01*
X165155658Y-66922533D01*
X165281181Y-66995004D01*
X165281182Y-66995004D01*
X165281185Y-66995006D01*
X165421195Y-67032522D01*
X165421198Y-67032522D01*
X165566142Y-67032522D01*
X165566145Y-67032522D01*
X165706155Y-66995006D01*
X165831685Y-66922531D01*
X165934179Y-66820037D01*
X166006654Y-66694507D01*
X166044170Y-66554497D01*
X166044170Y-66409547D01*
X166006654Y-66269537D01*
X165953296Y-66177119D01*
X165934181Y-66144010D01*
X165934176Y-66144004D01*
X165831687Y-66041515D01*
X165831681Y-66041510D01*
X165706158Y-65969039D01*
X165706159Y-65969039D01*
X165694676Y-65965962D01*
X165566145Y-65931522D01*
X165421195Y-65931522D01*
X165292663Y-65965962D01*
X165281181Y-65969039D01*
X165155658Y-66041510D01*
X165155652Y-66041515D01*
X165053163Y-66144004D01*
X165053158Y-66144010D01*
X164980687Y-66269533D01*
X164980686Y-66269537D01*
X164943170Y-66409547D01*
X164045683Y-66409547D01*
X164012984Y-66287515D01*
X164002604Y-66269537D01*
X163940511Y-66161988D01*
X163940506Y-66161982D01*
X163838017Y-66059493D01*
X163838011Y-66059488D01*
X163712488Y-65987017D01*
X163712489Y-65987017D01*
X163701006Y-65983940D01*
X163572475Y-65949500D01*
X163427525Y-65949500D01*
X163298993Y-65983940D01*
X163287511Y-65987017D01*
X163161988Y-66059488D01*
X163161982Y-66059493D01*
X163059493Y-66161982D01*
X163059488Y-66161988D01*
X162987017Y-66287511D01*
X162987016Y-66287515D01*
X162949500Y-66427525D01*
X159234568Y-66427525D01*
X158316819Y-65509776D01*
X158283334Y-65448453D01*
X158280500Y-65422095D01*
X158280500Y-64427525D01*
X162949500Y-64427525D01*
X162949500Y-64572475D01*
X162981710Y-64692683D01*
X162987017Y-64712488D01*
X163059488Y-64838011D01*
X163059490Y-64838013D01*
X163059491Y-64838015D01*
X163161985Y-64940509D01*
X163161986Y-64940510D01*
X163161988Y-64940511D01*
X163287511Y-65012982D01*
X163287512Y-65012982D01*
X163287515Y-65012984D01*
X163427525Y-65050500D01*
X163427528Y-65050500D01*
X163572472Y-65050500D01*
X163572475Y-65050500D01*
X163712485Y-65012984D01*
X163838015Y-64940509D01*
X163940509Y-64838015D01*
X164012984Y-64712485D01*
X164050500Y-64572475D01*
X164050500Y-64427525D01*
X164949500Y-64427525D01*
X164949500Y-64572475D01*
X164981710Y-64692683D01*
X164987017Y-64712488D01*
X165059488Y-64838011D01*
X165059490Y-64838013D01*
X165059491Y-64838015D01*
X165161985Y-64940509D01*
X165161986Y-64940510D01*
X165161988Y-64940511D01*
X165287511Y-65012982D01*
X165287512Y-65012982D01*
X165287515Y-65012984D01*
X165427525Y-65050500D01*
X165427528Y-65050500D01*
X165572472Y-65050500D01*
X165572475Y-65050500D01*
X165712485Y-65012984D01*
X165838015Y-64940509D01*
X165844416Y-64934108D01*
X173099500Y-64934108D01*
X173099500Y-65065891D01*
X173133608Y-65193187D01*
X173166554Y-65250250D01*
X173199500Y-65307314D01*
X173292686Y-65400500D01*
X173406814Y-65466392D01*
X173534108Y-65500500D01*
X173534110Y-65500500D01*
X173665890Y-65500500D01*
X173665892Y-65500500D01*
X173793186Y-65466392D01*
X173907314Y-65400500D01*
X174000500Y-65307314D01*
X174066392Y-65193186D01*
X174100500Y-65065892D01*
X174100500Y-64934108D01*
X174066392Y-64806814D01*
X174000500Y-64692686D01*
X173907314Y-64599500D01*
X173850250Y-64566554D01*
X173793187Y-64533608D01*
X173729539Y-64516554D01*
X173665892Y-64499500D01*
X173534108Y-64499500D01*
X173406812Y-64533608D01*
X173292686Y-64599500D01*
X173292683Y-64599502D01*
X173199502Y-64692683D01*
X173199500Y-64692686D01*
X173133608Y-64806812D01*
X173099500Y-64934108D01*
X165844416Y-64934108D01*
X165940509Y-64838015D01*
X166012984Y-64712485D01*
X166050500Y-64572475D01*
X166050500Y-64427525D01*
X166012984Y-64287515D01*
X165940509Y-64161985D01*
X165838015Y-64059491D01*
X165838013Y-64059490D01*
X165838011Y-64059488D01*
X165712488Y-63987017D01*
X165712489Y-63987017D01*
X165701006Y-63983940D01*
X165572475Y-63949500D01*
X165427525Y-63949500D01*
X165298993Y-63983940D01*
X165287511Y-63987017D01*
X165161988Y-64059488D01*
X165161982Y-64059493D01*
X165059493Y-64161982D01*
X165059488Y-64161988D01*
X164987017Y-64287511D01*
X164987016Y-64287515D01*
X164949500Y-64427525D01*
X164050500Y-64427525D01*
X164012984Y-64287515D01*
X163940509Y-64161985D01*
X163838015Y-64059491D01*
X163838013Y-64059490D01*
X163838011Y-64059488D01*
X163712488Y-63987017D01*
X163712489Y-63987017D01*
X163701006Y-63983940D01*
X163572475Y-63949500D01*
X163427525Y-63949500D01*
X163298993Y-63983940D01*
X163287511Y-63987017D01*
X163161988Y-64059488D01*
X163161982Y-64059493D01*
X163059493Y-64161982D01*
X163059488Y-64161988D01*
X162987017Y-64287511D01*
X162987016Y-64287515D01*
X162949500Y-64427525D01*
X158280500Y-64427525D01*
X158280500Y-63434108D01*
X178299500Y-63434108D01*
X178299500Y-63565891D01*
X178333608Y-63693187D01*
X178366554Y-63750250D01*
X178399500Y-63807314D01*
X178492686Y-63900500D01*
X178606814Y-63966392D01*
X178734108Y-64000500D01*
X178734110Y-64000500D01*
X178865890Y-64000500D01*
X178865892Y-64000500D01*
X178993186Y-63966392D01*
X179107314Y-63900500D01*
X179200500Y-63807314D01*
X179266392Y-63693186D01*
X179300500Y-63565892D01*
X179300500Y-63434108D01*
X179266392Y-63306814D01*
X179200500Y-63192686D01*
X179107314Y-63099500D01*
X179022444Y-63050500D01*
X178993187Y-63033608D01*
X178916208Y-63012982D01*
X178865892Y-62999500D01*
X178734108Y-62999500D01*
X178606812Y-63033608D01*
X178492686Y-63099500D01*
X178492683Y-63099502D01*
X178399502Y-63192683D01*
X178399500Y-63192686D01*
X178333608Y-63306812D01*
X178299500Y-63434108D01*
X158280500Y-63434108D01*
X158280500Y-63224010D01*
X158280500Y-63224000D01*
X158273518Y-63159059D01*
X158262312Y-63107548D01*
X158251354Y-63069342D01*
X158194675Y-62972429D01*
X158148920Y-62919625D01*
X158148918Y-62919623D01*
X158148908Y-62919612D01*
X158104192Y-62877451D01*
X158104189Y-62877449D01*
X158104187Y-62877447D01*
X158004111Y-62826561D01*
X158004110Y-62826560D01*
X158004109Y-62826560D01*
X157937078Y-62806877D01*
X157937072Y-62806876D01*
X157851000Y-62794500D01*
X157099000Y-62794500D01*
X157098991Y-62794500D01*
X157098990Y-62794501D01*
X157034064Y-62801481D01*
X157034052Y-62801483D01*
X156982546Y-62812688D01*
X156944345Y-62823644D01*
X156944341Y-62823646D01*
X156847431Y-62880323D01*
X156847428Y-62880325D01*
X156794623Y-62926081D01*
X156794612Y-62926091D01*
X156752451Y-62970807D01*
X156752445Y-62970816D01*
X156701560Y-63070890D01*
X156681877Y-63137921D01*
X156681876Y-63137928D01*
X156669502Y-63223990D01*
X156669500Y-63224002D01*
X156669500Y-64810310D01*
X156649815Y-64877349D01*
X156630844Y-64900267D01*
X152965961Y-68377207D01*
X152962949Y-68380102D01*
X152960619Y-68382371D01*
X152957827Y-68385129D01*
X151995311Y-69347646D01*
X151995295Y-69347663D01*
X151973440Y-69371993D01*
X151956775Y-69392674D01*
X151952448Y-69398172D01*
X151952447Y-69398174D01*
X151901560Y-69498252D01*
X151881877Y-69565283D01*
X151881876Y-69565290D01*
X151869500Y-69651362D01*
X141375602Y-69651362D01*
X141360130Y-69573580D01*
X141280941Y-69382402D01*
X141165977Y-69210345D01*
X141165975Y-69210342D01*
X141019657Y-69064024D01*
X140884160Y-68973489D01*
X140847598Y-68949059D01*
X140770959Y-68917314D01*
X140656420Y-68869870D01*
X140656412Y-68869868D01*
X140453469Y-68829500D01*
X140453465Y-68829500D01*
X140246535Y-68829500D01*
X140246530Y-68829500D01*
X140043587Y-68869868D01*
X140043579Y-68869870D01*
X139852403Y-68949058D01*
X139680342Y-69064024D01*
X139534024Y-69210342D01*
X139419058Y-69382403D01*
X139339870Y-69573579D01*
X139339868Y-69573587D01*
X139299500Y-69776530D01*
X130200501Y-69776530D01*
X130200501Y-68661153D01*
X134974500Y-68661153D01*
X134974500Y-68818846D01*
X135005261Y-68973489D01*
X135005264Y-68973501D01*
X135065602Y-69119172D01*
X135065609Y-69119185D01*
X135153210Y-69250288D01*
X135153213Y-69250292D01*
X135264707Y-69361786D01*
X135264711Y-69361789D01*
X135395814Y-69449390D01*
X135395827Y-69449397D01*
X135541498Y-69509735D01*
X135541503Y-69509737D01*
X135696153Y-69540499D01*
X135696156Y-69540500D01*
X135696158Y-69540500D01*
X136403844Y-69540500D01*
X136403845Y-69540499D01*
X136558497Y-69509737D01*
X136704179Y-69449394D01*
X136835289Y-69361789D01*
X136946789Y-69250289D01*
X137034394Y-69119179D01*
X137094737Y-68973497D01*
X137125500Y-68818842D01*
X137125500Y-68661158D01*
X137125500Y-68661155D01*
X137125499Y-68661153D01*
X137122563Y-68646391D01*
X137094737Y-68506503D01*
X137094735Y-68506498D01*
X137034397Y-68360827D01*
X137034390Y-68360814D01*
X136946789Y-68229711D01*
X136946786Y-68229707D01*
X136835292Y-68118213D01*
X136835288Y-68118210D01*
X136704185Y-68030609D01*
X136704172Y-68030602D01*
X136558501Y-67970264D01*
X136558489Y-67970261D01*
X136403845Y-67939500D01*
X136403842Y-67939500D01*
X135696158Y-67939500D01*
X135696155Y-67939500D01*
X135541510Y-67970261D01*
X135541498Y-67970264D01*
X135395827Y-68030602D01*
X135395814Y-68030609D01*
X135264711Y-68118210D01*
X135264707Y-68118213D01*
X135153213Y-68229707D01*
X135153210Y-68229711D01*
X135065609Y-68360814D01*
X135065602Y-68360827D01*
X135005264Y-68506498D01*
X135005261Y-68506510D01*
X134974500Y-68661153D01*
X130200501Y-68661153D01*
X130200501Y-66335730D01*
X134974500Y-66335730D01*
X134974500Y-67144269D01*
X134977353Y-67174699D01*
X134977353Y-67174701D01*
X135022206Y-67302880D01*
X135022207Y-67302882D01*
X135102850Y-67412150D01*
X135212118Y-67492793D01*
X135254845Y-67507744D01*
X135340299Y-67537646D01*
X135370730Y-67540500D01*
X135370734Y-67540500D01*
X136729270Y-67540500D01*
X136759699Y-67537646D01*
X136759701Y-67537646D01*
X136823790Y-67515219D01*
X136887882Y-67492793D01*
X136997150Y-67412150D01*
X137077793Y-67302882D01*
X137101010Y-67236530D01*
X139299500Y-67236530D01*
X139299500Y-67443469D01*
X139339868Y-67646412D01*
X139339870Y-67646420D01*
X139386709Y-67759500D01*
X139419059Y-67837598D01*
X139465306Y-67906812D01*
X139534024Y-68009657D01*
X139680342Y-68155975D01*
X139680345Y-68155977D01*
X139852402Y-68270941D01*
X140043580Y-68350130D01*
X140219533Y-68385129D01*
X140246530Y-68390499D01*
X140246534Y-68390500D01*
X140246535Y-68390500D01*
X140453466Y-68390500D01*
X140453467Y-68390499D01*
X140656420Y-68350130D01*
X140847598Y-68270941D01*
X141019655Y-68155977D01*
X141165977Y-68009655D01*
X141280941Y-67837598D01*
X141360130Y-67646420D01*
X141400500Y-67443465D01*
X141400500Y-67236535D01*
X141371887Y-67092686D01*
X141360131Y-67033583D01*
X141360130Y-67033581D01*
X141360130Y-67033580D01*
X141280941Y-66842402D01*
X141165977Y-66670345D01*
X141165975Y-66670342D01*
X141019657Y-66524024D01*
X140933626Y-66466541D01*
X140847598Y-66409059D01*
X140656420Y-66329870D01*
X140656412Y-66329868D01*
X140453469Y-66289500D01*
X140453465Y-66289500D01*
X140246535Y-66289500D01*
X140246530Y-66289500D01*
X140043587Y-66329868D01*
X140043579Y-66329870D01*
X139852403Y-66409058D01*
X139680342Y-66524024D01*
X139534024Y-66670342D01*
X139419058Y-66842403D01*
X139339870Y-67033579D01*
X139339869Y-67033583D01*
X139299500Y-67236530D01*
X137101010Y-67236530D01*
X137122646Y-67174699D01*
X137125500Y-67144266D01*
X137125500Y-66335734D01*
X137122646Y-66305301D01*
X137122646Y-66305300D01*
X137122646Y-66305298D01*
X137077793Y-66177119D01*
X137077792Y-66177117D01*
X136997150Y-66067850D01*
X136887882Y-65987207D01*
X136887880Y-65987206D01*
X136759700Y-65942353D01*
X136729270Y-65939500D01*
X136729266Y-65939500D01*
X135370734Y-65939500D01*
X135370730Y-65939500D01*
X135340300Y-65942353D01*
X135340298Y-65942353D01*
X135212119Y-65987206D01*
X135212117Y-65987207D01*
X135102850Y-66067850D01*
X135022207Y-66177117D01*
X135022206Y-66177119D01*
X134977353Y-66305298D01*
X134977353Y-66305300D01*
X134974500Y-66335730D01*
X130200501Y-66335730D01*
X130200501Y-62427525D01*
X162949500Y-62427525D01*
X162949500Y-62572475D01*
X162987016Y-62712485D01*
X162987017Y-62712488D01*
X163059488Y-62838011D01*
X163059490Y-62838013D01*
X163059491Y-62838015D01*
X163161985Y-62940509D01*
X163161986Y-62940510D01*
X163161988Y-62940511D01*
X163287511Y-63012982D01*
X163287512Y-63012982D01*
X163287515Y-63012984D01*
X163427525Y-63050500D01*
X163427528Y-63050500D01*
X163572472Y-63050500D01*
X163572475Y-63050500D01*
X163712485Y-63012984D01*
X163838015Y-62940509D01*
X163940509Y-62838015D01*
X164012984Y-62712485D01*
X164050500Y-62572475D01*
X164050500Y-62427525D01*
X164949500Y-62427525D01*
X164949500Y-62572475D01*
X164987016Y-62712485D01*
X164987017Y-62712488D01*
X165059488Y-62838011D01*
X165059490Y-62838013D01*
X165059491Y-62838015D01*
X165161985Y-62940509D01*
X165161986Y-62940510D01*
X165161988Y-62940511D01*
X165287511Y-63012982D01*
X165287512Y-63012982D01*
X165287515Y-63012984D01*
X165427525Y-63050500D01*
X165427528Y-63050500D01*
X165572472Y-63050500D01*
X165572475Y-63050500D01*
X165712485Y-63012984D01*
X165838015Y-62940509D01*
X165940509Y-62838015D01*
X166012984Y-62712485D01*
X166050500Y-62572475D01*
X166050500Y-62427525D01*
X166012984Y-62287515D01*
X165940509Y-62161985D01*
X165838015Y-62059491D01*
X165838013Y-62059490D01*
X165838011Y-62059488D01*
X165712488Y-61987017D01*
X165712489Y-61987017D01*
X165701006Y-61983940D01*
X165572475Y-61949500D01*
X165427525Y-61949500D01*
X165298993Y-61983940D01*
X165287511Y-61987017D01*
X165161988Y-62059488D01*
X165161982Y-62059493D01*
X165059493Y-62161982D01*
X165059488Y-62161988D01*
X164987017Y-62287511D01*
X164987016Y-62287515D01*
X164949500Y-62427525D01*
X164050500Y-62427525D01*
X164012984Y-62287515D01*
X163940509Y-62161985D01*
X163838015Y-62059491D01*
X163838013Y-62059490D01*
X163838011Y-62059488D01*
X163712488Y-61987017D01*
X163712489Y-61987017D01*
X163701006Y-61983940D01*
X163572475Y-61949500D01*
X163427525Y-61949500D01*
X163298993Y-61983940D01*
X163287511Y-61987017D01*
X163161988Y-62059488D01*
X163161982Y-62059493D01*
X163059493Y-62161982D01*
X163059488Y-62161988D01*
X162987017Y-62287511D01*
X162987016Y-62287515D01*
X162949500Y-62427525D01*
X130200501Y-62427525D01*
X130200501Y-59734108D01*
X131999500Y-59734108D01*
X131999500Y-59865891D01*
X132033608Y-59993187D01*
X132066554Y-60050250D01*
X132099500Y-60107314D01*
X132192686Y-60200500D01*
X132306814Y-60266392D01*
X132434108Y-60300500D01*
X132434110Y-60300500D01*
X132565890Y-60300500D01*
X132565892Y-60300500D01*
X132693186Y-60266392D01*
X132807314Y-60200500D01*
X132900500Y-60107314D01*
X132966392Y-59993186D01*
X133000500Y-59865892D01*
X133000500Y-59734108D01*
X132966392Y-59606814D01*
X132900500Y-59492686D01*
X132807314Y-59399500D01*
X132722439Y-59350497D01*
X132693187Y-59333608D01*
X132629539Y-59316554D01*
X132565892Y-59299500D01*
X132434108Y-59299500D01*
X132306812Y-59333608D01*
X132192686Y-59399500D01*
X132192683Y-59399502D01*
X132099502Y-59492683D01*
X132099500Y-59492686D01*
X132033608Y-59606812D01*
X131999500Y-59734108D01*
X130200501Y-59734108D01*
X130200501Y-58884108D01*
X160999500Y-58884108D01*
X160999500Y-59015892D01*
X161012183Y-59063226D01*
X161033608Y-59143187D01*
X161041036Y-59156052D01*
X161099500Y-59257314D01*
X161192686Y-59350500D01*
X161306814Y-59416392D01*
X161434108Y-59450500D01*
X161434110Y-59450500D01*
X161565890Y-59450500D01*
X161565892Y-59450500D01*
X161693186Y-59416392D01*
X161807314Y-59350500D01*
X161900500Y-59257314D01*
X161966392Y-59143186D01*
X162000500Y-59015892D01*
X162000500Y-58884108D01*
X161966392Y-58756814D01*
X161900500Y-58642686D01*
X161807314Y-58549500D01*
X161750250Y-58516554D01*
X161693187Y-58483608D01*
X161629539Y-58466554D01*
X161565892Y-58449500D01*
X161434108Y-58449500D01*
X161306812Y-58483608D01*
X161192686Y-58549500D01*
X161192683Y-58549502D01*
X161099502Y-58642683D01*
X161099500Y-58642686D01*
X161033608Y-58756812D01*
X160999500Y-58884108D01*
X130200501Y-58884108D01*
X130200501Y-57734108D01*
X187999500Y-57734108D01*
X187999500Y-57865891D01*
X188033608Y-57993187D01*
X188066554Y-58050250D01*
X188099500Y-58107314D01*
X188192686Y-58200500D01*
X188306814Y-58266392D01*
X188434108Y-58300500D01*
X188434110Y-58300500D01*
X188565890Y-58300500D01*
X188565892Y-58300500D01*
X188693186Y-58266392D01*
X188807314Y-58200500D01*
X188900500Y-58107314D01*
X188966392Y-57993186D01*
X189000500Y-57865892D01*
X189000500Y-57734108D01*
X190999500Y-57734108D01*
X190999500Y-57865891D01*
X191033608Y-57993187D01*
X191066554Y-58050250D01*
X191099500Y-58107314D01*
X191192686Y-58200500D01*
X191306814Y-58266392D01*
X191434108Y-58300500D01*
X191434110Y-58300500D01*
X191565890Y-58300500D01*
X191565892Y-58300500D01*
X191693186Y-58266392D01*
X191807314Y-58200500D01*
X191900500Y-58107314D01*
X191966392Y-57993186D01*
X192000500Y-57865892D01*
X192000500Y-57734108D01*
X191966392Y-57606814D01*
X191900500Y-57492686D01*
X191807314Y-57399500D01*
X191777071Y-57382039D01*
X191777070Y-57382038D01*
X191693189Y-57333609D01*
X191693186Y-57333608D01*
X191565892Y-57299500D01*
X191434108Y-57299500D01*
X191306812Y-57333608D01*
X191192686Y-57399500D01*
X191192683Y-57399502D01*
X191099502Y-57492683D01*
X191099500Y-57492686D01*
X191033608Y-57606812D01*
X190999500Y-57734108D01*
X189000500Y-57734108D01*
X188966392Y-57606814D01*
X188900500Y-57492686D01*
X188807314Y-57399500D01*
X188750250Y-57366554D01*
X188693187Y-57333608D01*
X188629539Y-57316554D01*
X188565892Y-57299500D01*
X188434108Y-57299500D01*
X188306812Y-57333608D01*
X188192686Y-57399500D01*
X188192683Y-57399502D01*
X188099502Y-57492683D01*
X188099500Y-57492686D01*
X188033608Y-57606812D01*
X187999500Y-57734108D01*
X130200501Y-57734108D01*
X130200501Y-57278711D01*
X193649500Y-57278711D01*
X193649500Y-57521288D01*
X193681161Y-57761785D01*
X193743947Y-57996104D01*
X193828611Y-58200500D01*
X193836776Y-58220212D01*
X193958064Y-58430289D01*
X193958066Y-58430292D01*
X193958067Y-58430293D01*
X194105733Y-58622736D01*
X194105739Y-58622743D01*
X194277256Y-58794260D01*
X194277262Y-58794265D01*
X194469711Y-58941936D01*
X194679788Y-59063224D01*
X194903900Y-59156054D01*
X195138211Y-59218838D01*
X195318586Y-59242584D01*
X195378711Y-59250500D01*
X195378712Y-59250500D01*
X195621289Y-59250500D01*
X195669388Y-59244167D01*
X195861789Y-59218838D01*
X196096100Y-59156054D01*
X196320212Y-59063224D01*
X196530289Y-58941936D01*
X196722738Y-58794265D01*
X196894265Y-58622738D01*
X197041936Y-58430289D01*
X197163224Y-58220212D01*
X197256054Y-57996100D01*
X197318838Y-57761789D01*
X197350500Y-57521288D01*
X197350500Y-57278712D01*
X197318838Y-57038211D01*
X197256054Y-56803900D01*
X197163224Y-56579788D01*
X197041936Y-56369711D01*
X196894265Y-56177262D01*
X196894260Y-56177256D01*
X196722743Y-56005739D01*
X196722736Y-56005733D01*
X196530293Y-55858067D01*
X196530292Y-55858066D01*
X196530289Y-55858064D01*
X196320212Y-55736776D01*
X196320205Y-55736773D01*
X196096104Y-55643947D01*
X195861785Y-55581161D01*
X195621289Y-55549500D01*
X195621288Y-55549500D01*
X195378712Y-55549500D01*
X195378711Y-55549500D01*
X195138214Y-55581161D01*
X194903895Y-55643947D01*
X194679794Y-55736773D01*
X194679785Y-55736777D01*
X194469706Y-55858067D01*
X194277263Y-56005733D01*
X194277256Y-56005739D01*
X194105739Y-56177256D01*
X194105733Y-56177263D01*
X193958067Y-56369706D01*
X193836777Y-56579785D01*
X193836773Y-56579794D01*
X193743947Y-56803895D01*
X193681161Y-57038214D01*
X193649500Y-57278711D01*
X130200501Y-57278711D01*
X130200500Y-55421153D01*
X134974500Y-55421153D01*
X134974500Y-55578846D01*
X135005261Y-55733489D01*
X135005264Y-55733501D01*
X135065602Y-55879172D01*
X135065609Y-55879185D01*
X135153210Y-56010288D01*
X135153213Y-56010292D01*
X135264707Y-56121786D01*
X135264711Y-56121789D01*
X135395814Y-56209390D01*
X135395827Y-56209397D01*
X135541498Y-56269735D01*
X135541503Y-56269737D01*
X135696153Y-56300499D01*
X135696156Y-56300500D01*
X135696158Y-56300500D01*
X136403844Y-56300500D01*
X136403845Y-56300499D01*
X136558497Y-56269737D01*
X136660407Y-56227525D01*
X152449500Y-56227525D01*
X152449500Y-56372475D01*
X152487016Y-56512485D01*
X152487017Y-56512488D01*
X152559488Y-56638011D01*
X152559490Y-56638013D01*
X152559491Y-56638015D01*
X152661985Y-56740509D01*
X152661986Y-56740510D01*
X152661988Y-56740511D01*
X152787511Y-56812982D01*
X152787512Y-56812982D01*
X152787515Y-56812984D01*
X152927525Y-56850500D01*
X152927528Y-56850500D01*
X153072472Y-56850500D01*
X153072475Y-56850500D01*
X153212485Y-56812984D01*
X153338015Y-56740509D01*
X153440509Y-56638015D01*
X153512984Y-56512485D01*
X153550500Y-56372475D01*
X153550500Y-56227525D01*
X153512984Y-56087515D01*
X153468397Y-56010289D01*
X153440511Y-55961988D01*
X153440506Y-55961982D01*
X153338017Y-55859493D01*
X153338011Y-55859488D01*
X153212488Y-55787017D01*
X153212489Y-55787017D01*
X153201006Y-55783940D01*
X153072475Y-55749500D01*
X152927525Y-55749500D01*
X152798993Y-55783940D01*
X152787511Y-55787017D01*
X152661988Y-55859488D01*
X152661982Y-55859493D01*
X152559493Y-55961982D01*
X152559488Y-55961988D01*
X152487017Y-56087511D01*
X152487016Y-56087515D01*
X152449500Y-56227525D01*
X136660407Y-56227525D01*
X136704179Y-56209394D01*
X136835289Y-56121789D01*
X136946789Y-56010289D01*
X137034394Y-55879179D01*
X137094737Y-55733497D01*
X137125500Y-55578842D01*
X137125500Y-55421158D01*
X137125500Y-55421155D01*
X137125499Y-55421153D01*
X137111445Y-55350500D01*
X137094737Y-55266503D01*
X137041516Y-55138015D01*
X137034397Y-55120827D01*
X137034390Y-55120814D01*
X136946789Y-54989711D01*
X136946786Y-54989707D01*
X136835292Y-54878213D01*
X136835288Y-54878210D01*
X136704185Y-54790609D01*
X136704172Y-54790602D01*
X136558501Y-54730264D01*
X136558489Y-54730261D01*
X136403845Y-54699500D01*
X136403842Y-54699500D01*
X135696158Y-54699500D01*
X135696155Y-54699500D01*
X135541510Y-54730261D01*
X135541498Y-54730264D01*
X135395827Y-54790602D01*
X135395814Y-54790609D01*
X135264711Y-54878210D01*
X135264707Y-54878213D01*
X135153213Y-54989707D01*
X135153210Y-54989711D01*
X135065609Y-55120814D01*
X135065602Y-55120827D01*
X135005264Y-55266498D01*
X135005261Y-55266510D01*
X134974500Y-55421153D01*
X130200500Y-55421153D01*
X130200500Y-54536530D01*
X139299500Y-54536530D01*
X139299500Y-54743469D01*
X139339868Y-54946412D01*
X139339870Y-54946420D01*
X139419058Y-55137596D01*
X139534024Y-55309657D01*
X139680342Y-55455975D01*
X139680345Y-55455977D01*
X139852402Y-55570941D01*
X140043580Y-55650130D01*
X140246530Y-55690499D01*
X140246534Y-55690500D01*
X140246535Y-55690500D01*
X140453466Y-55690500D01*
X140453467Y-55690499D01*
X140656420Y-55650130D01*
X140847598Y-55570941D01*
X141019655Y-55455977D01*
X141165977Y-55309655D01*
X141280941Y-55137598D01*
X141360130Y-54946420D01*
X141400500Y-54743465D01*
X141400500Y-54727525D01*
X149449500Y-54727525D01*
X149449500Y-54872475D01*
X149451038Y-54878213D01*
X149487017Y-55012488D01*
X149559488Y-55138011D01*
X149559490Y-55138013D01*
X149559491Y-55138015D01*
X149661985Y-55240509D01*
X149661986Y-55240510D01*
X149661988Y-55240511D01*
X149787511Y-55312982D01*
X149787512Y-55312982D01*
X149787515Y-55312984D01*
X149927525Y-55350500D01*
X149927528Y-55350500D01*
X150072472Y-55350500D01*
X150072475Y-55350500D01*
X150212485Y-55312984D01*
X150338015Y-55240509D01*
X150440509Y-55138015D01*
X150512984Y-55012485D01*
X150550500Y-54872475D01*
X150550500Y-54727525D01*
X150949500Y-54727525D01*
X150949500Y-54872475D01*
X150951038Y-54878213D01*
X150987017Y-55012488D01*
X151059488Y-55138011D01*
X151059490Y-55138013D01*
X151059491Y-55138015D01*
X151161985Y-55240509D01*
X151161986Y-55240510D01*
X151161988Y-55240511D01*
X151287511Y-55312982D01*
X151287512Y-55312982D01*
X151287515Y-55312984D01*
X151427525Y-55350500D01*
X151427528Y-55350500D01*
X151572472Y-55350500D01*
X151572475Y-55350500D01*
X151712485Y-55312984D01*
X151838015Y-55240509D01*
X151940509Y-55138015D01*
X152012984Y-55012485D01*
X152050500Y-54872475D01*
X152050500Y-54727525D01*
X152449500Y-54727525D01*
X152449500Y-54872475D01*
X152451038Y-54878213D01*
X152487017Y-55012488D01*
X152559488Y-55138011D01*
X152559490Y-55138013D01*
X152559491Y-55138015D01*
X152661985Y-55240509D01*
X152661986Y-55240510D01*
X152661988Y-55240511D01*
X152787511Y-55312982D01*
X152787512Y-55312982D01*
X152787515Y-55312984D01*
X152927525Y-55350500D01*
X152927528Y-55350500D01*
X153072472Y-55350500D01*
X153072475Y-55350500D01*
X153212485Y-55312984D01*
X153338015Y-55240509D01*
X153440509Y-55138015D01*
X153512984Y-55012485D01*
X153550500Y-54872475D01*
X153550500Y-54727525D01*
X153512984Y-54587515D01*
X153440509Y-54461985D01*
X153338015Y-54359491D01*
X153338013Y-54359490D01*
X153338011Y-54359488D01*
X153212488Y-54287017D01*
X153212489Y-54287017D01*
X153201006Y-54283940D01*
X153072475Y-54249500D01*
X152927525Y-54249500D01*
X152798993Y-54283940D01*
X152787511Y-54287017D01*
X152661988Y-54359488D01*
X152661982Y-54359493D01*
X152559493Y-54461982D01*
X152559488Y-54461988D01*
X152487017Y-54587511D01*
X152487016Y-54587515D01*
X152449500Y-54727525D01*
X152050500Y-54727525D01*
X152012984Y-54587515D01*
X151940509Y-54461985D01*
X151838015Y-54359491D01*
X151838013Y-54359490D01*
X151838011Y-54359488D01*
X151712488Y-54287017D01*
X151712489Y-54287017D01*
X151701006Y-54283940D01*
X151572475Y-54249500D01*
X151427525Y-54249500D01*
X151298993Y-54283940D01*
X151287511Y-54287017D01*
X151161988Y-54359488D01*
X151161982Y-54359493D01*
X151059493Y-54461982D01*
X151059488Y-54461988D01*
X150987017Y-54587511D01*
X150987016Y-54587515D01*
X150949500Y-54727525D01*
X150550500Y-54727525D01*
X150512984Y-54587515D01*
X150440509Y-54461985D01*
X150338015Y-54359491D01*
X150338013Y-54359490D01*
X150338011Y-54359488D01*
X150212488Y-54287017D01*
X150212489Y-54287017D01*
X150201006Y-54283940D01*
X150072475Y-54249500D01*
X149927525Y-54249500D01*
X149798993Y-54283940D01*
X149787511Y-54287017D01*
X149661988Y-54359488D01*
X149661982Y-54359493D01*
X149559493Y-54461982D01*
X149559488Y-54461988D01*
X149487017Y-54587511D01*
X149487016Y-54587515D01*
X149449500Y-54727525D01*
X141400500Y-54727525D01*
X141400500Y-54536535D01*
X141360130Y-54333580D01*
X141280941Y-54142402D01*
X141165977Y-53970345D01*
X141165975Y-53970342D01*
X141019657Y-53824024D01*
X140933626Y-53766541D01*
X140847598Y-53709059D01*
X140676088Y-53638017D01*
X140656420Y-53629870D01*
X140656412Y-53629868D01*
X140453469Y-53589500D01*
X140453465Y-53589500D01*
X140246535Y-53589500D01*
X140246530Y-53589500D01*
X140043587Y-53629868D01*
X140043579Y-53629870D01*
X139852403Y-53709058D01*
X139680342Y-53824024D01*
X139534024Y-53970342D01*
X139419058Y-54142403D01*
X139339870Y-54333579D01*
X139339868Y-54333587D01*
X139299500Y-54536530D01*
X130200500Y-54536530D01*
X130200500Y-53421153D01*
X134974500Y-53421153D01*
X134974500Y-53578846D01*
X135005261Y-53733489D01*
X135005264Y-53733501D01*
X135065602Y-53879172D01*
X135065609Y-53879185D01*
X135153210Y-54010288D01*
X135153213Y-54010292D01*
X135264707Y-54121786D01*
X135264711Y-54121789D01*
X135395814Y-54209390D01*
X135395827Y-54209397D01*
X135492646Y-54249500D01*
X135541503Y-54269737D01*
X135696153Y-54300499D01*
X135696156Y-54300500D01*
X135696158Y-54300500D01*
X136403844Y-54300500D01*
X136403845Y-54300499D01*
X136558497Y-54269737D01*
X136704179Y-54209394D01*
X136835289Y-54121789D01*
X136946789Y-54010289D01*
X137034394Y-53879179D01*
X137094737Y-53733497D01*
X137125500Y-53578842D01*
X137125500Y-53421158D01*
X137125500Y-53421155D01*
X137125499Y-53421153D01*
X137094738Y-53266510D01*
X137094737Y-53266503D01*
X137078592Y-53227525D01*
X149449500Y-53227525D01*
X149449500Y-53372475D01*
X149462545Y-53421158D01*
X149487017Y-53512488D01*
X149559488Y-53638011D01*
X149559490Y-53638013D01*
X149559491Y-53638015D01*
X149661985Y-53740509D01*
X149661986Y-53740510D01*
X149661988Y-53740511D01*
X149787511Y-53812982D01*
X149787512Y-53812982D01*
X149787515Y-53812984D01*
X149927525Y-53850500D01*
X149927528Y-53850500D01*
X150072472Y-53850500D01*
X150072475Y-53850500D01*
X150212485Y-53812984D01*
X150338015Y-53740509D01*
X150440509Y-53638015D01*
X150512984Y-53512485D01*
X150550500Y-53372475D01*
X150550500Y-53227525D01*
X150949500Y-53227525D01*
X150949500Y-53372475D01*
X150962545Y-53421158D01*
X150987017Y-53512488D01*
X151059488Y-53638011D01*
X151059490Y-53638013D01*
X151059491Y-53638015D01*
X151161985Y-53740509D01*
X151161986Y-53740510D01*
X151161988Y-53740511D01*
X151287511Y-53812982D01*
X151287512Y-53812982D01*
X151287515Y-53812984D01*
X151427525Y-53850500D01*
X151427528Y-53850500D01*
X151572472Y-53850500D01*
X151572475Y-53850500D01*
X151712485Y-53812984D01*
X151838015Y-53740509D01*
X151940509Y-53638015D01*
X152012984Y-53512485D01*
X152050500Y-53372475D01*
X152050500Y-53227525D01*
X152012984Y-53087515D01*
X151956514Y-52989707D01*
X151940511Y-52961988D01*
X151940506Y-52961982D01*
X151838017Y-52859493D01*
X151838011Y-52859488D01*
X151712488Y-52787017D01*
X151712489Y-52787017D01*
X151701006Y-52783940D01*
X151572475Y-52749500D01*
X151427525Y-52749500D01*
X151298993Y-52783940D01*
X151287511Y-52787017D01*
X151161988Y-52859488D01*
X151161982Y-52859493D01*
X151059493Y-52961982D01*
X151059488Y-52961988D01*
X150987017Y-53087511D01*
X150987016Y-53087515D01*
X150949500Y-53227525D01*
X150550500Y-53227525D01*
X150512984Y-53087515D01*
X150456514Y-52989707D01*
X150440511Y-52961988D01*
X150440506Y-52961982D01*
X150338017Y-52859493D01*
X150338011Y-52859488D01*
X150212488Y-52787017D01*
X150212489Y-52787017D01*
X150201006Y-52783940D01*
X150072475Y-52749500D01*
X149927525Y-52749500D01*
X149798993Y-52783940D01*
X149787511Y-52787017D01*
X149661988Y-52859488D01*
X149661982Y-52859493D01*
X149559493Y-52961982D01*
X149559488Y-52961988D01*
X149487017Y-53087511D01*
X149487016Y-53087515D01*
X149449500Y-53227525D01*
X137078592Y-53227525D01*
X137067398Y-53200500D01*
X137034397Y-53120827D01*
X137034390Y-53120814D01*
X136946789Y-52989711D01*
X136946786Y-52989707D01*
X136835292Y-52878213D01*
X136835288Y-52878210D01*
X136704185Y-52790609D01*
X136704172Y-52790602D01*
X136558501Y-52730264D01*
X136558489Y-52730261D01*
X136403845Y-52699500D01*
X136403842Y-52699500D01*
X135696158Y-52699500D01*
X135696155Y-52699500D01*
X135541510Y-52730261D01*
X135541498Y-52730264D01*
X135395827Y-52790602D01*
X135395814Y-52790609D01*
X135264711Y-52878210D01*
X135264707Y-52878213D01*
X135153213Y-52989707D01*
X135153210Y-52989711D01*
X135065609Y-53120814D01*
X135065602Y-53120827D01*
X135005264Y-53266498D01*
X135005261Y-53266510D01*
X134974500Y-53421153D01*
X130200500Y-53421153D01*
X130200500Y-51095730D01*
X134974500Y-51095730D01*
X134974500Y-51904269D01*
X134977353Y-51934699D01*
X134977353Y-51934701D01*
X135022206Y-52062880D01*
X135022207Y-52062882D01*
X135102850Y-52172150D01*
X135212118Y-52252793D01*
X135254845Y-52267744D01*
X135340299Y-52297646D01*
X135370730Y-52300500D01*
X135370734Y-52300500D01*
X136729270Y-52300500D01*
X136759699Y-52297646D01*
X136759701Y-52297646D01*
X136823790Y-52275219D01*
X136887882Y-52252793D01*
X136997150Y-52172150D01*
X137077793Y-52062882D01*
X137101010Y-51996530D01*
X139299500Y-51996530D01*
X139299500Y-52203469D01*
X139337138Y-52392686D01*
X139339870Y-52406420D01*
X139419059Y-52597598D01*
X139476541Y-52683626D01*
X139534024Y-52769657D01*
X139680342Y-52915975D01*
X139680345Y-52915977D01*
X139852402Y-53030941D01*
X140043580Y-53110130D01*
X140246530Y-53150499D01*
X140246534Y-53150500D01*
X140246535Y-53150500D01*
X140453466Y-53150500D01*
X140453467Y-53150499D01*
X140656420Y-53110130D01*
X140847598Y-53030941D01*
X141019655Y-52915977D01*
X141165977Y-52769655D01*
X141256546Y-52634108D01*
X160599500Y-52634108D01*
X160599500Y-52765892D01*
X160606121Y-52790602D01*
X160633608Y-52893187D01*
X160646765Y-52915975D01*
X160699500Y-53007314D01*
X160792686Y-53100500D01*
X160906814Y-53166392D01*
X161034108Y-53200500D01*
X161034110Y-53200500D01*
X161165890Y-53200500D01*
X161165892Y-53200500D01*
X161293186Y-53166392D01*
X161407314Y-53100500D01*
X161500500Y-53007314D01*
X161566392Y-52893186D01*
X161600500Y-52765892D01*
X161600500Y-52634108D01*
X161566392Y-52506814D01*
X161500500Y-52392686D01*
X161407314Y-52299500D01*
X161350250Y-52266554D01*
X161293187Y-52233608D01*
X161229539Y-52216554D01*
X161165892Y-52199500D01*
X161034108Y-52199500D01*
X160906812Y-52233608D01*
X160792686Y-52299500D01*
X160792683Y-52299502D01*
X160699502Y-52392683D01*
X160699500Y-52392686D01*
X160633608Y-52506812D01*
X160609283Y-52597596D01*
X160599500Y-52634108D01*
X141256546Y-52634108D01*
X141280941Y-52597598D01*
X141360130Y-52406420D01*
X141400500Y-52203465D01*
X141400500Y-51996535D01*
X141360130Y-51793580D01*
X141280941Y-51602402D01*
X141168491Y-51434108D01*
X200499500Y-51434108D01*
X200499500Y-51565891D01*
X200533608Y-51693187D01*
X200566554Y-51750250D01*
X200599500Y-51807314D01*
X200692686Y-51900500D01*
X200806814Y-51966392D01*
X200934108Y-52000500D01*
X200934110Y-52000500D01*
X201065890Y-52000500D01*
X201065892Y-52000500D01*
X201193186Y-51966392D01*
X201307314Y-51900500D01*
X201400500Y-51807314D01*
X201466392Y-51693186D01*
X201500500Y-51565892D01*
X201500500Y-51434108D01*
X202999500Y-51434108D01*
X202999500Y-51565891D01*
X203033608Y-51693187D01*
X203066554Y-51750250D01*
X203099500Y-51807314D01*
X203192686Y-51900500D01*
X203306814Y-51966392D01*
X203434108Y-52000500D01*
X203434110Y-52000500D01*
X203565890Y-52000500D01*
X203565892Y-52000500D01*
X203693186Y-51966392D01*
X203807314Y-51900500D01*
X203900500Y-51807314D01*
X203966392Y-51693186D01*
X204000500Y-51565892D01*
X204000500Y-51434108D01*
X205749500Y-51434108D01*
X205749500Y-51565891D01*
X205783608Y-51693187D01*
X205816554Y-51750250D01*
X205849500Y-51807314D01*
X205942686Y-51900500D01*
X206056814Y-51966392D01*
X206184108Y-52000500D01*
X206184110Y-52000500D01*
X206315890Y-52000500D01*
X206315892Y-52000500D01*
X206443186Y-51966392D01*
X206557314Y-51900500D01*
X206650500Y-51807314D01*
X206716392Y-51693186D01*
X206750500Y-51565892D01*
X206750500Y-51434108D01*
X206716392Y-51306814D01*
X206650500Y-51192686D01*
X206557314Y-51099500D01*
X206470712Y-51049500D01*
X206443187Y-51033608D01*
X206379539Y-51016554D01*
X206315892Y-50999500D01*
X206184108Y-50999500D01*
X206056812Y-51033608D01*
X205942686Y-51099500D01*
X205942683Y-51099502D01*
X205849502Y-51192683D01*
X205849500Y-51192686D01*
X205783608Y-51306812D01*
X205749500Y-51434108D01*
X204000500Y-51434108D01*
X203966392Y-51306814D01*
X203900500Y-51192686D01*
X203807314Y-51099500D01*
X203720712Y-51049500D01*
X203693187Y-51033608D01*
X203629539Y-51016554D01*
X203565892Y-50999500D01*
X203434108Y-50999500D01*
X203306812Y-51033608D01*
X203192686Y-51099500D01*
X203192683Y-51099502D01*
X203099502Y-51192683D01*
X203099500Y-51192686D01*
X203033608Y-51306812D01*
X202999500Y-51434108D01*
X201500500Y-51434108D01*
X201466392Y-51306814D01*
X201400500Y-51192686D01*
X201307314Y-51099500D01*
X201220712Y-51049500D01*
X201193187Y-51033608D01*
X201129539Y-51016554D01*
X201065892Y-50999500D01*
X200934108Y-50999500D01*
X200806812Y-51033608D01*
X200692686Y-51099500D01*
X200692683Y-51099502D01*
X200599502Y-51192683D01*
X200599500Y-51192686D01*
X200533608Y-51306812D01*
X200499500Y-51434108D01*
X141168491Y-51434108D01*
X141165977Y-51430345D01*
X141165975Y-51430342D01*
X141019657Y-51284024D01*
X140894653Y-51200500D01*
X140847598Y-51169059D01*
X140841159Y-51166392D01*
X140656420Y-51089870D01*
X140656412Y-51089868D01*
X140453469Y-51049500D01*
X140453465Y-51049500D01*
X140246535Y-51049500D01*
X140246530Y-51049500D01*
X140043587Y-51089868D01*
X140043579Y-51089870D01*
X139852403Y-51169058D01*
X139680342Y-51284024D01*
X139534024Y-51430342D01*
X139419058Y-51602403D01*
X139339870Y-51793579D01*
X139339868Y-51793587D01*
X139299500Y-51996530D01*
X137101010Y-51996530D01*
X137122646Y-51934699D01*
X137125500Y-51904266D01*
X137125500Y-51095734D01*
X137122646Y-51065301D01*
X137122646Y-51065300D01*
X137122646Y-51065298D01*
X137077793Y-50937119D01*
X137077792Y-50937117D01*
X136997150Y-50827850D01*
X136887882Y-50747207D01*
X136875920Y-50743021D01*
X136759700Y-50702353D01*
X136729270Y-50699500D01*
X136729266Y-50699500D01*
X135370734Y-50699500D01*
X135370730Y-50699500D01*
X135340300Y-50702353D01*
X135340298Y-50702353D01*
X135212119Y-50747206D01*
X135212117Y-50747207D01*
X135102850Y-50827850D01*
X135022207Y-50937117D01*
X135022206Y-50937119D01*
X134977353Y-51065298D01*
X134977353Y-51065300D01*
X134974500Y-51095730D01*
X130200500Y-51095730D01*
X130200500Y-50634108D01*
X165199500Y-50634108D01*
X165199500Y-50765891D01*
X165233608Y-50893187D01*
X165258972Y-50937117D01*
X165299500Y-51007314D01*
X165392686Y-51100500D01*
X165506814Y-51166392D01*
X165634108Y-51200500D01*
X165634110Y-51200500D01*
X165765890Y-51200500D01*
X165765892Y-51200500D01*
X165893186Y-51166392D01*
X166007314Y-51100500D01*
X166100500Y-51007314D01*
X166166392Y-50893186D01*
X166200500Y-50765892D01*
X166200500Y-50634108D01*
X166166392Y-50506814D01*
X166142764Y-50465890D01*
X166100503Y-50392691D01*
X166100502Y-50392690D01*
X166100500Y-50392686D01*
X166041922Y-50334108D01*
X172099500Y-50334108D01*
X172099500Y-50465892D01*
X172114153Y-50520578D01*
X172133608Y-50593187D01*
X172166554Y-50650250D01*
X172199500Y-50707314D01*
X172292686Y-50800500D01*
X172406814Y-50866392D01*
X172534108Y-50900500D01*
X172534110Y-50900500D01*
X172665890Y-50900500D01*
X172665892Y-50900500D01*
X172793186Y-50866392D01*
X172907314Y-50800500D01*
X173000500Y-50707314D01*
X173066392Y-50593186D01*
X173100500Y-50465892D01*
X173100500Y-50334108D01*
X173066392Y-50206814D01*
X173066389Y-50206808D01*
X173055520Y-50187982D01*
X173055519Y-50187981D01*
X173024415Y-50134108D01*
X175299500Y-50134108D01*
X175299500Y-50265891D01*
X175333608Y-50393187D01*
X175366554Y-50450250D01*
X175399500Y-50507314D01*
X175492686Y-50600500D01*
X175606814Y-50666392D01*
X175734108Y-50700500D01*
X175734110Y-50700500D01*
X175865890Y-50700500D01*
X175865892Y-50700500D01*
X175993186Y-50666392D01*
X176107314Y-50600500D01*
X176200500Y-50507314D01*
X176266392Y-50393186D01*
X176300500Y-50265892D01*
X176300500Y-50134108D01*
X177299500Y-50134108D01*
X177299500Y-50265891D01*
X177333608Y-50393187D01*
X177366554Y-50450250D01*
X177399500Y-50507314D01*
X177492686Y-50600500D01*
X177606814Y-50666392D01*
X177734108Y-50700500D01*
X177734110Y-50700500D01*
X177865890Y-50700500D01*
X177865892Y-50700500D01*
X177993186Y-50666392D01*
X178107314Y-50600500D01*
X178200500Y-50507314D01*
X178266392Y-50393186D01*
X178300500Y-50265892D01*
X178300500Y-50134108D01*
X178266392Y-50006814D01*
X178200500Y-49892686D01*
X178107314Y-49799500D01*
X178022442Y-49750499D01*
X177993187Y-49733608D01*
X177928931Y-49716391D01*
X177865892Y-49699500D01*
X177734108Y-49699500D01*
X177606812Y-49733608D01*
X177492686Y-49799500D01*
X177492683Y-49799502D01*
X177399502Y-49892683D01*
X177399500Y-49892686D01*
X177333608Y-50006812D01*
X177299500Y-50134108D01*
X176300500Y-50134108D01*
X176266392Y-50006814D01*
X176200500Y-49892686D01*
X176107314Y-49799500D01*
X176022442Y-49750499D01*
X175993187Y-49733608D01*
X175928931Y-49716391D01*
X175865892Y-49699500D01*
X175734108Y-49699500D01*
X175606812Y-49733608D01*
X175492686Y-49799500D01*
X175492683Y-49799502D01*
X175399502Y-49892683D01*
X175399500Y-49892686D01*
X175333608Y-50006812D01*
X175299500Y-50134108D01*
X173024415Y-50134108D01*
X173000500Y-50092686D01*
X172907314Y-49999500D01*
X172849968Y-49966391D01*
X172793187Y-49933608D01*
X172729539Y-49916554D01*
X172665892Y-49899500D01*
X172534108Y-49899500D01*
X172406812Y-49933608D01*
X172292686Y-49999500D01*
X172292683Y-49999502D01*
X172199502Y-50092683D01*
X172199500Y-50092686D01*
X172133608Y-50206812D01*
X172099500Y-50334108D01*
X166041922Y-50334108D01*
X166007314Y-50299500D01*
X165949100Y-50265890D01*
X165893187Y-50233608D01*
X165793188Y-50206814D01*
X165765892Y-50199500D01*
X165634108Y-50199500D01*
X165506812Y-50233608D01*
X165392686Y-50299500D01*
X165392683Y-50299502D01*
X165299502Y-50392683D01*
X165299500Y-50392686D01*
X165233608Y-50506812D01*
X165199500Y-50634108D01*
X130200500Y-50634108D01*
X130200500Y-49134108D01*
X183799500Y-49134108D01*
X183799500Y-49265891D01*
X183833608Y-49393187D01*
X183862476Y-49443186D01*
X183899500Y-49507314D01*
X183992686Y-49600500D01*
X184106814Y-49666392D01*
X184234108Y-49700500D01*
X184234110Y-49700500D01*
X184365890Y-49700500D01*
X184365892Y-49700500D01*
X184493186Y-49666392D01*
X184607314Y-49600500D01*
X184700500Y-49507314D01*
X184752331Y-49417539D01*
X184802895Y-49369327D01*
X184871502Y-49356103D01*
X184936367Y-49382071D01*
X184967103Y-49417541D01*
X185004500Y-49482314D01*
X185097686Y-49575500D01*
X185211814Y-49641392D01*
X185339108Y-49675500D01*
X185339110Y-49675500D01*
X185470890Y-49675500D01*
X185470892Y-49675500D01*
X185598186Y-49641392D01*
X185712314Y-49575500D01*
X185805500Y-49482314D01*
X185833332Y-49434108D01*
X193249500Y-49434108D01*
X193249500Y-49565892D01*
X193255863Y-49589639D01*
X193283608Y-49693187D01*
X193297005Y-49716391D01*
X193349500Y-49807314D01*
X193442686Y-49900500D01*
X193556814Y-49966392D01*
X193684108Y-50000500D01*
X193684110Y-50000500D01*
X193815890Y-50000500D01*
X193815892Y-50000500D01*
X193943186Y-49966392D01*
X194057314Y-49900500D01*
X194150500Y-49807314D01*
X194216392Y-49693186D01*
X194250500Y-49565892D01*
X194250500Y-49434108D01*
X195499500Y-49434108D01*
X195499500Y-49565892D01*
X195505863Y-49589639D01*
X195533608Y-49693187D01*
X195547005Y-49716391D01*
X195599500Y-49807314D01*
X195692686Y-49900500D01*
X195806814Y-49966392D01*
X195934108Y-50000500D01*
X195934110Y-50000500D01*
X196065890Y-50000500D01*
X196065892Y-50000500D01*
X196193186Y-49966392D01*
X196307314Y-49900500D01*
X196400500Y-49807314D01*
X196466392Y-49693186D01*
X196500500Y-49565892D01*
X196500500Y-49434108D01*
X197999500Y-49434108D01*
X197999500Y-49565892D01*
X198005863Y-49589639D01*
X198033608Y-49693187D01*
X198047005Y-49716391D01*
X198099500Y-49807314D01*
X198192686Y-49900500D01*
X198306814Y-49966392D01*
X198434108Y-50000500D01*
X198434110Y-50000500D01*
X198565890Y-50000500D01*
X198565892Y-50000500D01*
X198693186Y-49966392D01*
X198807314Y-49900500D01*
X198900500Y-49807314D01*
X198966392Y-49693186D01*
X199000500Y-49565892D01*
X199000500Y-49434108D01*
X198966392Y-49306814D01*
X198900500Y-49192686D01*
X198891922Y-49184108D01*
X200499500Y-49184108D01*
X200499500Y-49315892D01*
X200513512Y-49368186D01*
X200533608Y-49443187D01*
X200556200Y-49482316D01*
X200599500Y-49557314D01*
X200692686Y-49650500D01*
X200806814Y-49716392D01*
X200934108Y-49750500D01*
X200934110Y-49750500D01*
X201065890Y-49750500D01*
X201065892Y-49750500D01*
X201193186Y-49716392D01*
X201307314Y-49650500D01*
X201381547Y-49576266D01*
X201442866Y-49542784D01*
X201512558Y-49547768D01*
X201568492Y-49589639D01*
X201587156Y-49625631D01*
X201655770Y-49836803D01*
X201742395Y-50006812D01*
X201759421Y-50040228D01*
X201893621Y-50224937D01*
X202055063Y-50386379D01*
X202239772Y-50520579D01*
X202328943Y-50566014D01*
X202443196Y-50624229D01*
X202443198Y-50624229D01*
X202443201Y-50624231D01*
X202559592Y-50662049D01*
X202660339Y-50694784D01*
X202885838Y-50730500D01*
X202885843Y-50730500D01*
X204114162Y-50730500D01*
X204339660Y-50694784D01*
X204556799Y-50624231D01*
X204760228Y-50520579D01*
X204944937Y-50386379D01*
X205106379Y-50224937D01*
X205240579Y-50040228D01*
X205344231Y-49836799D01*
X205414784Y-49619660D01*
X205419539Y-49589639D01*
X205450500Y-49394162D01*
X205450500Y-49184108D01*
X205749500Y-49184108D01*
X205749500Y-49315892D01*
X205763512Y-49368186D01*
X205783608Y-49443187D01*
X205806200Y-49482316D01*
X205849500Y-49557314D01*
X205942686Y-49650500D01*
X206056814Y-49716392D01*
X206184108Y-49750500D01*
X206184110Y-49750500D01*
X206315890Y-49750500D01*
X206315892Y-49750500D01*
X206443186Y-49716392D01*
X206557314Y-49650500D01*
X206650500Y-49557314D01*
X206716392Y-49443186D01*
X206750500Y-49315892D01*
X206750500Y-49184108D01*
X206725225Y-49089778D01*
X210099500Y-49089778D01*
X210099500Y-49310221D01*
X210133985Y-49527952D01*
X210202103Y-49737603D01*
X210202104Y-49737606D01*
X210237623Y-49807314D01*
X210301974Y-49933608D01*
X210302187Y-49934025D01*
X210431752Y-50112358D01*
X210431756Y-50112363D01*
X210587636Y-50268243D01*
X210587641Y-50268247D01*
X210678292Y-50334108D01*
X210765978Y-50397815D01*
X210894375Y-50463237D01*
X210962393Y-50497895D01*
X210962396Y-50497896D01*
X210991389Y-50507316D01*
X211172049Y-50566015D01*
X211389778Y-50600500D01*
X211389779Y-50600500D01*
X211610221Y-50600500D01*
X211610222Y-50600500D01*
X211827951Y-50566015D01*
X212037606Y-50497895D01*
X212234022Y-50397815D01*
X212412365Y-50268242D01*
X212568242Y-50112365D01*
X212697815Y-49934022D01*
X212797895Y-49737606D01*
X212866015Y-49527951D01*
X212900500Y-49310222D01*
X212900500Y-49089778D01*
X212866015Y-48872049D01*
X212826197Y-48749500D01*
X212797896Y-48662396D01*
X212797895Y-48662393D01*
X212763237Y-48594375D01*
X212697815Y-48465978D01*
X212681260Y-48443192D01*
X212568247Y-48287641D01*
X212568243Y-48287636D01*
X212412363Y-48131756D01*
X212412358Y-48131752D01*
X212234025Y-48002187D01*
X212234024Y-48002186D01*
X212234022Y-48002185D01*
X212163773Y-47966391D01*
X212037606Y-47902104D01*
X212037603Y-47902103D01*
X211827952Y-47833985D01*
X211659551Y-47807313D01*
X211610222Y-47799500D01*
X211389778Y-47799500D01*
X211340449Y-47807313D01*
X211172047Y-47833985D01*
X210962396Y-47902103D01*
X210962393Y-47902104D01*
X210765974Y-48002187D01*
X210587641Y-48131752D01*
X210587636Y-48131756D01*
X210431756Y-48287636D01*
X210431752Y-48287641D01*
X210302187Y-48465974D01*
X210202104Y-48662393D01*
X210202103Y-48662396D01*
X210133985Y-48872047D01*
X210099500Y-49089778D01*
X206725225Y-49089778D01*
X206716392Y-49056814D01*
X206650500Y-48942686D01*
X206557314Y-48849500D01*
X206500250Y-48816554D01*
X206443187Y-48783608D01*
X206379539Y-48766554D01*
X206315892Y-48749500D01*
X206184108Y-48749500D01*
X206056812Y-48783608D01*
X205942686Y-48849500D01*
X205942683Y-48849502D01*
X205849502Y-48942683D01*
X205849500Y-48942686D01*
X205783608Y-49056812D01*
X205762897Y-49134108D01*
X205749500Y-49184108D01*
X205450500Y-49184108D01*
X205450500Y-49165837D01*
X205414784Y-48940339D01*
X205344229Y-48723196D01*
X205240578Y-48519771D01*
X205201492Y-48465974D01*
X205106379Y-48335063D01*
X204944937Y-48173621D01*
X204760228Y-48039421D01*
X204556803Y-47935770D01*
X204339660Y-47865215D01*
X204114162Y-47829500D01*
X204114157Y-47829500D01*
X202885843Y-47829500D01*
X202885838Y-47829500D01*
X202660339Y-47865215D01*
X202443196Y-47935770D01*
X202239771Y-48039421D01*
X202055061Y-48173622D01*
X201893622Y-48335061D01*
X201759421Y-48519771D01*
X201655770Y-48723196D01*
X201601870Y-48889082D01*
X201562432Y-48946757D01*
X201498073Y-48973955D01*
X201429227Y-48962040D01*
X201396258Y-48938444D01*
X201307316Y-48849502D01*
X201307314Y-48849500D01*
X201250250Y-48816554D01*
X201193187Y-48783608D01*
X201129539Y-48766554D01*
X201065892Y-48749500D01*
X200934108Y-48749500D01*
X200806812Y-48783608D01*
X200692686Y-48849500D01*
X200692683Y-48849502D01*
X200599502Y-48942683D01*
X200599500Y-48942686D01*
X200533608Y-49056812D01*
X200512897Y-49134108D01*
X200499500Y-49184108D01*
X198891922Y-49184108D01*
X198807314Y-49099500D01*
X198733380Y-49056814D01*
X198693187Y-49033608D01*
X198593188Y-49006814D01*
X198565892Y-48999500D01*
X198434108Y-48999500D01*
X198306812Y-49033608D01*
X198192686Y-49099500D01*
X198192683Y-49099502D01*
X198099502Y-49192683D01*
X198099500Y-49192686D01*
X198033608Y-49306812D01*
X197999500Y-49434108D01*
X196500500Y-49434108D01*
X196466392Y-49306814D01*
X196400500Y-49192686D01*
X196307314Y-49099500D01*
X196233380Y-49056814D01*
X196193187Y-49033608D01*
X196093188Y-49006814D01*
X196065892Y-48999500D01*
X195934108Y-48999500D01*
X195806812Y-49033608D01*
X195692686Y-49099500D01*
X195692683Y-49099502D01*
X195599502Y-49192683D01*
X195599500Y-49192686D01*
X195533608Y-49306812D01*
X195499500Y-49434108D01*
X194250500Y-49434108D01*
X194216392Y-49306814D01*
X194150500Y-49192686D01*
X194057314Y-49099500D01*
X193983380Y-49056814D01*
X193943187Y-49033608D01*
X193843188Y-49006814D01*
X193815892Y-48999500D01*
X193684108Y-48999500D01*
X193556812Y-49033608D01*
X193442686Y-49099500D01*
X193442683Y-49099502D01*
X193349502Y-49192683D01*
X193349500Y-49192686D01*
X193283608Y-49306812D01*
X193249500Y-49434108D01*
X185833332Y-49434108D01*
X185871392Y-49368186D01*
X185905500Y-49240892D01*
X185905500Y-49109108D01*
X185871392Y-48981814D01*
X185805500Y-48867686D01*
X185712314Y-48774500D01*
X185623462Y-48723201D01*
X185598187Y-48708608D01*
X185534539Y-48691554D01*
X185470892Y-48674500D01*
X185339108Y-48674500D01*
X185211812Y-48708608D01*
X185097686Y-48774500D01*
X185097683Y-48774502D01*
X185004502Y-48867683D01*
X185004500Y-48867686D01*
X184952670Y-48957458D01*
X184902102Y-49005673D01*
X184833495Y-49018895D01*
X184768631Y-48992927D01*
X184737896Y-48957458D01*
X184731718Y-48946757D01*
X184700500Y-48892686D01*
X184607314Y-48799500D01*
X184520712Y-48749500D01*
X184493187Y-48733608D01*
X184429539Y-48716554D01*
X184365892Y-48699500D01*
X184234108Y-48699500D01*
X184106812Y-48733608D01*
X183992686Y-48799500D01*
X183992683Y-48799502D01*
X183899502Y-48892683D01*
X183899500Y-48892686D01*
X183833608Y-49006812D01*
X183799500Y-49134108D01*
X130200500Y-49134108D01*
X130200500Y-47608995D01*
X151779499Y-47608995D01*
X151806418Y-47744322D01*
X151806421Y-47744332D01*
X151859221Y-47871804D01*
X151859228Y-47871817D01*
X151935885Y-47986541D01*
X151935888Y-47986545D01*
X152033454Y-48084111D01*
X152033458Y-48084114D01*
X152148182Y-48160771D01*
X152148195Y-48160778D01*
X152272620Y-48212316D01*
X152275672Y-48213580D01*
X152275676Y-48213580D01*
X152275677Y-48213581D01*
X152411004Y-48240500D01*
X152411007Y-48240500D01*
X152548995Y-48240500D01*
X152640041Y-48222389D01*
X152684328Y-48213580D01*
X152811811Y-48160775D01*
X152926542Y-48084114D01*
X153024114Y-47986542D01*
X153100775Y-47871811D01*
X153114321Y-47839108D01*
X153849500Y-47839108D01*
X153849500Y-47970892D01*
X153866554Y-48034539D01*
X153883608Y-48098187D01*
X153902991Y-48131758D01*
X153949500Y-48212314D01*
X154042686Y-48305500D01*
X154156814Y-48371392D01*
X154284108Y-48405500D01*
X154284110Y-48405500D01*
X154415890Y-48405500D01*
X154415892Y-48405500D01*
X154543186Y-48371392D01*
X154657314Y-48305500D01*
X154750500Y-48212314D01*
X154816392Y-48098186D01*
X154850500Y-47970892D01*
X154850500Y-47839108D01*
X158749500Y-47839108D01*
X158749500Y-47970892D01*
X158766554Y-48034539D01*
X158783608Y-48098187D01*
X158802991Y-48131758D01*
X158849500Y-48212314D01*
X158942686Y-48305500D01*
X159056814Y-48371392D01*
X159184108Y-48405500D01*
X159184110Y-48405500D01*
X159315890Y-48405500D01*
X159315892Y-48405500D01*
X159443186Y-48371392D01*
X159557314Y-48305500D01*
X159650500Y-48212314D01*
X159716392Y-48098186D01*
X159750500Y-47970892D01*
X159750500Y-47839108D01*
X159716392Y-47711814D01*
X159657029Y-47608995D01*
X160419499Y-47608995D01*
X160446418Y-47744322D01*
X160446421Y-47744332D01*
X160499221Y-47871804D01*
X160499228Y-47871817D01*
X160575885Y-47986541D01*
X160575888Y-47986545D01*
X160673454Y-48084111D01*
X160673458Y-48084114D01*
X160788182Y-48160771D01*
X160788195Y-48160778D01*
X160912620Y-48212316D01*
X160915672Y-48213580D01*
X160915676Y-48213580D01*
X160915677Y-48213581D01*
X161051004Y-48240500D01*
X161051007Y-48240500D01*
X161188995Y-48240500D01*
X161280041Y-48222389D01*
X161324328Y-48213580D01*
X161451811Y-48160775D01*
X161566542Y-48084114D01*
X161664114Y-47986542D01*
X161740775Y-47871811D01*
X161793580Y-47744328D01*
X161820500Y-47608993D01*
X161820500Y-47434108D01*
X193249500Y-47434108D01*
X193249500Y-47565891D01*
X193283608Y-47693187D01*
X193294363Y-47711814D01*
X193349500Y-47807314D01*
X193442686Y-47900500D01*
X193556814Y-47966392D01*
X193684108Y-48000500D01*
X193684110Y-48000500D01*
X193815890Y-48000500D01*
X193815892Y-48000500D01*
X193943186Y-47966392D01*
X194057314Y-47900500D01*
X194150500Y-47807314D01*
X194216392Y-47693186D01*
X194250500Y-47565892D01*
X194250500Y-47434108D01*
X195499500Y-47434108D01*
X195499500Y-47565891D01*
X195533608Y-47693187D01*
X195544363Y-47711814D01*
X195599500Y-47807314D01*
X195692686Y-47900500D01*
X195806814Y-47966392D01*
X195934108Y-48000500D01*
X195934110Y-48000500D01*
X196065890Y-48000500D01*
X196065892Y-48000500D01*
X196193186Y-47966392D01*
X196307314Y-47900500D01*
X196400500Y-47807314D01*
X196466392Y-47693186D01*
X196500500Y-47565892D01*
X196500500Y-47434108D01*
X197999500Y-47434108D01*
X197999500Y-47565891D01*
X198033608Y-47693187D01*
X198044363Y-47711814D01*
X198099500Y-47807314D01*
X198192686Y-47900500D01*
X198306814Y-47966392D01*
X198434108Y-48000500D01*
X198434110Y-48000500D01*
X198565890Y-48000500D01*
X198565892Y-48000500D01*
X198693186Y-47966392D01*
X198807314Y-47900500D01*
X198900500Y-47807314D01*
X198966392Y-47693186D01*
X199000500Y-47565892D01*
X199000500Y-47434108D01*
X198966392Y-47306814D01*
X198900500Y-47192686D01*
X198807314Y-47099500D01*
X198693186Y-47033608D01*
X198565892Y-46999500D01*
X198434108Y-46999500D01*
X198306812Y-47033608D01*
X198192686Y-47099500D01*
X198192683Y-47099502D01*
X198099502Y-47192683D01*
X198099500Y-47192686D01*
X198033608Y-47306812D01*
X197999500Y-47434108D01*
X196500500Y-47434108D01*
X196466392Y-47306814D01*
X196400500Y-47192686D01*
X196307314Y-47099500D01*
X196249100Y-47065890D01*
X196193187Y-47033608D01*
X196129539Y-47016554D01*
X196065892Y-46999500D01*
X195934108Y-46999500D01*
X195806812Y-47033608D01*
X195692686Y-47099500D01*
X195692683Y-47099502D01*
X195599502Y-47192683D01*
X195599500Y-47192686D01*
X195533608Y-47306812D01*
X195499500Y-47434108D01*
X194250500Y-47434108D01*
X194216392Y-47306814D01*
X194150500Y-47192686D01*
X194057314Y-47099500D01*
X193999100Y-47065890D01*
X193943187Y-47033608D01*
X193879539Y-47016554D01*
X193815892Y-46999500D01*
X193684108Y-46999500D01*
X193556812Y-47033608D01*
X193442686Y-47099500D01*
X193442683Y-47099502D01*
X193349502Y-47192683D01*
X193349500Y-47192686D01*
X193283608Y-47306812D01*
X193249500Y-47434108D01*
X161820500Y-47434108D01*
X161820500Y-46371007D01*
X161820500Y-46371004D01*
X161793581Y-46235677D01*
X161793580Y-46235676D01*
X161793580Y-46235672D01*
X161793578Y-46235667D01*
X161740778Y-46108195D01*
X161740771Y-46108182D01*
X161664114Y-45993458D01*
X161664111Y-45993454D01*
X161566545Y-45895888D01*
X161566541Y-45895885D01*
X161451817Y-45819228D01*
X161451804Y-45819221D01*
X161324332Y-45766421D01*
X161324322Y-45766418D01*
X161188995Y-45739500D01*
X161188993Y-45739500D01*
X161051007Y-45739500D01*
X161051005Y-45739500D01*
X160915677Y-45766418D01*
X160915667Y-45766421D01*
X160788195Y-45819221D01*
X160788182Y-45819228D01*
X160673458Y-45895885D01*
X160673454Y-45895888D01*
X160575888Y-45993454D01*
X160575885Y-45993458D01*
X160499228Y-46108182D01*
X160499221Y-46108195D01*
X160446421Y-46235667D01*
X160446418Y-46235677D01*
X160419500Y-46371004D01*
X160419500Y-46371007D01*
X160419500Y-47608993D01*
X160419500Y-47608995D01*
X160419499Y-47608995D01*
X159657029Y-47608995D01*
X159650500Y-47597686D01*
X159557314Y-47504500D01*
X159491309Y-47466392D01*
X159443187Y-47438608D01*
X159379539Y-47421554D01*
X159315892Y-47404500D01*
X159184108Y-47404500D01*
X159056812Y-47438608D01*
X158942686Y-47504500D01*
X158942683Y-47504502D01*
X158849502Y-47597683D01*
X158849500Y-47597686D01*
X158783608Y-47711812D01*
X158752074Y-47829500D01*
X158749500Y-47839108D01*
X154850500Y-47839108D01*
X154816392Y-47711814D01*
X154750500Y-47597686D01*
X154657314Y-47504500D01*
X154591309Y-47466392D01*
X154543187Y-47438608D01*
X154479539Y-47421554D01*
X154415892Y-47404500D01*
X154284108Y-47404500D01*
X154156812Y-47438608D01*
X154042686Y-47504500D01*
X154042683Y-47504502D01*
X153949502Y-47597683D01*
X153949500Y-47597686D01*
X153883608Y-47711812D01*
X153852074Y-47829500D01*
X153849500Y-47839108D01*
X153114321Y-47839108D01*
X153153580Y-47744328D01*
X153180500Y-47608993D01*
X153180500Y-46403982D01*
X153484500Y-46403982D01*
X153484500Y-46516018D01*
X153513497Y-46624237D01*
X153569515Y-46721263D01*
X153648737Y-46800485D01*
X153745763Y-46856503D01*
X153853982Y-46885500D01*
X153853984Y-46885500D01*
X153966016Y-46885500D01*
X153966018Y-46885500D01*
X154074237Y-46856503D01*
X154171263Y-46800485D01*
X154250485Y-46721263D01*
X154306503Y-46624237D01*
X154335500Y-46516018D01*
X154335500Y-46403982D01*
X159264500Y-46403982D01*
X159264500Y-46516018D01*
X159293497Y-46624237D01*
X159349515Y-46721263D01*
X159428737Y-46800485D01*
X159525763Y-46856503D01*
X159633982Y-46885500D01*
X159633984Y-46885500D01*
X159746016Y-46885500D01*
X159746018Y-46885500D01*
X159854237Y-46856503D01*
X159951263Y-46800485D01*
X160030485Y-46721263D01*
X160086503Y-46624237D01*
X160115500Y-46516018D01*
X160115500Y-46403982D01*
X160086503Y-46295763D01*
X160030485Y-46198737D01*
X159951263Y-46119515D01*
X159854237Y-46063497D01*
X159746018Y-46034500D01*
X159633982Y-46034500D01*
X159525763Y-46063497D01*
X159525760Y-46063498D01*
X159428740Y-46119513D01*
X159428734Y-46119517D01*
X159349517Y-46198734D01*
X159349513Y-46198740D01*
X159293498Y-46295760D01*
X159293497Y-46295763D01*
X159264500Y-46403982D01*
X154335500Y-46403982D01*
X154306503Y-46295763D01*
X154250485Y-46198737D01*
X154171263Y-46119515D01*
X154074237Y-46063497D01*
X153966018Y-46034500D01*
X153853982Y-46034500D01*
X153745763Y-46063497D01*
X153745760Y-46063498D01*
X153648740Y-46119513D01*
X153648734Y-46119517D01*
X153569517Y-46198734D01*
X153569513Y-46198740D01*
X153513498Y-46295760D01*
X153513497Y-46295763D01*
X153484500Y-46403982D01*
X153180500Y-46403982D01*
X153180500Y-46371007D01*
X153180500Y-46371004D01*
X153153581Y-46235677D01*
X153153580Y-46235676D01*
X153153580Y-46235672D01*
X153153578Y-46235667D01*
X153100778Y-46108195D01*
X153100771Y-46108182D01*
X153024114Y-45993458D01*
X153024111Y-45993454D01*
X152926545Y-45895888D01*
X152926541Y-45895885D01*
X152811817Y-45819228D01*
X152811804Y-45819221D01*
X152684332Y-45766421D01*
X152684322Y-45766418D01*
X152548995Y-45739500D01*
X152548993Y-45739500D01*
X152411007Y-45739500D01*
X152411005Y-45739500D01*
X152275677Y-45766418D01*
X152275667Y-45766421D01*
X152148195Y-45819221D01*
X152148182Y-45819228D01*
X152033458Y-45895885D01*
X152033454Y-45895888D01*
X151935888Y-45993454D01*
X151935885Y-45993458D01*
X151859228Y-46108182D01*
X151859221Y-46108195D01*
X151806421Y-46235667D01*
X151806418Y-46235677D01*
X151779500Y-46371004D01*
X151779500Y-46371007D01*
X151779500Y-47608993D01*
X151779500Y-47608995D01*
X151779499Y-47608995D01*
X130200500Y-47608995D01*
X130200500Y-44502869D01*
X130200632Y-44497143D01*
X130208291Y-44331491D01*
X131499500Y-44331491D01*
X131499500Y-44668508D01*
X131537231Y-45003381D01*
X131537233Y-45003397D01*
X131612223Y-45331953D01*
X131612227Y-45331965D01*
X131723532Y-45650054D01*
X131869752Y-45953683D01*
X131920533Y-46034500D01*
X132049054Y-46239039D01*
X132259175Y-46502523D01*
X132497477Y-46740825D01*
X132760961Y-46950946D01*
X133046314Y-47130246D01*
X133349949Y-47276469D01*
X133588848Y-47360063D01*
X133668034Y-47387772D01*
X133668046Y-47387776D01*
X133996606Y-47462767D01*
X134331492Y-47500499D01*
X134331493Y-47500500D01*
X134331496Y-47500500D01*
X134668507Y-47500500D01*
X134668507Y-47500499D01*
X135003394Y-47462767D01*
X135331954Y-47387776D01*
X135650051Y-47276469D01*
X135953686Y-47130246D01*
X136239039Y-46950946D01*
X136502523Y-46740825D01*
X136740825Y-46502523D01*
X136786748Y-46444938D01*
X136912218Y-46287603D01*
X136912218Y-46287602D01*
X136950946Y-46239039D01*
X137130246Y-45953686D01*
X137276469Y-45650051D01*
X137328871Y-45500292D01*
X137368922Y-45385837D01*
X171349500Y-45385837D01*
X171349500Y-45614162D01*
X171385215Y-45839660D01*
X171455770Y-46056803D01*
X171546909Y-46235672D01*
X171559421Y-46260228D01*
X171693621Y-46444937D01*
X171855063Y-46606379D01*
X172039772Y-46740579D01*
X172135884Y-46789550D01*
X172243196Y-46844229D01*
X172243198Y-46844229D01*
X172243201Y-46844231D01*
X172359592Y-46882049D01*
X172460339Y-46914784D01*
X172685838Y-46950500D01*
X172685843Y-46950500D01*
X172914162Y-46950500D01*
X173139660Y-46914784D01*
X173356799Y-46844231D01*
X173560228Y-46740579D01*
X173744937Y-46606379D01*
X173906379Y-46444937D01*
X174040579Y-46260228D01*
X174144231Y-46056799D01*
X174214784Y-45839660D01*
X174226384Y-45766420D01*
X174250500Y-45614162D01*
X174250500Y-45385837D01*
X176049500Y-45385837D01*
X176049500Y-45614162D01*
X176085215Y-45839660D01*
X176155770Y-46056803D01*
X176246909Y-46235672D01*
X176259421Y-46260228D01*
X176393621Y-46444937D01*
X176555063Y-46606379D01*
X176739772Y-46740579D01*
X176835884Y-46789550D01*
X176943196Y-46844229D01*
X176943198Y-46844229D01*
X176943201Y-46844231D01*
X177059592Y-46882049D01*
X177160339Y-46914784D01*
X177385838Y-46950500D01*
X177385843Y-46950500D01*
X177614162Y-46950500D01*
X177839660Y-46914784D01*
X178056799Y-46844231D01*
X178260228Y-46740579D01*
X178444937Y-46606379D01*
X178606379Y-46444937D01*
X178740579Y-46260228D01*
X178844231Y-46056799D01*
X178914784Y-45839660D01*
X178926384Y-45766420D01*
X178950500Y-45614162D01*
X178950500Y-45385837D01*
X180749500Y-45385837D01*
X180749500Y-45614162D01*
X180785215Y-45839660D01*
X180855770Y-46056803D01*
X180946909Y-46235672D01*
X180959421Y-46260228D01*
X181093621Y-46444937D01*
X181255063Y-46606379D01*
X181439772Y-46740579D01*
X181535884Y-46789550D01*
X181643196Y-46844229D01*
X181643198Y-46844229D01*
X181643201Y-46844231D01*
X181759592Y-46882049D01*
X181860339Y-46914784D01*
X182085838Y-46950500D01*
X182085843Y-46950500D01*
X182314162Y-46950500D01*
X182417655Y-46934108D01*
X200499500Y-46934108D01*
X200499500Y-47065891D01*
X200533608Y-47193187D01*
X200566554Y-47250250D01*
X200599500Y-47307314D01*
X200692686Y-47400500D01*
X200758691Y-47438608D01*
X200800533Y-47462766D01*
X200806814Y-47466392D01*
X200934108Y-47500500D01*
X200934110Y-47500500D01*
X201065890Y-47500500D01*
X201065892Y-47500500D01*
X201193186Y-47466392D01*
X201307314Y-47400500D01*
X201400500Y-47307314D01*
X201466392Y-47193186D01*
X201500500Y-47065892D01*
X201500500Y-46934108D01*
X202999500Y-46934108D01*
X202999500Y-47065891D01*
X203033608Y-47193187D01*
X203066554Y-47250250D01*
X203099500Y-47307314D01*
X203192686Y-47400500D01*
X203258691Y-47438608D01*
X203300533Y-47462766D01*
X203306814Y-47466392D01*
X203434108Y-47500500D01*
X203434110Y-47500500D01*
X203565890Y-47500500D01*
X203565892Y-47500500D01*
X203693186Y-47466392D01*
X203807314Y-47400500D01*
X203900500Y-47307314D01*
X203966392Y-47193186D01*
X204000500Y-47065892D01*
X204000500Y-46934108D01*
X205749500Y-46934108D01*
X205749500Y-47065891D01*
X205783608Y-47193187D01*
X205816554Y-47250250D01*
X205849500Y-47307314D01*
X205942686Y-47400500D01*
X206008691Y-47438608D01*
X206050533Y-47462766D01*
X206056814Y-47466392D01*
X206184108Y-47500500D01*
X206184110Y-47500500D01*
X206315890Y-47500500D01*
X206315892Y-47500500D01*
X206443186Y-47466392D01*
X206557314Y-47400500D01*
X206650500Y-47307314D01*
X206716392Y-47193186D01*
X206750500Y-47065892D01*
X206750500Y-46934108D01*
X206716392Y-46806814D01*
X206650500Y-46692686D01*
X206557314Y-46599500D01*
X206500250Y-46566554D01*
X206443187Y-46533608D01*
X206377531Y-46516016D01*
X206315892Y-46499500D01*
X206184108Y-46499500D01*
X206056812Y-46533608D01*
X205942686Y-46599500D01*
X205942683Y-46599502D01*
X205849502Y-46692683D01*
X205849500Y-46692686D01*
X205783608Y-46806812D01*
X205749500Y-46934108D01*
X204000500Y-46934108D01*
X203966392Y-46806814D01*
X203900500Y-46692686D01*
X203807314Y-46599500D01*
X203750250Y-46566554D01*
X203693187Y-46533608D01*
X203627531Y-46516016D01*
X203565892Y-46499500D01*
X203434108Y-46499500D01*
X203306812Y-46533608D01*
X203192686Y-46599500D01*
X203192683Y-46599502D01*
X203099502Y-46692683D01*
X203099500Y-46692686D01*
X203033608Y-46806812D01*
X202999500Y-46934108D01*
X201500500Y-46934108D01*
X201466392Y-46806814D01*
X201400500Y-46692686D01*
X201307314Y-46599500D01*
X201250250Y-46566554D01*
X201193187Y-46533608D01*
X201127531Y-46516016D01*
X201065892Y-46499500D01*
X200934108Y-46499500D01*
X200806812Y-46533608D01*
X200692686Y-46599500D01*
X200692683Y-46599502D01*
X200599502Y-46692683D01*
X200599500Y-46692686D01*
X200533608Y-46806812D01*
X200499500Y-46934108D01*
X182417655Y-46934108D01*
X182539660Y-46914784D01*
X182756799Y-46844231D01*
X182960228Y-46740579D01*
X183144937Y-46606379D01*
X183306379Y-46444937D01*
X183440579Y-46260228D01*
X183544231Y-46056799D01*
X183614784Y-45839660D01*
X183626384Y-45766420D01*
X183650500Y-45614162D01*
X183650500Y-45385837D01*
X183614784Y-45160339D01*
X183544229Y-44943196D01*
X183440578Y-44739771D01*
X183388802Y-44668508D01*
X183306379Y-44555063D01*
X183144937Y-44393621D01*
X183059423Y-44331491D01*
X212499500Y-44331491D01*
X212499500Y-44668508D01*
X212537231Y-45003381D01*
X212537233Y-45003397D01*
X212612223Y-45331953D01*
X212612227Y-45331965D01*
X212723532Y-45650054D01*
X212869752Y-45953683D01*
X212920533Y-46034500D01*
X213049054Y-46239039D01*
X213259175Y-46502523D01*
X213497477Y-46740825D01*
X213760961Y-46950946D01*
X214046314Y-47130246D01*
X214349949Y-47276469D01*
X214588848Y-47360063D01*
X214668034Y-47387772D01*
X214668046Y-47387776D01*
X214996606Y-47462767D01*
X215331492Y-47500499D01*
X215331493Y-47500500D01*
X215331496Y-47500500D01*
X215668507Y-47500500D01*
X215668507Y-47500499D01*
X216003394Y-47462767D01*
X216331954Y-47387776D01*
X216650051Y-47276469D01*
X216953686Y-47130246D01*
X217239039Y-46950946D01*
X217502523Y-46740825D01*
X217740825Y-46502523D01*
X217950946Y-46239039D01*
X218130246Y-45953686D01*
X218276469Y-45650051D01*
X218387776Y-45331954D01*
X218462767Y-45003394D01*
X218500500Y-44668504D01*
X218500500Y-44331496D01*
X218462767Y-43996606D01*
X218387776Y-43668046D01*
X218276469Y-43349949D01*
X218130246Y-43046314D01*
X217950946Y-42760961D01*
X217740825Y-42497477D01*
X217502523Y-42259175D01*
X217239039Y-42049054D01*
X216984674Y-41889225D01*
X216953683Y-41869752D01*
X216650054Y-41723532D01*
X216331965Y-41612227D01*
X216331953Y-41612223D01*
X216003397Y-41537233D01*
X216003381Y-41537231D01*
X215668508Y-41499500D01*
X215668504Y-41499500D01*
X215331496Y-41499500D01*
X215331491Y-41499500D01*
X214996618Y-41537231D01*
X214996602Y-41537233D01*
X214668046Y-41612223D01*
X214668034Y-41612227D01*
X214349945Y-41723532D01*
X214046316Y-41869752D01*
X213760962Y-42049053D01*
X213497477Y-42259174D01*
X213259174Y-42497477D01*
X213049053Y-42760962D01*
X212869752Y-43046316D01*
X212723532Y-43349945D01*
X212612227Y-43668034D01*
X212612223Y-43668046D01*
X212537233Y-43996602D01*
X212537231Y-43996618D01*
X212499500Y-44331491D01*
X183059423Y-44331491D01*
X182960228Y-44259421D01*
X182756803Y-44155770D01*
X182539660Y-44085215D01*
X182314162Y-44049500D01*
X182314157Y-44049500D01*
X182085843Y-44049500D01*
X182085838Y-44049500D01*
X181860339Y-44085215D01*
X181643196Y-44155770D01*
X181439771Y-44259421D01*
X181255061Y-44393622D01*
X181093622Y-44555061D01*
X180959421Y-44739771D01*
X180855770Y-44943196D01*
X180785215Y-45160339D01*
X180749500Y-45385837D01*
X178950500Y-45385837D01*
X178914784Y-45160339D01*
X178844229Y-44943196D01*
X178740578Y-44739771D01*
X178688802Y-44668508D01*
X178606379Y-44555063D01*
X178444937Y-44393621D01*
X178260228Y-44259421D01*
X178056803Y-44155770D01*
X177839660Y-44085215D01*
X177614162Y-44049500D01*
X177614157Y-44049500D01*
X177385843Y-44049500D01*
X177385838Y-44049500D01*
X177160339Y-44085215D01*
X176943196Y-44155770D01*
X176739771Y-44259421D01*
X176555061Y-44393622D01*
X176393622Y-44555061D01*
X176259421Y-44739771D01*
X176155770Y-44943196D01*
X176085215Y-45160339D01*
X176049500Y-45385837D01*
X174250500Y-45385837D01*
X174214784Y-45160339D01*
X174144229Y-44943196D01*
X174040578Y-44739771D01*
X173988802Y-44668508D01*
X173906379Y-44555063D01*
X173744937Y-44393621D01*
X173560228Y-44259421D01*
X173356803Y-44155770D01*
X173139660Y-44085215D01*
X172914162Y-44049500D01*
X172914157Y-44049500D01*
X172685843Y-44049500D01*
X172685838Y-44049500D01*
X172460339Y-44085215D01*
X172243196Y-44155770D01*
X172039771Y-44259421D01*
X171855061Y-44393622D01*
X171693622Y-44555061D01*
X171559421Y-44739771D01*
X171455770Y-44943196D01*
X171385215Y-45160339D01*
X171349500Y-45385837D01*
X137368922Y-45385837D01*
X137384956Y-45340016D01*
X137387774Y-45331961D01*
X137387776Y-45331953D01*
X137426945Y-45160340D01*
X137462767Y-45003394D01*
X137500500Y-44668504D01*
X137500500Y-44331496D01*
X137462767Y-43996606D01*
X137387776Y-43668046D01*
X137276469Y-43349949D01*
X137194142Y-43178995D01*
X151779499Y-43178995D01*
X151806418Y-43314322D01*
X151806421Y-43314332D01*
X151859221Y-43441804D01*
X151859228Y-43441817D01*
X151935885Y-43556541D01*
X151935888Y-43556545D01*
X152033454Y-43654111D01*
X152033458Y-43654114D01*
X152148182Y-43730771D01*
X152148195Y-43730778D01*
X152275667Y-43783578D01*
X152275672Y-43783580D01*
X152275676Y-43783580D01*
X152275677Y-43783581D01*
X152411004Y-43810500D01*
X152411007Y-43810500D01*
X152548995Y-43810500D01*
X152640041Y-43792389D01*
X152684328Y-43783580D01*
X152811811Y-43730775D01*
X152926542Y-43654114D01*
X153024114Y-43556542D01*
X153100775Y-43441811D01*
X153153580Y-43314328D01*
X153180500Y-43178995D01*
X160419499Y-43178995D01*
X160446418Y-43314322D01*
X160446421Y-43314332D01*
X160499221Y-43441804D01*
X160499228Y-43441817D01*
X160575885Y-43556541D01*
X160575888Y-43556545D01*
X160673454Y-43654111D01*
X160673458Y-43654114D01*
X160788182Y-43730771D01*
X160788195Y-43730778D01*
X160915667Y-43783578D01*
X160915672Y-43783580D01*
X160915676Y-43783580D01*
X160915677Y-43783581D01*
X161051004Y-43810500D01*
X161051007Y-43810500D01*
X161188995Y-43810500D01*
X161280041Y-43792389D01*
X161324328Y-43783580D01*
X161451811Y-43730775D01*
X161566542Y-43654114D01*
X161664114Y-43556542D01*
X161740775Y-43441811D01*
X161793580Y-43314328D01*
X161820500Y-43178993D01*
X161820500Y-42441007D01*
X161820500Y-42441004D01*
X161793581Y-42305677D01*
X161793580Y-42305676D01*
X161793580Y-42305672D01*
X161793578Y-42305667D01*
X161740778Y-42178195D01*
X161740771Y-42178182D01*
X161664114Y-42063458D01*
X161664111Y-42063454D01*
X161566545Y-41965888D01*
X161566541Y-41965885D01*
X161451817Y-41889228D01*
X161451804Y-41889221D01*
X161324332Y-41836421D01*
X161324322Y-41836418D01*
X161188995Y-41809500D01*
X161188993Y-41809500D01*
X161051007Y-41809500D01*
X161051005Y-41809500D01*
X160915677Y-41836418D01*
X160915667Y-41836421D01*
X160788195Y-41889221D01*
X160788182Y-41889228D01*
X160673458Y-41965885D01*
X160673454Y-41965888D01*
X160575888Y-42063454D01*
X160575885Y-42063458D01*
X160499228Y-42178182D01*
X160499221Y-42178195D01*
X160446421Y-42305667D01*
X160446418Y-42305677D01*
X160419500Y-42441004D01*
X160419500Y-42441007D01*
X160419500Y-43178993D01*
X160419500Y-43178995D01*
X160419499Y-43178995D01*
X153180500Y-43178995D01*
X153180500Y-43178993D01*
X153180500Y-42441007D01*
X153180500Y-42441004D01*
X153153581Y-42305677D01*
X153153580Y-42305676D01*
X153153580Y-42305672D01*
X153153578Y-42305667D01*
X153100778Y-42178195D01*
X153100771Y-42178182D01*
X153024114Y-42063458D01*
X153024111Y-42063454D01*
X152926545Y-41965888D01*
X152926541Y-41965885D01*
X152811817Y-41889228D01*
X152811804Y-41889221D01*
X152684332Y-41836421D01*
X152684322Y-41836418D01*
X152548995Y-41809500D01*
X152548993Y-41809500D01*
X152411007Y-41809500D01*
X152411005Y-41809500D01*
X152275677Y-41836418D01*
X152275667Y-41836421D01*
X152148195Y-41889221D01*
X152148182Y-41889228D01*
X152033458Y-41965885D01*
X152033454Y-41965888D01*
X151935888Y-42063454D01*
X151935885Y-42063458D01*
X151859228Y-42178182D01*
X151859221Y-42178195D01*
X151806421Y-42305667D01*
X151806418Y-42305677D01*
X151779500Y-42441004D01*
X151779500Y-42441007D01*
X151779500Y-43178993D01*
X151779500Y-43178995D01*
X151779499Y-43178995D01*
X137194142Y-43178995D01*
X137130246Y-43046314D01*
X136950946Y-42760961D01*
X136950944Y-42760958D01*
X136950943Y-42760956D01*
X136752592Y-42512230D01*
X136752590Y-42512229D01*
X136740826Y-42497478D01*
X136502522Y-42259174D01*
X136400977Y-42178195D01*
X136239039Y-42049054D01*
X135984674Y-41889225D01*
X135953683Y-41869752D01*
X135650054Y-41723532D01*
X135331965Y-41612227D01*
X135331953Y-41612223D01*
X135003397Y-41537233D01*
X135003381Y-41537231D01*
X134668508Y-41499500D01*
X134668504Y-41499500D01*
X134331496Y-41499500D01*
X134331491Y-41499500D01*
X133996618Y-41537231D01*
X133996602Y-41537233D01*
X133668046Y-41612223D01*
X133668034Y-41612227D01*
X133349945Y-41723532D01*
X133046316Y-41869752D01*
X132760962Y-42049053D01*
X132497477Y-42259174D01*
X132259174Y-42497477D01*
X132049053Y-42760962D01*
X131869752Y-43046316D01*
X131723532Y-43349945D01*
X131612227Y-43668034D01*
X131612223Y-43668046D01*
X131537233Y-43996602D01*
X131537231Y-43996618D01*
X131499500Y-44331491D01*
X130208291Y-44331491D01*
X130208716Y-44322290D01*
X130211623Y-44259421D01*
X130218576Y-44109006D01*
X130219633Y-44097611D01*
X130221362Y-44085216D01*
X130272917Y-43715632D01*
X130275017Y-43704396D01*
X130363322Y-43328951D01*
X130366445Y-43317971D01*
X130489019Y-42952260D01*
X130493150Y-42941600D01*
X130648932Y-42588787D01*
X130654030Y-42578547D01*
X130841702Y-42241611D01*
X130847728Y-42231879D01*
X131065698Y-41913682D01*
X131072580Y-41904569D01*
X131318978Y-41607843D01*
X131326673Y-41599403D01*
X131599403Y-41326673D01*
X131607843Y-41318978D01*
X131904569Y-41072580D01*
X131913682Y-41065698D01*
X132231884Y-40847724D01*
X132241611Y-40841702D01*
X132578547Y-40654030D01*
X132588787Y-40648932D01*
X132941600Y-40493150D01*
X132952260Y-40489019D01*
X133317971Y-40366445D01*
X133328951Y-40363322D01*
X133704396Y-40275017D01*
X133715632Y-40272917D01*
X134097620Y-40219632D01*
X134109006Y-40218576D01*
X134497145Y-40200632D01*
X134502872Y-40200500D01*
X134539882Y-40200500D01*
X215460118Y-40200500D01*
X215497128Y-40200500D01*
X215502855Y-40200632D01*
G37*
%TD.AperFunction*%
%TD*%
M02*
