%TF.GenerationSoftware,KiCad,Pcbnew,9.0.2*%
%TF.CreationDate,2026-03-06T10:51:38-08:00*%
%TF.ProjectId,BLV_PCB,424c565f-5043-4422-9e6b-696361645f70,rev?*%
%TF.SameCoordinates,Original*%
%TF.FileFunction,Legend,Bot*%
%TF.FilePolarity,Positive*%
%FSLAX46Y46*%
G04 Gerber Fmt 4.6, Leading zero omitted, Abs format (unit mm)*
G04 Created by KiCad (PCBNEW 9.0.2) date 2026-03-06 10:51:38*
%MOMM*%
%LPD*%
G01*
G04 APERTURE LIST*
G04 Aperture macros list*
%AMRoundRect*
0 Rectangle with rounded corners*
0 $1 Rounding radius*
0 $2 $3 $4 $5 $6 $7 $8 $9 X,Y pos of 4 corners*
0 Add a 4 corners polygon primitive as box body*
4,1,4,$2,$3,$4,$5,$6,$7,$8,$9,$2,$3,0*
0 Add four circle primitives for the rounded corners*
1,1,$1+$1,$2,$3*
1,1,$1+$1,$4,$5*
1,1,$1+$1,$6,$7*
1,1,$1+$1,$8,$9*
0 Add four rect primitives between the rounded corners*
20,1,$1+$1,$2,$3,$4,$5,0*
20,1,$1+$1,$4,$5,$6,$7,0*
20,1,$1+$1,$6,$7,$8,$9,0*
20,1,$1+$1,$8,$9,$2,$3,0*%
G04 Aperture macros list end*
%ADD10C,5.800000*%
%ADD11C,1.700000*%
%ADD12RoundRect,0.291666X-0.683334X0.408334X-0.683334X-0.408334X0.683334X-0.408334X0.683334X0.408334X0*%
%ADD13O,1.950000X1.400000*%
%ADD14RoundRect,0.100000X0.850000X0.850000X-0.850000X0.850000X-0.850000X-0.850000X0.850000X-0.850000X0*%
%ADD15C,1.900000*%
%ADD16RoundRect,0.100000X-0.850000X0.850000X-0.850000X-0.850000X0.850000X-0.850000X0.850000X0.850000X0*%
%ADD17C,3.500000*%
%ADD18C,2.600000*%
%ADD19O,3.700000X2.700000*%
%ADD20RoundRect,0.100000X0.850000X-0.850000X0.850000X0.850000X-0.850000X0.850000X-0.850000X-0.850000X0*%
%ADD21C,0.850000*%
%ADD22O,1.200000X2.300000*%
%ADD23O,1.200000X1.800000*%
G04 APERTURE END LIST*
%LPC*%
D10*
%TO.C,H4*%
X134500000Y-125500000D03*
%TD*%
D11*
%TO.C,TP65*%
X143000000Y-93000000D03*
%TD*%
%TO.C,TP62*%
X170000000Y-122000000D03*
%TD*%
D10*
%TO.C,H3*%
X215500000Y-125500000D03*
%TD*%
%TO.C,H2*%
X215500000Y-44500000D03*
%TD*%
D12*
%TO.C,J3*%
X136050000Y-82000000D03*
D13*
X136050000Y-84000000D03*
X136050000Y-86000000D03*
X136050000Y-88000000D03*
%TD*%
D12*
%TO.C,J2*%
X136050000Y-66740000D03*
D13*
X136050000Y-68740000D03*
X136050000Y-70740000D03*
X136050000Y-72740000D03*
%TD*%
D11*
%TO.C,TP63*%
X170000000Y-128000000D03*
%TD*%
D14*
%TO.C,J6*%
X142000000Y-87040000D03*
D15*
X142000000Y-84500000D03*
X142000000Y-81960000D03*
%TD*%
D11*
%TO.C,TP66*%
X137000000Y-113000000D03*
%TD*%
%TO.C,TP61*%
X170000000Y-125000000D03*
%TD*%
D16*
%TO.C,J31*%
X144775000Y-125000000D03*
D15*
X142235000Y-125000000D03*
%TD*%
D17*
%TO.C,U4*%
X211500000Y-112600000D03*
X195500000Y-57400000D03*
D18*
X211500000Y-49200000D03*
D19*
X203500000Y-120720000D03*
X203500000Y-49280000D03*
%TD*%
D14*
%TO.C,J5*%
X140350000Y-72420000D03*
D15*
X140350000Y-69880000D03*
X140350000Y-67340000D03*
%TD*%
D20*
%TO.C,J12*%
X154160000Y-88900000D03*
D15*
X156700000Y-88900000D03*
X159240000Y-88900000D03*
%TD*%
D14*
%TO.C,J4*%
X140350000Y-57180000D03*
D15*
X140350000Y-54640000D03*
X140350000Y-52100000D03*
%TD*%
D11*
%TO.C,TP64*%
X155200000Y-107200000D03*
%TD*%
D12*
%TO.C,J1*%
X136050000Y-51500000D03*
D13*
X136050000Y-53500000D03*
X136050000Y-55500000D03*
X136050000Y-57500000D03*
%TD*%
D10*
%TO.C,H1*%
X134500000Y-44500000D03*
%TD*%
D21*
%TO.C,J61*%
X177610000Y-123200000D03*
X183390000Y-123200000D03*
D22*
X176180000Y-122670000D03*
D23*
X176180000Y-126850000D03*
D22*
X184820000Y-122670000D03*
D23*
X184820000Y-126850000D03*
%TD*%
D21*
%TO.C,J8*%
X159690000Y-46460000D03*
X153910000Y-46460000D03*
D22*
X161120000Y-46990000D03*
D23*
X161120000Y-42810000D03*
D22*
X152480000Y-46990000D03*
D23*
X152480000Y-42810000D03*
%TD*%
%LPD*%
M02*
