M48
; DRILL file {KiCad 9.0.2} date 2026-05-04T14:37:54-0700
; FORMAT={-:-/ absolute / inch / decimal}
; #@! TF.CreationDate,2026-05-04T14:37:54-07:00
; #@! TF.GenerationSoftware,Kicad,Pcbnew,9.0.2
; #@! TF.FileFunction,Plated,1,4,PTH
FMAT,2
INCH
; #@! TA.AperFunction,Plated,PTH,ViaDrill
T1C0.0118
; #@! TA.AperFunction,Plated,PTH,ComponentDrill
T2C0.0236
; #@! TA.AperFunction,Plated,PTH,ComponentDrill
T3C0.0276
; #@! TA.AperFunction,Plated,PTH,ComponentDrill
T4C0.0295
; #@! TA.AperFunction,Plated,PTH,ComponentDrill
T5C0.0394
; #@! TA.AperFunction,Plated,PTH,ComponentDrill
T6C0.0512
; #@! TA.AperFunction,Plated,PTH,ComponentDrill
T7C0.0591
; #@! TA.AperFunction,Plated,PTH,ComponentDrill
T8C0.0669
; #@! TA.AperFunction,Plated,PTH,ComponentDrill
T9C0.0669
; #@! TA.AperFunction,Plated,PTH,ComponentDrill
T10C0.0945
; #@! TA.AperFunction,Plated,PTH,ComponentDrill
T11C0.1260
; #@! TA.AperFunction,Plated,PTH,ComponentDrill
T12C0.1299
%
G90
G05
T1
X5.1772Y-2.0472
X5.1772Y-2.2638
X5.1772Y-2.4409
X5.1772Y-2.5984
X5.1772Y-2.815
X5.1772Y-3.0157
X5.1772Y-3.248
X5.1772Y-3.4646
X5.1772Y-3.7008
X5.2165Y-2.3543
X5.2205Y-2.9567
X5.2205Y-3.5551
X5.2362Y-3.9173
X5.2362Y-4.0748
X5.2362Y-4.2323
X5.2362Y-4.4291
X5.2362Y-4.7835
X5.2559Y-1.9094
X5.2953Y-4.2717
X5.3031Y-4.0472
X5.3031Y-4.0787
X5.3228Y-2.4882
X5.3346Y-4.0472
X5.3346Y-4.0787
X5.4016Y-3.7008
X5.4134Y-3.1102
X5.4173Y-5.0315
X5.437Y-3.9646
X5.437Y-3.9961
X5.4449Y-2.4882
X5.4488Y-2.0669
X5.4488Y-2.1535
X5.4528Y-1.6929
X5.4528Y-1.8307
X5.4764Y-4.9921
X5.4921Y-2.9528
X5.4921Y-3.5433
X5.4961Y-4.0827
X5.4961Y-4.185
X5.4961Y-4.5315
X5.5118Y-2.5591
X5.5276Y-2.3268
X5.5276Y-2.3858
X5.5433Y-3.9606
X5.5433Y-4.189
X5.5551Y-4.937
X5.5787Y-3.9843
X5.5787Y-4.0709
X5.5945Y-4.1496
X5.6083Y-1.9488
X5.6102Y-3.7402
X5.6102Y-3.878
X5.6102Y-4.2717
X5.6378Y-2.2835
X5.6378Y-2.3228
X5.6496Y-1.6929
X5.6496Y-1.8307
X5.6496Y-2.1181
X5.6693Y-4.4291
X5.6949Y-1.9488
X5.7087Y-4.1732
X5.7087Y-4.2913
X5.7165Y-2.4882
X5.7283Y-3.6811
X5.748Y-3.0807
X5.748Y-3.2874
X5.748Y-3.4843
X5.7638Y-4.9646
X5.7677Y-5.0236
X5.7736Y-1.9488
X5.7756Y-2.1181
X5.7756Y-2.1614
X5.7874Y-2.9921
X5.7953Y-2.2441
X5.7953Y-2.3425
X5.7953Y-2.4409
X5.8307Y-4.8583
X5.8386Y-3.8661
X5.8386Y-4.1102
X5.8465Y-1.6929
X5.8465Y-1.8307
X5.8465Y-2.5394
X5.8602Y-1.9488
X5.874Y-2.2441
X5.874Y-2.3425
X5.874Y-2.4409
X5.876Y-3.9488
X5.876Y-4.0709
X5.9016Y-2.7559
X5.9055Y-2.0984
X5.9055Y-2.1575
X5.9055Y-4.8228
X5.9291Y-2.6693
X5.9331Y-2.8346
X5.9528Y-4.2756
X5.9528Y-4.3583
X5.9528Y-4.4016
X5.9528Y-4.5354
X5.9646Y-2.0984
X5.9646Y-2.1575
X5.9843Y-4.1102
X5.9921Y-2.5157
X6.0108Y-2.7559
X6.0236Y-2.1575
X6.0236Y-2.2165
X6.0315Y-4.5827
X6.0331Y-3.8425
X6.0433Y-2.9626
X6.0433Y-3.1496
X6.0433Y-3.2283
X6.0433Y-3.3071
X6.0433Y-3.3858
X6.0433Y-5.0197
X6.063Y-1.6339
X6.063Y-3.0906
X6.0709Y-3.8031
X6.0768Y-1.886
X6.0787Y-4.8228
X6.0787Y-4.8543
X6.0787Y-4.8858
X6.0906Y-2.3976
X6.1024Y-2.1063
X6.1102Y-4.8228
X6.1102Y-4.8543
X6.1102Y-4.8858
X6.125Y-3.0827
X6.1417Y-3.3858
X6.1496Y-2.748
X6.1496Y-2.7953
X6.1496Y-2.8425
X6.1811Y-4.311
X6.1811Y-4.5079
X6.1811Y-4.7047
X6.1811Y-4.9016
X6.1959Y-2.748
X6.1959Y-2.7953
X6.1959Y-2.8425
X6.1998Y-2.5039
X6.1998Y-2.537
X6.2114Y-3.0003
X6.2205Y-3.3858
X6.2402Y-2.1063
X6.2402Y-2.3031
X6.2402Y-5.0197
X6.2441Y-2.748
X6.2441Y-2.7953
X6.2441Y-2.8425
X6.252Y-3.1024
X6.2598Y-1.6339
X6.2697Y-1.886
X6.2756Y-3.1535
X6.2992Y-3.2283
X6.2992Y-3.3071
X6.2992Y-3.3858
X6.3425Y-2.0748
X6.3455Y-2.5173
X6.3455Y-2.5488
X6.3576Y-2.9439
X6.3583Y-2.3209
X6.373Y-2.6335
X6.378Y-2.7717
X6.378Y-4.311
X6.378Y-4.5079
X6.378Y-4.7047
X6.378Y-4.9016
X6.4134Y-2.1043
X6.4173Y-2.3189
X6.4173Y-2.3799
X6.4173Y-4.8622
X6.4272Y-4.3799
X6.4272Y-4.4193
X6.4291Y-3.0157
X6.437Y-2.2047
X6.437Y-2.4606
X6.437Y-2.5394
X6.437Y-2.6181
X6.437Y-3.6811
X6.437Y-5.0197
X6.4409Y-3.5669
X6.4567Y-2.1693
X6.4567Y-2.2362
X6.4764Y-1.6142
X6.4764Y-2.2047
X6.4872Y-2.7638
X6.4872Y-2.8031
X6.4882Y-2.685
X6.4882Y-2.8661
X6.4961Y-3.7795
X6.5039Y-2.8346
X6.5155Y-2.6174
X6.5157Y-2.4606
X6.5157Y-2.5394
X6.5236Y-1.9961
X6.5236Y-2.7012
X6.5551Y-4.3701
X6.5551Y-4.4291
X6.563Y-1.6181
X6.5669Y-2.7012
X6.6024Y-4.3701
X6.6024Y-4.4291
X6.6339Y-2.5591
X6.6339Y-2.7932
X6.6339Y-4.1515
X6.689Y-1.9882
X6.6929Y-1.6142
X6.7323Y-2.3976
X6.7323Y-2.9507
X6.7323Y-3.0688
X6.7323Y-3.2657
X6.7323Y-3.4625
X6.7323Y-3.6594
X6.7323Y-3.8562
X6.7323Y-4.0531
X6.7323Y-4.2499
X6.7323Y-4.7638
X6.7402Y-4.3996
X6.7717Y-4.5276
X6.7913Y-4.8622
X6.7913Y-5.0
X6.7953Y-1.9843
X6.8012Y-2.6751
X6.8012Y-2.8621
X6.8031Y-2.0197
X6.811Y-4.7638
X6.8228Y-4.5906
X6.8346Y-2.5591
X6.8898Y-1.6142
X6.8996Y-2.6751
X6.8996Y-2.8621
X6.9213Y-1.9764
X6.9291Y-2.9507
X6.9291Y-3.0688
X6.9291Y-3.2657
X6.9291Y-3.4625
X6.9291Y-3.6594
X6.9291Y-3.8562
X6.9291Y-4.0531
X6.9291Y-4.2499
X6.9383Y-4.7244
X6.9488Y-2.5787
X6.956Y-4.9606
X6.956Y-5.0591
X6.9567Y-2.126
X6.9567Y-2.1772
X6.9587Y-1.9951
X6.9606Y-2.0374
X7.0Y-1.9764
X7.0079Y-2.6751
X7.0079Y-2.8621
X7.0236Y-2.0118
X7.0236Y-2.0472
X7.0394Y-2.5
X7.0472Y-2.5512
X7.0472Y-2.5906
X7.0866Y-1.6142
X7.0906Y-2.6811
X7.0957Y-4.6457
X7.126Y-3.0688
X7.126Y-3.2657
X7.126Y-3.4625
X7.126Y-3.6594
X7.126Y-3.8562
X7.126Y-4.0531
X7.126Y-4.2499
X7.1299Y-2.8622
X7.1351Y-4.5866
X7.1528Y-4.9606
X7.1528Y-5.0591
X7.1535Y-2.6835
X7.1843Y-4.6654
X7.2047Y-2.8621
X7.2244Y-2.6535
X7.2559Y-1.937
X7.2559Y-2.0079
X7.2559Y-2.1181
X7.2835Y-1.6142
X7.2994Y-1.8386
X7.2994Y-1.936
X7.3031Y-2.8621
X7.3228Y-3.2657
X7.3228Y-3.4625
X7.3228Y-3.6594
X7.3228Y-3.8562
X7.3228Y-4.0531
X7.3228Y-4.2499
X7.3425Y-4.3701
X7.3465Y-2.6843
X7.3585Y-1.8386
X7.3585Y-1.8819
X7.378Y-2.4409
X7.378Y-2.5118
X7.3858Y-2.0512
X7.4175Y-1.8386
X7.4175Y-1.8819
X7.4175Y-1.9449
X7.4175Y-1.9921
X7.4213Y-2.2756
X7.4331Y-3.2972
X7.4409Y-3.2184
X7.4409Y-3.4625
X7.4409Y-3.563
X7.4409Y-3.8583
X7.4409Y-3.9567
X7.4409Y-4.0551
X7.4567Y-2.4409
X7.4567Y-2.5118
X7.4606Y-4.314
X7.4766Y-1.8386
X7.4766Y-1.8819
X7.4902Y-2.7953
X7.5039Y-2.4409
X7.5039Y-2.5118
X7.5079Y-4.5315
X7.5079Y-4.9724
X7.5197Y-3.6594
X7.5197Y-4.3258
X7.5356Y-1.8386
X7.5394Y-2.2756
X7.5472Y-4.9724
X7.5591Y-2.7953
X7.575Y-2.0236
X7.5827Y-2.5197
X7.5827Y-2.5669
X7.5827Y-4.8189
X7.5866Y-4.9724
X7.5886Y-4.8917
X7.5886Y-4.9311
X7.626Y-4.563
X7.626Y-4.9724
X7.628Y-1.8701
X7.628Y-1.9488
X7.628Y-4.8917
X7.628Y-4.9311
X7.7165Y-1.8701
X7.7165Y-1.9488
X7.7165Y-2.4016
X7.7165Y-3.189
X7.7165Y-3.3858
X7.7165Y-3.5827
X7.7165Y-3.7795
X7.7165Y-3.9764
X7.7165Y-4.1732
X7.7165Y-4.3701
X7.7165Y-4.5669
X7.7165Y-5.0
X7.815Y-1.8701
X7.815Y-1.9488
X7.9134Y-1.8504
X7.9134Y-1.939
X7.9134Y-2.0276
X7.9134Y-2.2047
X7.9134Y-2.4016
X7.9134Y-2.5984
X7.9134Y-2.7953
X7.9134Y-2.9921
X7.9134Y-3.189
X7.9134Y-3.3858
X7.9134Y-3.5827
X7.9134Y-3.7795
X7.9134Y-3.9764
X7.9134Y-4.1732
X7.9134Y-4.3701
X7.9134Y-4.5669
X7.9134Y-5.0
X8.0118Y-1.8504
X8.0118Y-2.0276
X8.1102Y-2.2047
X8.1102Y-2.4016
X8.1102Y-2.5984
X8.1102Y-2.7953
X8.1102Y-2.9921
X8.1102Y-3.189
X8.1102Y-3.3858
X8.1102Y-3.5827
X8.1102Y-3.7795
X8.1102Y-3.9764
X8.1102Y-4.1732
X8.1102Y-4.3701
X8.1102Y-4.5669
X8.1102Y-5.0
X8.1201Y-1.8504
X8.1201Y-1.939
X8.1201Y-2.0276
X8.2087Y-1.8504
X8.2087Y-1.9291
X8.2087Y-2.0079
X8.2677Y-1.6278
X8.3071Y-2.2047
X8.3071Y-2.4016
X8.3071Y-2.5984
X8.3071Y-2.7953
X8.3071Y-2.9921
X8.3071Y-3.189
X8.3071Y-3.3858
X8.3071Y-3.5827
X8.3071Y-3.7795
X8.3071Y-3.9764
X8.3071Y-4.1732
X8.3071Y-4.5669
X8.3071Y-4.7638
X8.3071Y-5.0
X8.5433Y-2.0079
X8.5433Y-2.2047
X8.5433Y-2.4016
X8.5433Y-2.5984
X8.5433Y-2.7953
X8.5433Y-2.9921
X8.5433Y-3.189
X8.5433Y-3.3858
X8.5433Y-3.5827
X8.5433Y-3.7795
X8.5433Y-3.9764
X8.5433Y-4.1732
X8.5433Y-4.3701
X8.5433Y-4.5669
X8.5433Y-4.7638
T3
X5.315Y-4.4488
X5.6299Y-3.6614
X5.7776Y-4.4291
X6.6535Y-4.8031
X6.6535Y-4.9213
X6.6535Y-5.0394
T4
X5.3563Y-2.0276
X5.3563Y-2.1063
X5.3563Y-2.185
X5.3563Y-2.2638
X5.3563Y-2.6276
X5.3563Y-2.7063
X5.3563Y-2.785
X5.3563Y-2.8638
X5.3563Y-3.2283
X5.3563Y-3.3071
X5.3563Y-3.3858
X5.3563Y-3.4646
T5
X5.2559Y-4.5758
X5.2559Y-4.6758
X5.448Y-4.6772
X5.5256Y-2.0512
X5.5256Y-2.1512
X5.5256Y-2.2512
X5.5256Y-2.6512
X5.5256Y-2.7512
X5.5256Y-2.8512
X5.548Y-4.6772
X5.5906Y-3.2268
X5.5906Y-3.3268
X5.5906Y-3.4268
X5.648Y-4.6772
X5.748Y-4.6772
X6.0693Y-3.5
X6.1693Y-3.5
X6.2693Y-3.5
T7
X6.3189Y-3.9646
T8
X6.2189Y-3.8646
X6.2189Y-4.0646
X6.4189Y-3.8646
X6.4189Y-4.0646
T9
X6.8031Y-1.7913
X6.9882Y-1.7913
X7.1732Y-1.7913
T10
X8.3268Y-1.937
T11
X5.2953Y-1.752
X5.2953Y-4.9409
X8.4843Y-1.752
X8.4843Y-4.9409
T12
X7.6969Y-2.2598
X8.3268Y-4.4331
T2
G00X6.0031Y-1.6972
M15
G01X6.0031Y-1.6736
M16
G05
G00X6.0031Y-1.8717
M15
G01X6.0031Y-1.8283
M16
G05
G00X6.3433Y-1.6972
M15
G01X6.3433Y-1.6736
M16
G05
G00X6.3433Y-1.8717
M15
G01X6.3433Y-1.8283
M16
G05
G00X6.8765Y-4.8079
M15
G01X6.8765Y-4.8512
M16
G05
G00X6.8765Y-4.9823
M15
G01X6.8765Y-5.0059
M16
G05
G00X7.2166Y-4.8079
M15
G01X7.2166Y-4.8512
M16
G05
G00X7.2166Y-4.9823
M15
G01X7.2166Y-5.0059
M16
G05
T6
G00X8.0374Y-1.9402
M15
G01X7.9862Y-1.9402
M16
G05
G00X8.0374Y-4.7528
M15
G01X7.9862Y-4.7528
M16
G05
M30
