%TF.GenerationSoftware,KiCad,Pcbnew,9.0.2*%
%TF.CreationDate,2026-05-04T03:18:27-07:00*%
%TF.ProjectId,BLV_PCB,424c565f-5043-4422-9e6b-696361645f70,rev?*%
%TF.SameCoordinates,Original*%
%TF.FileFunction,Soldermask,Top*%
%TF.FilePolarity,Negative*%
%FSLAX46Y46*%
G04 Gerber Fmt 4.6, Leading zero omitted, Abs format (unit mm)*
G04 Created by KiCad (PCBNEW 9.0.2) date 2026-05-04 03:18:27*
%MOMM*%
%LPD*%
G01*
G04 APERTURE LIST*
G04 Aperture macros list*
%AMRoundRect*
0 Rectangle with rounded corners*
0 $1 Rounding radius*
0 $2 $3 $4 $5 $6 $7 $8 $9 X,Y pos of 4 corners*
0 Add a 4 corners polygon primitive as box body*
4,1,4,$2,$3,$4,$5,$6,$7,$8,$9,$2,$3,0*
0 Add four circle primitives for the rounded corners*
1,1,$1+$1,$2,$3*
1,1,$1+$1,$4,$5*
1,1,$1+$1,$6,$7*
1,1,$1+$1,$8,$9*
0 Add four rect primitives between the rounded corners*
20,1,$1+$1,$2,$3,$4,$5,0*
20,1,$1+$1,$4,$5,$6,$7,0*
20,1,$1+$1,$6,$7,$8,$9,0*
20,1,$1+$1,$8,$9,$2,$3,0*%
%AMFreePoly0*
4,1,33,1.429779,1.305902,1.466106,1.255902,1.471000,1.225000,1.471000,0.720000,1.451902,0.661221,1.436616,0.650115,1.465106,0.610902,1.470000,0.580000,1.470000,0.080000,1.450902,0.021221,1.424741,0.002213,1.428779,0.000902,1.465106,-0.049098,1.470000,-0.080000,1.470000,-0.580000,1.450902,-0.638779,1.436270,-0.649409,1.465106,-0.689098,1.470000,-0.720000,1.470000,-1.225000,
1.450902,-1.283779,1.400902,-1.320106,1.370000,-1.325000,-0.950000,-1.325000,-1.008779,-1.305902,-1.045106,-1.255902,-1.050000,-1.225000,-1.050000,1.225000,-1.030902,1.283779,-0.980902,1.320106,-0.950000,1.325000,1.371000,1.325000,1.429779,1.305902,1.429779,1.305902,$1*%
%AMFreePoly1*
4,1,57,-0.066221,1.780902,-0.029894,1.730902,-0.025000,1.700000,-0.025000,1.300000,0.025000,1.300000,0.025000,1.700000,0.044098,1.758779,0.094098,1.795106,0.125000,1.800000,0.375000,1.800000,0.433779,1.780902,0.470106,1.730902,0.475000,1.700000,0.475000,1.300000,0.825000,1.300000,0.883779,1.280902,0.920106,1.230902,0.925000,1.200000,0.925000,-1.200000,0.905902,-1.258779,
0.855902,-1.295106,0.825000,-1.300000,0.475000,-1.300000,0.475000,-1.700000,0.455902,-1.758779,0.405902,-1.795106,0.375000,-1.800000,0.125000,-1.800000,0.066221,-1.780902,0.029894,-1.730902,0.025000,-1.700000,0.025000,-1.300000,-0.025000,-1.300000,-0.025000,-1.700000,-0.044098,-1.758779,-0.094098,-1.795106,-0.125000,-1.800000,-0.375000,-1.800000,-0.433779,-1.780902,-0.470106,-1.730902,
-0.475000,-1.700000,-0.475000,-1.300000,-0.825000,-1.300000,-0.883779,-1.280902,-0.920106,-1.230902,-0.925000,-1.200000,-0.925000,1.200000,-0.905902,1.258779,-0.855902,1.295106,-0.825000,1.300000,-0.475000,1.300000,-0.475000,1.700000,-0.455902,1.758779,-0.405902,1.795106,-0.375000,1.800000,-0.125000,1.800000,-0.066221,1.780902,-0.066221,1.780902,$1*%
%AMFreePoly2*
4,1,43,1.488228,0.292324,1.523583,0.277679,1.570579,0.237540,1.577702,0.223560,1.592347,0.188205,1.599959,0.149936,1.599959,-0.150063,1.592347,-0.188332,1.577702,-0.223687,1.537563,-0.270683,1.523583,-0.277806,1.488228,-0.292451,1.449959,-0.300063,0.637479,-0.300063,0.629903,-0.338220,0.615270,-0.373580,0.575147,-0.420589,0.561170,-0.427717,0.525820,-0.442374,0.487519,-0.449999,
-0.487502,-0.449999,-0.525771,-0.442387,-0.561126,-0.427742,-0.608122,-0.387603,-0.615245,-0.373623,-0.629890,-0.338268,-0.637429,-0.300063,-1.450035,-0.300063,-1.488304,-0.292451,-1.523659,-0.277806,-1.570655,-0.237667,-1.577778,-0.223687,-1.592423,-0.188332,-1.600035,-0.150063,-1.600035,0.149936,-1.592423,0.188205,-1.577778,0.223560,-1.537639,0.270556,-1.523659,0.277679,-1.488304,0.292324,
-1.450035,0.299936,1.449959,0.299936,1.488228,0.292324,1.488228,0.292324,$1*%
G04 Aperture macros list end*
%ADD10C,0.100000*%
%ADD11C,0.200000*%
%ADD12RoundRect,0.250000X0.250000X0.325000X-0.250000X0.325000X-0.250000X-0.325000X0.250000X-0.325000X0*%
%ADD13RoundRect,0.175000X0.240000X0.175000X-0.240000X0.175000X-0.240000X-0.175000X0.240000X-0.175000X0*%
%ADD14FreePoly0,180.000000*%
%ADD15RoundRect,0.190000X-0.220000X0.190000X-0.220000X-0.190000X0.220000X-0.190000X0.220000X0.190000X0*%
%ADD16RoundRect,0.112500X-0.387500X-0.112500X0.387500X-0.112500X0.387500X0.112500X-0.387500X0.112500X0*%
%ADD17RoundRect,0.100000X-0.850000X-0.700000X0.850000X-0.700000X0.850000X0.700000X-0.850000X0.700000X0*%
%ADD18RoundRect,0.100000X-2.000000X-0.650000X2.000000X-0.650000X2.000000X0.650000X-2.000000X0.650000X0*%
%ADD19RoundRect,0.250000X0.750000X0.250000X-0.750000X0.250000X-0.750000X-0.250000X0.750000X-0.250000X0*%
%ADD20RoundRect,0.185000X-0.185000X-0.235000X0.185000X-0.235000X0.185000X0.235000X-0.185000X0.235000X0*%
%ADD21C,5.800000*%
%ADD22RoundRect,0.190000X-0.190000X-0.220000X0.190000X-0.220000X0.190000X0.220000X-0.190000X0.220000X0*%
%ADD23RoundRect,0.275000X-0.275000X-0.300000X0.275000X-0.300000X0.275000X0.300000X-0.275000X0.300000X0*%
%ADD24RoundRect,0.298780X0.313720X0.501220X-0.313720X0.501220X-0.313720X-0.501220X0.313720X-0.501220X0*%
%ADD25C,1.700000*%
%ADD26RoundRect,0.190000X0.190000X0.220000X-0.190000X0.220000X-0.190000X-0.220000X0.190000X-0.220000X0*%
%ADD27RoundRect,0.185000X-0.235000X0.185000X-0.235000X-0.185000X0.235000X-0.185000X0.235000X0.185000X0*%
%ADD28RoundRect,0.185000X0.235000X-0.185000X0.235000X0.185000X-0.235000X0.185000X-0.235000X-0.185000X0*%
%ADD29RoundRect,0.293750X-0.506250X0.293750X-0.506250X-0.293750X0.506250X-0.293750X0.506250X0.293750X0*%
%ADD30RoundRect,0.190000X0.220000X-0.190000X0.220000X0.190000X-0.220000X0.190000X-0.220000X-0.190000X0*%
%ADD31RoundRect,0.100000X-0.450000X-0.500000X0.450000X-0.500000X0.450000X0.500000X-0.450000X0.500000X0*%
%ADD32RoundRect,0.100000X0.750000X-0.400000X0.750000X0.400000X-0.750000X0.400000X-0.750000X-0.400000X0*%
%ADD33RoundRect,0.412500X0.687500X-0.412500X0.687500X0.412500X-0.687500X0.412500X-0.687500X-0.412500X0*%
%ADD34RoundRect,0.291666X-0.683334X0.408334X-0.683334X-0.408334X0.683334X-0.408334X0.683334X0.408334X0*%
%ADD35O,1.950000X1.400000*%
%ADD36RoundRect,0.275000X0.275000X0.300000X-0.275000X0.300000X-0.275000X-0.300000X0.275000X-0.300000X0*%
%ADD37RoundRect,0.293750X0.293750X0.506250X-0.293750X0.506250X-0.293750X-0.506250X0.293750X-0.506250X0*%
%ADD38RoundRect,0.185000X0.185000X0.235000X-0.185000X0.235000X-0.185000X-0.235000X0.185000X-0.235000X0*%
%ADD39RoundRect,0.100000X0.450000X0.500000X-0.450000X0.500000X-0.450000X-0.500000X0.450000X-0.500000X0*%
%ADD40RoundRect,0.100000X1.250000X0.850000X-1.250000X0.850000X-1.250000X-0.850000X1.250000X-0.850000X0*%
%ADD41RoundRect,0.100000X-1.250000X-0.850000X1.250000X-0.850000X1.250000X0.850000X-1.250000X0.850000X0*%
%ADD42RoundRect,0.100000X0.850000X-1.250000X0.850000X1.250000X-0.850000X1.250000X-0.850000X-1.250000X0*%
%ADD43RoundRect,0.275000X0.300000X-0.275000X0.300000X0.275000X-0.300000X0.275000X-0.300000X-0.275000X0*%
%ADD44RoundRect,0.278089X-0.711911X-3.071911X0.711911X-3.071911X0.711911X3.071911X-0.711911X3.071911X0*%
%ADD45RoundRect,0.300000X0.525000X-0.300000X0.525000X0.300000X-0.525000X0.300000X-0.525000X-0.300000X0*%
%ADD46RoundRect,0.100000X0.850000X0.850000X-0.850000X0.850000X-0.850000X-0.850000X0.850000X-0.850000X0*%
%ADD47C,1.900000*%
%ADD48RoundRect,0.120000X-0.120000X-0.405000X0.120000X-0.405000X0.120000X0.405000X-0.120000X0.405000X0*%
%ADD49RoundRect,0.120000X-0.120000X-0.355000X0.120000X-0.355000X0.120000X0.355000X-0.120000X0.355000X0*%
%ADD50RoundRect,0.100000X0.480000X-0.500000X0.480000X0.500000X-0.480000X0.500000X-0.480000X-0.500000X0*%
%ADD51RoundRect,0.250000X-0.250000X-0.325000X0.250000X-0.325000X0.250000X0.325000X-0.250000X0.325000X0*%
%ADD52RoundRect,0.112500X-0.400000X-0.112500X0.400000X-0.112500X0.400000X0.112500X-0.400000X0.112500X0*%
%ADD53RoundRect,0.100000X-0.790000X-1.175000X0.790000X-1.175000X0.790000X1.175000X-0.790000X1.175000X0*%
%ADD54RoundRect,0.100000X-0.400000X-0.100000X0.400000X-0.100000X0.400000X0.100000X-0.400000X0.100000X0*%
%ADD55RoundRect,0.100000X-0.100000X-0.400000X0.100000X-0.400000X0.100000X0.400000X-0.100000X0.400000X0*%
%ADD56RoundRect,0.100000X-1.700000X-1.700000X1.700000X-1.700000X1.700000X1.700000X-1.700000X1.700000X0*%
%ADD57C,0.850000*%
%ADD58RoundRect,0.100000X-0.300000X-0.725000X0.300000X-0.725000X0.300000X0.725000X-0.300000X0.725000X0*%
%ADD59RoundRect,0.100000X-0.150000X-0.725000X0.150000X-0.725000X0.150000X0.725000X-0.150000X0.725000X0*%
%ADD60O,1.200000X2.300000*%
%ADD61O,1.200000X1.800000*%
%ADD62RoundRect,0.100000X-0.850000X0.850000X-0.850000X-0.850000X0.850000X-0.850000X0.850000X0.850000X0*%
%ADD63RoundRect,0.212500X-0.700000X-0.212500X0.700000X-0.212500X0.700000X0.212500X-0.700000X0.212500X0*%
%ADD64C,3.500000*%
%ADD65C,2.600000*%
%ADD66O,3.700000X2.700000*%
%ADD67RoundRect,0.100000X-0.350000X-0.850000X0.350000X-0.850000X0.350000X0.850000X-0.350000X0.850000X0*%
%ADD68RoundRect,0.100000X-0.480000X0.500000X-0.480000X-0.500000X0.480000X-0.500000X0.480000X0.500000X0*%
%ADD69RoundRect,0.291666X-0.508334X-0.408334X0.508334X-0.408334X0.508334X0.408334X-0.508334X0.408334X0*%
%ADD70RoundRect,0.100000X0.300000X0.725000X-0.300000X0.725000X-0.300000X-0.725000X0.300000X-0.725000X0*%
%ADD71RoundRect,0.100000X0.150000X0.725000X-0.150000X0.725000X-0.150000X-0.725000X0.150000X-0.725000X0*%
%ADD72RoundRect,0.250000X-0.325000X0.250000X-0.325000X-0.250000X0.325000X-0.250000X0.325000X0.250000X0*%
%ADD73RoundRect,0.110000X0.290000X0.110000X-0.290000X0.110000X-0.290000X-0.110000X0.290000X-0.110000X0*%
%ADD74FreePoly1,180.000000*%
%ADD75RoundRect,0.275000X-0.300000X0.275000X-0.300000X-0.275000X0.300000X-0.275000X0.300000X0.275000X0*%
%ADD76RoundRect,0.197500X0.222500X-0.197500X0.222500X0.197500X-0.222500X0.197500X-0.222500X-0.197500X0*%
%ADD77RoundRect,0.100000X0.850000X-0.850000X0.850000X0.850000X-0.850000X0.850000X-0.850000X-0.850000X0*%
%ADD78RoundRect,0.100000X-0.200000X0.450000X-0.200000X-0.450000X0.200000X-0.450000X0.200000X0.450000X0*%
%ADD79C,2.700000*%
%ADD80RoundRect,0.175000X-0.240000X-0.175000X0.240000X-0.175000X0.240000X0.175000X-0.240000X0.175000X0*%
%ADD81FreePoly0,0.000000*%
%ADD82RoundRect,0.300000X0.300000X0.525000X-0.300000X0.525000X-0.300000X-0.525000X0.300000X-0.525000X0*%
%ADD83C,2.250000*%
%ADD84C,2.450000*%
%ADD85RoundRect,0.293750X0.506250X-0.293750X0.506250X0.293750X-0.506250X0.293750X-0.506250X-0.293750X0*%
%ADD86RoundRect,0.100000X-0.150000X-0.550000X0.150000X-0.550000X0.150000X0.550000X-0.150000X0.550000X0*%
%ADD87FreePoly2,270.000000*%
%ADD88RoundRect,0.100000X-0.125000X-0.300000X0.125000X-0.300000X0.125000X0.300000X-0.125000X0.300000X0*%
%ADD89RoundRect,0.100000X-0.300000X0.125000X-0.300000X-0.125000X0.300000X-0.125000X0.300000X0.125000X0*%
%ADD90RoundRect,0.190000X-0.289914X-0.021213X-0.021213X-0.289914X0.289914X0.021213X0.021213X0.289914X0*%
%ADD91RoundRect,0.150000X0.687500X0.150000X-0.687500X0.150000X-0.687500X-0.150000X0.687500X-0.150000X0*%
%ADD92RoundRect,0.100000X-0.525000X0.500000X-0.525000X-0.500000X0.525000X-0.500000X0.525000X0.500000X0*%
%ADD93RoundRect,0.100000X-1.100000X0.525000X-1.100000X-0.525000X1.100000X-0.525000X1.100000X0.525000X0*%
G04 APERTURE END LIST*
D10*
X148994360Y-128510157D02*
X148744360Y-128510157D01*
X148744360Y-128903014D02*
X148744360Y-128153014D01*
X148744360Y-128153014D02*
X149101503Y-128153014D01*
X149708646Y-128403014D02*
X149708646Y-128903014D01*
X149387217Y-128403014D02*
X149387217Y-128795871D01*
X149387217Y-128795871D02*
X149422931Y-128867300D01*
X149422931Y-128867300D02*
X149494360Y-128903014D01*
X149494360Y-128903014D02*
X149601503Y-128903014D01*
X149601503Y-128903014D02*
X149672931Y-128867300D01*
X149672931Y-128867300D02*
X149708646Y-128831585D01*
X150065788Y-128403014D02*
X150065788Y-128903014D01*
X150065788Y-128474442D02*
X150101502Y-128438728D01*
X150101502Y-128438728D02*
X150172931Y-128403014D01*
X150172931Y-128403014D02*
X150280074Y-128403014D01*
X150280074Y-128403014D02*
X150351502Y-128438728D01*
X150351502Y-128438728D02*
X150387217Y-128510157D01*
X150387217Y-128510157D02*
X150387217Y-128903014D01*
X151065788Y-128903014D02*
X151065788Y-128153014D01*
X151065788Y-128867300D02*
X150994359Y-128903014D01*
X150994359Y-128903014D02*
X150851502Y-128903014D01*
X150851502Y-128903014D02*
X150780073Y-128867300D01*
X150780073Y-128867300D02*
X150744359Y-128831585D01*
X150744359Y-128831585D02*
X150708645Y-128760157D01*
X150708645Y-128760157D02*
X150708645Y-128545871D01*
X150708645Y-128545871D02*
X150744359Y-128474442D01*
X150744359Y-128474442D02*
X150780073Y-128438728D01*
X150780073Y-128438728D02*
X150851502Y-128403014D01*
X150851502Y-128403014D02*
X150994359Y-128403014D01*
X150994359Y-128403014D02*
X151065788Y-128438728D01*
X151708644Y-128867300D02*
X151637216Y-128903014D01*
X151637216Y-128903014D02*
X151494359Y-128903014D01*
X151494359Y-128903014D02*
X151422930Y-128867300D01*
X151422930Y-128867300D02*
X151387216Y-128795871D01*
X151387216Y-128795871D02*
X151387216Y-128510157D01*
X151387216Y-128510157D02*
X151422930Y-128438728D01*
X151422930Y-128438728D02*
X151494359Y-128403014D01*
X151494359Y-128403014D02*
X151637216Y-128403014D01*
X151637216Y-128403014D02*
X151708644Y-128438728D01*
X151708644Y-128438728D02*
X151744359Y-128510157D01*
X151744359Y-128510157D02*
X151744359Y-128581585D01*
X151744359Y-128581585D02*
X151387216Y-128653014D01*
X152387216Y-128903014D02*
X152387216Y-128153014D01*
X152387216Y-128867300D02*
X152315787Y-128903014D01*
X152315787Y-128903014D02*
X152172930Y-128903014D01*
X152172930Y-128903014D02*
X152101501Y-128867300D01*
X152101501Y-128867300D02*
X152065787Y-128831585D01*
X152065787Y-128831585D02*
X152030073Y-128760157D01*
X152030073Y-128760157D02*
X152030073Y-128545871D01*
X152030073Y-128545871D02*
X152065787Y-128474442D01*
X152065787Y-128474442D02*
X152101501Y-128438728D01*
X152101501Y-128438728D02*
X152172930Y-128403014D01*
X152172930Y-128403014D02*
X152315787Y-128403014D01*
X152315787Y-128403014D02*
X152387216Y-128438728D01*
X153244358Y-128403014D02*
X153387216Y-128903014D01*
X153387216Y-128903014D02*
X153530073Y-128545871D01*
X153530073Y-128545871D02*
X153672930Y-128903014D01*
X153672930Y-128903014D02*
X153815787Y-128403014D01*
X154101501Y-128903014D02*
X154101501Y-128403014D01*
X154101501Y-128153014D02*
X154065787Y-128188728D01*
X154065787Y-128188728D02*
X154101501Y-128224442D01*
X154101501Y-128224442D02*
X154137215Y-128188728D01*
X154137215Y-128188728D02*
X154101501Y-128153014D01*
X154101501Y-128153014D02*
X154101501Y-128224442D01*
X154351501Y-128403014D02*
X154637215Y-128403014D01*
X154458644Y-128153014D02*
X154458644Y-128795871D01*
X154458644Y-128795871D02*
X154494358Y-128867300D01*
X154494358Y-128867300D02*
X154565787Y-128903014D01*
X154565787Y-128903014D02*
X154637215Y-128903014D01*
X154887215Y-128903014D02*
X154887215Y-128153014D01*
X155208644Y-128903014D02*
X155208644Y-128510157D01*
X155208644Y-128510157D02*
X155172929Y-128438728D01*
X155172929Y-128438728D02*
X155101501Y-128403014D01*
X155101501Y-128403014D02*
X154994358Y-128403014D01*
X154994358Y-128403014D02*
X154922929Y-128438728D01*
X154922929Y-128438728D02*
X154887215Y-128474442D01*
X156137215Y-128903014D02*
X156137215Y-128153014D01*
X156458644Y-128903014D02*
X156458644Y-128510157D01*
X156458644Y-128510157D02*
X156422929Y-128438728D01*
X156422929Y-128438728D02*
X156351501Y-128403014D01*
X156351501Y-128403014D02*
X156244358Y-128403014D01*
X156244358Y-128403014D02*
X156172929Y-128438728D01*
X156172929Y-128438728D02*
X156137215Y-128474442D01*
X156922929Y-128903014D02*
X156851500Y-128867300D01*
X156851500Y-128867300D02*
X156815786Y-128831585D01*
X156815786Y-128831585D02*
X156780072Y-128760157D01*
X156780072Y-128760157D02*
X156780072Y-128545871D01*
X156780072Y-128545871D02*
X156815786Y-128474442D01*
X156815786Y-128474442D02*
X156851500Y-128438728D01*
X156851500Y-128438728D02*
X156922929Y-128403014D01*
X156922929Y-128403014D02*
X157030072Y-128403014D01*
X157030072Y-128403014D02*
X157101500Y-128438728D01*
X157101500Y-128438728D02*
X157137215Y-128474442D01*
X157137215Y-128474442D02*
X157172929Y-128545871D01*
X157172929Y-128545871D02*
X157172929Y-128760157D01*
X157172929Y-128760157D02*
X157137215Y-128831585D01*
X157137215Y-128831585D02*
X157101500Y-128867300D01*
X157101500Y-128867300D02*
X157030072Y-128903014D01*
X157030072Y-128903014D02*
X156922929Y-128903014D01*
X157494357Y-128403014D02*
X157494357Y-129153014D01*
X157494357Y-128438728D02*
X157565786Y-128403014D01*
X157565786Y-128403014D02*
X157708643Y-128403014D01*
X157708643Y-128403014D02*
X157780071Y-128438728D01*
X157780071Y-128438728D02*
X157815786Y-128474442D01*
X157815786Y-128474442D02*
X157851500Y-128545871D01*
X157851500Y-128545871D02*
X157851500Y-128760157D01*
X157851500Y-128760157D02*
X157815786Y-128831585D01*
X157815786Y-128831585D02*
X157780071Y-128867300D01*
X157780071Y-128867300D02*
X157708643Y-128903014D01*
X157708643Y-128903014D02*
X157565786Y-128903014D01*
X157565786Y-128903014D02*
X157494357Y-128867300D01*
X158458642Y-128867300D02*
X158387214Y-128903014D01*
X158387214Y-128903014D02*
X158244357Y-128903014D01*
X158244357Y-128903014D02*
X158172928Y-128867300D01*
X158172928Y-128867300D02*
X158137214Y-128795871D01*
X158137214Y-128795871D02*
X158137214Y-128510157D01*
X158137214Y-128510157D02*
X158172928Y-128438728D01*
X158172928Y-128438728D02*
X158244357Y-128403014D01*
X158244357Y-128403014D02*
X158387214Y-128403014D01*
X158387214Y-128403014D02*
X158458642Y-128438728D01*
X158458642Y-128438728D02*
X158494357Y-128510157D01*
X158494357Y-128510157D02*
X158494357Y-128581585D01*
X158494357Y-128581585D02*
X158137214Y-128653014D01*
X158780071Y-128867300D02*
X158851499Y-128903014D01*
X158851499Y-128903014D02*
X158994356Y-128903014D01*
X158994356Y-128903014D02*
X159065785Y-128867300D01*
X159065785Y-128867300D02*
X159101499Y-128795871D01*
X159101499Y-128795871D02*
X159101499Y-128760157D01*
X159101499Y-128760157D02*
X159065785Y-128688728D01*
X159065785Y-128688728D02*
X158994356Y-128653014D01*
X158994356Y-128653014D02*
X158887214Y-128653014D01*
X158887214Y-128653014D02*
X158815785Y-128617300D01*
X158815785Y-128617300D02*
X158780071Y-128545871D01*
X158780071Y-128545871D02*
X158780071Y-128510157D01*
X158780071Y-128510157D02*
X158815785Y-128438728D01*
X158815785Y-128438728D02*
X158887214Y-128403014D01*
X158887214Y-128403014D02*
X158994356Y-128403014D01*
X158994356Y-128403014D02*
X159065785Y-128438728D01*
X160315786Y-128903014D02*
X160315786Y-128510157D01*
X160315786Y-128510157D02*
X160280071Y-128438728D01*
X160280071Y-128438728D02*
X160208643Y-128403014D01*
X160208643Y-128403014D02*
X160065786Y-128403014D01*
X160065786Y-128403014D02*
X159994357Y-128438728D01*
X160315786Y-128867300D02*
X160244357Y-128903014D01*
X160244357Y-128903014D02*
X160065786Y-128903014D01*
X160065786Y-128903014D02*
X159994357Y-128867300D01*
X159994357Y-128867300D02*
X159958643Y-128795871D01*
X159958643Y-128795871D02*
X159958643Y-128724442D01*
X159958643Y-128724442D02*
X159994357Y-128653014D01*
X159994357Y-128653014D02*
X160065786Y-128617300D01*
X160065786Y-128617300D02*
X160244357Y-128617300D01*
X160244357Y-128617300D02*
X160315786Y-128581585D01*
X160672928Y-128403014D02*
X160672928Y-128903014D01*
X160672928Y-128474442D02*
X160708642Y-128438728D01*
X160708642Y-128438728D02*
X160780071Y-128403014D01*
X160780071Y-128403014D02*
X160887214Y-128403014D01*
X160887214Y-128403014D02*
X160958642Y-128438728D01*
X160958642Y-128438728D02*
X160994357Y-128510157D01*
X160994357Y-128510157D02*
X160994357Y-128903014D01*
X161672928Y-128903014D02*
X161672928Y-128153014D01*
X161672928Y-128867300D02*
X161601499Y-128903014D01*
X161601499Y-128903014D02*
X161458642Y-128903014D01*
X161458642Y-128903014D02*
X161387213Y-128867300D01*
X161387213Y-128867300D02*
X161351499Y-128831585D01*
X161351499Y-128831585D02*
X161315785Y-128760157D01*
X161315785Y-128760157D02*
X161315785Y-128545871D01*
X161315785Y-128545871D02*
X161351499Y-128474442D01*
X161351499Y-128474442D02*
X161387213Y-128438728D01*
X161387213Y-128438728D02*
X161458642Y-128403014D01*
X161458642Y-128403014D02*
X161601499Y-128403014D01*
X161601499Y-128403014D02*
X161672928Y-128438728D01*
X162922928Y-128903014D02*
X162922928Y-128153014D01*
X162922928Y-128867300D02*
X162851499Y-128903014D01*
X162851499Y-128903014D02*
X162708642Y-128903014D01*
X162708642Y-128903014D02*
X162637213Y-128867300D01*
X162637213Y-128867300D02*
X162601499Y-128831585D01*
X162601499Y-128831585D02*
X162565785Y-128760157D01*
X162565785Y-128760157D02*
X162565785Y-128545871D01*
X162565785Y-128545871D02*
X162601499Y-128474442D01*
X162601499Y-128474442D02*
X162637213Y-128438728D01*
X162637213Y-128438728D02*
X162708642Y-128403014D01*
X162708642Y-128403014D02*
X162851499Y-128403014D01*
X162851499Y-128403014D02*
X162922928Y-128438728D01*
X163280070Y-128903014D02*
X163280070Y-128403014D01*
X163280070Y-128545871D02*
X163315784Y-128474442D01*
X163315784Y-128474442D02*
X163351499Y-128438728D01*
X163351499Y-128438728D02*
X163422927Y-128403014D01*
X163422927Y-128403014D02*
X163494356Y-128403014D01*
X164030070Y-128867300D02*
X163958642Y-128903014D01*
X163958642Y-128903014D02*
X163815785Y-128903014D01*
X163815785Y-128903014D02*
X163744356Y-128867300D01*
X163744356Y-128867300D02*
X163708642Y-128795871D01*
X163708642Y-128795871D02*
X163708642Y-128510157D01*
X163708642Y-128510157D02*
X163744356Y-128438728D01*
X163744356Y-128438728D02*
X163815785Y-128403014D01*
X163815785Y-128403014D02*
X163958642Y-128403014D01*
X163958642Y-128403014D02*
X164030070Y-128438728D01*
X164030070Y-128438728D02*
X164065785Y-128510157D01*
X164065785Y-128510157D02*
X164065785Y-128581585D01*
X164065785Y-128581585D02*
X163708642Y-128653014D01*
X164708642Y-128903014D02*
X164708642Y-128510157D01*
X164708642Y-128510157D02*
X164672927Y-128438728D01*
X164672927Y-128438728D02*
X164601499Y-128403014D01*
X164601499Y-128403014D02*
X164458642Y-128403014D01*
X164458642Y-128403014D02*
X164387213Y-128438728D01*
X164708642Y-128867300D02*
X164637213Y-128903014D01*
X164637213Y-128903014D02*
X164458642Y-128903014D01*
X164458642Y-128903014D02*
X164387213Y-128867300D01*
X164387213Y-128867300D02*
X164351499Y-128795871D01*
X164351499Y-128795871D02*
X164351499Y-128724442D01*
X164351499Y-128724442D02*
X164387213Y-128653014D01*
X164387213Y-128653014D02*
X164458642Y-128617300D01*
X164458642Y-128617300D02*
X164637213Y-128617300D01*
X164637213Y-128617300D02*
X164708642Y-128581585D01*
X165065784Y-128903014D02*
X165065784Y-128403014D01*
X165065784Y-128474442D02*
X165101498Y-128438728D01*
X165101498Y-128438728D02*
X165172927Y-128403014D01*
X165172927Y-128403014D02*
X165280070Y-128403014D01*
X165280070Y-128403014D02*
X165351498Y-128438728D01*
X165351498Y-128438728D02*
X165387213Y-128510157D01*
X165387213Y-128510157D02*
X165387213Y-128903014D01*
X165387213Y-128510157D02*
X165422927Y-128438728D01*
X165422927Y-128438728D02*
X165494355Y-128403014D01*
X165494355Y-128403014D02*
X165601498Y-128403014D01*
X165601498Y-128403014D02*
X165672927Y-128438728D01*
X165672927Y-128438728D02*
X165708641Y-128510157D01*
X165708641Y-128510157D02*
X165708641Y-128903014D01*
X166030070Y-128867300D02*
X166101498Y-128903014D01*
X166101498Y-128903014D02*
X166244355Y-128903014D01*
X166244355Y-128903014D02*
X166315784Y-128867300D01*
X166315784Y-128867300D02*
X166351498Y-128795871D01*
X166351498Y-128795871D02*
X166351498Y-128760157D01*
X166351498Y-128760157D02*
X166315784Y-128688728D01*
X166315784Y-128688728D02*
X166244355Y-128653014D01*
X166244355Y-128653014D02*
X166137213Y-128653014D01*
X166137213Y-128653014D02*
X166065784Y-128617300D01*
X166065784Y-128617300D02*
X166030070Y-128545871D01*
X166030070Y-128545871D02*
X166030070Y-128510157D01*
X166030070Y-128510157D02*
X166065784Y-128438728D01*
X166065784Y-128438728D02*
X166137213Y-128403014D01*
X166137213Y-128403014D02*
X166244355Y-128403014D01*
X166244355Y-128403014D02*
X166315784Y-128438728D01*
D11*
G36*
X138074721Y-40832090D02*
G01*
X138178393Y-40855559D01*
X138265343Y-40892383D01*
X138338277Y-40941900D01*
X138401913Y-41006086D01*
X138445170Y-41073222D01*
X138470627Y-41144408D01*
X138479201Y-41221404D01*
X138470676Y-41299414D01*
X138445827Y-41368441D01*
X138404345Y-41430597D01*
X138344109Y-41487138D01*
X138261390Y-41538331D01*
X138365704Y-41576261D01*
X138448323Y-41627398D01*
X138512852Y-41691492D01*
X138561227Y-41768460D01*
X138590220Y-41853045D01*
X138600139Y-41947542D01*
X138590767Y-42049073D01*
X138563785Y-42137765D01*
X138519711Y-42216123D01*
X138457481Y-42285883D01*
X138383228Y-42339790D01*
X138291208Y-42380366D01*
X138177629Y-42406606D01*
X138037767Y-42416101D01*
X137261969Y-42416101D01*
X137261969Y-42122423D01*
X137659045Y-42122423D01*
X137882566Y-42122423D01*
X137988601Y-42116377D01*
X138061860Y-42100895D01*
X138110676Y-42079085D01*
X138148169Y-42044699D01*
X138171653Y-41996208D01*
X138180323Y-41928575D01*
X138172825Y-41877072D01*
X138151123Y-41834415D01*
X138114143Y-41798358D01*
X138067688Y-41772776D01*
X138009709Y-41756370D01*
X137937325Y-41750431D01*
X137659045Y-41750431D01*
X137659045Y-42122423D01*
X137261969Y-42122423D01*
X137261969Y-41456754D01*
X137659045Y-41456754D01*
X137866659Y-41456754D01*
X137928785Y-41450738D01*
X137977607Y-41434138D01*
X138016047Y-41408011D01*
X138045928Y-41372541D01*
X138063610Y-41332198D01*
X138069684Y-41285340D01*
X138063619Y-41239336D01*
X138045955Y-41199810D01*
X138016047Y-41165116D01*
X137977686Y-41139574D01*
X137928866Y-41123300D01*
X137866659Y-41117393D01*
X137659045Y-41117393D01*
X137659045Y-41456754D01*
X137261969Y-41456754D01*
X137261969Y-40823715D01*
X137950989Y-40823715D01*
X138074721Y-40832090D01*
G37*
G36*
X140108500Y-42122423D02*
G01*
X140108500Y-42416101D01*
X138893511Y-42416101D01*
X138893511Y-40823715D01*
X139290587Y-40823715D01*
X139290587Y-42122423D01*
X140108500Y-42122423D01*
G37*
G36*
X141688139Y-40823715D02*
G01*
X140951191Y-42442205D01*
X140778962Y-42442205D01*
X140007752Y-40823715D01*
X140440111Y-40823715D01*
X140861049Y-41730853D01*
X141260369Y-40823715D01*
X141688139Y-40823715D01*
G37*
G36*
X142935963Y-42122423D02*
G01*
X142935963Y-42416101D01*
X141720973Y-42416101D01*
X141720973Y-40823715D01*
X142118050Y-40823715D01*
X142118050Y-42122423D01*
X142935963Y-42122423D01*
G37*
G36*
X143109314Y-40983606D02*
G01*
X143115465Y-40934474D01*
X143133503Y-40891132D01*
X143164073Y-40852063D01*
X143203296Y-40821634D01*
X143246551Y-40803710D01*
X143295310Y-40797611D01*
X143344810Y-40803740D01*
X143388422Y-40821694D01*
X143427669Y-40852063D01*
X143458238Y-40891132D01*
X143476276Y-40934474D01*
X143482427Y-40983606D01*
X143476319Y-41032018D01*
X143458320Y-41075216D01*
X143427669Y-41114640D01*
X143388386Y-41145314D01*
X143344776Y-41163424D01*
X143295310Y-41169602D01*
X143246585Y-41163455D01*
X143203332Y-41145375D01*
X143164073Y-41114640D01*
X143133421Y-41075216D01*
X143115422Y-41032018D01*
X143109314Y-40983606D01*
G37*
G36*
X143466418Y-41339283D02*
G01*
X143466418Y-42416101D01*
X143127567Y-42416101D01*
X143127567Y-41339283D01*
X143466418Y-41339283D01*
G37*
G36*
X144092624Y-41339283D02*
G01*
X144092624Y-41490200D01*
X144173842Y-41410102D01*
X144258252Y-41355776D01*
X144347217Y-41323890D01*
X144442896Y-41313178D01*
X144525059Y-41320227D01*
X144598056Y-41340615D01*
X144663590Y-41373955D01*
X144722909Y-41420860D01*
X144770419Y-41477952D01*
X144805290Y-41546622D01*
X144827391Y-41629230D01*
X144835282Y-41728915D01*
X144835282Y-42416101D01*
X144496431Y-42416101D01*
X144496431Y-41757977D01*
X144487992Y-41671773D01*
X144466022Y-41612911D01*
X144433223Y-41573828D01*
X144388823Y-41550147D01*
X144328790Y-41541594D01*
X144275159Y-41550565D01*
X144219271Y-41579261D01*
X144158912Y-41632901D01*
X144092624Y-41719534D01*
X144092624Y-42416101D01*
X143753773Y-42416101D01*
X143753773Y-41339283D01*
X144092624Y-41339283D01*
G37*
G36*
X145461794Y-40823715D02*
G01*
X145461794Y-41874428D01*
X145466383Y-41874428D01*
X145884975Y-41339283D01*
X146282052Y-41339283D01*
X145861114Y-41873817D01*
X146300305Y-42416101D01*
X145884975Y-42416101D01*
X145466383Y-41888093D01*
X145461794Y-41888093D01*
X145461794Y-42416101D01*
X145122943Y-42416101D01*
X145122943Y-40823715D01*
X145461794Y-40823715D01*
G37*
G36*
X147416076Y-42435679D02*
G01*
X146918659Y-41339283D01*
X147281371Y-41339283D01*
X147509583Y-41931430D01*
X147741160Y-41339283D01*
X148100507Y-41339283D01*
X147605436Y-42435679D01*
X147416076Y-42435679D01*
G37*
G36*
X149284701Y-42089792D02*
G01*
X149284701Y-42416101D01*
X148231745Y-42416101D01*
X148231745Y-42371437D01*
X148379585Y-42180498D01*
X148563152Y-41922151D01*
X148728769Y-41667288D01*
X148798706Y-41535782D01*
X148835935Y-41420978D01*
X148847754Y-41313688D01*
X148840720Y-41253568D01*
X148820148Y-41200368D01*
X148785551Y-41152369D01*
X148740627Y-41114392D01*
X148691227Y-41092258D01*
X148635551Y-41084762D01*
X148554279Y-41094913D01*
X148465098Y-41127437D01*
X148365276Y-41187093D01*
X148252241Y-41280547D01*
X148252241Y-40946285D01*
X148374284Y-40878125D01*
X148488369Y-40832276D01*
X148595908Y-40806068D01*
X148698366Y-40797611D01*
X148815726Y-40806101D01*
X148914545Y-40829985D01*
X148997980Y-40867702D01*
X149068522Y-40918855D01*
X149126729Y-40983740D01*
X149168560Y-41059274D01*
X149194575Y-41147565D01*
X149203736Y-41251587D01*
X149192061Y-41353675D01*
X149152507Y-41481508D01*
X149076525Y-41641813D01*
X148953566Y-41841919D01*
X148771377Y-42089792D01*
X149284701Y-42089792D01*
G37*
G36*
X149505775Y-42239894D02*
G01*
X149512462Y-42187017D01*
X149532144Y-42139997D01*
X149565632Y-42097236D01*
X149608572Y-42063870D01*
X149655765Y-42044249D01*
X149708800Y-42037583D01*
X149762641Y-42044285D01*
X149810188Y-42063940D01*
X149853090Y-42097236D01*
X149886640Y-42140005D01*
X149906353Y-42187024D01*
X149913049Y-42239894D01*
X149906311Y-42293488D01*
X149886561Y-42340687D01*
X149853090Y-42383164D01*
X149810231Y-42416093D01*
X149762681Y-42435561D01*
X149708800Y-42442205D01*
X149655725Y-42435596D01*
X149608529Y-42416162D01*
X149565632Y-42383164D01*
X149532222Y-42340694D01*
X149512503Y-42293495D01*
X149505775Y-42239894D01*
G37*
G36*
X150772071Y-40806625D02*
G01*
X150858748Y-40832696D01*
X150936247Y-40875461D01*
X151006145Y-40936021D01*
X151069201Y-41016849D01*
X151127799Y-41127783D01*
X151172260Y-41261181D01*
X151200951Y-41421153D01*
X151211247Y-41612464D01*
X151201062Y-41812358D01*
X151172882Y-41977239D01*
X151129612Y-42112561D01*
X151073177Y-42223069D01*
X151011752Y-42303562D01*
X150942799Y-42364020D01*
X150865510Y-42406866D01*
X150778197Y-42433098D01*
X150678446Y-42442205D01*
X150577273Y-42433152D01*
X150488216Y-42407033D01*
X150408955Y-42364344D01*
X150337838Y-42304156D01*
X150274028Y-42224190D01*
X150214749Y-42113752D01*
X150169576Y-41979468D01*
X150140291Y-41816809D01*
X150130599Y-41636529D01*
X150484497Y-41636529D01*
X150490926Y-41818782D01*
X150507232Y-41943290D01*
X150529568Y-42024326D01*
X150557722Y-42079103D01*
X150590686Y-42114582D01*
X150628762Y-42135029D01*
X150673857Y-42142001D01*
X150717235Y-42135155D01*
X150753934Y-42115023D01*
X150785796Y-42079922D01*
X150813048Y-42025448D01*
X150833926Y-41944016D01*
X150849888Y-41805517D01*
X150856386Y-41587175D01*
X150850189Y-41406229D01*
X150834618Y-41285219D01*
X150813558Y-41208657D01*
X150786865Y-41157580D01*
X150754855Y-41124103D01*
X150717105Y-41104552D01*
X150671614Y-41097814D01*
X150613935Y-41109342D01*
X150567495Y-41143676D01*
X150529568Y-41206414D01*
X150508068Y-41282815D01*
X150491375Y-41417774D01*
X150484497Y-41636529D01*
X150130599Y-41636529D01*
X150129738Y-41620520D01*
X150140513Y-41421664D01*
X150170337Y-41257894D01*
X150216212Y-41123609D01*
X150276271Y-41013994D01*
X150340994Y-40934150D01*
X150412016Y-40874322D01*
X150490087Y-40832123D01*
X150576698Y-40806458D01*
X150673959Y-40797611D01*
X150772071Y-40806625D01*
G37*
D10*
X214848609Y-106654764D02*
X214896228Y-106511907D01*
X214896228Y-106511907D02*
X214943847Y-106464288D01*
X214943847Y-106464288D02*
X215039085Y-106416669D01*
X215039085Y-106416669D02*
X215181942Y-106416669D01*
X215181942Y-106416669D02*
X215277180Y-106464288D01*
X215277180Y-106464288D02*
X215324800Y-106511907D01*
X215324800Y-106511907D02*
X215372419Y-106607145D01*
X215372419Y-106607145D02*
X215372419Y-106988097D01*
X215372419Y-106988097D02*
X214372419Y-106988097D01*
X214372419Y-106988097D02*
X214372419Y-106654764D01*
X214372419Y-106654764D02*
X214420038Y-106559526D01*
X214420038Y-106559526D02*
X214467657Y-106511907D01*
X214467657Y-106511907D02*
X214562895Y-106464288D01*
X214562895Y-106464288D02*
X214658133Y-106464288D01*
X214658133Y-106464288D02*
X214753371Y-106511907D01*
X214753371Y-106511907D02*
X214800990Y-106559526D01*
X214800990Y-106559526D02*
X214848609Y-106654764D01*
X214848609Y-106654764D02*
X214848609Y-106988097D01*
X215372419Y-105511907D02*
X215372419Y-105988097D01*
X215372419Y-105988097D02*
X214372419Y-105988097D01*
X214372419Y-105321430D02*
X215372419Y-104988097D01*
X215372419Y-104988097D02*
X214372419Y-104654764D01*
X215372419Y-103559525D02*
X214372419Y-103559525D01*
X214372419Y-103559525D02*
X214372419Y-103321430D01*
X214372419Y-103321430D02*
X214420038Y-103178573D01*
X214420038Y-103178573D02*
X214515276Y-103083335D01*
X214515276Y-103083335D02*
X214610514Y-103035716D01*
X214610514Y-103035716D02*
X214800990Y-102988097D01*
X214800990Y-102988097D02*
X214943847Y-102988097D01*
X214943847Y-102988097D02*
X215134323Y-103035716D01*
X215134323Y-103035716D02*
X215229561Y-103083335D01*
X215229561Y-103083335D02*
X215324800Y-103178573D01*
X215324800Y-103178573D02*
X215372419Y-103321430D01*
X215372419Y-103321430D02*
X215372419Y-103559525D01*
X215372419Y-102130954D02*
X214848609Y-102130954D01*
X214848609Y-102130954D02*
X214753371Y-102178573D01*
X214753371Y-102178573D02*
X214705752Y-102273811D01*
X214705752Y-102273811D02*
X214705752Y-102464287D01*
X214705752Y-102464287D02*
X214753371Y-102559525D01*
X215324800Y-102130954D02*
X215372419Y-102226192D01*
X215372419Y-102226192D02*
X215372419Y-102464287D01*
X215372419Y-102464287D02*
X215324800Y-102559525D01*
X215324800Y-102559525D02*
X215229561Y-102607144D01*
X215229561Y-102607144D02*
X215134323Y-102607144D01*
X215134323Y-102607144D02*
X215039085Y-102559525D01*
X215039085Y-102559525D02*
X214991466Y-102464287D01*
X214991466Y-102464287D02*
X214991466Y-102226192D01*
X214991466Y-102226192D02*
X214943847Y-102130954D01*
X214705752Y-101797620D02*
X214705752Y-101416668D01*
X214372419Y-101654763D02*
X215229561Y-101654763D01*
X215229561Y-101654763D02*
X215324800Y-101607144D01*
X215324800Y-101607144D02*
X215372419Y-101511906D01*
X215372419Y-101511906D02*
X215372419Y-101416668D01*
X215372419Y-100654763D02*
X214848609Y-100654763D01*
X214848609Y-100654763D02*
X214753371Y-100702382D01*
X214753371Y-100702382D02*
X214705752Y-100797620D01*
X214705752Y-100797620D02*
X214705752Y-100988096D01*
X214705752Y-100988096D02*
X214753371Y-101083334D01*
X215324800Y-100654763D02*
X215372419Y-100750001D01*
X215372419Y-100750001D02*
X215372419Y-100988096D01*
X215372419Y-100988096D02*
X215324800Y-101083334D01*
X215324800Y-101083334D02*
X215229561Y-101130953D01*
X215229561Y-101130953D02*
X215134323Y-101130953D01*
X215134323Y-101130953D02*
X215039085Y-101083334D01*
X215039085Y-101083334D02*
X214991466Y-100988096D01*
X214991466Y-100988096D02*
X214991466Y-100750001D01*
X214991466Y-100750001D02*
X214943847Y-100654763D01*
X215324800Y-100130953D02*
X215372419Y-100130953D01*
X215372419Y-100130953D02*
X215467657Y-100178572D01*
X215467657Y-100178572D02*
X215515276Y-100226191D01*
X214372419Y-99083334D02*
X214372419Y-98511906D01*
X215372419Y-98797620D02*
X214372419Y-98797620D01*
X215324800Y-97797620D02*
X215372419Y-97892858D01*
X215372419Y-97892858D02*
X215372419Y-98083334D01*
X215372419Y-98083334D02*
X215324800Y-98178572D01*
X215324800Y-98178572D02*
X215229561Y-98226191D01*
X215229561Y-98226191D02*
X214848609Y-98226191D01*
X214848609Y-98226191D02*
X214753371Y-98178572D01*
X214753371Y-98178572D02*
X214705752Y-98083334D01*
X214705752Y-98083334D02*
X214705752Y-97892858D01*
X214705752Y-97892858D02*
X214753371Y-97797620D01*
X214753371Y-97797620D02*
X214848609Y-97750001D01*
X214848609Y-97750001D02*
X214943847Y-97750001D01*
X214943847Y-97750001D02*
X215039085Y-98226191D01*
X215372419Y-97178572D02*
X215324800Y-97273810D01*
X215324800Y-97273810D02*
X215229561Y-97321429D01*
X215229561Y-97321429D02*
X214372419Y-97321429D01*
X215324800Y-96416667D02*
X215372419Y-96511905D01*
X215372419Y-96511905D02*
X215372419Y-96702381D01*
X215372419Y-96702381D02*
X215324800Y-96797619D01*
X215324800Y-96797619D02*
X215229561Y-96845238D01*
X215229561Y-96845238D02*
X214848609Y-96845238D01*
X214848609Y-96845238D02*
X214753371Y-96797619D01*
X214753371Y-96797619D02*
X214705752Y-96702381D01*
X214705752Y-96702381D02*
X214705752Y-96511905D01*
X214705752Y-96511905D02*
X214753371Y-96416667D01*
X214753371Y-96416667D02*
X214848609Y-96369048D01*
X214848609Y-96369048D02*
X214943847Y-96369048D01*
X214943847Y-96369048D02*
X215039085Y-96845238D01*
X215372419Y-95940476D02*
X214705752Y-95940476D01*
X214800990Y-95940476D02*
X214753371Y-95892857D01*
X214753371Y-95892857D02*
X214705752Y-95797619D01*
X214705752Y-95797619D02*
X214705752Y-95654762D01*
X214705752Y-95654762D02*
X214753371Y-95559524D01*
X214753371Y-95559524D02*
X214848609Y-95511905D01*
X214848609Y-95511905D02*
X215372419Y-95511905D01*
X214848609Y-95511905D02*
X214753371Y-95464286D01*
X214753371Y-95464286D02*
X214705752Y-95369048D01*
X214705752Y-95369048D02*
X214705752Y-95226191D01*
X214705752Y-95226191D02*
X214753371Y-95130952D01*
X214753371Y-95130952D02*
X214848609Y-95083333D01*
X214848609Y-95083333D02*
X215372419Y-95083333D01*
X215324800Y-94226191D02*
X215372419Y-94321429D01*
X215372419Y-94321429D02*
X215372419Y-94511905D01*
X215372419Y-94511905D02*
X215324800Y-94607143D01*
X215324800Y-94607143D02*
X215229561Y-94654762D01*
X215229561Y-94654762D02*
X214848609Y-94654762D01*
X214848609Y-94654762D02*
X214753371Y-94607143D01*
X214753371Y-94607143D02*
X214705752Y-94511905D01*
X214705752Y-94511905D02*
X214705752Y-94321429D01*
X214705752Y-94321429D02*
X214753371Y-94226191D01*
X214753371Y-94226191D02*
X214848609Y-94178572D01*
X214848609Y-94178572D02*
X214943847Y-94178572D01*
X214943847Y-94178572D02*
X215039085Y-94654762D01*
X214705752Y-93892857D02*
X214705752Y-93511905D01*
X214372419Y-93750000D02*
X215229561Y-93750000D01*
X215229561Y-93750000D02*
X215324800Y-93702381D01*
X215324800Y-93702381D02*
X215372419Y-93607143D01*
X215372419Y-93607143D02*
X215372419Y-93511905D01*
X215372419Y-93178571D02*
X214705752Y-93178571D01*
X214896228Y-93178571D02*
X214800990Y-93130952D01*
X214800990Y-93130952D02*
X214753371Y-93083333D01*
X214753371Y-93083333D02*
X214705752Y-92988095D01*
X214705752Y-92988095D02*
X214705752Y-92892857D01*
X214705752Y-92654761D02*
X215372419Y-92416666D01*
X214705752Y-92178571D02*
X215372419Y-92416666D01*
X215372419Y-92416666D02*
X215610514Y-92511904D01*
X215610514Y-92511904D02*
X215658133Y-92559523D01*
X215658133Y-92559523D02*
X215705752Y-92654761D01*
X215324800Y-91749999D02*
X215372419Y-91749999D01*
X215372419Y-91749999D02*
X215467657Y-91797618D01*
X215467657Y-91797618D02*
X215515276Y-91845237D01*
X215372419Y-90130952D02*
X214848609Y-90130952D01*
X214848609Y-90130952D02*
X214753371Y-90178571D01*
X214753371Y-90178571D02*
X214705752Y-90273809D01*
X214705752Y-90273809D02*
X214705752Y-90464285D01*
X214705752Y-90464285D02*
X214753371Y-90559523D01*
X215324800Y-90130952D02*
X215372419Y-90226190D01*
X215372419Y-90226190D02*
X215372419Y-90464285D01*
X215372419Y-90464285D02*
X215324800Y-90559523D01*
X215324800Y-90559523D02*
X215229561Y-90607142D01*
X215229561Y-90607142D02*
X215134323Y-90607142D01*
X215134323Y-90607142D02*
X215039085Y-90559523D01*
X215039085Y-90559523D02*
X214991466Y-90464285D01*
X214991466Y-90464285D02*
X214991466Y-90226190D01*
X214991466Y-90226190D02*
X214943847Y-90130952D01*
X214705752Y-89654761D02*
X215372419Y-89654761D01*
X214800990Y-89654761D02*
X214753371Y-89607142D01*
X214753371Y-89607142D02*
X214705752Y-89511904D01*
X214705752Y-89511904D02*
X214705752Y-89369047D01*
X214705752Y-89369047D02*
X214753371Y-89273809D01*
X214753371Y-89273809D02*
X214848609Y-89226190D01*
X214848609Y-89226190D02*
X215372419Y-89226190D01*
X215372419Y-88321428D02*
X214372419Y-88321428D01*
X215324800Y-88321428D02*
X215372419Y-88416666D01*
X215372419Y-88416666D02*
X215372419Y-88607142D01*
X215372419Y-88607142D02*
X215324800Y-88702380D01*
X215324800Y-88702380D02*
X215277180Y-88749999D01*
X215277180Y-88749999D02*
X215181942Y-88797618D01*
X215181942Y-88797618D02*
X214896228Y-88797618D01*
X214896228Y-88797618D02*
X214800990Y-88749999D01*
X214800990Y-88749999D02*
X214753371Y-88702380D01*
X214753371Y-88702380D02*
X214705752Y-88607142D01*
X214705752Y-88607142D02*
X214705752Y-88416666D01*
X214705752Y-88416666D02*
X214753371Y-88321428D01*
X215372419Y-86607142D02*
X215372419Y-87083332D01*
X215372419Y-87083332D02*
X214372419Y-87083332D01*
X215372419Y-86130951D02*
X215324800Y-86226189D01*
X215324800Y-86226189D02*
X215277180Y-86273808D01*
X215277180Y-86273808D02*
X215181942Y-86321427D01*
X215181942Y-86321427D02*
X214896228Y-86321427D01*
X214896228Y-86321427D02*
X214800990Y-86273808D01*
X214800990Y-86273808D02*
X214753371Y-86226189D01*
X214753371Y-86226189D02*
X214705752Y-86130951D01*
X214705752Y-86130951D02*
X214705752Y-85988094D01*
X214705752Y-85988094D02*
X214753371Y-85892856D01*
X214753371Y-85892856D02*
X214800990Y-85845237D01*
X214800990Y-85845237D02*
X214896228Y-85797618D01*
X214896228Y-85797618D02*
X215181942Y-85797618D01*
X215181942Y-85797618D02*
X215277180Y-85845237D01*
X215277180Y-85845237D02*
X215324800Y-85892856D01*
X215324800Y-85892856D02*
X215372419Y-85988094D01*
X215372419Y-85988094D02*
X215372419Y-86130951D01*
X215372419Y-84797618D02*
X214896228Y-85130951D01*
X215372419Y-85369046D02*
X214372419Y-85369046D01*
X214372419Y-85369046D02*
X214372419Y-84988094D01*
X214372419Y-84988094D02*
X214420038Y-84892856D01*
X214420038Y-84892856D02*
X214467657Y-84845237D01*
X214467657Y-84845237D02*
X214562895Y-84797618D01*
X214562895Y-84797618D02*
X214705752Y-84797618D01*
X214705752Y-84797618D02*
X214800990Y-84845237D01*
X214800990Y-84845237D02*
X214848609Y-84892856D01*
X214848609Y-84892856D02*
X214896228Y-84988094D01*
X214896228Y-84988094D02*
X214896228Y-85369046D01*
X215372419Y-83940475D02*
X214848609Y-83940475D01*
X214848609Y-83940475D02*
X214753371Y-83988094D01*
X214753371Y-83988094D02*
X214705752Y-84083332D01*
X214705752Y-84083332D02*
X214705752Y-84273808D01*
X214705752Y-84273808D02*
X214753371Y-84369046D01*
X215324800Y-83940475D02*
X215372419Y-84035713D01*
X215372419Y-84035713D02*
X215372419Y-84273808D01*
X215372419Y-84273808D02*
X215324800Y-84369046D01*
X215324800Y-84369046D02*
X215229561Y-84416665D01*
X215229561Y-84416665D02*
X215134323Y-84416665D01*
X215134323Y-84416665D02*
X215039085Y-84369046D01*
X215039085Y-84369046D02*
X214991466Y-84273808D01*
X214991466Y-84273808D02*
X214991466Y-84035713D01*
X214991466Y-84035713D02*
X214943847Y-83940475D01*
X215372419Y-82988094D02*
X215372419Y-83464284D01*
X215372419Y-83464284D02*
X214372419Y-83464284D01*
X215372419Y-82654760D02*
X214705752Y-82654760D01*
X214372419Y-82654760D02*
X214420038Y-82702379D01*
X214420038Y-82702379D02*
X214467657Y-82654760D01*
X214467657Y-82654760D02*
X214420038Y-82607141D01*
X214420038Y-82607141D02*
X214372419Y-82654760D01*
X214372419Y-82654760D02*
X214467657Y-82654760D01*
X214705752Y-82178570D02*
X215372419Y-82178570D01*
X214800990Y-82178570D02*
X214753371Y-82130951D01*
X214753371Y-82130951D02*
X214705752Y-82035713D01*
X214705752Y-82035713D02*
X214705752Y-81892856D01*
X214705752Y-81892856D02*
X214753371Y-81797618D01*
X214753371Y-81797618D02*
X214848609Y-81749999D01*
X214848609Y-81749999D02*
X215372419Y-81749999D01*
X215372419Y-81273808D02*
X214372419Y-81273808D01*
X214991466Y-81178570D02*
X215372419Y-80892856D01*
X214705752Y-80892856D02*
X215086704Y-81273808D01*
X215372419Y-79702379D02*
X214372419Y-79702379D01*
X214372419Y-79702379D02*
X214372419Y-79321427D01*
X214372419Y-79321427D02*
X214420038Y-79226189D01*
X214420038Y-79226189D02*
X214467657Y-79178570D01*
X214467657Y-79178570D02*
X214562895Y-79130951D01*
X214562895Y-79130951D02*
X214705752Y-79130951D01*
X214705752Y-79130951D02*
X214800990Y-79178570D01*
X214800990Y-79178570D02*
X214848609Y-79226189D01*
X214848609Y-79226189D02*
X214896228Y-79321427D01*
X214896228Y-79321427D02*
X214896228Y-79702379D01*
X215277180Y-78130951D02*
X215324800Y-78178570D01*
X215324800Y-78178570D02*
X215372419Y-78321427D01*
X215372419Y-78321427D02*
X215372419Y-78416665D01*
X215372419Y-78416665D02*
X215324800Y-78559522D01*
X215324800Y-78559522D02*
X215229561Y-78654760D01*
X215229561Y-78654760D02*
X215134323Y-78702379D01*
X215134323Y-78702379D02*
X214943847Y-78749998D01*
X214943847Y-78749998D02*
X214800990Y-78749998D01*
X214800990Y-78749998D02*
X214610514Y-78702379D01*
X214610514Y-78702379D02*
X214515276Y-78654760D01*
X214515276Y-78654760D02*
X214420038Y-78559522D01*
X214420038Y-78559522D02*
X214372419Y-78416665D01*
X214372419Y-78416665D02*
X214372419Y-78321427D01*
X214372419Y-78321427D02*
X214420038Y-78178570D01*
X214420038Y-78178570D02*
X214467657Y-78130951D01*
X214848609Y-77369046D02*
X214896228Y-77226189D01*
X214896228Y-77226189D02*
X214943847Y-77178570D01*
X214943847Y-77178570D02*
X215039085Y-77130951D01*
X215039085Y-77130951D02*
X215181942Y-77130951D01*
X215181942Y-77130951D02*
X215277180Y-77178570D01*
X215277180Y-77178570D02*
X215324800Y-77226189D01*
X215324800Y-77226189D02*
X215372419Y-77321427D01*
X215372419Y-77321427D02*
X215372419Y-77702379D01*
X215372419Y-77702379D02*
X214372419Y-77702379D01*
X214372419Y-77702379D02*
X214372419Y-77369046D01*
X214372419Y-77369046D02*
X214420038Y-77273808D01*
X214420038Y-77273808D02*
X214467657Y-77226189D01*
X214467657Y-77226189D02*
X214562895Y-77178570D01*
X214562895Y-77178570D02*
X214658133Y-77178570D01*
X214658133Y-77178570D02*
X214753371Y-77226189D01*
X214753371Y-77226189D02*
X214800990Y-77273808D01*
X214800990Y-77273808D02*
X214848609Y-77369046D01*
X214848609Y-77369046D02*
X214848609Y-77702379D01*
X215277180Y-76702379D02*
X215324800Y-76654760D01*
X215324800Y-76654760D02*
X215372419Y-76702379D01*
X215372419Y-76702379D02*
X215324800Y-76749998D01*
X215324800Y-76749998D02*
X215277180Y-76702379D01*
X215277180Y-76702379D02*
X215372419Y-76702379D01*
X215372419Y-75464284D02*
X214372419Y-75464284D01*
X214372419Y-75464284D02*
X214372419Y-75226189D01*
X214372419Y-75226189D02*
X214420038Y-75083332D01*
X214420038Y-75083332D02*
X214515276Y-74988094D01*
X214515276Y-74988094D02*
X214610514Y-74940475D01*
X214610514Y-74940475D02*
X214800990Y-74892856D01*
X214800990Y-74892856D02*
X214943847Y-74892856D01*
X214943847Y-74892856D02*
X215134323Y-74940475D01*
X215134323Y-74940475D02*
X215229561Y-74988094D01*
X215229561Y-74988094D02*
X215324800Y-75083332D01*
X215324800Y-75083332D02*
X215372419Y-75226189D01*
X215372419Y-75226189D02*
X215372419Y-75464284D01*
X215324800Y-74083332D02*
X215372419Y-74178570D01*
X215372419Y-74178570D02*
X215372419Y-74369046D01*
X215372419Y-74369046D02*
X215324800Y-74464284D01*
X215324800Y-74464284D02*
X215229561Y-74511903D01*
X215229561Y-74511903D02*
X214848609Y-74511903D01*
X214848609Y-74511903D02*
X214753371Y-74464284D01*
X214753371Y-74464284D02*
X214705752Y-74369046D01*
X214705752Y-74369046D02*
X214705752Y-74178570D01*
X214705752Y-74178570D02*
X214753371Y-74083332D01*
X214753371Y-74083332D02*
X214848609Y-74035713D01*
X214848609Y-74035713D02*
X214943847Y-74035713D01*
X214943847Y-74035713D02*
X215039085Y-74511903D01*
X215324800Y-73654760D02*
X215372419Y-73559522D01*
X215372419Y-73559522D02*
X215372419Y-73369046D01*
X215372419Y-73369046D02*
X215324800Y-73273808D01*
X215324800Y-73273808D02*
X215229561Y-73226189D01*
X215229561Y-73226189D02*
X215181942Y-73226189D01*
X215181942Y-73226189D02*
X215086704Y-73273808D01*
X215086704Y-73273808D02*
X215039085Y-73369046D01*
X215039085Y-73369046D02*
X215039085Y-73511903D01*
X215039085Y-73511903D02*
X214991466Y-73607141D01*
X214991466Y-73607141D02*
X214896228Y-73654760D01*
X214896228Y-73654760D02*
X214848609Y-73654760D01*
X214848609Y-73654760D02*
X214753371Y-73607141D01*
X214753371Y-73607141D02*
X214705752Y-73511903D01*
X214705752Y-73511903D02*
X214705752Y-73369046D01*
X214705752Y-73369046D02*
X214753371Y-73273808D01*
X215372419Y-72797617D02*
X214705752Y-72797617D01*
X214372419Y-72797617D02*
X214420038Y-72845236D01*
X214420038Y-72845236D02*
X214467657Y-72797617D01*
X214467657Y-72797617D02*
X214420038Y-72749998D01*
X214420038Y-72749998D02*
X214372419Y-72797617D01*
X214372419Y-72797617D02*
X214467657Y-72797617D01*
X214705752Y-71892856D02*
X215515276Y-71892856D01*
X215515276Y-71892856D02*
X215610514Y-71940475D01*
X215610514Y-71940475D02*
X215658133Y-71988094D01*
X215658133Y-71988094D02*
X215705752Y-72083332D01*
X215705752Y-72083332D02*
X215705752Y-72226189D01*
X215705752Y-72226189D02*
X215658133Y-72321427D01*
X215324800Y-71892856D02*
X215372419Y-71988094D01*
X215372419Y-71988094D02*
X215372419Y-72178570D01*
X215372419Y-72178570D02*
X215324800Y-72273808D01*
X215324800Y-72273808D02*
X215277180Y-72321427D01*
X215277180Y-72321427D02*
X215181942Y-72369046D01*
X215181942Y-72369046D02*
X214896228Y-72369046D01*
X214896228Y-72369046D02*
X214800990Y-72321427D01*
X214800990Y-72321427D02*
X214753371Y-72273808D01*
X214753371Y-72273808D02*
X214705752Y-72178570D01*
X214705752Y-72178570D02*
X214705752Y-71988094D01*
X214705752Y-71988094D02*
X214753371Y-71892856D01*
X214705752Y-71416665D02*
X215372419Y-71416665D01*
X214800990Y-71416665D02*
X214753371Y-71369046D01*
X214753371Y-71369046D02*
X214705752Y-71273808D01*
X214705752Y-71273808D02*
X214705752Y-71130951D01*
X214705752Y-71130951D02*
X214753371Y-71035713D01*
X214753371Y-71035713D02*
X214848609Y-70988094D01*
X214848609Y-70988094D02*
X215372419Y-70988094D01*
X215324800Y-70130951D02*
X215372419Y-70226189D01*
X215372419Y-70226189D02*
X215372419Y-70416665D01*
X215372419Y-70416665D02*
X215324800Y-70511903D01*
X215324800Y-70511903D02*
X215229561Y-70559522D01*
X215229561Y-70559522D02*
X214848609Y-70559522D01*
X214848609Y-70559522D02*
X214753371Y-70511903D01*
X214753371Y-70511903D02*
X214705752Y-70416665D01*
X214705752Y-70416665D02*
X214705752Y-70226189D01*
X214705752Y-70226189D02*
X214753371Y-70130951D01*
X214753371Y-70130951D02*
X214848609Y-70083332D01*
X214848609Y-70083332D02*
X214943847Y-70083332D01*
X214943847Y-70083332D02*
X215039085Y-70559522D01*
X215372419Y-69226189D02*
X214372419Y-69226189D01*
X215324800Y-69226189D02*
X215372419Y-69321427D01*
X215372419Y-69321427D02*
X215372419Y-69511903D01*
X215372419Y-69511903D02*
X215324800Y-69607141D01*
X215324800Y-69607141D02*
X215277180Y-69654760D01*
X215277180Y-69654760D02*
X215181942Y-69702379D01*
X215181942Y-69702379D02*
X214896228Y-69702379D01*
X214896228Y-69702379D02*
X214800990Y-69654760D01*
X214800990Y-69654760D02*
X214753371Y-69607141D01*
X214753371Y-69607141D02*
X214705752Y-69511903D01*
X214705752Y-69511903D02*
X214705752Y-69321427D01*
X214705752Y-69321427D02*
X214753371Y-69226189D01*
X215372419Y-67988093D02*
X214372419Y-67988093D01*
X214753371Y-67988093D02*
X214705752Y-67892855D01*
X214705752Y-67892855D02*
X214705752Y-67702379D01*
X214705752Y-67702379D02*
X214753371Y-67607141D01*
X214753371Y-67607141D02*
X214800990Y-67559522D01*
X214800990Y-67559522D02*
X214896228Y-67511903D01*
X214896228Y-67511903D02*
X215181942Y-67511903D01*
X215181942Y-67511903D02*
X215277180Y-67559522D01*
X215277180Y-67559522D02*
X215324800Y-67607141D01*
X215324800Y-67607141D02*
X215372419Y-67702379D01*
X215372419Y-67702379D02*
X215372419Y-67892855D01*
X215372419Y-67892855D02*
X215324800Y-67988093D01*
X214705752Y-67178569D02*
X215372419Y-66940474D01*
X214705752Y-66702379D02*
X215372419Y-66940474D01*
X215372419Y-66940474D02*
X215610514Y-67035712D01*
X215610514Y-67035712D02*
X215658133Y-67083331D01*
X215658133Y-67083331D02*
X215705752Y-67178569D01*
X214372419Y-65702378D02*
X214372419Y-65130950D01*
X215372419Y-65416664D02*
X214372419Y-65416664D01*
X215372419Y-64797616D02*
X214705752Y-64797616D01*
X214896228Y-64797616D02*
X214800990Y-64749997D01*
X214800990Y-64749997D02*
X214753371Y-64702378D01*
X214753371Y-64702378D02*
X214705752Y-64607140D01*
X214705752Y-64607140D02*
X214705752Y-64511902D01*
X215372419Y-64178568D02*
X214705752Y-64178568D01*
X214372419Y-64178568D02*
X214420038Y-64226187D01*
X214420038Y-64226187D02*
X214467657Y-64178568D01*
X214467657Y-64178568D02*
X214420038Y-64130949D01*
X214420038Y-64130949D02*
X214372419Y-64178568D01*
X214372419Y-64178568D02*
X214467657Y-64178568D01*
X215372419Y-62940473D02*
X214372419Y-62940473D01*
X214372419Y-62940473D02*
X214372419Y-62702378D01*
X214372419Y-62702378D02*
X214420038Y-62559521D01*
X214420038Y-62559521D02*
X214515276Y-62464283D01*
X214515276Y-62464283D02*
X214610514Y-62416664D01*
X214610514Y-62416664D02*
X214800990Y-62369045D01*
X214800990Y-62369045D02*
X214943847Y-62369045D01*
X214943847Y-62369045D02*
X215134323Y-62416664D01*
X215134323Y-62416664D02*
X215229561Y-62464283D01*
X215229561Y-62464283D02*
X215324800Y-62559521D01*
X215324800Y-62559521D02*
X215372419Y-62702378D01*
X215372419Y-62702378D02*
X215372419Y-62940473D01*
X215372419Y-61797616D02*
X215324800Y-61892854D01*
X215324800Y-61892854D02*
X215277180Y-61940473D01*
X215277180Y-61940473D02*
X215181942Y-61988092D01*
X215181942Y-61988092D02*
X214896228Y-61988092D01*
X214896228Y-61988092D02*
X214800990Y-61940473D01*
X214800990Y-61940473D02*
X214753371Y-61892854D01*
X214753371Y-61892854D02*
X214705752Y-61797616D01*
X214705752Y-61797616D02*
X214705752Y-61654759D01*
X214705752Y-61654759D02*
X214753371Y-61559521D01*
X214753371Y-61559521D02*
X214800990Y-61511902D01*
X214800990Y-61511902D02*
X214896228Y-61464283D01*
X214896228Y-61464283D02*
X215181942Y-61464283D01*
X215181942Y-61464283D02*
X215277180Y-61511902D01*
X215277180Y-61511902D02*
X215324800Y-61559521D01*
X215324800Y-61559521D02*
X215372419Y-61654759D01*
X215372419Y-61654759D02*
X215372419Y-61797616D01*
D12*
%TO.C,R63*%
X182125000Y-65900000D03*
X180475000Y-65900000D03*
%TD*%
D13*
%TO.C,Q32*%
X191350000Y-124360000D03*
X191350000Y-123720000D03*
X191350000Y-123060000D03*
X191350000Y-122420000D03*
D14*
X189525000Y-123390000D03*
%TD*%
D13*
%TO.C,Q31*%
X191350000Y-120460000D03*
X191350000Y-119820000D03*
X191350000Y-119160000D03*
X191350000Y-118520000D03*
D14*
X189525000Y-119490000D03*
%TD*%
D15*
%TO.C,C71*%
X144300000Y-127080000D03*
X144300000Y-126120000D03*
%TD*%
D16*
%TO.C,U71*%
X140250000Y-126250000D03*
X140250000Y-126750000D03*
X140250000Y-127250000D03*
X140250000Y-127750000D03*
X143150000Y-127750000D03*
X143150000Y-127250000D03*
X143150000Y-126750000D03*
X143150000Y-126250000D03*
D17*
X141700000Y-127000000D03*
%TD*%
D18*
%TO.C,L33*%
X168900000Y-54600000D03*
X168900000Y-57300000D03*
%TD*%
D19*
%TO.C,U40*%
X164800000Y-124650000D03*
X164800000Y-123550000D03*
X164800000Y-122450000D03*
X164800000Y-121350000D03*
X164800000Y-120250000D03*
X164800000Y-119150000D03*
X164800000Y-118050000D03*
X164800000Y-115050000D03*
X164800000Y-113950000D03*
X164800000Y-112850000D03*
X164800000Y-111750000D03*
X164800000Y-110650000D03*
X152800000Y-110650000D03*
X152800000Y-111750000D03*
X152800000Y-112850000D03*
X152800000Y-113950000D03*
X152800000Y-115050000D03*
X152800000Y-118050000D03*
X152800000Y-119150000D03*
X152800000Y-120250000D03*
X152800000Y-121350000D03*
X152800000Y-122450000D03*
X152800000Y-123550000D03*
X152800000Y-124650000D03*
%TD*%
D20*
%TO.C,R65*%
X167480000Y-60500000D03*
X168500000Y-60500000D03*
%TD*%
D21*
%TO.C,H34*%
X134500000Y-125500000D03*
%TD*%
D22*
%TO.C,C31*%
X154595000Y-80050000D03*
X155555000Y-80050000D03*
%TD*%
D23*
%TO.C,C35*%
X158625000Y-63940000D03*
X160175000Y-63940000D03*
%TD*%
D22*
%TO.C,C44*%
X162995000Y-71200000D03*
X163955000Y-71200000D03*
%TD*%
D20*
%TO.C,R58*%
X191395000Y-50300000D03*
X192415000Y-50300000D03*
%TD*%
D24*
%TO.C,R72*%
X168912500Y-115200000D03*
X167087500Y-115200000D03*
%TD*%
D20*
%TO.C,R69*%
X153240000Y-97600000D03*
X154260000Y-97600000D03*
%TD*%
D25*
%TO.C,TP31*%
X143000000Y-93000000D03*
%TD*%
%TO.C,TP34*%
X169000000Y-122000000D03*
%TD*%
D21*
%TO.C,H33*%
X215500000Y-125500000D03*
%TD*%
D26*
%TO.C,C36*%
X151755000Y-70000000D03*
X150795000Y-70000000D03*
%TD*%
D27*
%TO.C,R40*%
X142000000Y-78490001D03*
X142000000Y-79509999D03*
%TD*%
D15*
%TO.C,C42*%
X155575000Y-76520000D03*
X155575000Y-77480000D03*
%TD*%
%TO.C,C56*%
X161100000Y-55800000D03*
X161100000Y-56760000D03*
%TD*%
D21*
%TO.C,H32*%
X215500000Y-44500000D03*
%TD*%
D28*
%TO.C,R42*%
X139200000Y-60509999D03*
X139200000Y-59490001D03*
%TD*%
D29*
%TO.C,D38*%
X171000000Y-62062500D03*
X171000000Y-63937500D03*
%TD*%
D30*
%TO.C,C57*%
X181000000Y-68160000D03*
X181000000Y-67200000D03*
%TD*%
D31*
%TO.C,SW31*%
X143600000Y-49500000D03*
X147700000Y-49500000D03*
X143600000Y-51100000D03*
X147700000Y-51100000D03*
%TD*%
D32*
%TO.C,J42*%
X136800000Y-106580000D03*
X136800000Y-105480000D03*
X136800000Y-104380000D03*
X136800000Y-103280000D03*
X136800000Y-102180000D03*
X136800000Y-101080000D03*
X136800000Y-99980000D03*
X136800000Y-98880000D03*
D33*
X134200000Y-110250000D03*
X142500000Y-110250000D03*
X134200000Y-96500000D03*
X142500000Y-96500000D03*
%TD*%
D34*
%TO.C,J33*%
X136050000Y-82000000D03*
D35*
X136050000Y-84000000D03*
X136050000Y-86000000D03*
X136050000Y-88000000D03*
%TD*%
D34*
%TO.C,J32*%
X136050000Y-66740000D03*
D35*
X136050000Y-68740000D03*
X136050000Y-70740000D03*
X136050000Y-72740000D03*
%TD*%
D36*
%TO.C,C53*%
X165675000Y-51950000D03*
X164125000Y-51950000D03*
%TD*%
D15*
%TO.C,C37*%
X158075000Y-77140000D03*
X158075000Y-78100000D03*
%TD*%
D28*
%TO.C,R66*%
X182500000Y-113010000D03*
X182500000Y-111990000D03*
%TD*%
D37*
%TO.C,D34*%
X138000000Y-76400000D03*
X136125000Y-76400000D03*
%TD*%
D38*
%TO.C,R57*%
X189415000Y-52500000D03*
X188395000Y-52500000D03*
%TD*%
D39*
%TO.C,SW32*%
X160250000Y-93400000D03*
X156150000Y-93400000D03*
X160250000Y-91800000D03*
X156150000Y-91800000D03*
%TD*%
D26*
%TO.C,C55*%
X171680000Y-50500000D03*
X170720000Y-50500000D03*
%TD*%
D40*
%TO.C,U39*%
X191008225Y-103212451D03*
X191008225Y-100672451D03*
X191008225Y-98132451D03*
D41*
X191008225Y-90562451D03*
X191008225Y-88022451D03*
X191008225Y-85482451D03*
X191008225Y-82942451D03*
X191008225Y-80402451D03*
X191008225Y-77862451D03*
X191008225Y-75322451D03*
X191008225Y-72782451D03*
D42*
X185458225Y-70272451D03*
X182918225Y-70272451D03*
X180378225Y-70272451D03*
X177838225Y-70272451D03*
X175298225Y-70272451D03*
X172758225Y-70272451D03*
D41*
X167208225Y-72782451D03*
X167208225Y-75322451D03*
X167208225Y-77862451D03*
X167208225Y-80402451D03*
X167208225Y-82942451D03*
X167208225Y-85482451D03*
X167208225Y-88022451D03*
X167208225Y-90562451D03*
D40*
X167208225Y-98132451D03*
X167208225Y-100672451D03*
X167208225Y-103212451D03*
%TD*%
D38*
%TO.C,R37*%
X145441668Y-54900000D03*
X144421668Y-54900000D03*
%TD*%
D43*
%TO.C,C48*%
X185405000Y-49175000D03*
X185405000Y-47625000D03*
%TD*%
D44*
%TO.C,L32*%
X180140000Y-59750000D03*
X184860000Y-59750000D03*
%TD*%
D45*
%TO.C,C60*%
X189200000Y-66850000D03*
X189200000Y-64950000D03*
%TD*%
D20*
%TO.C,R32*%
X144431668Y-56053894D03*
X145451668Y-56053894D03*
%TD*%
D26*
%TO.C,C41*%
X152675000Y-72000000D03*
X151715000Y-72000000D03*
%TD*%
D28*
%TO.C,R62*%
X182500000Y-68190000D03*
X182500000Y-67170000D03*
%TD*%
D25*
%TO.C,TP35*%
X169000000Y-128000000D03*
%TD*%
D46*
%TO.C,J34*%
X142000000Y-87040000D03*
D47*
X142000000Y-84500000D03*
X142000000Y-81960000D03*
%TD*%
D25*
%TO.C,TP32*%
X135000000Y-113000000D03*
%TD*%
D27*
%TO.C,R41*%
X155825000Y-61790000D03*
X155825000Y-62810000D03*
%TD*%
D28*
%TO.C,R59*%
X167400000Y-42810000D03*
X167400000Y-41790000D03*
%TD*%
%TO.C,R38*%
X141600000Y-61259999D03*
X141600000Y-60240001D03*
%TD*%
%TO.C,R60*%
X191400000Y-42010000D03*
X191400000Y-40990000D03*
%TD*%
D30*
%TO.C,C46*%
X154775000Y-62780000D03*
X154775000Y-61820000D03*
%TD*%
D26*
%TO.C,C51*%
X193480000Y-42000000D03*
X192520000Y-42000000D03*
%TD*%
D15*
%TO.C,C47*%
X192400000Y-111820000D03*
X192400000Y-112780000D03*
%TD*%
D45*
%TO.C,C58*%
X187200000Y-66850000D03*
X187200000Y-64950000D03*
%TD*%
D26*
%TO.C,C33*%
X151460000Y-56700000D03*
X150500000Y-56700000D03*
%TD*%
D15*
%TO.C,C38*%
X162175000Y-65160000D03*
X162175000Y-66120000D03*
%TD*%
D25*
%TO.C,TP33*%
X169000000Y-125000000D03*
%TD*%
D27*
%TO.C,R35*%
X154500000Y-92090000D03*
X154500000Y-93110000D03*
%TD*%
D48*
%TO.C,U34*%
X190200000Y-114100000D03*
D49*
X190700000Y-114150000D03*
X191200000Y-114150000D03*
X191200000Y-113000000D03*
X190700000Y-113000000D03*
X190200000Y-113000000D03*
%TD*%
D50*
%TO.C,D31*%
X139300000Y-87160000D03*
X139300000Y-84000000D03*
%TD*%
D27*
%TO.C,R33*%
X148900000Y-54990000D03*
X148900000Y-56010000D03*
%TD*%
D51*
%TO.C,R49*%
X132900000Y-76400000D03*
X134550000Y-76400000D03*
%TD*%
%TO.C,R50*%
X132975000Y-91600000D03*
X134625000Y-91600000D03*
%TD*%
D52*
%TO.C,U35*%
X186967500Y-49000000D03*
X186967500Y-49500000D03*
X186967500Y-50000000D03*
X186967500Y-50500000D03*
X186967500Y-51000000D03*
X189842500Y-51000000D03*
X189842500Y-50500000D03*
X189842500Y-50000000D03*
X189842500Y-49500000D03*
X189842500Y-49000000D03*
D53*
X188405000Y-50000000D03*
%TD*%
D54*
%TO.C,U32*%
X153925000Y-68200000D03*
X153925000Y-68600000D03*
X153925000Y-69000000D03*
X153925000Y-69400000D03*
X153925000Y-69800000D03*
X153925000Y-70200000D03*
X153925000Y-70600000D03*
X153925000Y-71000000D03*
X153925000Y-71400000D03*
X153925000Y-71800000D03*
X153925000Y-72200000D03*
X153925000Y-72600000D03*
X153925000Y-73000000D03*
X153925000Y-73400000D03*
X153925000Y-73800000D03*
D55*
X154575000Y-74450000D03*
X154975000Y-74450000D03*
X155375000Y-74450000D03*
X155775000Y-74450000D03*
X156175000Y-74450000D03*
X156575000Y-74450000D03*
X156975000Y-74450000D03*
X157375000Y-74450000D03*
X157775000Y-74450000D03*
X158175000Y-74450000D03*
X158575000Y-74450000D03*
X158975000Y-74450000D03*
X159375000Y-74450000D03*
X159775000Y-74450000D03*
X160175000Y-74450000D03*
D54*
X160825000Y-73800000D03*
X160825000Y-73400000D03*
X160825000Y-73000000D03*
X160825000Y-72600000D03*
X160825000Y-72200000D03*
X160825000Y-71800000D03*
X160825000Y-71400000D03*
X160825000Y-71000000D03*
X160825000Y-70600000D03*
X160825000Y-70200000D03*
X160825000Y-69800000D03*
X160825000Y-69400000D03*
X160825000Y-69000000D03*
X160825000Y-68600000D03*
X160825000Y-68200000D03*
D55*
X160175000Y-67550000D03*
X159775000Y-67550000D03*
X159375000Y-67550000D03*
X158975000Y-67550000D03*
X158575000Y-67550000D03*
X158175000Y-67550000D03*
X157775000Y-67550000D03*
X157375000Y-67550000D03*
X156975000Y-67550000D03*
X156575000Y-67550000D03*
X156175000Y-67550000D03*
X155775000Y-67550000D03*
X155375000Y-67550000D03*
X154975000Y-67550000D03*
X154575000Y-67550000D03*
D56*
X157375000Y-71000000D03*
%TD*%
D57*
%TO.C,J41*%
X176092000Y-123200000D03*
X181872000Y-123200000D03*
D58*
X175732000Y-121755000D03*
X176532000Y-121755000D03*
D59*
X177732000Y-121755000D03*
X178732000Y-121755000D03*
X179232000Y-121755000D03*
X180232000Y-121755000D03*
D58*
X181432000Y-121755000D03*
X182232000Y-121755000D03*
X182232000Y-121755000D03*
X181432000Y-121755000D03*
D59*
X180732000Y-121755000D03*
X179732000Y-121755000D03*
X178232000Y-121755000D03*
X177232000Y-121755000D03*
D58*
X176532000Y-121755000D03*
X175732000Y-121755000D03*
D60*
X174662000Y-122670000D03*
D61*
X174662000Y-126850000D03*
D60*
X183302000Y-122670000D03*
D61*
X183302000Y-126850000D03*
%TD*%
D36*
%TO.C,C61*%
X165675000Y-60450000D03*
X164125000Y-60450000D03*
%TD*%
D37*
%TO.C,D35*%
X138037500Y-91600000D03*
X136162500Y-91600000D03*
%TD*%
D38*
%TO.C,R56*%
X192010000Y-54300000D03*
X190990000Y-54300000D03*
%TD*%
D28*
%TO.C,R64*%
X172700000Y-65010000D03*
X172700000Y-63990000D03*
%TD*%
D62*
%TO.C,J39*%
X147275000Y-117000000D03*
D47*
X144735000Y-117000000D03*
%TD*%
D63*
%TO.C,U31*%
X144787500Y-58295000D03*
X144787500Y-59565000D03*
X144787500Y-60835000D03*
X144787500Y-62105000D03*
X151962500Y-62105000D03*
X151962500Y-60835000D03*
X151962500Y-59565000D03*
X151962500Y-58295000D03*
%TD*%
D27*
%TO.C,R47*%
X165700000Y-67590000D03*
X165700000Y-68610000D03*
%TD*%
D38*
%TO.C,R71*%
X167620000Y-119200000D03*
X166600000Y-119200000D03*
%TD*%
D15*
%TO.C,C66*%
X149900000Y-123600000D03*
X149900000Y-124560000D03*
%TD*%
D64*
%TO.C,U33*%
X211500000Y-112600000D03*
X195500000Y-57400000D03*
D65*
X211500000Y-49200000D03*
D66*
X203500000Y-120720000D03*
X203500000Y-49280000D03*
%TD*%
D38*
%TO.C,R43*%
X143710000Y-69900000D03*
X142690000Y-69900000D03*
%TD*%
D67*
%TO.C,L31*%
X158765000Y-62040000D03*
X160165000Y-62040000D03*
%TD*%
D46*
%TO.C,J36*%
X140350000Y-72420000D03*
D47*
X140350000Y-69880000D03*
X140350000Y-67340000D03*
%TD*%
D22*
%TO.C,C45*%
X162995000Y-68200000D03*
X163955000Y-68200000D03*
%TD*%
D68*
%TO.C,D32*%
X139300000Y-78920000D03*
X139300000Y-82080000D03*
%TD*%
D69*
%TO.C,Y31*%
X155475000Y-84065000D03*
X157675000Y-84065000D03*
X157675000Y-82365000D03*
X155475000Y-82365000D03*
%TD*%
D31*
%TO.C,SW34*%
X176950000Y-111700000D03*
X181050000Y-111700000D03*
X176950000Y-113300000D03*
X181050000Y-113300000D03*
%TD*%
D26*
%TO.C,C40*%
X152580000Y-67800000D03*
X151620000Y-67800000D03*
%TD*%
D23*
%TO.C,C34*%
X158625000Y-65440000D03*
X160175000Y-65440000D03*
%TD*%
D43*
%TO.C,C49*%
X192000000Y-48975000D03*
X192000000Y-47425000D03*
%TD*%
D57*
%TO.C,J38*%
X159690000Y-46460000D03*
X153910000Y-46460000D03*
D70*
X160050000Y-47905000D03*
X159250000Y-47905000D03*
D71*
X158050000Y-47905000D03*
X157050000Y-47905000D03*
X156550000Y-47905000D03*
X155550000Y-47905000D03*
D70*
X154350000Y-47905000D03*
X153550000Y-47905000D03*
X153550000Y-47905000D03*
X154350000Y-47905000D03*
D71*
X155050000Y-47905000D03*
X156050000Y-47905000D03*
X157550000Y-47905000D03*
X158550000Y-47905000D03*
D70*
X159250000Y-47905000D03*
X160050000Y-47905000D03*
D60*
X161120000Y-46990000D03*
D61*
X161120000Y-42810000D03*
D60*
X152480000Y-46990000D03*
D61*
X152480000Y-42810000D03*
%TD*%
D26*
%TO.C,C68*%
X168580000Y-113700000D03*
X167620000Y-113700000D03*
%TD*%
D15*
%TO.C,C54*%
X177400000Y-63620000D03*
X177400000Y-64580000D03*
%TD*%
D36*
%TO.C,C59*%
X165675000Y-58950000D03*
X164125000Y-58950000D03*
%TD*%
D28*
%TO.C,R67*%
X180732000Y-120010000D03*
X180732000Y-118990000D03*
%TD*%
D29*
%TO.C,D37*%
X191500000Y-55862500D03*
X191500000Y-57737500D03*
%TD*%
D38*
%TO.C,R39*%
X143709999Y-68100000D03*
X142690001Y-68100000D03*
%TD*%
D72*
%TO.C,R51*%
X191000000Y-109875000D03*
X191000000Y-111525000D03*
%TD*%
D15*
%TO.C,C67*%
X151000000Y-123600000D03*
X151000000Y-124560000D03*
%TD*%
D73*
%TO.C,U38*%
X165400000Y-56950000D03*
X165400000Y-56450000D03*
X165400000Y-55950000D03*
X165400000Y-55450000D03*
X165400000Y-54950000D03*
X162600000Y-54950000D03*
X162600000Y-55450000D03*
X162600000Y-55950000D03*
X162600000Y-56450000D03*
X162600000Y-56950000D03*
D74*
X164000000Y-55950000D03*
%TD*%
D38*
%TO.C,R55*%
X189010000Y-54300000D03*
X187990000Y-54300000D03*
%TD*%
D75*
%TO.C,C52*%
X175400000Y-63325000D03*
X175400000Y-64875000D03*
%TD*%
D76*
%TO.C,L34*%
X168600000Y-112685000D03*
X168600000Y-111715000D03*
%TD*%
D28*
%TO.C,R34*%
X156975000Y-78130000D03*
X156975000Y-77110000D03*
%TD*%
D27*
%TO.C,R44*%
X143500000Y-78490000D03*
X143500000Y-79510000D03*
%TD*%
D37*
%TO.C,D33*%
X137875000Y-61200000D03*
X136000000Y-61200000D03*
%TD*%
D27*
%TO.C,R61*%
X161100000Y-53690000D03*
X161100000Y-54710000D03*
%TD*%
%TO.C,R53*%
X158000000Y-49720000D03*
X158000000Y-50740000D03*
%TD*%
D77*
%TO.C,J37*%
X154160000Y-88900000D03*
D47*
X156700000Y-88900000D03*
X159240000Y-88900000D03*
%TD*%
D46*
%TO.C,J35*%
X140350000Y-57180000D03*
D47*
X140350000Y-54640000D03*
X140350000Y-52100000D03*
%TD*%
D25*
%TO.C,TP36*%
X146750000Y-112500000D03*
%TD*%
D78*
%TO.C,RN31*%
X140400000Y-112300000D03*
X139600000Y-112300000D03*
X138800000Y-112300000D03*
X138000000Y-112300000D03*
X138000000Y-114000000D03*
X138800000Y-114000000D03*
X139600000Y-114000000D03*
X140400000Y-114000000D03*
%TD*%
D26*
%TO.C,C32*%
X158435000Y-80050000D03*
X157475000Y-80050000D03*
%TD*%
D27*
%TO.C,R46*%
X166800000Y-67590000D03*
X166800000Y-68610000D03*
%TD*%
D79*
%TO.C,SW33*%
X172800000Y-45500000D03*
X177500000Y-45500000D03*
X182200000Y-45500000D03*
%TD*%
D80*
%TO.C,Q34*%
X192150000Y-43420000D03*
X192150000Y-44060000D03*
X192150000Y-44720000D03*
X192150000Y-45360000D03*
D81*
X193975000Y-44390000D03*
%TD*%
D27*
%TO.C,R31*%
X147700000Y-54990000D03*
X147700000Y-56010000D03*
%TD*%
D51*
%TO.C,R48*%
X132712500Y-61200000D03*
X134362500Y-61200000D03*
%TD*%
D82*
%TO.C,C65*%
X135880000Y-94400000D03*
X133980000Y-94400000D03*
%TD*%
D28*
%TO.C,R54*%
X189500000Y-111585000D03*
X189500000Y-110565000D03*
%TD*%
D27*
%TO.C,R52*%
X155000000Y-49710000D03*
X155000000Y-50730000D03*
%TD*%
D83*
%TO.C,J40*%
X160500000Y-100700000D03*
D84*
X157960000Y-98160000D03*
X157960000Y-103240000D03*
X163040000Y-98160000D03*
X163040000Y-103240000D03*
%TD*%
D22*
%TO.C,C63*%
X137200000Y-94900000D03*
X138160000Y-94900000D03*
%TD*%
D27*
%TO.C,R45*%
X156825000Y-61790000D03*
X156825000Y-62810000D03*
%TD*%
D85*
%TO.C,D39*%
X168500000Y-63937500D03*
X168500000Y-62062500D03*
%TD*%
D27*
%TO.C,R36*%
X162175000Y-63120000D03*
X162175000Y-64140000D03*
%TD*%
D86*
%TO.C,U37*%
X185460000Y-65100000D03*
D87*
X184840000Y-66000000D03*
D88*
X184210000Y-64850000D03*
D89*
X183540000Y-65250000D03*
X183540000Y-65750000D03*
X183540000Y-66250000D03*
X183540000Y-66750000D03*
D88*
X184210000Y-67150000D03*
D59*
X185460000Y-66730000D03*
%TD*%
D22*
%TO.C,C39*%
X162995000Y-70200000D03*
X163955000Y-70200000D03*
%TD*%
D34*
%TO.C,J31*%
X136050000Y-51500000D03*
D35*
X136050000Y-53500000D03*
X136050000Y-55500000D03*
X136050000Y-57500000D03*
%TD*%
D28*
%TO.C,R68*%
X177482000Y-120010000D03*
X177482000Y-118990000D03*
%TD*%
D29*
%TO.C,D36*%
X188500000Y-55862500D03*
X188500000Y-57737500D03*
%TD*%
D38*
%TO.C,R70*%
X167610000Y-120300000D03*
X166590000Y-120300000D03*
%TD*%
D90*
%TO.C,C43*%
X162010589Y-75360589D03*
X162689411Y-76039411D03*
%TD*%
D91*
%TO.C,U36*%
X179862500Y-54275000D03*
X179862500Y-53625000D03*
X179862500Y-52975000D03*
X179862500Y-52325000D03*
X179862500Y-51675000D03*
X179862500Y-51025000D03*
X179862500Y-50375000D03*
X179862500Y-49725000D03*
X174137500Y-49725000D03*
X174137500Y-50375000D03*
X174137500Y-51025000D03*
X174137500Y-51675000D03*
X174137500Y-52325000D03*
X174137500Y-52975000D03*
X174137500Y-53625000D03*
X174137500Y-54275000D03*
%TD*%
D92*
%TO.C,JP31*%
X169845000Y-111750000D03*
D93*
X171365000Y-110280000D03*
X171365000Y-113220000D03*
%TD*%
D22*
%TO.C,C50*%
X165320000Y-42900000D03*
X166280000Y-42900000D03*
%TD*%
D45*
%TO.C,C62*%
X191200000Y-66850000D03*
X191200000Y-64950000D03*
%TD*%
D21*
%TO.C,H31*%
X134500000Y-44500000D03*
%TD*%
D13*
%TO.C,Q33*%
X166350000Y-46360000D03*
X166350000Y-45720000D03*
X166350000Y-45060000D03*
X166350000Y-44420000D03*
D14*
X164525000Y-45390000D03*
%TD*%
D30*
%TO.C,C64*%
X151000000Y-122380000D03*
X151000000Y-121420000D03*
%TD*%
M02*
