M48
; DRILL file {KiCad 9.0.2} date 2026-03-06T10:22:12-0800
; FORMAT={-:-/ absolute / inch / decimal}
; #@! TF.CreationDate,2026-03-06T10:22:12-08:00
; #@! TF.GenerationSoftware,Kicad,Pcbnew,9.0.2
; #@! TF.FileFunction,Plated,1,4,PTH
FMAT,2
INCH
; #@! TA.AperFunction,Plated,PTH,ViaDrill
T1C0.0118
; #@! TA.AperFunction,Plated,PTH,ComponentDrill
T2C0.0236
; #@! TA.AperFunction,Plated,PTH,ComponentDrill
T3C0.0276
; #@! TA.AperFunction,Plated,PTH,ComponentDrill
T4C0.0295
; #@! TA.AperFunction,Plated,PTH,ComponentDrill
T5C0.0394
; #@! TA.AperFunction,Plated,PTH,ComponentDrill
T6C0.0512
; #@! TA.AperFunction,Plated,PTH,ComponentDrill
T7C0.0945
; #@! TA.AperFunction,Plated,PTH,ComponentDrill
T8C0.1260
; #@! TA.AperFunction,Plated,PTH,ComponentDrill
T9C0.1299
%
G90
G05
T1
X5.1772Y-2.0472
X5.1772Y-2.2638
X5.1772Y-2.4409
X5.1772Y-2.5984
X5.1772Y-2.815
X5.1772Y-3.0157
X5.1772Y-3.248
X5.1772Y-3.4646
X5.1772Y-3.7008
X5.2165Y-2.3543
X5.2205Y-2.9567
X5.2205Y-3.5551
X5.2362Y-3.9173
X5.2362Y-4.0748
X5.2362Y-4.2323
X5.2362Y-4.4291
X5.2362Y-4.626
X5.2362Y-4.7835
X5.2559Y-1.9094
X5.2953Y-4.2717
X5.3031Y-4.0472
X5.3031Y-4.0787
X5.3228Y-2.4882
X5.3346Y-4.0472
X5.3346Y-4.0787
X5.4016Y-3.7008
X5.4134Y-3.1102
X5.437Y-3.9646
X5.437Y-3.9961
X5.4449Y-2.4882
X5.4488Y-2.0669
X5.4488Y-2.1535
X5.4528Y-1.6339
X5.4528Y-1.811
X5.4528Y-4.626
X5.4528Y-4.8228
X5.4528Y-5.0197
X5.4685Y-4.0699
X5.4921Y-2.9528
X5.4921Y-3.5433
X5.5118Y-2.5591
X5.5197Y-2.3268
X5.5197Y-2.3858
X5.5787Y-3.9843
X5.5787Y-4.0709
X5.5945Y-4.1496
X5.6102Y-3.7402
X5.6102Y-3.878
X5.6102Y-4.2717
X5.6299Y-2.2835
X5.6299Y-2.3228
X5.6299Y-5.0197
X5.6496Y-1.6339
X5.6496Y-1.811
X5.6496Y-2.0079
X5.6693Y-4.4291
X5.6693Y-4.626
X5.6693Y-4.8228
X5.7087Y-4.1732
X5.7087Y-4.2913
X5.7283Y-3.6811
X5.748Y-3.0807
X5.748Y-3.2874
X5.748Y-3.4843
X5.7874Y-2.9921
X5.7953Y-2.2441
X5.7953Y-2.3425
X5.7953Y-2.4409
X5.8386Y-3.8661
X5.8386Y-4.1102
X5.8465Y-1.6339
X5.8465Y-1.811
X5.8465Y-2.0079
X5.8465Y-2.5394
X5.8465Y-4.4291
X5.8465Y-4.626
X5.8465Y-4.8228
X5.8465Y-5.0197
X5.8583Y-2.9528
X5.874Y-2.2441
X5.874Y-2.3425
X5.874Y-2.4409
X5.876Y-3.9488
X5.876Y-4.0709
X5.9016Y-2.7559
X5.9055Y-2.0984
X5.9055Y-2.1575
X5.9055Y-4.8228
X5.9291Y-2.6693
X5.9331Y-2.8346
X5.9528Y-4.2756
X5.9528Y-4.4016
X5.9528Y-4.5354
X5.9646Y-2.0984
X5.9646Y-2.1575
X5.9843Y-4.1102
X6.0108Y-2.7559
X6.0236Y-2.1575
X6.0236Y-2.2165
X6.0315Y-4.5827
X6.0394Y-3.8071
X6.0433Y-2.9626
X6.0433Y-3.1496
X6.0433Y-3.2283
X6.0433Y-3.3071
X6.0433Y-3.3858
X6.0433Y-5.0197
X6.063Y-1.6339
X6.063Y-3.0906
X6.0787Y-4.3976
X6.0787Y-4.8228
X6.0787Y-4.8543
X6.0787Y-4.8858
X6.0827Y-3.8819
X6.0906Y-2.3976
X6.1024Y-2.1063
X6.1102Y-4.8228
X6.1102Y-4.8543
X6.1102Y-4.8858
X6.125Y-3.0827
X6.1417Y-3.3858
X6.1496Y-2.748
X6.1496Y-2.7953
X6.1496Y-2.8425
X6.1811Y-3.9173
X6.1811Y-4.1142
X6.1811Y-4.311
X6.1811Y-4.5079
X6.1811Y-4.7047
X6.1811Y-4.9016
X6.1959Y-2.748
X6.1959Y-2.7953
X6.1959Y-2.8425
X6.1998Y-2.5039
X6.1998Y-2.537
X6.2114Y-3.0003
X6.2205Y-3.3858
X6.2402Y-2.1063
X6.2402Y-2.3031
X6.2402Y-5.0197
X6.2441Y-2.748
X6.2441Y-2.7953
X6.2441Y-2.8425
X6.252Y-3.1024
X6.2598Y-1.6339
X6.2756Y-3.1535
X6.2795Y-3.6024
X6.2992Y-3.2283
X6.2992Y-3.3071
X6.2992Y-3.3858
X6.3455Y-2.5173
X6.3455Y-2.5488
X6.373Y-2.6335
X6.378Y-2.7717
X6.378Y-3.9173
X6.378Y-4.1142
X6.378Y-4.311
X6.378Y-4.5079
X6.378Y-4.7047
X6.378Y-4.9016
X6.4272Y-3.0118
X6.437Y-1.9094
X6.437Y-2.3031
X6.437Y-2.4606
X6.437Y-2.5394
X6.437Y-2.6181
X6.437Y-3.4843
X6.437Y-3.6811
X6.437Y-5.0197
X6.4764Y-1.6535
X6.4872Y-2.7008
X6.4872Y-2.7559
X6.4872Y-2.7953
X6.4882Y-2.8661
X6.4961Y-3.7795
X6.4961Y-3.9961
X6.5039Y-2.8346
X6.5155Y-2.6174
X6.5157Y-2.4606
X6.5157Y-2.5394
X6.6339Y-1.9094
X6.6339Y-2.1063
X6.6339Y-2.3031
X6.6339Y-2.5197
X6.6339Y-2.7165
X6.6339Y-4.0748
X6.7323Y-2.9921
X6.7323Y-3.189
X6.7323Y-3.3858
X6.7323Y-3.5827
X6.7323Y-3.7795
X6.7323Y-3.9764
X6.7323Y-4.1732
X6.7402Y-4.3996
X6.7441Y-1.6929
X6.748Y-4.2913
X6.7598Y-4.5236
X6.7717Y-2.874
X6.7756Y-2.1181
X6.7913Y-2.3819
X6.8012Y-2.5984
X6.8012Y-2.7854
X6.8307Y-1.9094
X6.8307Y-4.8622
X6.8307Y-5.0
X6.8622Y-4.5827
X6.8701Y-2.248
X6.8898Y-2.2126
X6.8898Y-2.2795
X6.8996Y-2.5984
X6.8996Y-2.7854
X6.9094Y-2.248
X6.9291Y-1.6929
X6.9291Y-2.874
X6.9291Y-2.9921
X6.9291Y-3.189
X6.9291Y-3.3858
X6.9291Y-3.5827
X6.9291Y-3.7795
X6.9291Y-3.9764
X6.9291Y-4.1732
X6.9291Y-4.2717
X6.9488Y-4.3701
X6.9488Y-4.4685
X6.9567Y-2.0394
X7.0079Y-2.378
X7.0079Y-2.4409
X7.0079Y-2.5098
X7.0079Y-2.5984
X7.0079Y-2.7854
X7.0157Y-4.9606
X7.0157Y-5.0591
X7.0276Y-4.3701
X7.0276Y-4.4685
X7.0472Y-2.1063
X7.0866Y-2.378
X7.0866Y-2.4409
X7.0866Y-2.5098
X7.1063Y-2.5984
X7.1063Y-2.7854
X7.126Y-1.6929
X7.126Y-2.874
X7.126Y-2.9921
X7.126Y-3.189
X7.126Y-3.3858
X7.126Y-3.5827
X7.126Y-3.7795
X7.126Y-3.9764
X7.126Y-4.1732
X7.1555Y-4.6457
X7.1654Y-2.378
X7.1654Y-2.4409
X7.1654Y-2.5098
X7.1949Y-4.5866
X7.2047Y-2.5984
X7.2047Y-2.7854
X7.2126Y-4.9606
X7.2126Y-5.0591
X7.2146Y-2.1063
X7.2146Y-2.2047
X7.2146Y-2.3031
X7.2441Y-2.4409
X7.2441Y-2.5098
X7.2441Y-4.6654
X7.3031Y-2.7854
X7.3189Y-2.2008
X7.3228Y-1.6929
X7.3228Y-2.5098
X7.3228Y-3.189
X7.3228Y-3.3858
X7.3228Y-3.5827
X7.3228Y-3.7795
X7.3228Y-3.9764
X7.3228Y-4.1732
X7.3228Y-4.5669
X7.3228Y-4.7638
X7.4331Y-3.2205
X7.4409Y-3.1417
X7.4902Y-2.7067
X7.5Y-1.6929
X7.5197Y-2.2047
X7.5197Y-2.4016
X7.5197Y-2.5984
X7.5197Y-3.5827
X7.5197Y-4.3701
X7.5197Y-4.5669
X7.5197Y-4.8622
X7.5197Y-5.0
X7.5295Y-1.8701
X7.5295Y-1.9488
X7.5591Y-2.7067
X7.628Y-1.8701
X7.628Y-1.9488
X7.6378Y-2.7067
X7.6378Y-2.7854
X7.6378Y-2.8642
X7.6969Y-1.7126
X7.7165Y-1.8701
X7.7165Y-1.9488
X7.7165Y-2.4016
X7.7165Y-2.5984
X7.7165Y-2.7953
X7.7165Y-2.9921
X7.7165Y-3.189
X7.7165Y-3.3858
X7.7165Y-3.5827
X7.7165Y-3.7795
X7.7165Y-3.9764
X7.7165Y-4.1732
X7.7165Y-4.3701
X7.7165Y-4.5669
X7.7165Y-4.6654
X7.7165Y-4.7638
X7.7165Y-4.8524
X7.7165Y-5.0
X7.815Y-1.8701
X7.815Y-1.9488
X7.815Y-4.6654
X7.815Y-4.7638
X7.815Y-4.8524
X7.9134Y-1.7126
X7.9134Y-1.8504
X7.9134Y-1.939
X7.9134Y-2.0276
X7.9134Y-2.2047
X7.9134Y-2.4016
X7.9134Y-2.5984
X7.9134Y-2.7953
X7.9134Y-2.9921
X7.9134Y-3.189
X7.9134Y-3.3858
X7.9134Y-3.5827
X7.9134Y-3.7795
X7.9134Y-3.9764
X7.9134Y-4.1732
X7.9134Y-4.3701
X7.9134Y-4.5669
X7.9134Y-4.6654
X7.9134Y-4.7638
X7.9134Y-4.8524
X7.9134Y-5.0
X8.0118Y-1.8504
X8.0118Y-2.0276
X8.0118Y-4.6654
X8.0118Y-4.8524
X8.1102Y-1.7126
X8.1102Y-2.2047
X8.1102Y-2.4016
X8.1102Y-2.5984
X8.1102Y-2.7953
X8.1102Y-2.9921
X8.1102Y-3.189
X8.1102Y-3.3858
X8.1102Y-3.5827
X8.1102Y-3.7795
X8.1102Y-3.9764
X8.1102Y-4.1732
X8.1102Y-4.3701
X8.1102Y-4.5669
X8.1102Y-4.6654
X8.1102Y-4.7638
X8.1102Y-4.8524
X8.1102Y-5.0
X8.1201Y-1.8504
X8.1201Y-1.939
X8.1201Y-2.0276
X8.2087Y-1.8504
X8.2087Y-1.9291
X8.2087Y-2.0079
X8.2087Y-4.6654
X8.2087Y-4.7638
X8.2087Y-4.8524
X8.3071Y-1.7126
X8.3071Y-2.2047
X8.3071Y-2.4016
X8.3071Y-2.5984
X8.3071Y-2.7953
X8.3071Y-2.9921
X8.3071Y-3.189
X8.3071Y-3.3858
X8.3071Y-3.5827
X8.3071Y-3.7795
X8.3071Y-3.9764
X8.3071Y-4.1732
X8.3071Y-4.5669
X8.3071Y-4.6654
X8.3071Y-4.7638
X8.3071Y-4.8524
X8.3071Y-5.0
X8.5433Y-2.0079
X8.5433Y-2.2047
X8.5433Y-2.4016
X8.5433Y-2.5984
X8.5433Y-2.7953
X8.5433Y-2.9921
X8.5433Y-3.189
X8.5433Y-3.3858
X8.5433Y-3.5827
X8.5433Y-3.7795
X8.5433Y-3.9764
X8.5433Y-4.1732
X8.5433Y-4.3701
X8.5433Y-4.5669
X8.5433Y-4.7638
T3
X5.3937Y-4.4488
X5.6299Y-3.6614
X6.1102Y-4.2205
X6.6929Y-4.8031
X6.6929Y-4.9213
X6.6929Y-5.0394
T4
X5.3563Y-2.0276
X5.3563Y-2.1063
X5.3563Y-2.185
X5.3563Y-2.2638
X5.3563Y-2.6276
X5.3563Y-2.7063
X5.3563Y-2.785
X5.3563Y-2.8638
X5.3563Y-3.2283
X5.3563Y-3.3071
X5.3563Y-3.3858
X5.3563Y-3.4646
T5
X5.5256Y-2.0512
X5.5256Y-2.1512
X5.5256Y-2.2512
X5.5256Y-2.6512
X5.5256Y-2.7512
X5.5256Y-2.8512
X5.5906Y-3.2268
X5.5906Y-3.3268
X5.5906Y-3.4268
X5.5998Y-4.9213
X5.6998Y-4.9213
X6.0693Y-3.5
X6.1693Y-3.5
X6.2693Y-3.5
T7
X8.3268Y-1.937
T8
X5.2953Y-1.752
X5.2953Y-4.9409
X8.4843Y-1.752
X8.4843Y-4.9409
T9
X7.6969Y-2.2598
X8.3268Y-4.4331
T2
G00X6.0031Y-1.6972
M15
G01X6.0031Y-1.6736
M16
G05
G00X6.0031Y-1.8717
M15
G01X6.0031Y-1.8283
M16
G05
G00X6.3433Y-1.6972
M15
G01X6.3433Y-1.6736
M16
G05
G00X6.3433Y-1.8717
M15
G01X6.3433Y-1.8283
M16
G05
G00X6.9362Y-4.8079
M15
G01X6.9362Y-4.8512
M16
G05
G00X6.9362Y-4.9823
M15
G01X6.9362Y-5.0059
M16
G05
G00X7.2764Y-4.8079
M15
G01X7.2764Y-4.8512
M16
G05
G00X7.2764Y-4.9823
M15
G01X7.2764Y-5.0059
M16
G05
T6
G00X8.0374Y-1.9402
M15
G01X7.9862Y-1.9402
M16
G05
G00X8.0374Y-4.7528
M15
G01X7.9862Y-4.7528
M16
G05
M30
