%TF.GenerationSoftware,KiCad,Pcbnew,9.0.2*%
%TF.CreationDate,2026-03-06T10:22:12-08:00*%
%TF.ProjectId,BLV_PCB,424c565f-5043-4422-9e6b-696361645f70,rev?*%
%TF.SameCoordinates,Original*%
%TF.FileFunction,Copper,L4,Bot*%
%TF.FilePolarity,Positive*%
%FSLAX46Y46*%
G04 Gerber Fmt 4.6, Leading zero omitted, Abs format (unit mm)*
G04 Created by KiCad (PCBNEW 9.0.2) date 2026-03-06 10:22:12*
%MOMM*%
%LPD*%
G01*
G04 APERTURE LIST*
G04 Aperture macros list*
%AMRoundRect*
0 Rectangle with rounded corners*
0 $1 Rounding radius*
0 $2 $3 $4 $5 $6 $7 $8 $9 X,Y pos of 4 corners*
0 Add a 4 corners polygon primitive as box body*
4,1,4,$2,$3,$4,$5,$6,$7,$8,$9,$2,$3,0*
0 Add four circle primitives for the rounded corners*
1,1,$1+$1,$2,$3*
1,1,$1+$1,$4,$5*
1,1,$1+$1,$6,$7*
1,1,$1+$1,$8,$9*
0 Add four rect primitives between the rounded corners*
20,1,$1+$1,$2,$3,$4,$5,0*
20,1,$1+$1,$4,$5,$6,$7,0*
20,1,$1+$1,$6,$7,$8,$9,0*
20,1,$1+$1,$8,$9,$2,$3,0*%
G04 Aperture macros list end*
%TA.AperFunction,ComponentPad*%
%ADD10C,5.600000*%
%TD*%
%TA.AperFunction,ComponentPad*%
%ADD11C,1.500000*%
%TD*%
%TA.AperFunction,ComponentPad*%
%ADD12RoundRect,0.250000X-0.625000X0.350000X-0.625000X-0.350000X0.625000X-0.350000X0.625000X0.350000X0*%
%TD*%
%TA.AperFunction,ComponentPad*%
%ADD13O,1.750000X1.200000*%
%TD*%
%TA.AperFunction,ComponentPad*%
%ADD14R,1.700000X1.700000*%
%TD*%
%TA.AperFunction,ComponentPad*%
%ADD15C,1.700000*%
%TD*%
%TA.AperFunction,ComponentPad*%
%ADD16C,3.300000*%
%TD*%
%TA.AperFunction,ComponentPad*%
%ADD17C,2.400000*%
%TD*%
%TA.AperFunction,ComponentPad*%
%ADD18O,3.500000X2.500000*%
%TD*%
%TA.AperFunction,HeatsinkPad*%
%ADD19O,1.000000X2.100000*%
%TD*%
%TA.AperFunction,HeatsinkPad*%
%ADD20O,1.000000X1.600000*%
%TD*%
%TA.AperFunction,ViaPad*%
%ADD21C,0.700000*%
%TD*%
%TA.AperFunction,ViaPad*%
%ADD22C,0.600000*%
%TD*%
%TA.AperFunction,Conductor*%
%ADD23C,0.150000*%
%TD*%
%TA.AperFunction,Conductor*%
%ADD24C,0.200000*%
%TD*%
G04 APERTURE END LIST*
D10*
%TO.P,H4,1*%
%TO.N,N/C*%
X134500000Y-125500000D03*
%TD*%
D11*
%TO.P,TP65,1,1*%
%TO.N,/GNSS & MicroSD/DAT1*%
X143000000Y-93000000D03*
%TD*%
%TO.P,TP62,1,1*%
%TO.N,/GNSS & MicroSD/EXTINT*%
X170000000Y-122000000D03*
%TD*%
D10*
%TO.P,H3,1*%
%TO.N,N/C*%
X215500000Y-125500000D03*
%TD*%
%TO.P,H2,1*%
%TO.N,N/C*%
X215500000Y-44500000D03*
%TD*%
D12*
%TO.P,J3,1,Pin_1*%
%TO.N,/Cube2_UART_TX*%
X136050000Y-82000000D03*
D13*
%TO.P,J3,2,Pin_2*%
%TO.N,/Cube2_UART_RX*%
X136050000Y-84000000D03*
%TO.P,J3,3,Pin_3*%
%TO.N,unconnected-(J3-Pin_3-Pad3)*%
X136050000Y-86000000D03*
%TO.P,J3,4,Pin_4*%
%TO.N,GND*%
X136050000Y-88000000D03*
%TD*%
D12*
%TO.P,J2,1,Pin_1*%
%TO.N,/Cube1_UART_TX*%
X136050000Y-66740000D03*
D13*
%TO.P,J2,2,Pin_2*%
%TO.N,/Cube1_UART_RX*%
X136050000Y-68740000D03*
%TO.P,J2,3,Pin_3*%
%TO.N,unconnected-(J2-Pin_3-Pad3)*%
X136050000Y-70740000D03*
%TO.P,J2,4,Pin_4*%
%TO.N,GND*%
X136050000Y-72740000D03*
%TD*%
D11*
%TO.P,TP63,1,1*%
%TO.N,/GNSS & MicroSD/~{SAFEBOOT}*%
X170000000Y-128000000D03*
%TD*%
D14*
%TO.P,J6,1,Pin_1*%
%TO.N,GND*%
X142000000Y-87040000D03*
D15*
%TO.P,J6,2,Pin_2*%
%TO.N,/Cube2_UART_RX*%
X142000000Y-84500000D03*
%TO.P,J6,3,Pin_3*%
%TO.N,/Cube2_UART_TX*%
X142000000Y-81960000D03*
%TD*%
D11*
%TO.P,TP66,1,1*%
%TO.N,/GNSS & MicroSD/DAT2*%
X137000000Y-113000000D03*
%TD*%
%TO.P,TP61,1,1*%
%TO.N,/GNSS & MicroSD/TIMEPULSE*%
X170000000Y-125000000D03*
%TD*%
D14*
%TO.P,J31,1,Pin_1*%
%TO.N,+3V3*%
X144775000Y-125000000D03*
D15*
%TO.P,J31,2,Pin_2*%
%TO.N,GND*%
X142235000Y-125000000D03*
%TD*%
D16*
%TO.P,U4,*%
%TO.N,*%
X211500000Y-112600000D03*
X195500000Y-57400000D03*
D17*
X211500000Y-49200000D03*
D18*
%TO.P,U4,1,1*%
%TO.N,GND*%
X203500000Y-120720000D03*
%TO.P,U4,2,2*%
%TO.N,+BATT*%
X203500000Y-49280000D03*
%TD*%
D14*
%TO.P,J5,1,Pin_1*%
%TO.N,GND*%
X140350000Y-72420000D03*
D15*
%TO.P,J5,2,Pin_2*%
%TO.N,/Cube1_UART_RX*%
X140350000Y-69880000D03*
%TO.P,J5,3,Pin_3*%
%TO.N,/Cube1_UART_TX*%
X140350000Y-67340000D03*
%TD*%
D14*
%TO.P,J12,1,Pin_1*%
%TO.N,GND*%
X154160000Y-88900000D03*
D15*
%TO.P,J12,2,Pin_2*%
%TO.N,/MCU/SWCLK*%
X156700000Y-88900000D03*
%TO.P,J12,3,Pin_3*%
%TO.N,/MCU/SWD*%
X159240000Y-88900000D03*
%TD*%
D14*
%TO.P,J4,1,Pin_1*%
%TO.N,GND*%
X140350000Y-57180000D03*
D15*
%TO.P,J4,2,Pin_2*%
%TO.N,/Cube0_UART_RX*%
X140350000Y-54640000D03*
%TO.P,J4,3,Pin_3*%
%TO.N,/Cube0_UART_TX*%
X140350000Y-52100000D03*
%TD*%
D11*
%TO.P,TP64,1,1*%
%TO.N,/GNSS & MicroSD/LNA_EN*%
X155200000Y-107200000D03*
%TD*%
D12*
%TO.P,J1,1,Pin_1*%
%TO.N,/Cube0_UART_TX*%
X136050000Y-51500000D03*
D13*
%TO.P,J1,2,Pin_2*%
%TO.N,/Cube0_UART_RX*%
X136050000Y-53500000D03*
%TO.P,J1,3,Pin_3*%
%TO.N,unconnected-(J1-Pin_3-Pad3)*%
X136050000Y-55500000D03*
%TO.P,J1,4,Pin_4*%
%TO.N,GND*%
X136050000Y-57500000D03*
%TD*%
D10*
%TO.P,H1,1*%
%TO.N,N/C*%
X134500000Y-44500000D03*
%TD*%
D19*
%TO.P,J61,S1,SHIELD*%
%TO.N,unconnected-(J61-SHIELD-PadS1)_1*%
X176180000Y-122670000D03*
D20*
%TO.N,unconnected-(J61-SHIELD-PadS1)_3*%
X176180000Y-126850000D03*
D19*
%TO.N,unconnected-(J61-SHIELD-PadS1)_2*%
X184820000Y-122670000D03*
D20*
%TO.N,unconnected-(J61-SHIELD-PadS1)*%
X184820000Y-126850000D03*
%TD*%
D19*
%TO.P,J8,S1,SHIELD*%
%TO.N,unconnected-(J8-SHIELD-PadS1)*%
X161120000Y-46990000D03*
D20*
%TO.N,unconnected-(J8-SHIELD-PadS1)_3*%
X161120000Y-42810000D03*
D19*
%TO.N,unconnected-(J8-SHIELD-PadS1)_1*%
X152480000Y-46990000D03*
D20*
%TO.N,unconnected-(J8-SHIELD-PadS1)_2*%
X152480000Y-42810000D03*
%TD*%
D21*
%TO.N,GND*%
X153500000Y-86000000D03*
D22*
X144000000Y-117500000D03*
X131500000Y-88000000D03*
X131500000Y-82500000D03*
%TO.N,+3V3*%
X186000000Y-63750000D03*
D21*
X155200000Y-124100000D03*
X150000000Y-54800000D03*
D22*
X148800000Y-75000000D03*
D21*
X165493670Y-66482022D03*
D22*
X132500000Y-59800000D03*
D21*
X151500000Y-54800000D03*
X153000000Y-56300000D03*
D22*
X180000000Y-62000000D03*
X178000000Y-60400000D03*
X134700000Y-103600000D03*
X135500000Y-102800000D03*
X182000000Y-63750000D03*
X135500000Y-103600000D03*
X184000000Y-63750000D03*
X184000000Y-62000000D03*
X132600000Y-90300000D03*
D21*
X150000000Y-122500000D03*
D22*
X182000000Y-60400000D03*
D21*
X153000000Y-54800000D03*
D22*
X172500000Y-60500000D03*
X134700000Y-102800000D03*
X180000000Y-63750000D03*
D21*
X150000000Y-53300000D03*
X155200000Y-122500000D03*
D22*
X154500000Y-98600000D03*
D21*
X154400000Y-123300000D03*
X165500000Y-64500000D03*
X154400000Y-124100000D03*
X155200000Y-123300000D03*
D22*
X178000000Y-63750000D03*
X178000000Y-62000000D03*
D21*
X151500000Y-53300000D03*
X154400000Y-122500000D03*
X165500000Y-62500000D03*
D22*
X180000000Y-60400000D03*
X132600000Y-75100000D03*
X182000000Y-62000000D03*
D21*
X163500000Y-66500000D03*
X163500000Y-64500000D03*
D22*
X137200000Y-94000000D03*
D21*
X163500000Y-62500000D03*
D22*
%TO.N,+1V1*%
X162000000Y-70400000D03*
X157475000Y-64440000D03*
X157768413Y-76206587D03*
X152675000Y-70000000D03*
X157475000Y-63600000D03*
%TO.N,+BATT*%
X201000000Y-51500000D03*
X206250000Y-49250000D03*
X206250000Y-47000000D03*
X196000000Y-47500000D03*
X206250000Y-51500000D03*
X203500000Y-47000000D03*
X198500000Y-47500000D03*
X203500000Y-51500000D03*
X196000000Y-49500000D03*
X201000000Y-47000000D03*
X191250000Y-49500000D03*
X193750000Y-49500000D03*
X198500000Y-49500000D03*
X201000000Y-49250000D03*
X191250000Y-47500000D03*
X193750000Y-47500000D03*
%TO.N,GND*%
X131500000Y-71500000D03*
X206000000Y-86000000D03*
X141700000Y-101200000D03*
X178000000Y-66000000D03*
X172750000Y-66000000D03*
X138400000Y-52500000D03*
X131500000Y-62000000D03*
X211000000Y-127000000D03*
X181750000Y-118000000D03*
X158500000Y-127500000D03*
X201000000Y-43500000D03*
X206000000Y-56000000D03*
D21*
X151200000Y-111800000D03*
D22*
X201000000Y-101000000D03*
X217000000Y-106000000D03*
X138500000Y-127500000D03*
X164775000Y-70000000D03*
X162000000Y-104500000D03*
D21*
X161175000Y-64740000D03*
D22*
X162000000Y-99500000D03*
X158600000Y-69800000D03*
X206000000Y-111000000D03*
X171000000Y-106000000D03*
X191000000Y-123500000D03*
X176000000Y-43000000D03*
X206000000Y-106000000D03*
X194000000Y-70750000D03*
X171000000Y-81000000D03*
X138500000Y-41500000D03*
X171000000Y-86000000D03*
X142500000Y-95000000D03*
X206000000Y-96000000D03*
X149900000Y-70000000D03*
X211000000Y-96000000D03*
X211000000Y-121000000D03*
X148500000Y-127500000D03*
X217000000Y-66000000D03*
X133000000Y-107500000D03*
X137500000Y-79000000D03*
X211000000Y-43500000D03*
X191000000Y-66000000D03*
X186000000Y-91000000D03*
X178200000Y-128500000D03*
D21*
X149200000Y-62000000D03*
D22*
X206000000Y-43500000D03*
X146000000Y-78250000D03*
X196000000Y-116000000D03*
X131500000Y-66000000D03*
X206000000Y-91000000D03*
D21*
X147200000Y-62000000D03*
D22*
X143500000Y-41500000D03*
D21*
X160000000Y-86000000D03*
D22*
X168500000Y-58500000D03*
X217000000Y-71000000D03*
X176000000Y-73000000D03*
X145000000Y-109000000D03*
X211000000Y-106000000D03*
D21*
X154000000Y-78500000D03*
D22*
X201000000Y-116000000D03*
X182750000Y-116500000D03*
D21*
X153500000Y-84000000D03*
D22*
X211000000Y-66000000D03*
X131500000Y-76600000D03*
X145000000Y-106000000D03*
X158500000Y-58500000D03*
D21*
X149200000Y-59500000D03*
D22*
X217000000Y-111000000D03*
X178200000Y-126000000D03*
X186000000Y-96000000D03*
X171000000Y-96000000D03*
X165000000Y-96000000D03*
X131500000Y-94000000D03*
X138100000Y-101500000D03*
X143500000Y-51000000D03*
X163500000Y-93500000D03*
X206000000Y-76000000D03*
X168500000Y-64000000D03*
X157000000Y-109500000D03*
D21*
X153500000Y-80000000D03*
D22*
X168500000Y-53500000D03*
X175250000Y-70750000D03*
X201000000Y-106000000D03*
X206000000Y-116000000D03*
X163500000Y-48500000D03*
X178500000Y-111000000D03*
D21*
X158000000Y-86000000D03*
D22*
X138900000Y-103375000D03*
X211000000Y-91000000D03*
X196000000Y-61000000D03*
D21*
X148500000Y-64500000D03*
D22*
X194000000Y-72750000D03*
X154000000Y-41500000D03*
X191000000Y-127000000D03*
X181000000Y-91000000D03*
X183250000Y-56000000D03*
X159500000Y-91500000D03*
X165000000Y-101500000D03*
X148500000Y-112500000D03*
X194000000Y-68750000D03*
X175250000Y-66000000D03*
X138500000Y-122500000D03*
X145500000Y-93500000D03*
X196000000Y-101000000D03*
D21*
X149200000Y-57000000D03*
D22*
X148500000Y-46000000D03*
X190250000Y-68750000D03*
X196000000Y-123250000D03*
X139500000Y-90000000D03*
X168500000Y-69000000D03*
X138300000Y-63200000D03*
X178000000Y-70750000D03*
X162000000Y-114500000D03*
X196000000Y-81000000D03*
D21*
X147200000Y-59500000D03*
D22*
X211000000Y-71000000D03*
X156200000Y-71000000D03*
X198500000Y-118500000D03*
X217000000Y-121000000D03*
X211000000Y-76000000D03*
X186000000Y-43000000D03*
X143000000Y-127500000D03*
X133000000Y-121500000D03*
X196000000Y-121000000D03*
X133500000Y-48500000D03*
X138400000Y-54700000D03*
X176500000Y-113500000D03*
X201000000Y-56000000D03*
X131500000Y-52000000D03*
X208500000Y-121000000D03*
X181000000Y-106000000D03*
X171200000Y-111750000D03*
X201000000Y-123250000D03*
X206000000Y-61000000D03*
X206000000Y-101000000D03*
X201000000Y-81000000D03*
X156200000Y-72200000D03*
X171000000Y-101000000D03*
X140200000Y-60600000D03*
X176000000Y-96000000D03*
X198500000Y-123250000D03*
X183200000Y-128500000D03*
X191000000Y-116000000D03*
X171700000Y-114900000D03*
X144000000Y-112500000D03*
X176500000Y-111000000D03*
X206000000Y-81000000D03*
D21*
X147200000Y-57000000D03*
X161175000Y-63940000D03*
D22*
X196000000Y-111000000D03*
X217000000Y-51000000D03*
X172750000Y-70750000D03*
X171400000Y-109000000D03*
X143500000Y-46000000D03*
X173500000Y-48500000D03*
X206000000Y-118500000D03*
X174300000Y-116400000D03*
X179000000Y-53500000D03*
X203500000Y-123250000D03*
X142500000Y-108500000D03*
X206000000Y-127000000D03*
X154700000Y-60900000D03*
D21*
X151200000Y-115200000D03*
D22*
X196000000Y-127000000D03*
X163500000Y-127500000D03*
X150600000Y-67800000D03*
X206000000Y-121000000D03*
X164775000Y-68600000D03*
X155000000Y-53500000D03*
X211000000Y-101000000D03*
X161875000Y-66890000D03*
X162000000Y-119500000D03*
X157000000Y-114500000D03*
X211000000Y-61000000D03*
X185900000Y-55900000D03*
X153500000Y-127500000D03*
X178500000Y-113500000D03*
X181000000Y-101000000D03*
X198500000Y-121000000D03*
X158800000Y-78800000D03*
X185500000Y-70750000D03*
X201000000Y-96000000D03*
X171000000Y-91000000D03*
X176000000Y-86000000D03*
X134500000Y-108500000D03*
X159000000Y-41500000D03*
X201000000Y-86000000D03*
X164775000Y-71000000D03*
X183000000Y-66000000D03*
X201000000Y-61000000D03*
X186000000Y-86000000D03*
X168500000Y-103500000D03*
X158600000Y-72200000D03*
X173500000Y-127000000D03*
X181000000Y-43000000D03*
X171300000Y-43000000D03*
X190500000Y-43000000D03*
X146000000Y-88500000D03*
X211000000Y-81000000D03*
X208500000Y-49000000D03*
X196000000Y-76000000D03*
X181000000Y-96000000D03*
X148500000Y-41500000D03*
X217000000Y-61000000D03*
X196000000Y-96000000D03*
X208500000Y-118500000D03*
X164500000Y-42000000D03*
X181000000Y-73000000D03*
X140000000Y-65000000D03*
X133000000Y-117500000D03*
X138500000Y-117500000D03*
X141700000Y-103400000D03*
X196000000Y-86000000D03*
X217000000Y-116000000D03*
X208500000Y-47000000D03*
X176000000Y-81000000D03*
X138500000Y-46000000D03*
X157375000Y-71000000D03*
X174500000Y-57100000D03*
X191000000Y-91000000D03*
X156200000Y-69800000D03*
X143000000Y-58000000D03*
D21*
X160000000Y-84000000D03*
D22*
X163500000Y-58500000D03*
X201000000Y-71000000D03*
X146000000Y-83500000D03*
X133000000Y-112500000D03*
X192000000Y-68750000D03*
X211000000Y-116000000D03*
X176000000Y-101000000D03*
X158500000Y-53500000D03*
X217000000Y-91000000D03*
X208500000Y-51000000D03*
X183200000Y-126000000D03*
X171000000Y-76000000D03*
X201000000Y-91000000D03*
D21*
X153500000Y-82000000D03*
D22*
X206000000Y-66000000D03*
X163500000Y-88500000D03*
X175500000Y-57100000D03*
X217000000Y-86000000D03*
X191000000Y-111000000D03*
X211000000Y-86000000D03*
X180500000Y-70750000D03*
D21*
X160000000Y-82000000D03*
D22*
X155575000Y-78300000D03*
X217000000Y-76000000D03*
X139500000Y-75000000D03*
X206000000Y-71000000D03*
X184000000Y-118500000D03*
X142500000Y-98500000D03*
X173500000Y-123500000D03*
X196000000Y-66000000D03*
X157000000Y-99500000D03*
X175000000Y-57900000D03*
X186000000Y-106000000D03*
X157375000Y-69800000D03*
X201000000Y-121000000D03*
X158600000Y-71000000D03*
X168500000Y-48500000D03*
X148500000Y-51000000D03*
X196000000Y-106000000D03*
X196000000Y-71000000D03*
X186000000Y-81000000D03*
X183250000Y-53500000D03*
X181000000Y-76000000D03*
X201000000Y-66000000D03*
X157375000Y-72200000D03*
X148500000Y-117500000D03*
X183000000Y-70750000D03*
X162000000Y-124500000D03*
X157000000Y-119500000D03*
X172000000Y-73000000D03*
X211000000Y-123250000D03*
X203500000Y-118500000D03*
X201000000Y-111000000D03*
X144000000Y-122500000D03*
X180500000Y-66000000D03*
X181000000Y-81000000D03*
X191000000Y-56000000D03*
X163250000Y-76500000D03*
X186000000Y-116000000D03*
X176000000Y-108500000D03*
X148500000Y-122500000D03*
D21*
X159400000Y-80100000D03*
D22*
X201000000Y-118500000D03*
X211000000Y-56000000D03*
X208500000Y-123250000D03*
X162000000Y-109500000D03*
X176000000Y-76000000D03*
X195500000Y-43500000D03*
X133000000Y-99500000D03*
X206000000Y-123250000D03*
X183250000Y-58500000D03*
X186000000Y-121000000D03*
X217000000Y-81000000D03*
X135200000Y-63200000D03*
X217000000Y-101000000D03*
X147000000Y-76000000D03*
X150700000Y-72000000D03*
X211000000Y-118500000D03*
X201000000Y-76000000D03*
X131500000Y-57500000D03*
X176000000Y-91000000D03*
X176000000Y-106000000D03*
X191000000Y-61000000D03*
X217000000Y-96000000D03*
X157000000Y-124500000D03*
X201000000Y-127000000D03*
X196000000Y-118500000D03*
X175000000Y-56200000D03*
X138100000Y-100700000D03*
D21*
X156000000Y-86000000D03*
X151200000Y-108600000D03*
D22*
X186000000Y-101000000D03*
X196000000Y-91000000D03*
X133000000Y-103500000D03*
X157000000Y-104500000D03*
X217000000Y-56000000D03*
X143000000Y-59000000D03*
X181000000Y-86000000D03*
X140200000Y-59100000D03*
%TO.N,/GNSS & MicroSD/SPI_CS1*%
X153200000Y-116400000D03*
X153400000Y-96700000D03*
X153500000Y-75250000D03*
%TO.N,/MCU/RF_RXEN*%
X164800000Y-72800000D03*
X188800000Y-81800000D03*
%TO.N,/GNSS & MicroSD/SPI_MOSI*%
X152000000Y-104400000D03*
X148300000Y-104400000D03*
%TO.N,/GNSS & MicroSD/SPI_MISO*%
X149250000Y-100300000D03*
X149250000Y-103400000D03*
%TO.N,/MCU/RF_TXEN*%
X189000000Y-79800000D03*
X165200000Y-72000000D03*
%TO.N,/Power/Vin*%
X176700000Y-51800000D03*
X172100000Y-53800000D03*
%TO.N,/GNSS & MicroSD/SPI_CS0*%
X142100000Y-105400000D03*
X148300000Y-98200000D03*
%TO.N,/GNSS & MicroSD/LNA_EN*%
X154400000Y-111700000D03*
%TD*%
D23*
%TO.N,/GNSS & MicroSD/SPI_CS1*%
X152600000Y-115800000D02*
X152600000Y-96700000D01*
X152000000Y-94250000D02*
X152000000Y-76750000D01*
X152000000Y-76750000D02*
X153500000Y-75250000D01*
X152600000Y-96700000D02*
X153400000Y-96700000D01*
X152600000Y-94850000D02*
X152000000Y-94250000D01*
X152600000Y-96700000D02*
X152600000Y-94850000D01*
X152600000Y-115800000D02*
X153200000Y-116400000D01*
%TO.N,/MCU/RF_RXEN*%
X166200000Y-74200000D02*
X164800000Y-72800000D01*
X181200000Y-74200000D02*
X166200000Y-74200000D01*
X188800000Y-81800000D02*
X181200000Y-74200000D01*
%TO.N,/GNSS & MicroSD/SPI_MOSI*%
X148300000Y-104400000D02*
X152000000Y-104400000D01*
%TO.N,/GNSS & MicroSD/SPI_MISO*%
X149250000Y-100300000D02*
X149250000Y-103400000D01*
%TO.N,/MCU/RF_TXEN*%
X189000000Y-79000000D02*
X182000000Y-72000000D01*
X182000000Y-72000000D02*
X165200000Y-72000000D01*
X189000000Y-79800000D02*
X189000000Y-79000000D01*
D24*
%TO.N,/Power/Vin*%
X176700000Y-51800000D02*
X174100000Y-51800000D01*
X174100000Y-51800000D02*
X172100000Y-53800000D01*
D23*
%TO.N,/GNSS & MicroSD/SPI_CS0*%
X148300000Y-99200000D02*
X142100000Y-105400000D01*
X148300000Y-98200000D02*
X148300000Y-99200000D01*
%TO.N,/GNSS & MicroSD/LNA_EN*%
X154400000Y-108000000D02*
X155200000Y-107200000D01*
X154400000Y-111700000D02*
X154400000Y-108000000D01*
%TD*%
%TA.AperFunction,Conductor*%
%TO.N,+BATT*%
G36*
X207211971Y-45502381D02*
G01*
X207290618Y-45518024D01*
X207335308Y-45536535D01*
X207391626Y-45574166D01*
X207397519Y-45580059D01*
X207402251Y-45582119D01*
X207425832Y-45608371D01*
X207463462Y-45664688D01*
X207481976Y-45709387D01*
X207497617Y-45788019D01*
X207500000Y-45812210D01*
X207500000Y-52187789D01*
X207497617Y-52211980D01*
X207481976Y-52290612D01*
X207478786Y-52298313D01*
X207478694Y-52303473D01*
X207463462Y-52335311D01*
X207425836Y-52391623D01*
X207391623Y-52425836D01*
X207335311Y-52463462D01*
X207290612Y-52481976D01*
X207211980Y-52497617D01*
X207187789Y-52500000D01*
X200136475Y-52500000D01*
X200112284Y-52497617D01*
X200033651Y-52481976D01*
X199988951Y-52463461D01*
X199922285Y-52418916D01*
X199903495Y-52403495D01*
X198587871Y-51087870D01*
X198587863Y-51087864D01*
X198490542Y-51022836D01*
X198490538Y-51022834D01*
X198375740Y-51000000D01*
X198375736Y-51000000D01*
X189812211Y-51000000D01*
X189788020Y-50997617D01*
X189709387Y-50981976D01*
X189664689Y-50963462D01*
X189608373Y-50925833D01*
X189574166Y-50891626D01*
X189536535Y-50835308D01*
X189518024Y-50790618D01*
X189502381Y-50711971D01*
X189500000Y-50687789D01*
X189500000Y-48386474D01*
X189502381Y-48362293D01*
X189518025Y-48283643D01*
X189536536Y-48238955D01*
X189581088Y-48172278D01*
X189596499Y-48153500D01*
X191653500Y-46096499D01*
X191672278Y-46081088D01*
X191738955Y-46036536D01*
X191746656Y-46033346D01*
X191750369Y-46029764D01*
X191783640Y-46018025D01*
X191862292Y-46002381D01*
X191886475Y-46000000D01*
X193875737Y-46000000D01*
X193875738Y-45999999D01*
X193914348Y-45992319D01*
X193990538Y-45977165D01*
X193990539Y-45977164D01*
X193990541Y-45977164D01*
X194087868Y-45912132D01*
X194403505Y-45596494D01*
X194422278Y-45581088D01*
X194488955Y-45536536D01*
X194533643Y-45518025D01*
X194612292Y-45502381D01*
X194636475Y-45500000D01*
X207187789Y-45500000D01*
X207211971Y-45502381D01*
G37*
%TD.AperFunction*%
%TD*%
%TA.AperFunction,Conductor*%
%TO.N,GND*%
G36*
X215502855Y-40200632D02*
G01*
X215890991Y-40218576D01*
X215902381Y-40219632D01*
X216284363Y-40272916D01*
X216295607Y-40275018D01*
X216671043Y-40363320D01*
X216682033Y-40366447D01*
X217047732Y-40489017D01*
X217058399Y-40493150D01*
X217411212Y-40648932D01*
X217421465Y-40654037D01*
X217758382Y-40841699D01*
X217768120Y-40847728D01*
X218035848Y-41031126D01*
X218086303Y-41065688D01*
X218095443Y-41072591D01*
X218392143Y-41318968D01*
X218400607Y-41326684D01*
X218673315Y-41599392D01*
X218681031Y-41607856D01*
X218927408Y-41904556D01*
X218934311Y-41913696D01*
X219152271Y-42231879D01*
X219158300Y-42241617D01*
X219345962Y-42578534D01*
X219351067Y-42588787D01*
X219506849Y-42941600D01*
X219510987Y-42952280D01*
X219633548Y-43317953D01*
X219636682Y-43328969D01*
X219724979Y-43704384D01*
X219727084Y-43715643D01*
X219780366Y-44097611D01*
X219781423Y-44109016D01*
X219799366Y-44497143D01*
X219799498Y-44502869D01*
X219799496Y-125460113D01*
X219799496Y-125497124D01*
X219799364Y-125502851D01*
X219781419Y-125890980D01*
X219780362Y-125902384D01*
X219727080Y-126284352D01*
X219724975Y-126295611D01*
X219636679Y-126671027D01*
X219633545Y-126682043D01*
X219510984Y-127047715D01*
X219506847Y-127058395D01*
X219351065Y-127411209D01*
X219345959Y-127421462D01*
X219158297Y-127758379D01*
X219152268Y-127768117D01*
X218934308Y-128086300D01*
X218927405Y-128095440D01*
X218681028Y-128392141D01*
X218673312Y-128400605D01*
X218400605Y-128673312D01*
X218392141Y-128681028D01*
X218095440Y-128927405D01*
X218086300Y-128934308D01*
X217768117Y-129152268D01*
X217758379Y-129158297D01*
X217421462Y-129345959D01*
X217411209Y-129351065D01*
X217058395Y-129506847D01*
X217047715Y-129510984D01*
X216682043Y-129633545D01*
X216671027Y-129636679D01*
X216295611Y-129724975D01*
X216284352Y-129727080D01*
X215902384Y-129780362D01*
X215890980Y-129781419D01*
X215502851Y-129799364D01*
X215497124Y-129799496D01*
X134502872Y-129799496D01*
X134497145Y-129799364D01*
X134109015Y-129781419D01*
X134097611Y-129780362D01*
X133715643Y-129727080D01*
X133704384Y-129724975D01*
X133328969Y-129636678D01*
X133317953Y-129633544D01*
X132952272Y-129510980D01*
X132941592Y-129506842D01*
X132588796Y-129351067D01*
X132578548Y-129345964D01*
X132375212Y-129232707D01*
X132241618Y-129158295D01*
X132231880Y-129152266D01*
X131913698Y-128934307D01*
X131904558Y-128927404D01*
X131607857Y-128681027D01*
X131599393Y-128673311D01*
X131326687Y-128400604D01*
X131318971Y-128392140D01*
X131079262Y-128103469D01*
X131072591Y-128095435D01*
X131065690Y-128086298D01*
X131028925Y-128032628D01*
X130850245Y-127771786D01*
X130847731Y-127768116D01*
X130841702Y-127758378D01*
X130787068Y-127660292D01*
X130654028Y-127421440D01*
X130648936Y-127411213D01*
X130493150Y-127058390D01*
X130489022Y-127047736D01*
X130366450Y-126682029D01*
X130363323Y-126671039D01*
X130275021Y-126295603D01*
X130272918Y-126284352D01*
X130257082Y-126170827D01*
X130219636Y-125902377D01*
X130218580Y-125890980D01*
X130216251Y-125840602D01*
X130200634Y-125502829D01*
X130200503Y-125497187D01*
X130200503Y-125325875D01*
X131399500Y-125325875D01*
X131399500Y-125674124D01*
X131438489Y-126020158D01*
X131438490Y-126020167D01*
X131438491Y-126020171D01*
X131457215Y-126102205D01*
X131515982Y-126359684D01*
X131515985Y-126359692D01*
X131630999Y-126688382D01*
X131782092Y-127002130D01*
X131967371Y-127296999D01*
X131967372Y-127297001D01*
X132184487Y-127569256D01*
X132430743Y-127815512D01*
X132702998Y-128032627D01*
X132703001Y-128032628D01*
X132703003Y-128032630D01*
X132997867Y-128217906D01*
X133311621Y-128369002D01*
X133558488Y-128455384D01*
X133640307Y-128484014D01*
X133640315Y-128484017D01*
X133640318Y-128484017D01*
X133640319Y-128484018D01*
X133979829Y-128561509D01*
X134325876Y-128600499D01*
X134325877Y-128600500D01*
X134325880Y-128600500D01*
X134674123Y-128600500D01*
X134674123Y-128600499D01*
X135020171Y-128561509D01*
X135359681Y-128484018D01*
X135688379Y-128369002D01*
X136002133Y-128217906D01*
X136296997Y-128032630D01*
X136302828Y-128027980D01*
X136467662Y-127896530D01*
X168949500Y-127896530D01*
X168949500Y-128103469D01*
X168989868Y-128306412D01*
X168989870Y-128306420D01*
X169069058Y-128497596D01*
X169184024Y-128669657D01*
X169330342Y-128815975D01*
X169330345Y-128815977D01*
X169502402Y-128930941D01*
X169693580Y-129010130D01*
X169896530Y-129050499D01*
X169896534Y-129050500D01*
X169896535Y-129050500D01*
X170103466Y-129050500D01*
X170103467Y-129050499D01*
X170306420Y-129010130D01*
X170497598Y-128930941D01*
X170669655Y-128815977D01*
X170815977Y-128669655D01*
X170930941Y-128497598D01*
X171010130Y-128306420D01*
X171050500Y-128103465D01*
X171050500Y-127896535D01*
X171010130Y-127693580D01*
X170930941Y-127502402D01*
X170815977Y-127330345D01*
X170815975Y-127330342D01*
X170669657Y-127184024D01*
X170583626Y-127126541D01*
X170497598Y-127069059D01*
X170471872Y-127058403D01*
X170306420Y-126989870D01*
X170306412Y-126989868D01*
X170103469Y-126949500D01*
X170103465Y-126949500D01*
X169896535Y-126949500D01*
X169896530Y-126949500D01*
X169693587Y-126989868D01*
X169693579Y-126989870D01*
X169502403Y-127069058D01*
X169330342Y-127184024D01*
X169184024Y-127330342D01*
X169069058Y-127502403D01*
X168989870Y-127693579D01*
X168989868Y-127693587D01*
X168949500Y-127896530D01*
X136467662Y-127896530D01*
X136569256Y-127815512D01*
X136569260Y-127815508D01*
X136569263Y-127815506D01*
X136815506Y-127569263D01*
X136847478Y-127529172D01*
X137032627Y-127297001D01*
X137032628Y-127296999D01*
X137032630Y-127296997D01*
X137217906Y-127002133D01*
X137369002Y-126688379D01*
X137445012Y-126471155D01*
X137445013Y-126471153D01*
X175379500Y-126471153D01*
X175379500Y-127228846D01*
X175410261Y-127383489D01*
X175410264Y-127383501D01*
X175470602Y-127529172D01*
X175470609Y-127529185D01*
X175558210Y-127660288D01*
X175558213Y-127660292D01*
X175669707Y-127771786D01*
X175669711Y-127771789D01*
X175800814Y-127859390D01*
X175800827Y-127859397D01*
X175946498Y-127919735D01*
X175946503Y-127919737D01*
X176101153Y-127950499D01*
X176101156Y-127950500D01*
X176101158Y-127950500D01*
X176258844Y-127950500D01*
X176258845Y-127950499D01*
X176413497Y-127919737D01*
X176559179Y-127859394D01*
X176690289Y-127771789D01*
X176801789Y-127660289D01*
X176889394Y-127529179D01*
X176949737Y-127383497D01*
X176980500Y-127228842D01*
X176980500Y-126471158D01*
X176980500Y-126471155D01*
X176980499Y-126471153D01*
X184019500Y-126471153D01*
X184019500Y-127228846D01*
X184050261Y-127383489D01*
X184050264Y-127383501D01*
X184110602Y-127529172D01*
X184110609Y-127529185D01*
X184198210Y-127660288D01*
X184198213Y-127660292D01*
X184309707Y-127771786D01*
X184309711Y-127771789D01*
X184440814Y-127859390D01*
X184440827Y-127859397D01*
X184586498Y-127919735D01*
X184586503Y-127919737D01*
X184741153Y-127950499D01*
X184741156Y-127950500D01*
X184741158Y-127950500D01*
X184898844Y-127950500D01*
X184898845Y-127950499D01*
X185053497Y-127919737D01*
X185199179Y-127859394D01*
X185330289Y-127771789D01*
X185441789Y-127660289D01*
X185529394Y-127529179D01*
X185589737Y-127383497D01*
X185620500Y-127228842D01*
X185620500Y-126471158D01*
X185620500Y-126471155D01*
X185620499Y-126471153D01*
X185598326Y-126359683D01*
X185589737Y-126316503D01*
X185581083Y-126295611D01*
X185529397Y-126170827D01*
X185529390Y-126170814D01*
X185441789Y-126039711D01*
X185441786Y-126039707D01*
X185330292Y-125928213D01*
X185330288Y-125928210D01*
X185199185Y-125840609D01*
X185199172Y-125840602D01*
X185053501Y-125780264D01*
X185053489Y-125780261D01*
X184898845Y-125749500D01*
X184898842Y-125749500D01*
X184741158Y-125749500D01*
X184741155Y-125749500D01*
X184586510Y-125780261D01*
X184586498Y-125780264D01*
X184440827Y-125840602D01*
X184440814Y-125840609D01*
X184309711Y-125928210D01*
X184309707Y-125928213D01*
X184198213Y-126039707D01*
X184198210Y-126039711D01*
X184110609Y-126170814D01*
X184110602Y-126170827D01*
X184050264Y-126316498D01*
X184050261Y-126316510D01*
X184019500Y-126471153D01*
X176980499Y-126471153D01*
X176958326Y-126359683D01*
X176949737Y-126316503D01*
X176941083Y-126295611D01*
X176889397Y-126170827D01*
X176889390Y-126170814D01*
X176801789Y-126039711D01*
X176801786Y-126039707D01*
X176690292Y-125928213D01*
X176690288Y-125928210D01*
X176559185Y-125840609D01*
X176559172Y-125840602D01*
X176413501Y-125780264D01*
X176413489Y-125780261D01*
X176258845Y-125749500D01*
X176258842Y-125749500D01*
X176101158Y-125749500D01*
X176101155Y-125749500D01*
X175946510Y-125780261D01*
X175946498Y-125780264D01*
X175800827Y-125840602D01*
X175800814Y-125840609D01*
X175669711Y-125928210D01*
X175669707Y-125928213D01*
X175558213Y-126039707D01*
X175558210Y-126039711D01*
X175470609Y-126170814D01*
X175470602Y-126170827D01*
X175410264Y-126316498D01*
X175410261Y-126316510D01*
X175379500Y-126471153D01*
X137445013Y-126471153D01*
X137461471Y-126424118D01*
X137461473Y-126424112D01*
X137484017Y-126359683D01*
X137484018Y-126359681D01*
X137561509Y-126020171D01*
X137600500Y-125674120D01*
X137600500Y-125325880D01*
X137561509Y-124979829D01*
X137484018Y-124640319D01*
X137475185Y-124615077D01*
X137402773Y-124408133D01*
X137369002Y-124311621D01*
X137269567Y-124105143D01*
X137269561Y-124105131D01*
X143624500Y-124105131D01*
X143624500Y-125894856D01*
X143624502Y-125894882D01*
X143627413Y-125919987D01*
X143627415Y-125919991D01*
X143672793Y-126022764D01*
X143672794Y-126022765D01*
X143752235Y-126102206D01*
X143855009Y-126147585D01*
X143880135Y-126150500D01*
X145669864Y-126150499D01*
X145669879Y-126150497D01*
X145669882Y-126150497D01*
X145694987Y-126147586D01*
X145694988Y-126147585D01*
X145694991Y-126147585D01*
X145797765Y-126102206D01*
X145877206Y-126022765D01*
X145922585Y-125919991D01*
X145925500Y-125894865D01*
X145925499Y-124896530D01*
X168949500Y-124896530D01*
X168949500Y-125103469D01*
X168989868Y-125306412D01*
X168989870Y-125306420D01*
X169068862Y-125497124D01*
X169069059Y-125497598D01*
X169126541Y-125583626D01*
X169184024Y-125669657D01*
X169330342Y-125815975D01*
X169330345Y-125815977D01*
X169502402Y-125930941D01*
X169693580Y-126010130D01*
X169842275Y-126039707D01*
X169896530Y-126050499D01*
X169896534Y-126050500D01*
X169896535Y-126050500D01*
X170103466Y-126050500D01*
X170103467Y-126050499D01*
X170306420Y-126010130D01*
X170497598Y-125930941D01*
X170669655Y-125815977D01*
X170815977Y-125669655D01*
X170930941Y-125497598D01*
X171002071Y-125325875D01*
X212399500Y-125325875D01*
X212399500Y-125674124D01*
X212438489Y-126020158D01*
X212438490Y-126020167D01*
X212438491Y-126020171D01*
X212457215Y-126102205D01*
X212515982Y-126359684D01*
X212515985Y-126359692D01*
X212630999Y-126688382D01*
X212782092Y-127002130D01*
X212967371Y-127296999D01*
X212967372Y-127297001D01*
X213184487Y-127569256D01*
X213430743Y-127815512D01*
X213702998Y-128032627D01*
X213703001Y-128032628D01*
X213703003Y-128032630D01*
X213997867Y-128217906D01*
X214311621Y-128369002D01*
X214558488Y-128455384D01*
X214640307Y-128484014D01*
X214640315Y-128484017D01*
X214640318Y-128484017D01*
X214640319Y-128484018D01*
X214979829Y-128561509D01*
X215325876Y-128600499D01*
X215325877Y-128600500D01*
X215325880Y-128600500D01*
X215674123Y-128600500D01*
X215674123Y-128600499D01*
X216020171Y-128561509D01*
X216359681Y-128484018D01*
X216688379Y-128369002D01*
X217002133Y-128217906D01*
X217296997Y-128032630D01*
X217302828Y-128027980D01*
X217569256Y-127815512D01*
X217569260Y-127815508D01*
X217569263Y-127815506D01*
X217815506Y-127569263D01*
X217847478Y-127529172D01*
X218032627Y-127297001D01*
X218032628Y-127296999D01*
X218032630Y-127296997D01*
X218217906Y-127002133D01*
X218369002Y-126688379D01*
X218484018Y-126359681D01*
X218561509Y-126020171D01*
X218600500Y-125674120D01*
X218600500Y-125325880D01*
X218561509Y-124979829D01*
X218484018Y-124640319D01*
X218475185Y-124615077D01*
X218402773Y-124408133D01*
X218369002Y-124311621D01*
X218236235Y-124035928D01*
X218217907Y-123997869D01*
X218212797Y-123989737D01*
X218032630Y-123703003D01*
X218032628Y-123703000D01*
X218032627Y-123702998D01*
X217815512Y-123430743D01*
X217569256Y-123184487D01*
X217297001Y-122967372D01*
X217296999Y-122967371D01*
X217002130Y-122782092D01*
X216688382Y-122630999D01*
X216359692Y-122515985D01*
X216359684Y-122515982D01*
X216105048Y-122457863D01*
X216020171Y-122438491D01*
X216020167Y-122438490D01*
X216020158Y-122438489D01*
X215674124Y-122399500D01*
X215674120Y-122399500D01*
X215325880Y-122399500D01*
X215325875Y-122399500D01*
X214979841Y-122438489D01*
X214979829Y-122438491D01*
X214640315Y-122515982D01*
X214640307Y-122515985D01*
X214311617Y-122630999D01*
X213997869Y-122782092D01*
X213703000Y-122967371D01*
X213702998Y-122967372D01*
X213430743Y-123184487D01*
X213184487Y-123430743D01*
X212967372Y-123702998D01*
X212967371Y-123703000D01*
X212782092Y-123997869D01*
X212630999Y-124311617D01*
X212515985Y-124640307D01*
X212515982Y-124640315D01*
X212438491Y-124979829D01*
X212438489Y-124979841D01*
X212399500Y-125325875D01*
X171002071Y-125325875D01*
X171010130Y-125306420D01*
X171011764Y-125298206D01*
X171011765Y-125298203D01*
X171050499Y-125103469D01*
X171050500Y-125103466D01*
X171050500Y-124896534D01*
X171050499Y-124896530D01*
X171021452Y-124750500D01*
X171010130Y-124693580D01*
X170930941Y-124502402D01*
X170815977Y-124330345D01*
X170815975Y-124330342D01*
X170669657Y-124184024D01*
X170513981Y-124080006D01*
X170497598Y-124069059D01*
X170417620Y-124035931D01*
X170306420Y-123989870D01*
X170306412Y-123989868D01*
X170103469Y-123949500D01*
X170103465Y-123949500D01*
X169896535Y-123949500D01*
X169896530Y-123949500D01*
X169693587Y-123989868D01*
X169693579Y-123989870D01*
X169502403Y-124069058D01*
X169330342Y-124184024D01*
X169184024Y-124330342D01*
X169069058Y-124502403D01*
X168989870Y-124693579D01*
X168989868Y-124693587D01*
X168949500Y-124896530D01*
X145925499Y-124896530D01*
X145925499Y-124105136D01*
X145925497Y-124105117D01*
X145922586Y-124080012D01*
X145922585Y-124080010D01*
X145922585Y-124080009D01*
X145877206Y-123977235D01*
X145797765Y-123897794D01*
X145797763Y-123897793D01*
X145694992Y-123852415D01*
X145669865Y-123849500D01*
X143880143Y-123849500D01*
X143880117Y-123849502D01*
X143855012Y-123852413D01*
X143855008Y-123852415D01*
X143752235Y-123897793D01*
X143672794Y-123977234D01*
X143627415Y-124080006D01*
X143627415Y-124080008D01*
X143624500Y-124105131D01*
X137269561Y-124105131D01*
X137217907Y-123997869D01*
X137212797Y-123989737D01*
X137032630Y-123703003D01*
X137032628Y-123703000D01*
X137032627Y-123702998D01*
X136815512Y-123430743D01*
X136569256Y-123184487D01*
X136297001Y-122967372D01*
X136296999Y-122967371D01*
X136002130Y-122782092D01*
X135688382Y-122630999D01*
X135497113Y-122564071D01*
X149349499Y-122564071D01*
X149374497Y-122689738D01*
X149374499Y-122689744D01*
X149423533Y-122808124D01*
X149423538Y-122808133D01*
X149494723Y-122914668D01*
X149494726Y-122914672D01*
X149585327Y-123005273D01*
X149585331Y-123005276D01*
X149691866Y-123076461D01*
X149691872Y-123076464D01*
X149691873Y-123076465D01*
X149810256Y-123125501D01*
X149810260Y-123125501D01*
X149810261Y-123125502D01*
X149935928Y-123150500D01*
X149935931Y-123150500D01*
X150064071Y-123150500D01*
X150148615Y-123133682D01*
X150189744Y-123125501D01*
X150308127Y-123076465D01*
X150414669Y-123005276D01*
X150505276Y-122914669D01*
X150576465Y-122808127D01*
X150625501Y-122689744D01*
X150633682Y-122648615D01*
X150650500Y-122564071D01*
X153749499Y-122564071D01*
X153774497Y-122689738D01*
X153774499Y-122689744D01*
X153823534Y-122808127D01*
X153838892Y-122831112D01*
X153859768Y-122897790D01*
X153841282Y-122965170D01*
X153838892Y-122968888D01*
X153823534Y-122991872D01*
X153774499Y-123110255D01*
X153774497Y-123110261D01*
X153749500Y-123235928D01*
X153749500Y-123235931D01*
X153749500Y-123364069D01*
X153749500Y-123364071D01*
X153749499Y-123364071D01*
X153774497Y-123489738D01*
X153774499Y-123489744D01*
X153823534Y-123608127D01*
X153838892Y-123631112D01*
X153859768Y-123697790D01*
X153841282Y-123765170D01*
X153838892Y-123768888D01*
X153823534Y-123791872D01*
X153774499Y-123910255D01*
X153774497Y-123910261D01*
X153749500Y-124035928D01*
X153749500Y-124035931D01*
X153749500Y-124164069D01*
X153749500Y-124164071D01*
X153749499Y-124164071D01*
X153774497Y-124289738D01*
X153774499Y-124289744D01*
X153823533Y-124408124D01*
X153823538Y-124408133D01*
X153894723Y-124514668D01*
X153894726Y-124514672D01*
X153985327Y-124605273D01*
X153985331Y-124605276D01*
X154091866Y-124676461D01*
X154091872Y-124676464D01*
X154091873Y-124676465D01*
X154210256Y-124725501D01*
X154210260Y-124725501D01*
X154210261Y-124725502D01*
X154335928Y-124750500D01*
X154335931Y-124750500D01*
X154464071Y-124750500D01*
X154548615Y-124733682D01*
X154589744Y-124725501D01*
X154708127Y-124676465D01*
X154731109Y-124661108D01*
X154797785Y-124640230D01*
X154865165Y-124658714D01*
X154868873Y-124661096D01*
X154891873Y-124676465D01*
X155010256Y-124725501D01*
X155010260Y-124725501D01*
X155010261Y-124725502D01*
X155135928Y-124750500D01*
X155135931Y-124750500D01*
X155264071Y-124750500D01*
X155348615Y-124733682D01*
X155389744Y-124725501D01*
X155508127Y-124676465D01*
X155614669Y-124605276D01*
X155705276Y-124514669D01*
X155776465Y-124408127D01*
X155825501Y-124289744D01*
X155850500Y-124164069D01*
X155850500Y-124035931D01*
X155850500Y-124035928D01*
X155825502Y-123910261D01*
X155825501Y-123910260D01*
X155825501Y-123910256D01*
X155776465Y-123791873D01*
X155761108Y-123768890D01*
X155740230Y-123702215D01*
X155758714Y-123634835D01*
X155761096Y-123631126D01*
X155776465Y-123608127D01*
X155825501Y-123489744D01*
X155837239Y-123430737D01*
X155850500Y-123364071D01*
X155850500Y-123235928D01*
X155825502Y-123110261D01*
X155825501Y-123110260D01*
X155825501Y-123110256D01*
X155776465Y-122991873D01*
X155761108Y-122968890D01*
X155740230Y-122902215D01*
X155758714Y-122834835D01*
X155761096Y-122831126D01*
X155776465Y-122808127D01*
X155825501Y-122689744D01*
X155833682Y-122648615D01*
X155850500Y-122564071D01*
X155850500Y-122435928D01*
X155825502Y-122310261D01*
X155825501Y-122310260D01*
X155825501Y-122310256D01*
X155776465Y-122191873D01*
X155776464Y-122191872D01*
X155776461Y-122191866D01*
X155705276Y-122085331D01*
X155705273Y-122085327D01*
X155614672Y-121994726D01*
X155614668Y-121994723D01*
X155612905Y-121993545D01*
X155508133Y-121923538D01*
X155508124Y-121923533D01*
X155442932Y-121896530D01*
X168949500Y-121896530D01*
X168949500Y-122103469D01*
X168989868Y-122306412D01*
X168989870Y-122306420D01*
X169069058Y-122497596D01*
X169184024Y-122669657D01*
X169330342Y-122815975D01*
X169330345Y-122815977D01*
X169502402Y-122930941D01*
X169693580Y-123010130D01*
X169861796Y-123043590D01*
X169896530Y-123050499D01*
X169896534Y-123050500D01*
X169896535Y-123050500D01*
X170103466Y-123050500D01*
X170103467Y-123050499D01*
X170306420Y-123010130D01*
X170497598Y-122930941D01*
X170669655Y-122815977D01*
X170815977Y-122669655D01*
X170930941Y-122497598D01*
X171010130Y-122306420D01*
X171050500Y-122103465D01*
X171050500Y-122041153D01*
X175379500Y-122041153D01*
X175379500Y-123298846D01*
X175410261Y-123453489D01*
X175410264Y-123453501D01*
X175470602Y-123599172D01*
X175470609Y-123599185D01*
X175558210Y-123730288D01*
X175558213Y-123730292D01*
X175669707Y-123841786D01*
X175669711Y-123841789D01*
X175800814Y-123929390D01*
X175800827Y-123929397D01*
X175916320Y-123977235D01*
X175946503Y-123989737D01*
X176101153Y-124020499D01*
X176101156Y-124020500D01*
X176101158Y-124020500D01*
X176258844Y-124020500D01*
X176258845Y-124020499D01*
X176413497Y-123989737D01*
X176559179Y-123929394D01*
X176690289Y-123841789D01*
X176801789Y-123730289D01*
X176889394Y-123599179D01*
X176890503Y-123596503D01*
X176934723Y-123489744D01*
X176949737Y-123453497D01*
X176968555Y-123358888D01*
X177000939Y-123296980D01*
X177061654Y-123262406D01*
X177131424Y-123266145D01*
X177188096Y-123307011D01*
X177209946Y-123350986D01*
X177212065Y-123358892D01*
X177213497Y-123364237D01*
X177269515Y-123461263D01*
X177348737Y-123540485D01*
X177445763Y-123596503D01*
X177553982Y-123625500D01*
X177553984Y-123625500D01*
X177666016Y-123625500D01*
X177666018Y-123625500D01*
X177774237Y-123596503D01*
X177871263Y-123540485D01*
X177950485Y-123461263D01*
X178006503Y-123364237D01*
X178035500Y-123256018D01*
X178035500Y-123143982D01*
X182964500Y-123143982D01*
X182964500Y-123256018D01*
X182993497Y-123364237D01*
X183049515Y-123461263D01*
X183128737Y-123540485D01*
X183225763Y-123596503D01*
X183333982Y-123625500D01*
X183333984Y-123625500D01*
X183446016Y-123625500D01*
X183446018Y-123625500D01*
X183554237Y-123596503D01*
X183651263Y-123540485D01*
X183730485Y-123461263D01*
X183786503Y-123364237D01*
X183790052Y-123350990D01*
X183826415Y-123291330D01*
X183889262Y-123260799D01*
X183958637Y-123269093D01*
X184012516Y-123313577D01*
X184031444Y-123358891D01*
X184050261Y-123453489D01*
X184050264Y-123453501D01*
X184110602Y-123599172D01*
X184110609Y-123599185D01*
X184198210Y-123730288D01*
X184198213Y-123730292D01*
X184309707Y-123841786D01*
X184309711Y-123841789D01*
X184440814Y-123929390D01*
X184440827Y-123929397D01*
X184556320Y-123977235D01*
X184586503Y-123989737D01*
X184741153Y-124020499D01*
X184741156Y-124020500D01*
X184741158Y-124020500D01*
X184898844Y-124020500D01*
X184898845Y-124020499D01*
X185053497Y-123989737D01*
X185199179Y-123929394D01*
X185330289Y-123841789D01*
X185441789Y-123730289D01*
X185529394Y-123599179D01*
X185530503Y-123596503D01*
X185574723Y-123489744D01*
X185589737Y-123453497D01*
X185620500Y-123298842D01*
X185620500Y-122041158D01*
X185620500Y-122041155D01*
X185620499Y-122041153D01*
X185600158Y-121938892D01*
X185589737Y-121886503D01*
X185574410Y-121849500D01*
X185529397Y-121740827D01*
X185529390Y-121740814D01*
X185441789Y-121609711D01*
X185441786Y-121609707D01*
X185330292Y-121498213D01*
X185330288Y-121498210D01*
X185199185Y-121410609D01*
X185199172Y-121410602D01*
X185053501Y-121350264D01*
X185053489Y-121350261D01*
X184898845Y-121319500D01*
X184898842Y-121319500D01*
X184741158Y-121319500D01*
X184741155Y-121319500D01*
X184586510Y-121350261D01*
X184586498Y-121350264D01*
X184440827Y-121410602D01*
X184440814Y-121410609D01*
X184309711Y-121498210D01*
X184309707Y-121498213D01*
X184198213Y-121609707D01*
X184198210Y-121609711D01*
X184110609Y-121740814D01*
X184110602Y-121740827D01*
X184050264Y-121886498D01*
X184050261Y-121886510D01*
X184019500Y-122041153D01*
X184019500Y-122976551D01*
X183999815Y-123043590D01*
X183947011Y-123089345D01*
X183877853Y-123099289D01*
X183814297Y-123070264D01*
X183788113Y-123038551D01*
X183761163Y-122991873D01*
X183730485Y-122938737D01*
X183651263Y-122859515D01*
X183562267Y-122808133D01*
X183554239Y-122803498D01*
X183554238Y-122803497D01*
X183554237Y-122803497D01*
X183446018Y-122774500D01*
X183333982Y-122774500D01*
X183225763Y-122803497D01*
X183225760Y-122803498D01*
X183128740Y-122859513D01*
X183128734Y-122859517D01*
X183049517Y-122938734D01*
X183049513Y-122938740D01*
X182993498Y-123035760D01*
X182993497Y-123035763D01*
X182964500Y-123143982D01*
X178035500Y-123143982D01*
X178006503Y-123035763D01*
X177950485Y-122938737D01*
X177871263Y-122859515D01*
X177782267Y-122808133D01*
X177774239Y-122803498D01*
X177774238Y-122803497D01*
X177774237Y-122803497D01*
X177666018Y-122774500D01*
X177553982Y-122774500D01*
X177445763Y-122803497D01*
X177445760Y-122803498D01*
X177348740Y-122859513D01*
X177348734Y-122859517D01*
X177269517Y-122938734D01*
X177269513Y-122938740D01*
X177211887Y-123038551D01*
X177161320Y-123086767D01*
X177092713Y-123099989D01*
X177027848Y-123074021D01*
X176987320Y-123017107D01*
X176980500Y-122976551D01*
X176980500Y-122041155D01*
X176980499Y-122041153D01*
X176960158Y-121938892D01*
X176949737Y-121886503D01*
X176934410Y-121849500D01*
X176889397Y-121740827D01*
X176889390Y-121740814D01*
X176801789Y-121609711D01*
X176801786Y-121609707D01*
X176690292Y-121498213D01*
X176690288Y-121498210D01*
X176559185Y-121410609D01*
X176559172Y-121410602D01*
X176413501Y-121350264D01*
X176413489Y-121350261D01*
X176258845Y-121319500D01*
X176258842Y-121319500D01*
X176101158Y-121319500D01*
X176101155Y-121319500D01*
X175946510Y-121350261D01*
X175946498Y-121350264D01*
X175800827Y-121410602D01*
X175800814Y-121410609D01*
X175669711Y-121498210D01*
X175669707Y-121498213D01*
X175558213Y-121609707D01*
X175558210Y-121609711D01*
X175470609Y-121740814D01*
X175470602Y-121740827D01*
X175410264Y-121886498D01*
X175410261Y-121886510D01*
X175379500Y-122041153D01*
X171050500Y-122041153D01*
X171050500Y-121896535D01*
X171010130Y-121693580D01*
X170930941Y-121502402D01*
X170815977Y-121330345D01*
X170815975Y-121330342D01*
X170669657Y-121184024D01*
X170583626Y-121126541D01*
X170497598Y-121069059D01*
X170306420Y-120989870D01*
X170306412Y-120989868D01*
X170103469Y-120949500D01*
X170103465Y-120949500D01*
X169896535Y-120949500D01*
X169896530Y-120949500D01*
X169693587Y-120989868D01*
X169693579Y-120989870D01*
X169502403Y-121069058D01*
X169330342Y-121184024D01*
X169184024Y-121330342D01*
X169069058Y-121502403D01*
X168989870Y-121693579D01*
X168989868Y-121693587D01*
X168949500Y-121896530D01*
X155442932Y-121896530D01*
X155389744Y-121874499D01*
X155389738Y-121874497D01*
X155264071Y-121849500D01*
X155264069Y-121849500D01*
X155135931Y-121849500D01*
X155135929Y-121849500D01*
X155010261Y-121874497D01*
X155010255Y-121874499D01*
X154891872Y-121923534D01*
X154868888Y-121938892D01*
X154802210Y-121959768D01*
X154734830Y-121941282D01*
X154731112Y-121938892D01*
X154708127Y-121923534D01*
X154589744Y-121874499D01*
X154589738Y-121874497D01*
X154464071Y-121849500D01*
X154464069Y-121849500D01*
X154335931Y-121849500D01*
X154335929Y-121849500D01*
X154210261Y-121874497D01*
X154210255Y-121874499D01*
X154091875Y-121923533D01*
X154091866Y-121923538D01*
X153985331Y-121994723D01*
X153985327Y-121994726D01*
X153894726Y-122085327D01*
X153894723Y-122085331D01*
X153823538Y-122191866D01*
X153823533Y-122191875D01*
X153774499Y-122310255D01*
X153774497Y-122310261D01*
X153749500Y-122435928D01*
X153749500Y-122435931D01*
X153749500Y-122564069D01*
X153749500Y-122564071D01*
X153749499Y-122564071D01*
X150650500Y-122564071D01*
X150650500Y-122435928D01*
X150625502Y-122310261D01*
X150625501Y-122310260D01*
X150625501Y-122310256D01*
X150576465Y-122191873D01*
X150576464Y-122191872D01*
X150576461Y-122191866D01*
X150505276Y-122085331D01*
X150505273Y-122085327D01*
X150414672Y-121994726D01*
X150414668Y-121994723D01*
X150308133Y-121923538D01*
X150308124Y-121923533D01*
X150189744Y-121874499D01*
X150189738Y-121874497D01*
X150064071Y-121849500D01*
X150064069Y-121849500D01*
X149935931Y-121849500D01*
X149935929Y-121849500D01*
X149810261Y-121874497D01*
X149810255Y-121874499D01*
X149691875Y-121923533D01*
X149691866Y-121923538D01*
X149585331Y-121994723D01*
X149585327Y-121994726D01*
X149494726Y-122085327D01*
X149494723Y-122085331D01*
X149423538Y-122191866D01*
X149423533Y-122191875D01*
X149374499Y-122310255D01*
X149374497Y-122310261D01*
X149349500Y-122435928D01*
X149349500Y-122435931D01*
X149349500Y-122564069D01*
X149349500Y-122564071D01*
X149349499Y-122564071D01*
X135497113Y-122564071D01*
X135447984Y-122546880D01*
X135359692Y-122515985D01*
X135359684Y-122515982D01*
X135105048Y-122457863D01*
X135020171Y-122438491D01*
X135020167Y-122438490D01*
X135020158Y-122438489D01*
X134674124Y-122399500D01*
X134674120Y-122399500D01*
X134325880Y-122399500D01*
X134325875Y-122399500D01*
X133979841Y-122438489D01*
X133979829Y-122438491D01*
X133640315Y-122515982D01*
X133640307Y-122515985D01*
X133311617Y-122630999D01*
X132997869Y-122782092D01*
X132703000Y-122967371D01*
X132702998Y-122967372D01*
X132430743Y-123184487D01*
X132184487Y-123430743D01*
X131967372Y-123702998D01*
X131967371Y-123703000D01*
X131782092Y-123997869D01*
X131630999Y-124311617D01*
X131515985Y-124640307D01*
X131515982Y-124640315D01*
X131438491Y-124979829D01*
X131438489Y-124979841D01*
X131399500Y-125325875D01*
X130200503Y-125325875D01*
X130200502Y-112896530D01*
X135949500Y-112896530D01*
X135949500Y-113103469D01*
X135989868Y-113306412D01*
X135989870Y-113306420D01*
X136069058Y-113497596D01*
X136184024Y-113669657D01*
X136330342Y-113815975D01*
X136330345Y-113815977D01*
X136502402Y-113930941D01*
X136693580Y-114010130D01*
X136896530Y-114050499D01*
X136896534Y-114050500D01*
X136896535Y-114050500D01*
X137103466Y-114050500D01*
X137103467Y-114050499D01*
X137306420Y-114010130D01*
X137497598Y-113930941D01*
X137669655Y-113815977D01*
X137815977Y-113669655D01*
X137930941Y-113497598D01*
X138010130Y-113306420D01*
X138050500Y-113103465D01*
X138050500Y-112896535D01*
X138010130Y-112693580D01*
X137930941Y-112502402D01*
X137815977Y-112330345D01*
X137815975Y-112330342D01*
X137669657Y-112184024D01*
X137583626Y-112126541D01*
X137497598Y-112069059D01*
X137496772Y-112068717D01*
X137306420Y-111989870D01*
X137306412Y-111989868D01*
X137103469Y-111949500D01*
X137103465Y-111949500D01*
X136896535Y-111949500D01*
X136896530Y-111949500D01*
X136693587Y-111989868D01*
X136693579Y-111989870D01*
X136502403Y-112069058D01*
X136330342Y-112184024D01*
X136184024Y-112330342D01*
X136069058Y-112502403D01*
X135989870Y-112693579D01*
X135989868Y-112693587D01*
X135949500Y-112896530D01*
X130200502Y-112896530D01*
X130200502Y-105320943D01*
X141499500Y-105320943D01*
X141499500Y-105479056D01*
X141540423Y-105631783D01*
X141540426Y-105631790D01*
X141619475Y-105768709D01*
X141619479Y-105768714D01*
X141619480Y-105768716D01*
X141731284Y-105880520D01*
X141731286Y-105880521D01*
X141731290Y-105880524D01*
X141868209Y-105959573D01*
X141868216Y-105959577D01*
X142020943Y-106000500D01*
X142020945Y-106000500D01*
X142179055Y-106000500D01*
X142179057Y-106000500D01*
X142331784Y-105959577D01*
X142468716Y-105880520D01*
X142580520Y-105768716D01*
X142659577Y-105631784D01*
X142700500Y-105479057D01*
X142700500Y-105381899D01*
X142720185Y-105314860D01*
X142736819Y-105294218D01*
X143710094Y-104320943D01*
X147699500Y-104320943D01*
X147699500Y-104479056D01*
X147740423Y-104631783D01*
X147740426Y-104631790D01*
X147819475Y-104768709D01*
X147819479Y-104768714D01*
X147819480Y-104768716D01*
X147931284Y-104880520D01*
X147931286Y-104880521D01*
X147931290Y-104880524D01*
X147998765Y-104919480D01*
X148068216Y-104959577D01*
X148220943Y-105000500D01*
X148220945Y-105000500D01*
X148379055Y-105000500D01*
X148379057Y-105000500D01*
X148531784Y-104959577D01*
X148668716Y-104880520D01*
X148737417Y-104811819D01*
X148798740Y-104778334D01*
X148825098Y-104775500D01*
X151474902Y-104775500D01*
X151541941Y-104795185D01*
X151562583Y-104811819D01*
X151631284Y-104880520D01*
X151631286Y-104880521D01*
X151631290Y-104880524D01*
X151698765Y-104919480D01*
X151768216Y-104959577D01*
X151920943Y-105000500D01*
X151920945Y-105000500D01*
X152079052Y-105000500D01*
X152079057Y-105000500D01*
X152079061Y-105000498D01*
X152084305Y-104999808D01*
X152153341Y-105010569D01*
X152205601Y-105056944D01*
X152224500Y-105122746D01*
X152224500Y-115849435D01*
X152250090Y-115944938D01*
X152250091Y-115944939D01*
X152250091Y-115944940D01*
X152299526Y-116030563D01*
X152563181Y-116294218D01*
X152596666Y-116355541D01*
X152599500Y-116381899D01*
X152599500Y-116479056D01*
X152640423Y-116631783D01*
X152640426Y-116631790D01*
X152719475Y-116768709D01*
X152719479Y-116768714D01*
X152719480Y-116768716D01*
X152831284Y-116880520D01*
X152831286Y-116880521D01*
X152831290Y-116880524D01*
X152968209Y-116959573D01*
X152968216Y-116959577D01*
X153120943Y-117000500D01*
X153120945Y-117000500D01*
X153279055Y-117000500D01*
X153279057Y-117000500D01*
X153431784Y-116959577D01*
X153568716Y-116880520D01*
X153680520Y-116768716D01*
X153759577Y-116631784D01*
X153800500Y-116479057D01*
X153800500Y-116320943D01*
X153759577Y-116168216D01*
X153759573Y-116168209D01*
X153680524Y-116031290D01*
X153680518Y-116031282D01*
X153568717Y-115919481D01*
X153568709Y-115919475D01*
X153431790Y-115840426D01*
X153431786Y-115840424D01*
X153431784Y-115840423D01*
X153279057Y-115799500D01*
X153279056Y-115799500D01*
X153181899Y-115799500D01*
X153152458Y-115790855D01*
X153122472Y-115784332D01*
X153117456Y-115780577D01*
X153114860Y-115779815D01*
X153094218Y-115763181D01*
X153011819Y-115680782D01*
X152978334Y-115619459D01*
X152975500Y-115593101D01*
X152975500Y-112472149D01*
X209549500Y-112472149D01*
X209549500Y-112727850D01*
X209570907Y-112890443D01*
X209582874Y-112981340D01*
X209649050Y-113228312D01*
X209649053Y-113228322D01*
X209746894Y-113464531D01*
X209746899Y-113464542D01*
X209874734Y-113685957D01*
X209874745Y-113685973D01*
X210030388Y-113888811D01*
X210030394Y-113888818D01*
X210211181Y-114069605D01*
X210211187Y-114069610D01*
X210414035Y-114225261D01*
X210414042Y-114225265D01*
X210635457Y-114353100D01*
X210635462Y-114353102D01*
X210635465Y-114353104D01*
X210871687Y-114450950D01*
X211118660Y-114517126D01*
X211372157Y-114550500D01*
X211372164Y-114550500D01*
X211627836Y-114550500D01*
X211627843Y-114550500D01*
X211881340Y-114517126D01*
X212128313Y-114450950D01*
X212364535Y-114353104D01*
X212585965Y-114225261D01*
X212788813Y-114069610D01*
X212969610Y-113888813D01*
X213125261Y-113685965D01*
X213253104Y-113464535D01*
X213350950Y-113228313D01*
X213417126Y-112981340D01*
X213450500Y-112727843D01*
X213450500Y-112472157D01*
X213417126Y-112218660D01*
X213350950Y-111971687D01*
X213253104Y-111735465D01*
X213253102Y-111735462D01*
X213253100Y-111735457D01*
X213125265Y-111514042D01*
X213125261Y-111514035D01*
X212985031Y-111331284D01*
X212969611Y-111311188D01*
X212969605Y-111311181D01*
X212788818Y-111130394D01*
X212788811Y-111130388D01*
X212585973Y-110974745D01*
X212585971Y-110974743D01*
X212585965Y-110974739D01*
X212585960Y-110974736D01*
X212585957Y-110974734D01*
X212364542Y-110846899D01*
X212364531Y-110846894D01*
X212128322Y-110749053D01*
X212128315Y-110749051D01*
X212128313Y-110749050D01*
X211881340Y-110682874D01*
X211825007Y-110675457D01*
X211627850Y-110649500D01*
X211627843Y-110649500D01*
X211372157Y-110649500D01*
X211372149Y-110649500D01*
X211146826Y-110679165D01*
X211118660Y-110682874D01*
X210871687Y-110749050D01*
X210871677Y-110749053D01*
X210635468Y-110846894D01*
X210635457Y-110846899D01*
X210414042Y-110974734D01*
X210414026Y-110974745D01*
X210211188Y-111130388D01*
X210211181Y-111130394D01*
X210030394Y-111311181D01*
X210030388Y-111311188D01*
X209874745Y-111514026D01*
X209874734Y-111514042D01*
X209746899Y-111735457D01*
X209746894Y-111735468D01*
X209649053Y-111971677D01*
X209649050Y-111971687D01*
X209593093Y-112180524D01*
X209582874Y-112218661D01*
X209549500Y-112472149D01*
X152975500Y-112472149D01*
X152975500Y-111620943D01*
X153799500Y-111620943D01*
X153799500Y-111779056D01*
X153840423Y-111931783D01*
X153840426Y-111931790D01*
X153919475Y-112068709D01*
X153919479Y-112068714D01*
X153919480Y-112068716D01*
X154031284Y-112180520D01*
X154031286Y-112180521D01*
X154031290Y-112180524D01*
X154168209Y-112259573D01*
X154168216Y-112259577D01*
X154320943Y-112300500D01*
X154320945Y-112300500D01*
X154479055Y-112300500D01*
X154479057Y-112300500D01*
X154631784Y-112259577D01*
X154768716Y-112180520D01*
X154880520Y-112068716D01*
X154959577Y-111931784D01*
X155000500Y-111779057D01*
X155000500Y-111620943D01*
X154959577Y-111468216D01*
X154959573Y-111468209D01*
X154880524Y-111331290D01*
X154880518Y-111331282D01*
X154811819Y-111262583D01*
X154778334Y-111201260D01*
X154775500Y-111174902D01*
X154775500Y-108337736D01*
X154795185Y-108270697D01*
X154847989Y-108224942D01*
X154917147Y-108214998D01*
X154923669Y-108216115D01*
X155096533Y-108250499D01*
X155096534Y-108250500D01*
X155096535Y-108250500D01*
X155303466Y-108250500D01*
X155303467Y-108250499D01*
X155506420Y-108210130D01*
X155697598Y-108130941D01*
X155869655Y-108015977D01*
X156015977Y-107869655D01*
X156130941Y-107697598D01*
X156210130Y-107506420D01*
X156250500Y-107303465D01*
X156250500Y-107096535D01*
X156210130Y-106893580D01*
X156130941Y-106702402D01*
X156015977Y-106530345D01*
X156015975Y-106530342D01*
X155869657Y-106384024D01*
X155783626Y-106326541D01*
X155697598Y-106269059D01*
X155506420Y-106189870D01*
X155506412Y-106189868D01*
X155303469Y-106149500D01*
X155303465Y-106149500D01*
X155096535Y-106149500D01*
X155096530Y-106149500D01*
X154893587Y-106189868D01*
X154893579Y-106189870D01*
X154702403Y-106269058D01*
X154530342Y-106384024D01*
X154384024Y-106530342D01*
X154269058Y-106702403D01*
X154189870Y-106893579D01*
X154189868Y-106893587D01*
X154149500Y-107096530D01*
X154149500Y-107303469D01*
X154189868Y-107506412D01*
X154189870Y-107506420D01*
X154208738Y-107551971D01*
X154210874Y-107571845D01*
X154217859Y-107590567D01*
X154214531Y-107605867D01*
X154216206Y-107621441D01*
X154207259Y-107639313D01*
X154203013Y-107658841D01*
X154186319Y-107681144D01*
X154184930Y-107683920D01*
X154181864Y-107687097D01*
X154169445Y-107699518D01*
X154169438Y-107699525D01*
X154099526Y-107769436D01*
X154050091Y-107855059D01*
X154050091Y-107855060D01*
X154050090Y-107855062D01*
X154024500Y-107950565D01*
X154024500Y-107950567D01*
X154024500Y-111174902D01*
X154004815Y-111241941D01*
X153988181Y-111262583D01*
X153919481Y-111331282D01*
X153919475Y-111331290D01*
X153840426Y-111468209D01*
X153840423Y-111468216D01*
X153799500Y-111620943D01*
X152975500Y-111620943D01*
X152975500Y-98520943D01*
X153899500Y-98520943D01*
X153899500Y-98679056D01*
X153940423Y-98831783D01*
X153940426Y-98831790D01*
X154019475Y-98968709D01*
X154019479Y-98968714D01*
X154019480Y-98968716D01*
X154131284Y-99080520D01*
X154131286Y-99080521D01*
X154131290Y-99080524D01*
X154268209Y-99159573D01*
X154268216Y-99159577D01*
X154420943Y-99200500D01*
X154420945Y-99200500D01*
X154579055Y-99200500D01*
X154579057Y-99200500D01*
X154731784Y-99159577D01*
X154868716Y-99080520D01*
X154980520Y-98968716D01*
X155059577Y-98831784D01*
X155100500Y-98679057D01*
X155100500Y-98520943D01*
X155059577Y-98368216D01*
X155008101Y-98279056D01*
X154980524Y-98231290D01*
X154980518Y-98231282D01*
X154868717Y-98119481D01*
X154868709Y-98119475D01*
X154731790Y-98040426D01*
X154731786Y-98040424D01*
X154731784Y-98040423D01*
X154579057Y-97999500D01*
X154420943Y-97999500D01*
X154268216Y-98040423D01*
X154268209Y-98040426D01*
X154131290Y-98119475D01*
X154131282Y-98119481D01*
X154019481Y-98231282D01*
X154019475Y-98231290D01*
X153940426Y-98368209D01*
X153940423Y-98368216D01*
X153899500Y-98520943D01*
X152975500Y-98520943D01*
X152975500Y-97363086D01*
X152995185Y-97296047D01*
X153047989Y-97250292D01*
X153117147Y-97240348D01*
X153161501Y-97255700D01*
X153168216Y-97259577D01*
X153320943Y-97300500D01*
X153320945Y-97300500D01*
X153479055Y-97300500D01*
X153479057Y-97300500D01*
X153631784Y-97259577D01*
X153768716Y-97180520D01*
X153880520Y-97068716D01*
X153959577Y-96931784D01*
X154000500Y-96779057D01*
X154000500Y-96620943D01*
X153959577Y-96468216D01*
X153959573Y-96468209D01*
X153880524Y-96331290D01*
X153880518Y-96331282D01*
X153768717Y-96219481D01*
X153768709Y-96219475D01*
X153631790Y-96140426D01*
X153631786Y-96140424D01*
X153631784Y-96140423D01*
X153479057Y-96099500D01*
X153320943Y-96099500D01*
X153168216Y-96140423D01*
X153168213Y-96140424D01*
X153161497Y-96144302D01*
X153093597Y-96160772D01*
X153027570Y-96137919D01*
X152984381Y-96082996D01*
X152975500Y-96036913D01*
X152975500Y-94800567D01*
X152975500Y-94800565D01*
X152949910Y-94705062D01*
X152900475Y-94619438D01*
X152830562Y-94549525D01*
X152411819Y-94130782D01*
X152378334Y-94069459D01*
X152375500Y-94043101D01*
X152375500Y-88809448D01*
X155549500Y-88809448D01*
X155549500Y-88990551D01*
X155577829Y-89169410D01*
X155633787Y-89341636D01*
X155633788Y-89341639D01*
X155716006Y-89502997D01*
X155822441Y-89649494D01*
X155822445Y-89649499D01*
X155950500Y-89777554D01*
X155950505Y-89777558D01*
X156008208Y-89819481D01*
X156097006Y-89883996D01*
X156189825Y-89931290D01*
X156258360Y-89966211D01*
X156258363Y-89966212D01*
X156344476Y-89994191D01*
X156430591Y-90022171D01*
X156513429Y-90035291D01*
X156609449Y-90050500D01*
X156609454Y-90050500D01*
X156790551Y-90050500D01*
X156877259Y-90036765D01*
X156969409Y-90022171D01*
X157141639Y-89966211D01*
X157302994Y-89883996D01*
X157449501Y-89777553D01*
X157577553Y-89649501D01*
X157683996Y-89502994D01*
X157766211Y-89341639D01*
X157822171Y-89169409D01*
X157836422Y-89079425D01*
X157847527Y-89009321D01*
X157877456Y-88946186D01*
X157936768Y-88909255D01*
X158006630Y-88910253D01*
X158064863Y-88948863D01*
X158092473Y-89009321D01*
X158117829Y-89169410D01*
X158173787Y-89341636D01*
X158173788Y-89341639D01*
X158256006Y-89502997D01*
X158362441Y-89649494D01*
X158362445Y-89649499D01*
X158490500Y-89777554D01*
X158490505Y-89777558D01*
X158548208Y-89819481D01*
X158637006Y-89883996D01*
X158729825Y-89931290D01*
X158798360Y-89966211D01*
X158798363Y-89966212D01*
X158884476Y-89994191D01*
X158970591Y-90022171D01*
X159053429Y-90035291D01*
X159149449Y-90050500D01*
X159149454Y-90050500D01*
X159330551Y-90050500D01*
X159417259Y-90036765D01*
X159509409Y-90022171D01*
X159681639Y-89966211D01*
X159842994Y-89883996D01*
X159989501Y-89777553D01*
X160117553Y-89649501D01*
X160223996Y-89502994D01*
X160306211Y-89341639D01*
X160362171Y-89169409D01*
X160376765Y-89077259D01*
X160390500Y-88990551D01*
X160390500Y-88809448D01*
X160374019Y-88705397D01*
X160362171Y-88630591D01*
X160306211Y-88458361D01*
X160306211Y-88458360D01*
X160277740Y-88402484D01*
X160223996Y-88297006D01*
X160210396Y-88278287D01*
X160117558Y-88150505D01*
X160117554Y-88150500D01*
X159989499Y-88022445D01*
X159989494Y-88022441D01*
X159842997Y-87916006D01*
X159842996Y-87916005D01*
X159842994Y-87916004D01*
X159791300Y-87889664D01*
X159681639Y-87833788D01*
X159681636Y-87833787D01*
X159509410Y-87777829D01*
X159330551Y-87749500D01*
X159330546Y-87749500D01*
X159149454Y-87749500D01*
X159149449Y-87749500D01*
X158970589Y-87777829D01*
X158798363Y-87833787D01*
X158798360Y-87833788D01*
X158637002Y-87916006D01*
X158490505Y-88022441D01*
X158490500Y-88022445D01*
X158362445Y-88150500D01*
X158362441Y-88150505D01*
X158256006Y-88297002D01*
X158173788Y-88458360D01*
X158173787Y-88458363D01*
X158117829Y-88630589D01*
X158092473Y-88790678D01*
X158062544Y-88853813D01*
X158003232Y-88890744D01*
X157933369Y-88889746D01*
X157875137Y-88851136D01*
X157847527Y-88790678D01*
X157833740Y-88703639D01*
X157822171Y-88630591D01*
X157766211Y-88458361D01*
X157766211Y-88458360D01*
X157737740Y-88402484D01*
X157683996Y-88297006D01*
X157670396Y-88278287D01*
X157577558Y-88150505D01*
X157577554Y-88150500D01*
X157449499Y-88022445D01*
X157449494Y-88022441D01*
X157302997Y-87916006D01*
X157302996Y-87916005D01*
X157302994Y-87916004D01*
X157251300Y-87889664D01*
X157141639Y-87833788D01*
X157141636Y-87833787D01*
X156969410Y-87777829D01*
X156790551Y-87749500D01*
X156790546Y-87749500D01*
X156609454Y-87749500D01*
X156609449Y-87749500D01*
X156430589Y-87777829D01*
X156258363Y-87833787D01*
X156258360Y-87833788D01*
X156097002Y-87916006D01*
X155950505Y-88022441D01*
X155950500Y-88022445D01*
X155822445Y-88150500D01*
X155822441Y-88150505D01*
X155716006Y-88297002D01*
X155633788Y-88458360D01*
X155633787Y-88458363D01*
X155577829Y-88630589D01*
X155549500Y-88809448D01*
X152375500Y-88809448D01*
X152375500Y-76956899D01*
X152395185Y-76889860D01*
X152411819Y-76869218D01*
X153394218Y-75886819D01*
X153455541Y-75853334D01*
X153481899Y-75850500D01*
X153579055Y-75850500D01*
X153579057Y-75850500D01*
X153731784Y-75809577D01*
X153868716Y-75730520D01*
X153980520Y-75618716D01*
X154059577Y-75481784D01*
X154100500Y-75329057D01*
X154100500Y-75170943D01*
X154059577Y-75018216D01*
X154003417Y-74920943D01*
X153980524Y-74881290D01*
X153980518Y-74881282D01*
X153868717Y-74769481D01*
X153868709Y-74769475D01*
X153731790Y-74690426D01*
X153731786Y-74690424D01*
X153731784Y-74690423D01*
X153579057Y-74649500D01*
X153420943Y-74649500D01*
X153268216Y-74690423D01*
X153268209Y-74690426D01*
X153131290Y-74769475D01*
X153131282Y-74769481D01*
X153019481Y-74881282D01*
X153019475Y-74881290D01*
X152940426Y-75018209D01*
X152940423Y-75018216D01*
X152899500Y-75170943D01*
X152899500Y-75268101D01*
X152879815Y-75335140D01*
X152863181Y-75355782D01*
X151699526Y-76519436D01*
X151650091Y-76605059D01*
X151650091Y-76605060D01*
X151650090Y-76605062D01*
X151624500Y-76700565D01*
X151624500Y-94299435D01*
X151650090Y-94394938D01*
X151699501Y-94480520D01*
X151699526Y-94480563D01*
X151699528Y-94480566D01*
X152188181Y-94969218D01*
X152221666Y-95030541D01*
X152224500Y-95056899D01*
X152224500Y-103677253D01*
X152204815Y-103744292D01*
X152152011Y-103790047D01*
X152084316Y-103800192D01*
X152079059Y-103799500D01*
X152079057Y-103799500D01*
X151920943Y-103799500D01*
X151768216Y-103840423D01*
X151768209Y-103840426D01*
X151631290Y-103919475D01*
X151631282Y-103919481D01*
X151562583Y-103988181D01*
X151501260Y-104021666D01*
X151474902Y-104024500D01*
X149774098Y-104024500D01*
X149707059Y-104004815D01*
X149661304Y-103952011D01*
X149651360Y-103882853D01*
X149680385Y-103819297D01*
X149686417Y-103812819D01*
X149699736Y-103799500D01*
X149730520Y-103768716D01*
X149809577Y-103631784D01*
X149850500Y-103479057D01*
X149850500Y-103320943D01*
X149809577Y-103168216D01*
X149792133Y-103138001D01*
X149730524Y-103031290D01*
X149730518Y-103031282D01*
X149661819Y-102962583D01*
X149628334Y-102901260D01*
X149625500Y-102874902D01*
X149625500Y-100825098D01*
X149645185Y-100758059D01*
X149661819Y-100737417D01*
X149730520Y-100668716D01*
X149809577Y-100531784D01*
X149850500Y-100379057D01*
X149850500Y-100220943D01*
X149809577Y-100068216D01*
X149809573Y-100068209D01*
X149730524Y-99931290D01*
X149730518Y-99931282D01*
X149618717Y-99819481D01*
X149618709Y-99819475D01*
X149481790Y-99740426D01*
X149481786Y-99740424D01*
X149481784Y-99740423D01*
X149329057Y-99699500D01*
X149170943Y-99699500D01*
X149018216Y-99740423D01*
X149018209Y-99740426D01*
X148881290Y-99819475D01*
X148881282Y-99819481D01*
X148769481Y-99931282D01*
X148769475Y-99931290D01*
X148690426Y-100068209D01*
X148690423Y-100068216D01*
X148649500Y-100220943D01*
X148649500Y-100379056D01*
X148690423Y-100531783D01*
X148690426Y-100531790D01*
X148769475Y-100668709D01*
X148769481Y-100668717D01*
X148838181Y-100737417D01*
X148871666Y-100798740D01*
X148874500Y-100825098D01*
X148874500Y-102874902D01*
X148854815Y-102941941D01*
X148838181Y-102962583D01*
X148769481Y-103031282D01*
X148769475Y-103031290D01*
X148690426Y-103168209D01*
X148690423Y-103168216D01*
X148649500Y-103320943D01*
X148649500Y-103479057D01*
X148660724Y-103520943D01*
X148690423Y-103631783D01*
X148690423Y-103631784D01*
X148719042Y-103681354D01*
X148735513Y-103749254D01*
X148712661Y-103815281D01*
X148657739Y-103858471D01*
X148588186Y-103865112D01*
X148549655Y-103850741D01*
X148531784Y-103840423D01*
X148499539Y-103831783D01*
X148379057Y-103799500D01*
X148220943Y-103799500D01*
X148068216Y-103840423D01*
X148068209Y-103840426D01*
X147931290Y-103919475D01*
X147931282Y-103919481D01*
X147819481Y-104031282D01*
X147819475Y-104031290D01*
X147740426Y-104168209D01*
X147740423Y-104168216D01*
X147699500Y-104320943D01*
X143710094Y-104320943D01*
X143805902Y-104225135D01*
X145831537Y-102199500D01*
X148600474Y-99430563D01*
X148600475Y-99430562D01*
X148649910Y-99344938D01*
X148675500Y-99249435D01*
X148675500Y-98725098D01*
X148695185Y-98658059D01*
X148711819Y-98637417D01*
X148780520Y-98568716D01*
X148859577Y-98431784D01*
X148900500Y-98279057D01*
X148900500Y-98120943D01*
X148859577Y-97968216D01*
X148859573Y-97968209D01*
X148780524Y-97831290D01*
X148780518Y-97831282D01*
X148668717Y-97719481D01*
X148668709Y-97719475D01*
X148531790Y-97640426D01*
X148531786Y-97640424D01*
X148531784Y-97640423D01*
X148379057Y-97599500D01*
X148220943Y-97599500D01*
X148068216Y-97640423D01*
X148068209Y-97640426D01*
X147931290Y-97719475D01*
X147931282Y-97719481D01*
X147819481Y-97831282D01*
X147819475Y-97831290D01*
X147740426Y-97968209D01*
X147740423Y-97968216D01*
X147699500Y-98120943D01*
X147699500Y-98279056D01*
X147740423Y-98431783D01*
X147740426Y-98431790D01*
X147819475Y-98568709D01*
X147819481Y-98568717D01*
X147888181Y-98637417D01*
X147921666Y-98698740D01*
X147924500Y-98725098D01*
X147924500Y-98993101D01*
X147904815Y-99060140D01*
X147888181Y-99080782D01*
X142205782Y-104763181D01*
X142144459Y-104796666D01*
X142118101Y-104799500D01*
X142020943Y-104799500D01*
X141868216Y-104840423D01*
X141868209Y-104840426D01*
X141731290Y-104919475D01*
X141731282Y-104919481D01*
X141619481Y-105031282D01*
X141619475Y-105031290D01*
X141540426Y-105168209D01*
X141540423Y-105168216D01*
X141499500Y-105320943D01*
X130200502Y-105320943D01*
X130200502Y-102720943D01*
X134099500Y-102720943D01*
X134099500Y-102879057D01*
X134140289Y-103031282D01*
X134140423Y-103031783D01*
X134140423Y-103031784D01*
X134201746Y-103138001D01*
X134218217Y-103205902D01*
X134201746Y-103261999D01*
X134140423Y-103368215D01*
X134140423Y-103368216D01*
X134099500Y-103520943D01*
X134099500Y-103679057D01*
X134135342Y-103812819D01*
X134140423Y-103831783D01*
X134140426Y-103831790D01*
X134219475Y-103968709D01*
X134219479Y-103968714D01*
X134219480Y-103968716D01*
X134331284Y-104080520D01*
X134331286Y-104080521D01*
X134331290Y-104080524D01*
X134362000Y-104098254D01*
X134468216Y-104159577D01*
X134620943Y-104200500D01*
X134620945Y-104200500D01*
X134779055Y-104200500D01*
X134779057Y-104200500D01*
X134931784Y-104159577D01*
X134972873Y-104135853D01*
X135038001Y-104098254D01*
X135105901Y-104081781D01*
X135161999Y-104098254D01*
X135268209Y-104159573D01*
X135268216Y-104159577D01*
X135420943Y-104200500D01*
X135420945Y-104200500D01*
X135579055Y-104200500D01*
X135579057Y-104200500D01*
X135731784Y-104159577D01*
X135868716Y-104080520D01*
X135980520Y-103968716D01*
X136059577Y-103831784D01*
X136100500Y-103679057D01*
X136100500Y-103520943D01*
X136059577Y-103368216D01*
X136059573Y-103368209D01*
X135998254Y-103261999D01*
X135981781Y-103194099D01*
X135998254Y-103138001D01*
X136035853Y-103072873D01*
X136059577Y-103031784D01*
X136100500Y-102879057D01*
X136100500Y-102720943D01*
X136059577Y-102568216D01*
X136059573Y-102568209D01*
X135980524Y-102431290D01*
X135980518Y-102431282D01*
X135868717Y-102319481D01*
X135868709Y-102319475D01*
X135731790Y-102240426D01*
X135731786Y-102240424D01*
X135731784Y-102240423D01*
X135579057Y-102199500D01*
X135420943Y-102199500D01*
X135268216Y-102240423D01*
X135268215Y-102240423D01*
X135161999Y-102301746D01*
X135094098Y-102318217D01*
X135038001Y-102301746D01*
X134931784Y-102240423D01*
X134779057Y-102199500D01*
X134620943Y-102199500D01*
X134468216Y-102240423D01*
X134468209Y-102240426D01*
X134331290Y-102319475D01*
X134331282Y-102319481D01*
X134219481Y-102431282D01*
X134219475Y-102431290D01*
X134140426Y-102568209D01*
X134140423Y-102568216D01*
X134099500Y-102720943D01*
X130200502Y-102720943D01*
X130200502Y-93920943D01*
X136599500Y-93920943D01*
X136599500Y-94079056D01*
X136640423Y-94231783D01*
X136640426Y-94231790D01*
X136719475Y-94368709D01*
X136719479Y-94368714D01*
X136719480Y-94368716D01*
X136831284Y-94480520D01*
X136831286Y-94480521D01*
X136831290Y-94480524D01*
X136950805Y-94549525D01*
X136968216Y-94559577D01*
X137120943Y-94600500D01*
X137120945Y-94600500D01*
X137279055Y-94600500D01*
X137279057Y-94600500D01*
X137431784Y-94559577D01*
X137568716Y-94480520D01*
X137680520Y-94368716D01*
X137759577Y-94231784D01*
X137800500Y-94079057D01*
X137800500Y-93920943D01*
X137759577Y-93768216D01*
X137759573Y-93768209D01*
X137680524Y-93631290D01*
X137680518Y-93631282D01*
X137568717Y-93519481D01*
X137568709Y-93519475D01*
X137431790Y-93440426D01*
X137431786Y-93440424D01*
X137431784Y-93440423D01*
X137279057Y-93399500D01*
X137120943Y-93399500D01*
X136968216Y-93440423D01*
X136968209Y-93440426D01*
X136831290Y-93519475D01*
X136831282Y-93519481D01*
X136719481Y-93631282D01*
X136719475Y-93631290D01*
X136640426Y-93768209D01*
X136640423Y-93768216D01*
X136599500Y-93920943D01*
X130200502Y-93920943D01*
X130200502Y-92896530D01*
X141949500Y-92896530D01*
X141949500Y-93103469D01*
X141989868Y-93306412D01*
X141989870Y-93306420D01*
X142069058Y-93497596D01*
X142184024Y-93669657D01*
X142330342Y-93815975D01*
X142330345Y-93815977D01*
X142502402Y-93930941D01*
X142693580Y-94010130D01*
X142896530Y-94050499D01*
X142896534Y-94050500D01*
X142896535Y-94050500D01*
X143103466Y-94050500D01*
X143103467Y-94050499D01*
X143306420Y-94010130D01*
X143497598Y-93930941D01*
X143669655Y-93815977D01*
X143815977Y-93669655D01*
X143930941Y-93497598D01*
X144010130Y-93306420D01*
X144050500Y-93103465D01*
X144050500Y-92896535D01*
X144010130Y-92693580D01*
X143930941Y-92502402D01*
X143815977Y-92330345D01*
X143815975Y-92330342D01*
X143669657Y-92184024D01*
X143583626Y-92126541D01*
X143497598Y-92069059D01*
X143306420Y-91989870D01*
X143306412Y-91989868D01*
X143103469Y-91949500D01*
X143103465Y-91949500D01*
X142896535Y-91949500D01*
X142896530Y-91949500D01*
X142693587Y-91989868D01*
X142693579Y-91989870D01*
X142502403Y-92069058D01*
X142330342Y-92184024D01*
X142184024Y-92330342D01*
X142069058Y-92502403D01*
X141989870Y-92693579D01*
X141989868Y-92693587D01*
X141949500Y-92896530D01*
X130200502Y-92896530D01*
X130200502Y-90220943D01*
X131999500Y-90220943D01*
X131999500Y-90379056D01*
X132040423Y-90531783D01*
X132040426Y-90531790D01*
X132119475Y-90668709D01*
X132119479Y-90668714D01*
X132119480Y-90668716D01*
X132231284Y-90780520D01*
X132231286Y-90780521D01*
X132231290Y-90780524D01*
X132368209Y-90859573D01*
X132368216Y-90859577D01*
X132520943Y-90900500D01*
X132520945Y-90900500D01*
X132679055Y-90900500D01*
X132679057Y-90900500D01*
X132831784Y-90859577D01*
X132968716Y-90780520D01*
X133080520Y-90668716D01*
X133159577Y-90531784D01*
X133200500Y-90379057D01*
X133200500Y-90220943D01*
X133159577Y-90068216D01*
X133100685Y-89966211D01*
X133080524Y-89931290D01*
X133080518Y-89931282D01*
X132968717Y-89819481D01*
X132968709Y-89819475D01*
X132831790Y-89740426D01*
X132831786Y-89740424D01*
X132831784Y-89740423D01*
X132679057Y-89699500D01*
X132520943Y-89699500D01*
X132368216Y-89740423D01*
X132368209Y-89740426D01*
X132231290Y-89819475D01*
X132231282Y-89819481D01*
X132119481Y-89931282D01*
X132119475Y-89931290D01*
X132040426Y-90068209D01*
X132040423Y-90068216D01*
X131999500Y-90220943D01*
X130200502Y-90220943D01*
X130200501Y-81606898D01*
X134874500Y-81606898D01*
X134874500Y-82393102D01*
X134880126Y-82439954D01*
X134885122Y-82481561D01*
X134940639Y-82622343D01*
X135032077Y-82742922D01*
X135152656Y-82834360D01*
X135152657Y-82834360D01*
X135152658Y-82834361D01*
X135293436Y-82889877D01*
X135381898Y-82900500D01*
X135381903Y-82900500D01*
X135452920Y-82900500D01*
X135519959Y-82920185D01*
X135565714Y-82972989D01*
X135575658Y-83042147D01*
X135546633Y-83105703D01*
X135500372Y-83139060D01*
X135484134Y-83145786D01*
X135348458Y-83201983D01*
X135348446Y-83201990D01*
X135200965Y-83300535D01*
X135200961Y-83300538D01*
X135075538Y-83425961D01*
X135075535Y-83425965D01*
X134976990Y-83573446D01*
X134976983Y-83573459D01*
X134909106Y-83737332D01*
X134909103Y-83737341D01*
X134874500Y-83911304D01*
X134874500Y-84088695D01*
X134909103Y-84262658D01*
X134909106Y-84262667D01*
X134976983Y-84426540D01*
X134976990Y-84426553D01*
X135075535Y-84574034D01*
X135075538Y-84574038D01*
X135200961Y-84699461D01*
X135200965Y-84699464D01*
X135348446Y-84798009D01*
X135348459Y-84798016D01*
X135471363Y-84848923D01*
X135512334Y-84865894D01*
X135532594Y-84869924D01*
X135575118Y-84878383D01*
X135637028Y-84910768D01*
X135671603Y-84971484D01*
X135667863Y-85041253D01*
X135626996Y-85097925D01*
X135575118Y-85121617D01*
X135512340Y-85134104D01*
X135512332Y-85134106D01*
X135348459Y-85201983D01*
X135348446Y-85201990D01*
X135200965Y-85300535D01*
X135200961Y-85300538D01*
X135075538Y-85425961D01*
X135075535Y-85425965D01*
X134976990Y-85573446D01*
X134976983Y-85573459D01*
X134909106Y-85737332D01*
X134909103Y-85737341D01*
X134874500Y-85911304D01*
X134874500Y-86088695D01*
X134909103Y-86262658D01*
X134909106Y-86262667D01*
X134976983Y-86426540D01*
X134976990Y-86426553D01*
X135075535Y-86574034D01*
X135075538Y-86574038D01*
X135200961Y-86699461D01*
X135200965Y-86699464D01*
X135348446Y-86798009D01*
X135348459Y-86798016D01*
X135471363Y-86848923D01*
X135512334Y-86865894D01*
X135512336Y-86865894D01*
X135512341Y-86865896D01*
X135686304Y-86900499D01*
X135686307Y-86900500D01*
X135686309Y-86900500D01*
X136413693Y-86900500D01*
X136413694Y-86900499D01*
X136471682Y-86888964D01*
X136587658Y-86865896D01*
X136587661Y-86865894D01*
X136587666Y-86865894D01*
X136751547Y-86798013D01*
X136899035Y-86699464D01*
X137024464Y-86574035D01*
X137123013Y-86426547D01*
X137190894Y-86262666D01*
X137225500Y-86088691D01*
X137225500Y-85911309D01*
X137225500Y-85911306D01*
X137225499Y-85911304D01*
X137190896Y-85737341D01*
X137190893Y-85737332D01*
X137123016Y-85573459D01*
X137123009Y-85573446D01*
X137024464Y-85425965D01*
X137024461Y-85425961D01*
X136899038Y-85300538D01*
X136899034Y-85300535D01*
X136751553Y-85201990D01*
X136751540Y-85201983D01*
X136587667Y-85134106D01*
X136587658Y-85134103D01*
X136524882Y-85121617D01*
X136462971Y-85089232D01*
X136428397Y-85028517D01*
X136432136Y-84958747D01*
X136473003Y-84902075D01*
X136524882Y-84878383D01*
X136587658Y-84865896D01*
X136587661Y-84865894D01*
X136587666Y-84865894D01*
X136751547Y-84798013D01*
X136899035Y-84699464D01*
X137024464Y-84574035D01*
X137123013Y-84426547D01*
X137190894Y-84262666D01*
X137225500Y-84088691D01*
X137225500Y-83911309D01*
X137225500Y-83911306D01*
X137225499Y-83911304D01*
X137190896Y-83737341D01*
X137190893Y-83737332D01*
X137123016Y-83573459D01*
X137123009Y-83573446D01*
X137024464Y-83425965D01*
X137024461Y-83425961D01*
X136899038Y-83300538D01*
X136899034Y-83300535D01*
X136751553Y-83201990D01*
X136751541Y-83201983D01*
X136619718Y-83147382D01*
X136599627Y-83139060D01*
X136545224Y-83095221D01*
X136523159Y-83028927D01*
X136540438Y-82961227D01*
X136591575Y-82913617D01*
X136647080Y-82900500D01*
X136718097Y-82900500D01*
X136718102Y-82900500D01*
X136806564Y-82889877D01*
X136947342Y-82834361D01*
X137067922Y-82742922D01*
X137159361Y-82622342D01*
X137214877Y-82481564D01*
X137225500Y-82393102D01*
X137225500Y-81869448D01*
X140849500Y-81869448D01*
X140849500Y-82050551D01*
X140877829Y-82229410D01*
X140933787Y-82401636D01*
X140933788Y-82401639D01*
X141016006Y-82562997D01*
X141122441Y-82709494D01*
X141122445Y-82709499D01*
X141250500Y-82837554D01*
X141250505Y-82837558D01*
X141355193Y-82913617D01*
X141397006Y-82943996D01*
X141453908Y-82972989D01*
X141558360Y-83026211D01*
X141558363Y-83026212D01*
X141644476Y-83054191D01*
X141730591Y-83082171D01*
X141803639Y-83093740D01*
X141890678Y-83107527D01*
X141953813Y-83137456D01*
X141990744Y-83196768D01*
X141989746Y-83266631D01*
X141951136Y-83324863D01*
X141890678Y-83352473D01*
X141730589Y-83377829D01*
X141558363Y-83433787D01*
X141558360Y-83433788D01*
X141397002Y-83516006D01*
X141250505Y-83622441D01*
X141250500Y-83622445D01*
X141122445Y-83750500D01*
X141122441Y-83750505D01*
X141016006Y-83897002D01*
X140933788Y-84058360D01*
X140933787Y-84058363D01*
X140877829Y-84230589D01*
X140849500Y-84409448D01*
X140849500Y-84590551D01*
X140877829Y-84769410D01*
X140933787Y-84941636D01*
X140933788Y-84941639D01*
X140978056Y-85028517D01*
X141013421Y-85097925D01*
X141016006Y-85102997D01*
X141122441Y-85249494D01*
X141122445Y-85249499D01*
X141250500Y-85377554D01*
X141250505Y-85377558D01*
X141378287Y-85470396D01*
X141397006Y-85483996D01*
X141502484Y-85537740D01*
X141558360Y-85566211D01*
X141558363Y-85566212D01*
X141580668Y-85573459D01*
X141730591Y-85622171D01*
X141813429Y-85635291D01*
X141909449Y-85650500D01*
X141909454Y-85650500D01*
X142090551Y-85650500D01*
X142177259Y-85636765D01*
X142269409Y-85622171D01*
X142441639Y-85566211D01*
X142602994Y-85483996D01*
X142749501Y-85377553D01*
X142877553Y-85249501D01*
X142983996Y-85102994D01*
X143066211Y-84941639D01*
X143122171Y-84769409D01*
X143136765Y-84677259D01*
X143150500Y-84590551D01*
X143150500Y-84409448D01*
X143127250Y-84262658D01*
X143122171Y-84230591D01*
X143076067Y-84088695D01*
X143066212Y-84058363D01*
X143066211Y-84058360D01*
X143037740Y-84002484D01*
X142983996Y-83897006D01*
X142970396Y-83878287D01*
X142877558Y-83750505D01*
X142877554Y-83750500D01*
X142749499Y-83622445D01*
X142749494Y-83622441D01*
X142602997Y-83516006D01*
X142602996Y-83516005D01*
X142602994Y-83516004D01*
X142551300Y-83489664D01*
X142441639Y-83433788D01*
X142441636Y-83433787D01*
X142269410Y-83377829D01*
X142109321Y-83352473D01*
X142046186Y-83322544D01*
X142009255Y-83263232D01*
X142010253Y-83193370D01*
X142048863Y-83135137D01*
X142109321Y-83107527D01*
X142187014Y-83095221D01*
X142269409Y-83082171D01*
X142441639Y-83026211D01*
X142602994Y-82943996D01*
X142749501Y-82837553D01*
X142877553Y-82709501D01*
X142983996Y-82562994D01*
X143066211Y-82401639D01*
X143122171Y-82229409D01*
X143136765Y-82137259D01*
X143150500Y-82050551D01*
X143150500Y-81869448D01*
X143132458Y-81755541D01*
X143122171Y-81690591D01*
X143066236Y-81518438D01*
X143066212Y-81518363D01*
X143066211Y-81518360D01*
X143021846Y-81431290D01*
X142983996Y-81357006D01*
X142956728Y-81319475D01*
X142877558Y-81210505D01*
X142877554Y-81210500D01*
X142749499Y-81082445D01*
X142749494Y-81082441D01*
X142602997Y-80976006D01*
X142602996Y-80976005D01*
X142602994Y-80976004D01*
X142551300Y-80949664D01*
X142441639Y-80893788D01*
X142441636Y-80893787D01*
X142269410Y-80837829D01*
X142090551Y-80809500D01*
X142090546Y-80809500D01*
X141909454Y-80809500D01*
X141909449Y-80809500D01*
X141730589Y-80837829D01*
X141558363Y-80893787D01*
X141558360Y-80893788D01*
X141397002Y-80976006D01*
X141250505Y-81082441D01*
X141250500Y-81082445D01*
X141122445Y-81210500D01*
X141122441Y-81210505D01*
X141016006Y-81357002D01*
X140933788Y-81518360D01*
X140933787Y-81518363D01*
X140877829Y-81690589D01*
X140849500Y-81869448D01*
X137225500Y-81869448D01*
X137225500Y-81606898D01*
X137214877Y-81518436D01*
X137159361Y-81377658D01*
X137159360Y-81377657D01*
X137159360Y-81377656D01*
X137067922Y-81257077D01*
X136947343Y-81165639D01*
X136806561Y-81110122D01*
X136760926Y-81104642D01*
X136718102Y-81099500D01*
X135381898Y-81099500D01*
X135342853Y-81104188D01*
X135293438Y-81110122D01*
X135152656Y-81165639D01*
X135032077Y-81257077D01*
X134940639Y-81377656D01*
X134885122Y-81518438D01*
X134879188Y-81567853D01*
X134874500Y-81606898D01*
X130200501Y-81606898D01*
X130200501Y-75020943D01*
X131999500Y-75020943D01*
X131999500Y-75179057D01*
X132039693Y-75329057D01*
X132040423Y-75331783D01*
X132040426Y-75331790D01*
X132119475Y-75468709D01*
X132119479Y-75468714D01*
X132119480Y-75468716D01*
X132231284Y-75580520D01*
X132231286Y-75580521D01*
X132231290Y-75580524D01*
X132368209Y-75659573D01*
X132368216Y-75659577D01*
X132520943Y-75700500D01*
X132520945Y-75700500D01*
X132679055Y-75700500D01*
X132679057Y-75700500D01*
X132831784Y-75659577D01*
X132968716Y-75580520D01*
X133080520Y-75468716D01*
X133159577Y-75331784D01*
X133200500Y-75179057D01*
X133200500Y-75020943D01*
X133173705Y-74920943D01*
X148199500Y-74920943D01*
X148199500Y-75079057D01*
X148226295Y-75179055D01*
X148240423Y-75231783D01*
X148240426Y-75231790D01*
X148319475Y-75368709D01*
X148319479Y-75368714D01*
X148319480Y-75368716D01*
X148431284Y-75480520D01*
X148431286Y-75480521D01*
X148431290Y-75480524D01*
X148568209Y-75559573D01*
X148568216Y-75559577D01*
X148720943Y-75600500D01*
X148720945Y-75600500D01*
X148879055Y-75600500D01*
X148879057Y-75600500D01*
X149031784Y-75559577D01*
X149168716Y-75480520D01*
X149280520Y-75368716D01*
X149359577Y-75231784D01*
X149400500Y-75079057D01*
X149400500Y-74920943D01*
X149359577Y-74768216D01*
X149338258Y-74731290D01*
X149280524Y-74631290D01*
X149280518Y-74631282D01*
X149168717Y-74519481D01*
X149168709Y-74519475D01*
X149031790Y-74440426D01*
X149031786Y-74440424D01*
X149031784Y-74440423D01*
X148879057Y-74399500D01*
X148720943Y-74399500D01*
X148568216Y-74440423D01*
X148568209Y-74440426D01*
X148431290Y-74519475D01*
X148431282Y-74519481D01*
X148319481Y-74631282D01*
X148319475Y-74631290D01*
X148240426Y-74768209D01*
X148240423Y-74768216D01*
X148199500Y-74920943D01*
X133173705Y-74920943D01*
X133159577Y-74868216D01*
X133102573Y-74769481D01*
X133080524Y-74731290D01*
X133080518Y-74731282D01*
X132968717Y-74619481D01*
X132968709Y-74619475D01*
X132831790Y-74540426D01*
X132831786Y-74540424D01*
X132831784Y-74540423D01*
X132679057Y-74499500D01*
X132520943Y-74499500D01*
X132368216Y-74540423D01*
X132368209Y-74540426D01*
X132231290Y-74619475D01*
X132231282Y-74619481D01*
X132119481Y-74731282D01*
X132119475Y-74731290D01*
X132040426Y-74868209D01*
X132040423Y-74868216D01*
X131999500Y-75020943D01*
X130200501Y-75020943D01*
X130200500Y-66346898D01*
X134874500Y-66346898D01*
X134874500Y-67133102D01*
X134880126Y-67179954D01*
X134885122Y-67221561D01*
X134885122Y-67221563D01*
X134885123Y-67221564D01*
X134902722Y-67266192D01*
X134940639Y-67362343D01*
X135032077Y-67482922D01*
X135152656Y-67574360D01*
X135152657Y-67574360D01*
X135152658Y-67574361D01*
X135293436Y-67629877D01*
X135381898Y-67640500D01*
X135381903Y-67640500D01*
X135452920Y-67640500D01*
X135519959Y-67660185D01*
X135565714Y-67712989D01*
X135575658Y-67782147D01*
X135546633Y-67845703D01*
X135500372Y-67879060D01*
X135484134Y-67885786D01*
X135348458Y-67941983D01*
X135348446Y-67941990D01*
X135200965Y-68040535D01*
X135200961Y-68040538D01*
X135075538Y-68165961D01*
X135075535Y-68165965D01*
X134976990Y-68313446D01*
X134976983Y-68313459D01*
X134909106Y-68477332D01*
X134909103Y-68477341D01*
X134874500Y-68651304D01*
X134874500Y-68828695D01*
X134909103Y-69002658D01*
X134909106Y-69002667D01*
X134976983Y-69166540D01*
X134976990Y-69166553D01*
X135075535Y-69314034D01*
X135075538Y-69314038D01*
X135200961Y-69439461D01*
X135200965Y-69439464D01*
X135348446Y-69538009D01*
X135348459Y-69538016D01*
X135414289Y-69565283D01*
X135512334Y-69605894D01*
X135532594Y-69609924D01*
X135575118Y-69618383D01*
X135637028Y-69650768D01*
X135671603Y-69711484D01*
X135667863Y-69781253D01*
X135626996Y-69837925D01*
X135575118Y-69861617D01*
X135512340Y-69874104D01*
X135512332Y-69874106D01*
X135348459Y-69941983D01*
X135348446Y-69941990D01*
X135200965Y-70040535D01*
X135200961Y-70040538D01*
X135075538Y-70165961D01*
X135075535Y-70165965D01*
X134976990Y-70313446D01*
X134976983Y-70313459D01*
X134909106Y-70477332D01*
X134909103Y-70477341D01*
X134874500Y-70651304D01*
X134874500Y-70828695D01*
X134909103Y-71002658D01*
X134909106Y-71002667D01*
X134976983Y-71166540D01*
X134976990Y-71166553D01*
X135075535Y-71314034D01*
X135075538Y-71314038D01*
X135200961Y-71439461D01*
X135200965Y-71439464D01*
X135348446Y-71538009D01*
X135348459Y-71538016D01*
X135469571Y-71588181D01*
X135512334Y-71605894D01*
X135512336Y-71605894D01*
X135512341Y-71605896D01*
X135686304Y-71640499D01*
X135686307Y-71640500D01*
X135686309Y-71640500D01*
X136413693Y-71640500D01*
X136413694Y-71640499D01*
X136494128Y-71624500D01*
X136587658Y-71605896D01*
X136587661Y-71605894D01*
X136587666Y-71605894D01*
X136751547Y-71538013D01*
X136899035Y-71439464D01*
X137024464Y-71314035D01*
X137123013Y-71166547D01*
X137190894Y-71002666D01*
X137190993Y-71002171D01*
X137225499Y-70828695D01*
X137225500Y-70828693D01*
X137225500Y-70651306D01*
X137225499Y-70651304D01*
X137190896Y-70477341D01*
X137190893Y-70477332D01*
X137123016Y-70313459D01*
X137123009Y-70313446D01*
X137024464Y-70165965D01*
X137024461Y-70165961D01*
X136899038Y-70040538D01*
X136899034Y-70040535D01*
X136751553Y-69941990D01*
X136751540Y-69941983D01*
X136587667Y-69874106D01*
X136587658Y-69874103D01*
X136524882Y-69861617D01*
X136462971Y-69829232D01*
X136428397Y-69768517D01*
X136432136Y-69698747D01*
X136473003Y-69642075D01*
X136524882Y-69618383D01*
X136587658Y-69605896D01*
X136587661Y-69605894D01*
X136587666Y-69605894D01*
X136751547Y-69538013D01*
X136899035Y-69439464D01*
X137024464Y-69314035D01*
X137123013Y-69166547D01*
X137190894Y-69002666D01*
X137225500Y-68828691D01*
X137225500Y-68651309D01*
X137225500Y-68651306D01*
X137225499Y-68651304D01*
X137190896Y-68477341D01*
X137190893Y-68477332D01*
X137123016Y-68313459D01*
X137123009Y-68313446D01*
X137024464Y-68165965D01*
X137024461Y-68165961D01*
X136899038Y-68040538D01*
X136899034Y-68040535D01*
X136751553Y-67941990D01*
X136751541Y-67941983D01*
X136619718Y-67887382D01*
X136599627Y-67879060D01*
X136545224Y-67835221D01*
X136523159Y-67768927D01*
X136540438Y-67701227D01*
X136591575Y-67653617D01*
X136647080Y-67640500D01*
X136718097Y-67640500D01*
X136718102Y-67640500D01*
X136806564Y-67629877D01*
X136947342Y-67574361D01*
X137067922Y-67482922D01*
X137159361Y-67362342D01*
X137203881Y-67249448D01*
X139199500Y-67249448D01*
X139199500Y-67430551D01*
X139227829Y-67609410D01*
X139283787Y-67781636D01*
X139283788Y-67781639D01*
X139333428Y-67879061D01*
X139365492Y-67941990D01*
X139366006Y-67942997D01*
X139472441Y-68089494D01*
X139472445Y-68089499D01*
X139600500Y-68217554D01*
X139600505Y-68217558D01*
X139728287Y-68310396D01*
X139747006Y-68323996D01*
X139851438Y-68377207D01*
X139908360Y-68406211D01*
X139908363Y-68406212D01*
X139994476Y-68434191D01*
X140080591Y-68462171D01*
X140153639Y-68473740D01*
X140240678Y-68487527D01*
X140303813Y-68517456D01*
X140340744Y-68576768D01*
X140339746Y-68646631D01*
X140301136Y-68704863D01*
X140240678Y-68732473D01*
X140080589Y-68757829D01*
X139908363Y-68813787D01*
X139908360Y-68813788D01*
X139747002Y-68896006D01*
X139600505Y-69002441D01*
X139600500Y-69002445D01*
X139472445Y-69130500D01*
X139472441Y-69130505D01*
X139366006Y-69277002D01*
X139283788Y-69438360D01*
X139283787Y-69438363D01*
X139227829Y-69610589D01*
X139199500Y-69789448D01*
X139199500Y-69970551D01*
X139227829Y-70149410D01*
X139283787Y-70321636D01*
X139283788Y-70321639D01*
X139366006Y-70482997D01*
X139472441Y-70629494D01*
X139472445Y-70629499D01*
X139600500Y-70757554D01*
X139600505Y-70757558D01*
X139698415Y-70828693D01*
X139747006Y-70863996D01*
X139852484Y-70917740D01*
X139908360Y-70946211D01*
X139908363Y-70946212D01*
X139994476Y-70974191D01*
X140080591Y-71002171D01*
X140163429Y-71015291D01*
X140259449Y-71030500D01*
X140259454Y-71030500D01*
X140440551Y-71030500D01*
X140527259Y-71016765D01*
X140619409Y-71002171D01*
X140791639Y-70946211D01*
X140952994Y-70863996D01*
X141099501Y-70757553D01*
X141227553Y-70629501D01*
X141333996Y-70482994D01*
X141416211Y-70321639D01*
X141472171Y-70149409D01*
X141486765Y-70057259D01*
X141500500Y-69970551D01*
X141500500Y-69789448D01*
X141481000Y-69666331D01*
X141478629Y-69651362D01*
X151869500Y-69651362D01*
X151869500Y-70376000D01*
X151869501Y-70376009D01*
X151876481Y-70440935D01*
X151876483Y-70440947D01*
X151887688Y-70492453D01*
X151898644Y-70530654D01*
X151898646Y-70530658D01*
X151955323Y-70627568D01*
X151955325Y-70627571D01*
X152001081Y-70680376D01*
X152001091Y-70680387D01*
X152045807Y-70722548D01*
X152045809Y-70722549D01*
X152045813Y-70722553D01*
X152145889Y-70773439D01*
X152212928Y-70793124D01*
X152299000Y-70805500D01*
X152299003Y-70805500D01*
X155250990Y-70805500D01*
X155251000Y-70805500D01*
X155315941Y-70798518D01*
X155367452Y-70787312D01*
X155405658Y-70776354D01*
X155502571Y-70719675D01*
X155555375Y-70673920D01*
X155555382Y-70673912D01*
X155555387Y-70673908D01*
X155597259Y-70629499D01*
X155597553Y-70629187D01*
X155648439Y-70529111D01*
X155668124Y-70462072D01*
X155680500Y-70376000D01*
X155680500Y-69429500D01*
X155700185Y-69362461D01*
X155752989Y-69316706D01*
X155804500Y-69305500D01*
X158945500Y-69305500D01*
X159012539Y-69325185D01*
X159058294Y-69377989D01*
X159069500Y-69429500D01*
X159069500Y-72570500D01*
X159049815Y-72637539D01*
X158997011Y-72683294D01*
X158945500Y-72694500D01*
X157399000Y-72694500D01*
X157398991Y-72694500D01*
X157398990Y-72694501D01*
X157334064Y-72701481D01*
X157334052Y-72701483D01*
X157282546Y-72712688D01*
X157244345Y-72723644D01*
X157244341Y-72723646D01*
X157147431Y-72780323D01*
X157147428Y-72780325D01*
X157094623Y-72826081D01*
X157094612Y-72826091D01*
X157052451Y-72870807D01*
X157052445Y-72870816D01*
X157001560Y-72970890D01*
X156981877Y-73037921D01*
X156981876Y-73037928D01*
X156969500Y-73124000D01*
X156969500Y-76576000D01*
X156969501Y-76576009D01*
X156976481Y-76640935D01*
X156976483Y-76640947D01*
X156987688Y-76692453D01*
X156998644Y-76730654D01*
X156998646Y-76730658D01*
X157055323Y-76827568D01*
X157055325Y-76827571D01*
X157101081Y-76880376D01*
X157101091Y-76880387D01*
X157145807Y-76922548D01*
X157145809Y-76922549D01*
X157145813Y-76922553D01*
X157245889Y-76973439D01*
X157312928Y-76993124D01*
X157399000Y-77005500D01*
X157399003Y-77005500D01*
X158223639Y-77005500D01*
X158225559Y-77005397D01*
X158256297Y-77003749D01*
X158282655Y-77000915D01*
X158289660Y-77000080D01*
X158396407Y-76965297D01*
X158457730Y-76931812D01*
X158470099Y-76922553D01*
X158493342Y-76905152D01*
X158527340Y-76879702D01*
X162654702Y-72752340D01*
X162676558Y-72728008D01*
X162682251Y-72720943D01*
X164199500Y-72720943D01*
X164199500Y-72879057D01*
X164224107Y-72970889D01*
X164240423Y-73031783D01*
X164240426Y-73031790D01*
X164319475Y-73168709D01*
X164319479Y-73168714D01*
X164319480Y-73168716D01*
X164431284Y-73280520D01*
X164431286Y-73280521D01*
X164431290Y-73280524D01*
X164568209Y-73359573D01*
X164568216Y-73359577D01*
X164720943Y-73400500D01*
X164818101Y-73400500D01*
X164885140Y-73420185D01*
X164905782Y-73436819D01*
X165899525Y-74430562D01*
X165969438Y-74500475D01*
X166055062Y-74549910D01*
X166102811Y-74562705D01*
X166102812Y-74562705D01*
X166112903Y-74565408D01*
X166150564Y-74575500D01*
X166150565Y-74575500D01*
X180993101Y-74575500D01*
X181060140Y-74595185D01*
X181080782Y-74611819D01*
X188163181Y-81694218D01*
X188196666Y-81755541D01*
X188199500Y-81781899D01*
X188199500Y-81879056D01*
X188240423Y-82031783D01*
X188240426Y-82031790D01*
X188319475Y-82168709D01*
X188319479Y-82168714D01*
X188319480Y-82168716D01*
X188431284Y-82280520D01*
X188431286Y-82280521D01*
X188431290Y-82280524D01*
X188568209Y-82359573D01*
X188568216Y-82359577D01*
X188720943Y-82400500D01*
X188720945Y-82400500D01*
X188879055Y-82400500D01*
X188879057Y-82400500D01*
X189031784Y-82359577D01*
X189168716Y-82280520D01*
X189280520Y-82168716D01*
X189359577Y-82031784D01*
X189400500Y-81879057D01*
X189400500Y-81720943D01*
X189359577Y-81568216D01*
X189330795Y-81518363D01*
X189280524Y-81431290D01*
X189280518Y-81431282D01*
X189168717Y-81319481D01*
X189168709Y-81319475D01*
X189031790Y-81240426D01*
X189031786Y-81240424D01*
X189031784Y-81240423D01*
X188879057Y-81199500D01*
X188879056Y-81199500D01*
X188781899Y-81199500D01*
X188714860Y-81179815D01*
X188694218Y-81163181D01*
X181430563Y-73899526D01*
X181430562Y-73899525D01*
X181344938Y-73850090D01*
X181297186Y-73837295D01*
X181297184Y-73837294D01*
X181297182Y-73837293D01*
X181249436Y-73824500D01*
X181249435Y-73824500D01*
X166406899Y-73824500D01*
X166339860Y-73804815D01*
X166319218Y-73788181D01*
X165436819Y-72905782D01*
X165424386Y-72883013D01*
X165408670Y-72862367D01*
X165406401Y-72850077D01*
X165403334Y-72844459D01*
X165400891Y-72827941D01*
X165400500Y-72823029D01*
X165400500Y-72720943D01*
X165388937Y-72677792D01*
X165388038Y-72666490D01*
X165392962Y-72642942D01*
X165393535Y-72618893D01*
X165399984Y-72609364D01*
X165402340Y-72598100D01*
X165419213Y-72580952D01*
X165432698Y-72561030D01*
X165449636Y-72549269D01*
X165568716Y-72480520D01*
X165637417Y-72411819D01*
X165698740Y-72378334D01*
X165725098Y-72375500D01*
X181793101Y-72375500D01*
X181860140Y-72395185D01*
X181880782Y-72411819D01*
X188588181Y-79119218D01*
X188602884Y-79146145D01*
X188619477Y-79171964D01*
X188620368Y-79178164D01*
X188621666Y-79180541D01*
X188624500Y-79206899D01*
X188624500Y-79274902D01*
X188604815Y-79341941D01*
X188588181Y-79362583D01*
X188519481Y-79431282D01*
X188519475Y-79431290D01*
X188440426Y-79568209D01*
X188440423Y-79568216D01*
X188399500Y-79720943D01*
X188399500Y-79879056D01*
X188440423Y-80031783D01*
X188440426Y-80031790D01*
X188519475Y-80168709D01*
X188519479Y-80168714D01*
X188519480Y-80168716D01*
X188631284Y-80280520D01*
X188631286Y-80280521D01*
X188631290Y-80280524D01*
X188768209Y-80359573D01*
X188768216Y-80359577D01*
X188920943Y-80400500D01*
X188920945Y-80400500D01*
X189079055Y-80400500D01*
X189079057Y-80400500D01*
X189231784Y-80359577D01*
X189368716Y-80280520D01*
X189480520Y-80168716D01*
X189559577Y-80031784D01*
X189600500Y-79879057D01*
X189600500Y-79720943D01*
X189559577Y-79568216D01*
X189559573Y-79568209D01*
X189480524Y-79431290D01*
X189480518Y-79431282D01*
X189411819Y-79362583D01*
X189378334Y-79301260D01*
X189375500Y-79274902D01*
X189375500Y-78950567D01*
X189375500Y-78950565D01*
X189349910Y-78855062D01*
X189300475Y-78769438D01*
X189230562Y-78699525D01*
X182230563Y-71699526D01*
X182230562Y-71699525D01*
X182144938Y-71650090D01*
X182097186Y-71637295D01*
X182097184Y-71637294D01*
X182097182Y-71637293D01*
X182049436Y-71624500D01*
X182049435Y-71624500D01*
X165725098Y-71624500D01*
X165658059Y-71604815D01*
X165637417Y-71588181D01*
X165568717Y-71519481D01*
X165568709Y-71519475D01*
X165431790Y-71440426D01*
X165431786Y-71440424D01*
X165431784Y-71440423D01*
X165279057Y-71399500D01*
X165120943Y-71399500D01*
X164968216Y-71440423D01*
X164968209Y-71440426D01*
X164831290Y-71519475D01*
X164831282Y-71519481D01*
X164719481Y-71631282D01*
X164719475Y-71631290D01*
X164640426Y-71768209D01*
X164640423Y-71768216D01*
X164599500Y-71920943D01*
X164599500Y-72079056D01*
X164608128Y-72111259D01*
X164606463Y-72181108D01*
X164567299Y-72238970D01*
X164550352Y-72250736D01*
X164431287Y-72319477D01*
X164431282Y-72319481D01*
X164319481Y-72431282D01*
X164319475Y-72431290D01*
X164240426Y-72568209D01*
X164240423Y-72568216D01*
X164199500Y-72720943D01*
X162682251Y-72720943D01*
X162693192Y-72707366D01*
X162697553Y-72701825D01*
X162748439Y-72601749D01*
X162768124Y-72534710D01*
X162780500Y-72448638D01*
X162780500Y-70151362D01*
X162778749Y-70118703D01*
X162775915Y-70092345D01*
X162775080Y-70085340D01*
X162773092Y-70079239D01*
X162740299Y-69978598D01*
X162740295Y-69978588D01*
X162706810Y-69917266D01*
X162654710Y-69847670D01*
X162654705Y-69847665D01*
X162654702Y-69847660D01*
X162654698Y-69847656D01*
X162654692Y-69847649D01*
X159371114Y-66564071D01*
X162849499Y-66564071D01*
X162874497Y-66689738D01*
X162874499Y-66689744D01*
X162923533Y-66808124D01*
X162923538Y-66808133D01*
X162994723Y-66914668D01*
X162994726Y-66914672D01*
X163085327Y-67005273D01*
X163085331Y-67005276D01*
X163191866Y-67076461D01*
X163191872Y-67076464D01*
X163191873Y-67076465D01*
X163310256Y-67125501D01*
X163310260Y-67125501D01*
X163310261Y-67125502D01*
X163435928Y-67150500D01*
X163435931Y-67150500D01*
X163564071Y-67150500D01*
X163654448Y-67132522D01*
X163689744Y-67125501D01*
X163808127Y-67076465D01*
X163914669Y-67005276D01*
X164005276Y-66914669D01*
X164076465Y-66808127D01*
X164125501Y-66689744D01*
X164133682Y-66648615D01*
X164150500Y-66564071D01*
X164150500Y-66546093D01*
X164843169Y-66546093D01*
X164868167Y-66671760D01*
X164868169Y-66671766D01*
X164917203Y-66790146D01*
X164917208Y-66790155D01*
X164988393Y-66896690D01*
X164988396Y-66896694D01*
X165078997Y-66987295D01*
X165079001Y-66987298D01*
X165185536Y-67058483D01*
X165185542Y-67058486D01*
X165185543Y-67058487D01*
X165303926Y-67107523D01*
X165303930Y-67107523D01*
X165303931Y-67107524D01*
X165429598Y-67132522D01*
X165429601Y-67132522D01*
X165557741Y-67132522D01*
X165642285Y-67115704D01*
X165683414Y-67107523D01*
X165801797Y-67058487D01*
X165908339Y-66987298D01*
X165998946Y-66896691D01*
X166070135Y-66790149D01*
X166119171Y-66671766D01*
X166135336Y-66590500D01*
X166144170Y-66546093D01*
X166144170Y-66417950D01*
X166119172Y-66292283D01*
X166119171Y-66292282D01*
X166119171Y-66292278D01*
X166070135Y-66173895D01*
X166070134Y-66173894D01*
X166070131Y-66173888D01*
X165998946Y-66067353D01*
X165998943Y-66067349D01*
X165908342Y-65976748D01*
X165908338Y-65976745D01*
X165801803Y-65905560D01*
X165801794Y-65905555D01*
X165683414Y-65856521D01*
X165683408Y-65856519D01*
X165557741Y-65831522D01*
X165557739Y-65831522D01*
X165429601Y-65831522D01*
X165429599Y-65831522D01*
X165303931Y-65856519D01*
X165303925Y-65856521D01*
X165185545Y-65905555D01*
X165185536Y-65905560D01*
X165079001Y-65976745D01*
X165078997Y-65976748D01*
X164988396Y-66067349D01*
X164988393Y-66067353D01*
X164917208Y-66173888D01*
X164917203Y-66173897D01*
X164868169Y-66292277D01*
X164868167Y-66292283D01*
X164843170Y-66417950D01*
X164843170Y-66417953D01*
X164843170Y-66546091D01*
X164843170Y-66546093D01*
X164843169Y-66546093D01*
X164150500Y-66546093D01*
X164150500Y-66435928D01*
X164150499Y-66435926D01*
X164125502Y-66310261D01*
X164125501Y-66310260D01*
X164125501Y-66310256D01*
X164076465Y-66191873D01*
X164076464Y-66191872D01*
X164076461Y-66191866D01*
X164005276Y-66085331D01*
X164005273Y-66085327D01*
X163914672Y-65994726D01*
X163914668Y-65994723D01*
X163808133Y-65923538D01*
X163808124Y-65923533D01*
X163689744Y-65874499D01*
X163689738Y-65874497D01*
X163564071Y-65849500D01*
X163564069Y-65849500D01*
X163435931Y-65849500D01*
X163435929Y-65849500D01*
X163310261Y-65874497D01*
X163310255Y-65874499D01*
X163191875Y-65923533D01*
X163191866Y-65923538D01*
X163085331Y-65994723D01*
X163085327Y-65994726D01*
X162994726Y-66085327D01*
X162994723Y-66085331D01*
X162923538Y-66191866D01*
X162923533Y-66191875D01*
X162874499Y-66310255D01*
X162874497Y-66310261D01*
X162849500Y-66435928D01*
X162849500Y-66435931D01*
X162849500Y-66564069D01*
X162849500Y-66564071D01*
X162849499Y-66564071D01*
X159371114Y-66564071D01*
X158316819Y-65509776D01*
X158283334Y-65448453D01*
X158280500Y-65422095D01*
X158280500Y-64564071D01*
X162849499Y-64564071D01*
X162874497Y-64689738D01*
X162874499Y-64689744D01*
X162923533Y-64808124D01*
X162923538Y-64808133D01*
X162994723Y-64914668D01*
X162994726Y-64914672D01*
X163085327Y-65005273D01*
X163085331Y-65005276D01*
X163191866Y-65076461D01*
X163191872Y-65076464D01*
X163191873Y-65076465D01*
X163310256Y-65125501D01*
X163310260Y-65125501D01*
X163310261Y-65125502D01*
X163435928Y-65150500D01*
X163435931Y-65150500D01*
X163564071Y-65150500D01*
X163648615Y-65133682D01*
X163689744Y-65125501D01*
X163808127Y-65076465D01*
X163914669Y-65005276D01*
X164005276Y-64914669D01*
X164076465Y-64808127D01*
X164125501Y-64689744D01*
X164150500Y-64564071D01*
X164849499Y-64564071D01*
X164874497Y-64689738D01*
X164874499Y-64689744D01*
X164923533Y-64808124D01*
X164923538Y-64808133D01*
X164994723Y-64914668D01*
X164994726Y-64914672D01*
X165085327Y-65005273D01*
X165085331Y-65005276D01*
X165191866Y-65076461D01*
X165191872Y-65076464D01*
X165191873Y-65076465D01*
X165310256Y-65125501D01*
X165310260Y-65125501D01*
X165310261Y-65125502D01*
X165435928Y-65150500D01*
X165435931Y-65150500D01*
X165564071Y-65150500D01*
X165648615Y-65133682D01*
X165689744Y-65125501D01*
X165808127Y-65076465D01*
X165914669Y-65005276D01*
X166005276Y-64914669D01*
X166076465Y-64808127D01*
X166125501Y-64689744D01*
X166150500Y-64564069D01*
X166150500Y-64435931D01*
X166150500Y-64435928D01*
X166125502Y-64310261D01*
X166125501Y-64310260D01*
X166125501Y-64310256D01*
X166076465Y-64191873D01*
X166076464Y-64191872D01*
X166076461Y-64191866D01*
X166005276Y-64085331D01*
X166005273Y-64085327D01*
X165914672Y-63994726D01*
X165914668Y-63994723D01*
X165808133Y-63923538D01*
X165808124Y-63923533D01*
X165689744Y-63874499D01*
X165689738Y-63874497D01*
X165564071Y-63849500D01*
X165564069Y-63849500D01*
X165435931Y-63849500D01*
X165435929Y-63849500D01*
X165310261Y-63874497D01*
X165310255Y-63874499D01*
X165191875Y-63923533D01*
X165191866Y-63923538D01*
X165085331Y-63994723D01*
X165085327Y-63994726D01*
X164994726Y-64085327D01*
X164994723Y-64085331D01*
X164923538Y-64191866D01*
X164923533Y-64191875D01*
X164874499Y-64310255D01*
X164874497Y-64310261D01*
X164849500Y-64435928D01*
X164849500Y-64435931D01*
X164849500Y-64564069D01*
X164849500Y-64564071D01*
X164849499Y-64564071D01*
X164150500Y-64564071D01*
X164150500Y-64564069D01*
X164150500Y-64435931D01*
X164150500Y-64435928D01*
X164125502Y-64310261D01*
X164125501Y-64310260D01*
X164125501Y-64310256D01*
X164076465Y-64191873D01*
X164076464Y-64191872D01*
X164076461Y-64191866D01*
X164005276Y-64085331D01*
X164005273Y-64085327D01*
X163914672Y-63994726D01*
X163914668Y-63994723D01*
X163808133Y-63923538D01*
X163808124Y-63923533D01*
X163689744Y-63874499D01*
X163689738Y-63874497D01*
X163564071Y-63849500D01*
X163564069Y-63849500D01*
X163435931Y-63849500D01*
X163435929Y-63849500D01*
X163310261Y-63874497D01*
X163310255Y-63874499D01*
X163191875Y-63923533D01*
X163191866Y-63923538D01*
X163085331Y-63994723D01*
X163085327Y-63994726D01*
X162994726Y-64085327D01*
X162994723Y-64085331D01*
X162923538Y-64191866D01*
X162923533Y-64191875D01*
X162874499Y-64310255D01*
X162874497Y-64310261D01*
X162849500Y-64435928D01*
X162849500Y-64435931D01*
X162849500Y-64564069D01*
X162849500Y-64564071D01*
X162849499Y-64564071D01*
X158280500Y-64564071D01*
X158280500Y-63670943D01*
X177399500Y-63670943D01*
X177399500Y-63829057D01*
X177424816Y-63923535D01*
X177440423Y-63981783D01*
X177440426Y-63981790D01*
X177519475Y-64118709D01*
X177519479Y-64118714D01*
X177519480Y-64118716D01*
X177631284Y-64230520D01*
X177631286Y-64230521D01*
X177631290Y-64230524D01*
X177768209Y-64309573D01*
X177768216Y-64309577D01*
X177920943Y-64350500D01*
X177920945Y-64350500D01*
X178079055Y-64350500D01*
X178079057Y-64350500D01*
X178231784Y-64309577D01*
X178368716Y-64230520D01*
X178480520Y-64118716D01*
X178559577Y-63981784D01*
X178600500Y-63829057D01*
X178600500Y-63670943D01*
X179399500Y-63670943D01*
X179399500Y-63829057D01*
X179424816Y-63923535D01*
X179440423Y-63981783D01*
X179440426Y-63981790D01*
X179519475Y-64118709D01*
X179519479Y-64118714D01*
X179519480Y-64118716D01*
X179631284Y-64230520D01*
X179631286Y-64230521D01*
X179631290Y-64230524D01*
X179768209Y-64309573D01*
X179768216Y-64309577D01*
X179920943Y-64350500D01*
X179920945Y-64350500D01*
X180079055Y-64350500D01*
X180079057Y-64350500D01*
X180231784Y-64309577D01*
X180368716Y-64230520D01*
X180480520Y-64118716D01*
X180559577Y-63981784D01*
X180600500Y-63829057D01*
X180600500Y-63670943D01*
X181399500Y-63670943D01*
X181399500Y-63829057D01*
X181424816Y-63923535D01*
X181440423Y-63981783D01*
X181440426Y-63981790D01*
X181519475Y-64118709D01*
X181519479Y-64118714D01*
X181519480Y-64118716D01*
X181631284Y-64230520D01*
X181631286Y-64230521D01*
X181631290Y-64230524D01*
X181768209Y-64309573D01*
X181768216Y-64309577D01*
X181920943Y-64350500D01*
X181920945Y-64350500D01*
X182079055Y-64350500D01*
X182079057Y-64350500D01*
X182231784Y-64309577D01*
X182368716Y-64230520D01*
X182480520Y-64118716D01*
X182559577Y-63981784D01*
X182600500Y-63829057D01*
X182600500Y-63670943D01*
X183399500Y-63670943D01*
X183399500Y-63829057D01*
X183424816Y-63923535D01*
X183440423Y-63981783D01*
X183440426Y-63981790D01*
X183519475Y-64118709D01*
X183519479Y-64118714D01*
X183519480Y-64118716D01*
X183631284Y-64230520D01*
X183631286Y-64230521D01*
X183631290Y-64230524D01*
X183768209Y-64309573D01*
X183768216Y-64309577D01*
X183920943Y-64350500D01*
X183920945Y-64350500D01*
X184079055Y-64350500D01*
X184079057Y-64350500D01*
X184231784Y-64309577D01*
X184368716Y-64230520D01*
X184480520Y-64118716D01*
X184559577Y-63981784D01*
X184600500Y-63829057D01*
X184600500Y-63670943D01*
X185399500Y-63670943D01*
X185399500Y-63829057D01*
X185424816Y-63923535D01*
X185440423Y-63981783D01*
X185440426Y-63981790D01*
X185519475Y-64118709D01*
X185519479Y-64118714D01*
X185519480Y-64118716D01*
X185631284Y-64230520D01*
X185631286Y-64230521D01*
X185631290Y-64230524D01*
X185768209Y-64309573D01*
X185768216Y-64309577D01*
X185920943Y-64350500D01*
X185920945Y-64350500D01*
X186079055Y-64350500D01*
X186079057Y-64350500D01*
X186231784Y-64309577D01*
X186368716Y-64230520D01*
X186480520Y-64118716D01*
X186559577Y-63981784D01*
X186600500Y-63829057D01*
X186600500Y-63670943D01*
X186559577Y-63518216D01*
X186559573Y-63518209D01*
X186480524Y-63381290D01*
X186480518Y-63381282D01*
X186368717Y-63269481D01*
X186368709Y-63269475D01*
X186231790Y-63190426D01*
X186231786Y-63190424D01*
X186231784Y-63190423D01*
X186079057Y-63149500D01*
X185920943Y-63149500D01*
X185768216Y-63190423D01*
X185768209Y-63190426D01*
X185631290Y-63269475D01*
X185631282Y-63269481D01*
X185519481Y-63381282D01*
X185519475Y-63381290D01*
X185440426Y-63518209D01*
X185440423Y-63518216D01*
X185399500Y-63670943D01*
X184600500Y-63670943D01*
X184559577Y-63518216D01*
X184559573Y-63518209D01*
X184480524Y-63381290D01*
X184480518Y-63381282D01*
X184368717Y-63269481D01*
X184368709Y-63269475D01*
X184231790Y-63190426D01*
X184231786Y-63190424D01*
X184231784Y-63190423D01*
X184079057Y-63149500D01*
X183920943Y-63149500D01*
X183768216Y-63190423D01*
X183768209Y-63190426D01*
X183631290Y-63269475D01*
X183631282Y-63269481D01*
X183519481Y-63381282D01*
X183519475Y-63381290D01*
X183440426Y-63518209D01*
X183440423Y-63518216D01*
X183399500Y-63670943D01*
X182600500Y-63670943D01*
X182559577Y-63518216D01*
X182559573Y-63518209D01*
X182480524Y-63381290D01*
X182480518Y-63381282D01*
X182368717Y-63269481D01*
X182368709Y-63269475D01*
X182231790Y-63190426D01*
X182231786Y-63190424D01*
X182231784Y-63190423D01*
X182079057Y-63149500D01*
X181920943Y-63149500D01*
X181768216Y-63190423D01*
X181768209Y-63190426D01*
X181631290Y-63269475D01*
X181631282Y-63269481D01*
X181519481Y-63381282D01*
X181519475Y-63381290D01*
X181440426Y-63518209D01*
X181440423Y-63518216D01*
X181399500Y-63670943D01*
X180600500Y-63670943D01*
X180559577Y-63518216D01*
X180559573Y-63518209D01*
X180480524Y-63381290D01*
X180480518Y-63381282D01*
X180368717Y-63269481D01*
X180368709Y-63269475D01*
X180231790Y-63190426D01*
X180231786Y-63190424D01*
X180231784Y-63190423D01*
X180079057Y-63149500D01*
X179920943Y-63149500D01*
X179768216Y-63190423D01*
X179768209Y-63190426D01*
X179631290Y-63269475D01*
X179631282Y-63269481D01*
X179519481Y-63381282D01*
X179519475Y-63381290D01*
X179440426Y-63518209D01*
X179440423Y-63518216D01*
X179399500Y-63670943D01*
X178600500Y-63670943D01*
X178559577Y-63518216D01*
X178559573Y-63518209D01*
X178480524Y-63381290D01*
X178480518Y-63381282D01*
X178368717Y-63269481D01*
X178368709Y-63269475D01*
X178231790Y-63190426D01*
X178231786Y-63190424D01*
X178231784Y-63190423D01*
X178079057Y-63149500D01*
X177920943Y-63149500D01*
X177768216Y-63190423D01*
X177768209Y-63190426D01*
X177631290Y-63269475D01*
X177631282Y-63269481D01*
X177519481Y-63381282D01*
X177519475Y-63381290D01*
X177440426Y-63518209D01*
X177440423Y-63518216D01*
X177399500Y-63670943D01*
X158280500Y-63670943D01*
X158280500Y-63224010D01*
X158280500Y-63224000D01*
X158273518Y-63159059D01*
X158262312Y-63107548D01*
X158251354Y-63069342D01*
X158194675Y-62972429D01*
X158148920Y-62919625D01*
X158148918Y-62919623D01*
X158148908Y-62919612D01*
X158104192Y-62877451D01*
X158104189Y-62877449D01*
X158104187Y-62877447D01*
X158004111Y-62826561D01*
X158004110Y-62826560D01*
X158004109Y-62826560D01*
X157937078Y-62806877D01*
X157937072Y-62806876D01*
X157851000Y-62794500D01*
X157099000Y-62794500D01*
X157098991Y-62794500D01*
X157098990Y-62794501D01*
X157034064Y-62801481D01*
X157034052Y-62801483D01*
X156982546Y-62812688D01*
X156944345Y-62823644D01*
X156944341Y-62823646D01*
X156847431Y-62880323D01*
X156847428Y-62880325D01*
X156794623Y-62926081D01*
X156794612Y-62926091D01*
X156752451Y-62970807D01*
X156752445Y-62970816D01*
X156701560Y-63070890D01*
X156681877Y-63137921D01*
X156681876Y-63137928D01*
X156669502Y-63223990D01*
X156669500Y-63224002D01*
X156669500Y-64810310D01*
X156649815Y-64877349D01*
X156630844Y-64900267D01*
X152965961Y-68377207D01*
X152962949Y-68380102D01*
X152960619Y-68382371D01*
X152957827Y-68385129D01*
X151995311Y-69347646D01*
X151995295Y-69347663D01*
X151973440Y-69371993D01*
X151956775Y-69392674D01*
X151952448Y-69398172D01*
X151952447Y-69398174D01*
X151901560Y-69498252D01*
X151881877Y-69565283D01*
X151881876Y-69565290D01*
X151869500Y-69651362D01*
X141478629Y-69651362D01*
X141473405Y-69618383D01*
X141472171Y-69610591D01*
X141444191Y-69524476D01*
X141416212Y-69438363D01*
X141416211Y-69438360D01*
X141377538Y-69362461D01*
X141333996Y-69277006D01*
X141253748Y-69166553D01*
X141227558Y-69130505D01*
X141227554Y-69130500D01*
X141099499Y-69002445D01*
X141099494Y-69002441D01*
X140952997Y-68896006D01*
X140952996Y-68896005D01*
X140952994Y-68896004D01*
X140901300Y-68869664D01*
X140791639Y-68813788D01*
X140791636Y-68813787D01*
X140619410Y-68757829D01*
X140459321Y-68732473D01*
X140396186Y-68702544D01*
X140359255Y-68643232D01*
X140360253Y-68573370D01*
X140398863Y-68515137D01*
X140459321Y-68487527D01*
X140529425Y-68476422D01*
X140619409Y-68462171D01*
X140791639Y-68406211D01*
X140952994Y-68323996D01*
X141099501Y-68217553D01*
X141227553Y-68089501D01*
X141333996Y-67942994D01*
X141416211Y-67781639D01*
X141472171Y-67609409D01*
X141486765Y-67517259D01*
X141500500Y-67430551D01*
X141500500Y-67249448D01*
X141480868Y-67125500D01*
X141472171Y-67070591D01*
X141421510Y-66914669D01*
X141416212Y-66898363D01*
X141416211Y-66898360D01*
X141370234Y-66808127D01*
X141333996Y-66737006D01*
X141286592Y-66671760D01*
X141227558Y-66590505D01*
X141227554Y-66590500D01*
X141099499Y-66462445D01*
X141099494Y-66462441D01*
X140952997Y-66356006D01*
X140952996Y-66356005D01*
X140952994Y-66356004D01*
X140901300Y-66329664D01*
X140791639Y-66273788D01*
X140791636Y-66273787D01*
X140619410Y-66217829D01*
X140440551Y-66189500D01*
X140440546Y-66189500D01*
X140259454Y-66189500D01*
X140259449Y-66189500D01*
X140080589Y-66217829D01*
X139908363Y-66273787D01*
X139908360Y-66273788D01*
X139747002Y-66356006D01*
X139600505Y-66462441D01*
X139600500Y-66462445D01*
X139472445Y-66590500D01*
X139472441Y-66590505D01*
X139366006Y-66737002D01*
X139283788Y-66898360D01*
X139283787Y-66898363D01*
X139227829Y-67070589D01*
X139199500Y-67249448D01*
X137203881Y-67249448D01*
X137214877Y-67221564D01*
X137225500Y-67133102D01*
X137225500Y-66346898D01*
X137214877Y-66258436D01*
X137159361Y-66117658D01*
X137159360Y-66117657D01*
X137159360Y-66117656D01*
X137067922Y-65997077D01*
X136947343Y-65905639D01*
X136806561Y-65850122D01*
X136760926Y-65844642D01*
X136718102Y-65839500D01*
X135381898Y-65839500D01*
X135342853Y-65844188D01*
X135293438Y-65850122D01*
X135152656Y-65905639D01*
X135032077Y-65997077D01*
X134940639Y-66117656D01*
X134885122Y-66258438D01*
X134883279Y-66273788D01*
X134874500Y-66346898D01*
X130200500Y-66346898D01*
X130200500Y-62564071D01*
X162849499Y-62564071D01*
X162874497Y-62689738D01*
X162874499Y-62689744D01*
X162923533Y-62808124D01*
X162923538Y-62808133D01*
X162994723Y-62914668D01*
X162994726Y-62914672D01*
X163085327Y-63005273D01*
X163085331Y-63005276D01*
X163191866Y-63076461D01*
X163191872Y-63076464D01*
X163191873Y-63076465D01*
X163310256Y-63125501D01*
X163310260Y-63125501D01*
X163310261Y-63125502D01*
X163435928Y-63150500D01*
X163435931Y-63150500D01*
X163564071Y-63150500D01*
X163648615Y-63133682D01*
X163689744Y-63125501D01*
X163808127Y-63076465D01*
X163914669Y-63005276D01*
X164005276Y-62914669D01*
X164076465Y-62808127D01*
X164125501Y-62689744D01*
X164143253Y-62600500D01*
X164150500Y-62564071D01*
X164849499Y-62564071D01*
X164874497Y-62689738D01*
X164874499Y-62689744D01*
X164923533Y-62808124D01*
X164923538Y-62808133D01*
X164994723Y-62914668D01*
X164994726Y-62914672D01*
X165085327Y-63005273D01*
X165085331Y-63005276D01*
X165191866Y-63076461D01*
X165191872Y-63076464D01*
X165191873Y-63076465D01*
X165310256Y-63125501D01*
X165310260Y-63125501D01*
X165310261Y-63125502D01*
X165435928Y-63150500D01*
X165435931Y-63150500D01*
X165564071Y-63150500D01*
X165648615Y-63133682D01*
X165689744Y-63125501D01*
X165808127Y-63076465D01*
X165914669Y-63005276D01*
X166005276Y-62914669D01*
X166076465Y-62808127D01*
X166125501Y-62689744D01*
X166143253Y-62600500D01*
X166150500Y-62564071D01*
X166150500Y-62435928D01*
X166125502Y-62310261D01*
X166125501Y-62310260D01*
X166125501Y-62310256D01*
X166076465Y-62191873D01*
X166076464Y-62191872D01*
X166076461Y-62191866D01*
X166005276Y-62085331D01*
X166005273Y-62085327D01*
X165914672Y-61994726D01*
X165914668Y-61994723D01*
X165808133Y-61923538D01*
X165808124Y-61923533D01*
X165801871Y-61920943D01*
X177399500Y-61920943D01*
X177399500Y-62079057D01*
X177429730Y-62191875D01*
X177440423Y-62231783D01*
X177440426Y-62231790D01*
X177519475Y-62368709D01*
X177519479Y-62368714D01*
X177519480Y-62368716D01*
X177631284Y-62480520D01*
X177631286Y-62480521D01*
X177631290Y-62480524D01*
X177768209Y-62559573D01*
X177768216Y-62559577D01*
X177920943Y-62600500D01*
X177920945Y-62600500D01*
X178079055Y-62600500D01*
X178079057Y-62600500D01*
X178231784Y-62559577D01*
X178368716Y-62480520D01*
X178480520Y-62368716D01*
X178559577Y-62231784D01*
X178600500Y-62079057D01*
X178600500Y-61920943D01*
X179399500Y-61920943D01*
X179399500Y-62079057D01*
X179429730Y-62191875D01*
X179440423Y-62231783D01*
X179440426Y-62231790D01*
X179519475Y-62368709D01*
X179519479Y-62368714D01*
X179519480Y-62368716D01*
X179631284Y-62480520D01*
X179631286Y-62480521D01*
X179631290Y-62480524D01*
X179768209Y-62559573D01*
X179768216Y-62559577D01*
X179920943Y-62600500D01*
X179920945Y-62600500D01*
X180079055Y-62600500D01*
X180079057Y-62600500D01*
X180231784Y-62559577D01*
X180368716Y-62480520D01*
X180480520Y-62368716D01*
X180559577Y-62231784D01*
X180600500Y-62079057D01*
X180600500Y-61920943D01*
X181399500Y-61920943D01*
X181399500Y-62079057D01*
X181429730Y-62191875D01*
X181440423Y-62231783D01*
X181440426Y-62231790D01*
X181519475Y-62368709D01*
X181519479Y-62368714D01*
X181519480Y-62368716D01*
X181631284Y-62480520D01*
X181631286Y-62480521D01*
X181631290Y-62480524D01*
X181768209Y-62559573D01*
X181768216Y-62559577D01*
X181920943Y-62600500D01*
X181920945Y-62600500D01*
X182079055Y-62600500D01*
X182079057Y-62600500D01*
X182231784Y-62559577D01*
X182368716Y-62480520D01*
X182480520Y-62368716D01*
X182559577Y-62231784D01*
X182600500Y-62079057D01*
X182600500Y-61920943D01*
X183399500Y-61920943D01*
X183399500Y-62079057D01*
X183429730Y-62191875D01*
X183440423Y-62231783D01*
X183440426Y-62231790D01*
X183519475Y-62368709D01*
X183519479Y-62368714D01*
X183519480Y-62368716D01*
X183631284Y-62480520D01*
X183631286Y-62480521D01*
X183631290Y-62480524D01*
X183768209Y-62559573D01*
X183768216Y-62559577D01*
X183920943Y-62600500D01*
X183920945Y-62600500D01*
X184079055Y-62600500D01*
X184079057Y-62600500D01*
X184231784Y-62559577D01*
X184368716Y-62480520D01*
X184480520Y-62368716D01*
X184559577Y-62231784D01*
X184600500Y-62079057D01*
X184600500Y-61920943D01*
X184559577Y-61768216D01*
X184559573Y-61768209D01*
X184480524Y-61631290D01*
X184480518Y-61631282D01*
X184368717Y-61519481D01*
X184368709Y-61519475D01*
X184231790Y-61440426D01*
X184231786Y-61440424D01*
X184231784Y-61440423D01*
X184079057Y-61399500D01*
X183920943Y-61399500D01*
X183768216Y-61440423D01*
X183768209Y-61440426D01*
X183631290Y-61519475D01*
X183631282Y-61519481D01*
X183519481Y-61631282D01*
X183519475Y-61631290D01*
X183440426Y-61768209D01*
X183440423Y-61768216D01*
X183399500Y-61920943D01*
X182600500Y-61920943D01*
X182559577Y-61768216D01*
X182559573Y-61768209D01*
X182480524Y-61631290D01*
X182480518Y-61631282D01*
X182368717Y-61519481D01*
X182368709Y-61519475D01*
X182231790Y-61440426D01*
X182231786Y-61440424D01*
X182231784Y-61440423D01*
X182079057Y-61399500D01*
X181920943Y-61399500D01*
X181768216Y-61440423D01*
X181768209Y-61440426D01*
X181631290Y-61519475D01*
X181631282Y-61519481D01*
X181519481Y-61631282D01*
X181519475Y-61631290D01*
X181440426Y-61768209D01*
X181440423Y-61768216D01*
X181399500Y-61920943D01*
X180600500Y-61920943D01*
X180559577Y-61768216D01*
X180559573Y-61768209D01*
X180480524Y-61631290D01*
X180480518Y-61631282D01*
X180368717Y-61519481D01*
X180368709Y-61519475D01*
X180231790Y-61440426D01*
X180231786Y-61440424D01*
X180231784Y-61440423D01*
X180079057Y-61399500D01*
X179920943Y-61399500D01*
X179768216Y-61440423D01*
X179768209Y-61440426D01*
X179631290Y-61519475D01*
X179631282Y-61519481D01*
X179519481Y-61631282D01*
X179519475Y-61631290D01*
X179440426Y-61768209D01*
X179440423Y-61768216D01*
X179399500Y-61920943D01*
X178600500Y-61920943D01*
X178559577Y-61768216D01*
X178559573Y-61768209D01*
X178480524Y-61631290D01*
X178480518Y-61631282D01*
X178368717Y-61519481D01*
X178368709Y-61519475D01*
X178231790Y-61440426D01*
X178231786Y-61440424D01*
X178231784Y-61440423D01*
X178079057Y-61399500D01*
X177920943Y-61399500D01*
X177768216Y-61440423D01*
X177768209Y-61440426D01*
X177631290Y-61519475D01*
X177631282Y-61519481D01*
X177519481Y-61631282D01*
X177519475Y-61631290D01*
X177440426Y-61768209D01*
X177440423Y-61768216D01*
X177399500Y-61920943D01*
X165801871Y-61920943D01*
X165689744Y-61874499D01*
X165689738Y-61874497D01*
X165564071Y-61849500D01*
X165564069Y-61849500D01*
X165435931Y-61849500D01*
X165435929Y-61849500D01*
X165310261Y-61874497D01*
X165310255Y-61874499D01*
X165191875Y-61923533D01*
X165191866Y-61923538D01*
X165085331Y-61994723D01*
X165085327Y-61994726D01*
X164994726Y-62085327D01*
X164994723Y-62085331D01*
X164923538Y-62191866D01*
X164923533Y-62191875D01*
X164874499Y-62310255D01*
X164874497Y-62310261D01*
X164849500Y-62435928D01*
X164849500Y-62435931D01*
X164849500Y-62564069D01*
X164849500Y-62564071D01*
X164849499Y-62564071D01*
X164150500Y-62564071D01*
X164150500Y-62435928D01*
X164125502Y-62310261D01*
X164125501Y-62310260D01*
X164125501Y-62310256D01*
X164076465Y-62191873D01*
X164076464Y-62191872D01*
X164076461Y-62191866D01*
X164005276Y-62085331D01*
X164005273Y-62085327D01*
X163914672Y-61994726D01*
X163914668Y-61994723D01*
X163808133Y-61923538D01*
X163808124Y-61923533D01*
X163689744Y-61874499D01*
X163689738Y-61874497D01*
X163564071Y-61849500D01*
X163564069Y-61849500D01*
X163435931Y-61849500D01*
X163435929Y-61849500D01*
X163310261Y-61874497D01*
X163310255Y-61874499D01*
X163191875Y-61923533D01*
X163191866Y-61923538D01*
X163085331Y-61994723D01*
X163085327Y-61994726D01*
X162994726Y-62085327D01*
X162994723Y-62085331D01*
X162923538Y-62191866D01*
X162923533Y-62191875D01*
X162874499Y-62310255D01*
X162874497Y-62310261D01*
X162849500Y-62435928D01*
X162849500Y-62435931D01*
X162849500Y-62564069D01*
X162849500Y-62564071D01*
X162849499Y-62564071D01*
X130200500Y-62564071D01*
X130200500Y-60420943D01*
X171899500Y-60420943D01*
X171899500Y-60579056D01*
X171940423Y-60731783D01*
X171940426Y-60731790D01*
X172019475Y-60868709D01*
X172019479Y-60868714D01*
X172019480Y-60868716D01*
X172131284Y-60980520D01*
X172131286Y-60980521D01*
X172131290Y-60980524D01*
X172268209Y-61059573D01*
X172268216Y-61059577D01*
X172420943Y-61100500D01*
X172420945Y-61100500D01*
X172579055Y-61100500D01*
X172579057Y-61100500D01*
X172731784Y-61059577D01*
X172868716Y-60980520D01*
X172980520Y-60868716D01*
X173059577Y-60731784D01*
X173100500Y-60579057D01*
X173100500Y-60420943D01*
X173073705Y-60320943D01*
X177399500Y-60320943D01*
X177399500Y-60479057D01*
X177426295Y-60579055D01*
X177440423Y-60631783D01*
X177440426Y-60631790D01*
X177519475Y-60768709D01*
X177519479Y-60768714D01*
X177519480Y-60768716D01*
X177631284Y-60880520D01*
X177631286Y-60880521D01*
X177631290Y-60880524D01*
X177768209Y-60959573D01*
X177768216Y-60959577D01*
X177920943Y-61000500D01*
X177920945Y-61000500D01*
X178079055Y-61000500D01*
X178079057Y-61000500D01*
X178231784Y-60959577D01*
X178368716Y-60880520D01*
X178480520Y-60768716D01*
X178559577Y-60631784D01*
X178600500Y-60479057D01*
X178600500Y-60320943D01*
X179399500Y-60320943D01*
X179399500Y-60479057D01*
X179426295Y-60579055D01*
X179440423Y-60631783D01*
X179440426Y-60631790D01*
X179519475Y-60768709D01*
X179519479Y-60768714D01*
X179519480Y-60768716D01*
X179631284Y-60880520D01*
X179631286Y-60880521D01*
X179631290Y-60880524D01*
X179768209Y-60959573D01*
X179768216Y-60959577D01*
X179920943Y-61000500D01*
X179920945Y-61000500D01*
X180079055Y-61000500D01*
X180079057Y-61000500D01*
X180231784Y-60959577D01*
X180368716Y-60880520D01*
X180480520Y-60768716D01*
X180559577Y-60631784D01*
X180600500Y-60479057D01*
X180600500Y-60320943D01*
X181399500Y-60320943D01*
X181399500Y-60479057D01*
X181426295Y-60579055D01*
X181440423Y-60631783D01*
X181440426Y-60631790D01*
X181519475Y-60768709D01*
X181519479Y-60768714D01*
X181519480Y-60768716D01*
X181631284Y-60880520D01*
X181631286Y-60880521D01*
X181631290Y-60880524D01*
X181768209Y-60959573D01*
X181768216Y-60959577D01*
X181920943Y-61000500D01*
X181920945Y-61000500D01*
X182079055Y-61000500D01*
X182079057Y-61000500D01*
X182231784Y-60959577D01*
X182368716Y-60880520D01*
X182480520Y-60768716D01*
X182559577Y-60631784D01*
X182600500Y-60479057D01*
X182600500Y-60320943D01*
X182559577Y-60168216D01*
X182538258Y-60131290D01*
X182480524Y-60031290D01*
X182480518Y-60031282D01*
X182368717Y-59919481D01*
X182368709Y-59919475D01*
X182231790Y-59840426D01*
X182231786Y-59840424D01*
X182231784Y-59840423D01*
X182079057Y-59799500D01*
X181920943Y-59799500D01*
X181768216Y-59840423D01*
X181768209Y-59840426D01*
X181631290Y-59919475D01*
X181631282Y-59919481D01*
X181519481Y-60031282D01*
X181519475Y-60031290D01*
X181440426Y-60168209D01*
X181440423Y-60168216D01*
X181399500Y-60320943D01*
X180600500Y-60320943D01*
X180559577Y-60168216D01*
X180538258Y-60131290D01*
X180480524Y-60031290D01*
X180480518Y-60031282D01*
X180368717Y-59919481D01*
X180368709Y-59919475D01*
X180231790Y-59840426D01*
X180231786Y-59840424D01*
X180231784Y-59840423D01*
X180079057Y-59799500D01*
X179920943Y-59799500D01*
X179768216Y-59840423D01*
X179768209Y-59840426D01*
X179631290Y-59919475D01*
X179631282Y-59919481D01*
X179519481Y-60031282D01*
X179519475Y-60031290D01*
X179440426Y-60168209D01*
X179440423Y-60168216D01*
X179399500Y-60320943D01*
X178600500Y-60320943D01*
X178559577Y-60168216D01*
X178538258Y-60131290D01*
X178480524Y-60031290D01*
X178480518Y-60031282D01*
X178368717Y-59919481D01*
X178368709Y-59919475D01*
X178231790Y-59840426D01*
X178231786Y-59840424D01*
X178231784Y-59840423D01*
X178079057Y-59799500D01*
X177920943Y-59799500D01*
X177768216Y-59840423D01*
X177768209Y-59840426D01*
X177631290Y-59919475D01*
X177631282Y-59919481D01*
X177519481Y-60031282D01*
X177519475Y-60031290D01*
X177440426Y-60168209D01*
X177440423Y-60168216D01*
X177399500Y-60320943D01*
X173073705Y-60320943D01*
X173059577Y-60268216D01*
X173002132Y-60168717D01*
X172980524Y-60131290D01*
X172980518Y-60131282D01*
X172868717Y-60019481D01*
X172868709Y-60019475D01*
X172731790Y-59940426D01*
X172731786Y-59940424D01*
X172731784Y-59940423D01*
X172579057Y-59899500D01*
X172420943Y-59899500D01*
X172268216Y-59940423D01*
X172268209Y-59940426D01*
X172131290Y-60019475D01*
X172131282Y-60019481D01*
X172019481Y-60131282D01*
X172019475Y-60131290D01*
X171940426Y-60268209D01*
X171940423Y-60268216D01*
X171899500Y-60420943D01*
X130200500Y-60420943D01*
X130200500Y-59720943D01*
X131899500Y-59720943D01*
X131899500Y-59879057D01*
X131940289Y-60031282D01*
X131940423Y-60031783D01*
X131940426Y-60031790D01*
X132019475Y-60168709D01*
X132019479Y-60168714D01*
X132019480Y-60168716D01*
X132131284Y-60280520D01*
X132131286Y-60280521D01*
X132131290Y-60280524D01*
X132242810Y-60344909D01*
X132268216Y-60359577D01*
X132420943Y-60400500D01*
X132420945Y-60400500D01*
X132579055Y-60400500D01*
X132579057Y-60400500D01*
X132731784Y-60359577D01*
X132868716Y-60280520D01*
X132980520Y-60168716D01*
X133059577Y-60031784D01*
X133100500Y-59879057D01*
X133100500Y-59720943D01*
X133059577Y-59568216D01*
X133059573Y-59568209D01*
X132980524Y-59431290D01*
X132980518Y-59431282D01*
X132868717Y-59319481D01*
X132868709Y-59319475D01*
X132731790Y-59240426D01*
X132731786Y-59240424D01*
X132731784Y-59240423D01*
X132579057Y-59199500D01*
X132420943Y-59199500D01*
X132268216Y-59240423D01*
X132268209Y-59240426D01*
X132131290Y-59319475D01*
X132131282Y-59319481D01*
X132019481Y-59431282D01*
X132019475Y-59431290D01*
X131940426Y-59568209D01*
X131940423Y-59568216D01*
X131899500Y-59720943D01*
X130200500Y-59720943D01*
X130200500Y-57272149D01*
X193549500Y-57272149D01*
X193549500Y-57527850D01*
X193575457Y-57725007D01*
X193582874Y-57781340D01*
X193649050Y-58028312D01*
X193649053Y-58028322D01*
X193746894Y-58264531D01*
X193746899Y-58264542D01*
X193874734Y-58485957D01*
X193874745Y-58485973D01*
X194030388Y-58688811D01*
X194030394Y-58688818D01*
X194211181Y-58869605D01*
X194211187Y-58869610D01*
X194414035Y-59025261D01*
X194414042Y-59025265D01*
X194635457Y-59153100D01*
X194635462Y-59153102D01*
X194635465Y-59153104D01*
X194747475Y-59199500D01*
X194846279Y-59240426D01*
X194871687Y-59250950D01*
X195118660Y-59317126D01*
X195372157Y-59350500D01*
X195372164Y-59350500D01*
X195627836Y-59350500D01*
X195627843Y-59350500D01*
X195881340Y-59317126D01*
X196128313Y-59250950D01*
X196364535Y-59153104D01*
X196585965Y-59025261D01*
X196788813Y-58869610D01*
X196969610Y-58688813D01*
X197125261Y-58485965D01*
X197253104Y-58264535D01*
X197350950Y-58028313D01*
X197417126Y-57781340D01*
X197450500Y-57527843D01*
X197450500Y-57272157D01*
X197417126Y-57018660D01*
X197350950Y-56771687D01*
X197327332Y-56714669D01*
X197253105Y-56535468D01*
X197253100Y-56535457D01*
X197125265Y-56314042D01*
X197125261Y-56314035D01*
X197065327Y-56235928D01*
X196969611Y-56111188D01*
X196969605Y-56111181D01*
X196788818Y-55930394D01*
X196788811Y-55930388D01*
X196585973Y-55774745D01*
X196585971Y-55774743D01*
X196585965Y-55774739D01*
X196585960Y-55774736D01*
X196585957Y-55774734D01*
X196364542Y-55646899D01*
X196364531Y-55646894D01*
X196128322Y-55549053D01*
X196128315Y-55549051D01*
X196128313Y-55549050D01*
X195881340Y-55482874D01*
X195825007Y-55475457D01*
X195627850Y-55449500D01*
X195627843Y-55449500D01*
X195372157Y-55449500D01*
X195372149Y-55449500D01*
X195146826Y-55479165D01*
X195118660Y-55482874D01*
X194871687Y-55549050D01*
X194871677Y-55549053D01*
X194635468Y-55646894D01*
X194635457Y-55646899D01*
X194414042Y-55774734D01*
X194414026Y-55774745D01*
X194211188Y-55930388D01*
X194211181Y-55930394D01*
X194030394Y-56111181D01*
X194030388Y-56111188D01*
X193874745Y-56314026D01*
X193874734Y-56314042D01*
X193746899Y-56535457D01*
X193746894Y-56535468D01*
X193649053Y-56771677D01*
X193649050Y-56771687D01*
X193601138Y-56950500D01*
X193582874Y-57018661D01*
X193549500Y-57272149D01*
X130200500Y-57272149D01*
X130200500Y-54624743D01*
X130200500Y-51106898D01*
X134874500Y-51106898D01*
X134874500Y-51893102D01*
X134880126Y-51939954D01*
X134885122Y-51981561D01*
X134885122Y-51981563D01*
X134885123Y-51981564D01*
X134902722Y-52026192D01*
X134940639Y-52122343D01*
X135032077Y-52242922D01*
X135152656Y-52334360D01*
X135152657Y-52334360D01*
X135152658Y-52334361D01*
X135293436Y-52389877D01*
X135381898Y-52400500D01*
X135381903Y-52400500D01*
X135452920Y-52400500D01*
X135519959Y-52420185D01*
X135565714Y-52472989D01*
X135575658Y-52542147D01*
X135546633Y-52605703D01*
X135500372Y-52639060D01*
X135484134Y-52645786D01*
X135348458Y-52701983D01*
X135348446Y-52701990D01*
X135200965Y-52800535D01*
X135200961Y-52800538D01*
X135075538Y-52925961D01*
X135075535Y-52925965D01*
X134976990Y-53073446D01*
X134976983Y-53073459D01*
X134909106Y-53237332D01*
X134909103Y-53237341D01*
X134874500Y-53411304D01*
X134874500Y-53588695D01*
X134909103Y-53762658D01*
X134909106Y-53762667D01*
X134976983Y-53926540D01*
X134976990Y-53926553D01*
X135075535Y-54074034D01*
X135075538Y-54074038D01*
X135200961Y-54199461D01*
X135200965Y-54199464D01*
X135348446Y-54298009D01*
X135348459Y-54298016D01*
X135471363Y-54348923D01*
X135512334Y-54365894D01*
X135532594Y-54369924D01*
X135575118Y-54378383D01*
X135637028Y-54410768D01*
X135671603Y-54471484D01*
X135667863Y-54541253D01*
X135626996Y-54597925D01*
X135575118Y-54621617D01*
X135512340Y-54634104D01*
X135512332Y-54634106D01*
X135348459Y-54701983D01*
X135348446Y-54701990D01*
X135200965Y-54800535D01*
X135200961Y-54800538D01*
X135075538Y-54925961D01*
X135075535Y-54925965D01*
X134976990Y-55073446D01*
X134976983Y-55073459D01*
X134909106Y-55237332D01*
X134909103Y-55237341D01*
X134874500Y-55411304D01*
X134874500Y-55588695D01*
X134909103Y-55762658D01*
X134909106Y-55762667D01*
X134976983Y-55926540D01*
X134976990Y-55926553D01*
X135075535Y-56074034D01*
X135075538Y-56074038D01*
X135200961Y-56199461D01*
X135200965Y-56199464D01*
X135348446Y-56298009D01*
X135348459Y-56298016D01*
X135471363Y-56348923D01*
X135512334Y-56365894D01*
X135512336Y-56365894D01*
X135512341Y-56365896D01*
X135686304Y-56400499D01*
X135686307Y-56400500D01*
X135686309Y-56400500D01*
X136413693Y-56400500D01*
X136413694Y-56400499D01*
X136471682Y-56388964D01*
X136587658Y-56365896D01*
X136587661Y-56365894D01*
X136587666Y-56365894D01*
X136751547Y-56298013D01*
X136899035Y-56199464D01*
X137024464Y-56074035D01*
X137123013Y-55926547D01*
X137190894Y-55762666D01*
X137190993Y-55762171D01*
X137225499Y-55588695D01*
X137225500Y-55588693D01*
X137225500Y-55411306D01*
X137225499Y-55411304D01*
X137190896Y-55237341D01*
X137190893Y-55237332D01*
X137181505Y-55214668D01*
X137137378Y-55108133D01*
X137123016Y-55073459D01*
X137123009Y-55073446D01*
X137024464Y-54925965D01*
X137024461Y-54925961D01*
X136899038Y-54800538D01*
X136899034Y-54800535D01*
X136751553Y-54701990D01*
X136751540Y-54701983D01*
X136587667Y-54634106D01*
X136587658Y-54634103D01*
X136524882Y-54621617D01*
X136462971Y-54589232D01*
X136428397Y-54528517D01*
X136432136Y-54458747D01*
X136473003Y-54402075D01*
X136524882Y-54378383D01*
X136587658Y-54365896D01*
X136587661Y-54365894D01*
X136587666Y-54365894D01*
X136751547Y-54298013D01*
X136899035Y-54199464D01*
X137024464Y-54074035D01*
X137123013Y-53926547D01*
X137190894Y-53762666D01*
X137193371Y-53750216D01*
X137221634Y-53608127D01*
X137225500Y-53588691D01*
X137225500Y-53411309D01*
X137225500Y-53411306D01*
X137225499Y-53411304D01*
X137190896Y-53237341D01*
X137190893Y-53237332D01*
X137190311Y-53235928D01*
X137173923Y-53196363D01*
X137123016Y-53073459D01*
X137123009Y-53073446D01*
X137024464Y-52925965D01*
X137024461Y-52925961D01*
X136899038Y-52800538D01*
X136899034Y-52800535D01*
X136751553Y-52701990D01*
X136751541Y-52701983D01*
X136619718Y-52647382D01*
X136599627Y-52639060D01*
X136545224Y-52595221D01*
X136523159Y-52528927D01*
X136540438Y-52461227D01*
X136591575Y-52413617D01*
X136647080Y-52400500D01*
X136718097Y-52400500D01*
X136718102Y-52400500D01*
X136806564Y-52389877D01*
X136947342Y-52334361D01*
X137067922Y-52242922D01*
X137159361Y-52122342D01*
X137203881Y-52009448D01*
X139199500Y-52009448D01*
X139199500Y-52190551D01*
X139227829Y-52369410D01*
X139283787Y-52541636D01*
X139283788Y-52541639D01*
X139333428Y-52639061D01*
X139365492Y-52701990D01*
X139366006Y-52702997D01*
X139472441Y-52849494D01*
X139472445Y-52849499D01*
X139600500Y-52977554D01*
X139600505Y-52977558D01*
X139728287Y-53070396D01*
X139747006Y-53083996D01*
X139826976Y-53124743D01*
X139908360Y-53166211D01*
X139908363Y-53166212D01*
X139971276Y-53186653D01*
X140080591Y-53222171D01*
X140153639Y-53233740D01*
X140240678Y-53247527D01*
X140303813Y-53277456D01*
X140340744Y-53336768D01*
X140339746Y-53406631D01*
X140301136Y-53464863D01*
X140240678Y-53492473D01*
X140080589Y-53517829D01*
X139908363Y-53573787D01*
X139908360Y-53573788D01*
X139747002Y-53656006D01*
X139600505Y-53762441D01*
X139600500Y-53762445D01*
X139472445Y-53890500D01*
X139472441Y-53890505D01*
X139366006Y-54037002D01*
X139283788Y-54198360D01*
X139283787Y-54198363D01*
X139227829Y-54370589D01*
X139199500Y-54549448D01*
X139199500Y-54730551D01*
X139227829Y-54909410D01*
X139283787Y-55081636D01*
X139283788Y-55081639D01*
X139366006Y-55242997D01*
X139472441Y-55389494D01*
X139472445Y-55389499D01*
X139600500Y-55517554D01*
X139600505Y-55517558D01*
X139698415Y-55588693D01*
X139747006Y-55623996D01*
X139840467Y-55671617D01*
X139908360Y-55706211D01*
X139908363Y-55706212D01*
X139994476Y-55734191D01*
X140080591Y-55762171D01*
X140163429Y-55775291D01*
X140259449Y-55790500D01*
X140259454Y-55790500D01*
X140440551Y-55790500D01*
X140527259Y-55776765D01*
X140619409Y-55762171D01*
X140791639Y-55706211D01*
X140952994Y-55623996D01*
X141099501Y-55517553D01*
X141227553Y-55389501D01*
X141333996Y-55242994D01*
X141416211Y-55081639D01*
X141472171Y-54909409D01*
X141486765Y-54817259D01*
X141500500Y-54730551D01*
X141500500Y-54549448D01*
X141478534Y-54410768D01*
X141472171Y-54370591D01*
X141442905Y-54280518D01*
X141416212Y-54198363D01*
X141416211Y-54198360D01*
X141386083Y-54139232D01*
X141333996Y-54037006D01*
X141278607Y-53960769D01*
X141227558Y-53890505D01*
X141227554Y-53890500D01*
X141099499Y-53762445D01*
X141099494Y-53762441D01*
X140952997Y-53656006D01*
X140952996Y-53656005D01*
X140952994Y-53656004D01*
X140901300Y-53629664D01*
X140791639Y-53573788D01*
X140791636Y-53573787D01*
X140619410Y-53517829D01*
X140459321Y-53492473D01*
X140396186Y-53462544D01*
X140359255Y-53403232D01*
X140359814Y-53364071D01*
X149349499Y-53364071D01*
X149374497Y-53489738D01*
X149374499Y-53489744D01*
X149423533Y-53608124D01*
X149423538Y-53608133D01*
X149494723Y-53714668D01*
X149494726Y-53714672D01*
X149585327Y-53805273D01*
X149585331Y-53805276D01*
X149691866Y-53876461D01*
X149691875Y-53876466D01*
X149718692Y-53887574D01*
X149810256Y-53925501D01*
X149810258Y-53925501D01*
X149810260Y-53925502D01*
X149824743Y-53928383D01*
X149886653Y-53960769D01*
X149921227Y-54021485D01*
X149917486Y-54091254D01*
X149876619Y-54147926D01*
X149824743Y-54171617D01*
X149810260Y-54174497D01*
X149810255Y-54174499D01*
X149691875Y-54223533D01*
X149691866Y-54223538D01*
X149585331Y-54294723D01*
X149585327Y-54294726D01*
X149494726Y-54385327D01*
X149494723Y-54385331D01*
X149423538Y-54491866D01*
X149423533Y-54491875D01*
X149374499Y-54610255D01*
X149374497Y-54610261D01*
X149349500Y-54735928D01*
X149349500Y-54735931D01*
X149349500Y-54864069D01*
X149349500Y-54864071D01*
X149349499Y-54864071D01*
X149374497Y-54989738D01*
X149374499Y-54989744D01*
X149423533Y-55108124D01*
X149423538Y-55108133D01*
X149494723Y-55214668D01*
X149494726Y-55214672D01*
X149585327Y-55305273D01*
X149585331Y-55305276D01*
X149691866Y-55376461D01*
X149691872Y-55376464D01*
X149691873Y-55376465D01*
X149810256Y-55425501D01*
X149810260Y-55425501D01*
X149810261Y-55425502D01*
X149935928Y-55450500D01*
X149935931Y-55450500D01*
X150064071Y-55450500D01*
X150148615Y-55433682D01*
X150189744Y-55425501D01*
X150308127Y-55376465D01*
X150414669Y-55305276D01*
X150505276Y-55214669D01*
X150576465Y-55108127D01*
X150625501Y-54989744D01*
X150628383Y-54975257D01*
X150660768Y-54913347D01*
X150721484Y-54878772D01*
X150791253Y-54882512D01*
X150847925Y-54923379D01*
X150871617Y-54975257D01*
X150874497Y-54989738D01*
X150874499Y-54989744D01*
X150923533Y-55108124D01*
X150923538Y-55108133D01*
X150994723Y-55214668D01*
X150994726Y-55214672D01*
X151085327Y-55305273D01*
X151085331Y-55305276D01*
X151191866Y-55376461D01*
X151191872Y-55376464D01*
X151191873Y-55376465D01*
X151310256Y-55425501D01*
X151310260Y-55425501D01*
X151310261Y-55425502D01*
X151435928Y-55450500D01*
X151435931Y-55450500D01*
X151564071Y-55450500D01*
X151648615Y-55433682D01*
X151689744Y-55425501D01*
X151808127Y-55376465D01*
X151914669Y-55305276D01*
X152005276Y-55214669D01*
X152076465Y-55108127D01*
X152125501Y-54989744D01*
X152128383Y-54975257D01*
X152160768Y-54913347D01*
X152221484Y-54878772D01*
X152291253Y-54882512D01*
X152347925Y-54923379D01*
X152371617Y-54975257D01*
X152374497Y-54989738D01*
X152374499Y-54989744D01*
X152423533Y-55108124D01*
X152423538Y-55108133D01*
X152494723Y-55214668D01*
X152494726Y-55214672D01*
X152585327Y-55305273D01*
X152585331Y-55305276D01*
X152691866Y-55376461D01*
X152691872Y-55376464D01*
X152691873Y-55376465D01*
X152810256Y-55425501D01*
X152810258Y-55425501D01*
X152810260Y-55425502D01*
X152824743Y-55428383D01*
X152886653Y-55460769D01*
X152921227Y-55521485D01*
X152917486Y-55591254D01*
X152876619Y-55647926D01*
X152824743Y-55671617D01*
X152810260Y-55674497D01*
X152810255Y-55674499D01*
X152691875Y-55723533D01*
X152691866Y-55723538D01*
X152585331Y-55794723D01*
X152585327Y-55794726D01*
X152494726Y-55885327D01*
X152494723Y-55885331D01*
X152423538Y-55991866D01*
X152423533Y-55991875D01*
X152374499Y-56110255D01*
X152374497Y-56110261D01*
X152349500Y-56235928D01*
X152349500Y-56235931D01*
X152349500Y-56364069D01*
X152349500Y-56364071D01*
X152349499Y-56364071D01*
X152374497Y-56489738D01*
X152374499Y-56489744D01*
X152423533Y-56608124D01*
X152423538Y-56608133D01*
X152494723Y-56714668D01*
X152494726Y-56714672D01*
X152585327Y-56805273D01*
X152585331Y-56805276D01*
X152691866Y-56876461D01*
X152691872Y-56876464D01*
X152691873Y-56876465D01*
X152810256Y-56925501D01*
X152810260Y-56925501D01*
X152810261Y-56925502D01*
X152935928Y-56950500D01*
X152935931Y-56950500D01*
X153064071Y-56950500D01*
X153148615Y-56933682D01*
X153189744Y-56925501D01*
X153308127Y-56876465D01*
X153414669Y-56805276D01*
X153505276Y-56714669D01*
X153576465Y-56608127D01*
X153625501Y-56489744D01*
X153643253Y-56400500D01*
X153650500Y-56364071D01*
X153650500Y-56235928D01*
X153625502Y-56110261D01*
X153625501Y-56110260D01*
X153625501Y-56110256D01*
X153576465Y-55991873D01*
X153576464Y-55991872D01*
X153576461Y-55991866D01*
X153505276Y-55885331D01*
X153505273Y-55885327D01*
X153414672Y-55794726D01*
X153414668Y-55794723D01*
X153308133Y-55723538D01*
X153308124Y-55723533D01*
X153189744Y-55674499D01*
X153189738Y-55674497D01*
X153175257Y-55671617D01*
X153113347Y-55639232D01*
X153078772Y-55578516D01*
X153082512Y-55508747D01*
X153123379Y-55452075D01*
X153175257Y-55428383D01*
X153183784Y-55426686D01*
X153189744Y-55425501D01*
X153308127Y-55376465D01*
X153414669Y-55305276D01*
X153505276Y-55214669D01*
X153576465Y-55108127D01*
X153625501Y-54989744D01*
X153641481Y-54909409D01*
X153650500Y-54864071D01*
X153650500Y-54735928D01*
X153625502Y-54610261D01*
X153625501Y-54610260D01*
X153625501Y-54610256D01*
X153576465Y-54491873D01*
X153576464Y-54491872D01*
X153576461Y-54491866D01*
X153505276Y-54385331D01*
X153505273Y-54385327D01*
X153414672Y-54294726D01*
X153414668Y-54294723D01*
X153308133Y-54223538D01*
X153308124Y-54223533D01*
X153189744Y-54174499D01*
X153189738Y-54174497D01*
X153064071Y-54149500D01*
X153064069Y-54149500D01*
X152935931Y-54149500D01*
X152935929Y-54149500D01*
X152810261Y-54174497D01*
X152810255Y-54174499D01*
X152691875Y-54223533D01*
X152691866Y-54223538D01*
X152585331Y-54294723D01*
X152585327Y-54294726D01*
X152494726Y-54385327D01*
X152494723Y-54385331D01*
X152423538Y-54491866D01*
X152423533Y-54491875D01*
X152374499Y-54610255D01*
X152374497Y-54610260D01*
X152371617Y-54624743D01*
X152339231Y-54686653D01*
X152278515Y-54721227D01*
X152208746Y-54717486D01*
X152152074Y-54676619D01*
X152128383Y-54624743D01*
X152125502Y-54610260D01*
X152125501Y-54610258D01*
X152125501Y-54610256D01*
X152076465Y-54491873D01*
X152076464Y-54491872D01*
X152076461Y-54491866D01*
X152005276Y-54385331D01*
X152005273Y-54385327D01*
X151914672Y-54294726D01*
X151914668Y-54294723D01*
X151808133Y-54223538D01*
X151808124Y-54223533D01*
X151689744Y-54174499D01*
X151689738Y-54174497D01*
X151675257Y-54171617D01*
X151613347Y-54139232D01*
X151578772Y-54078516D01*
X151582512Y-54008747D01*
X151623379Y-53952075D01*
X151675257Y-53928383D01*
X151684455Y-53926553D01*
X151689744Y-53925501D01*
X151808127Y-53876465D01*
X151914669Y-53805276D01*
X151999002Y-53720943D01*
X171499500Y-53720943D01*
X171499500Y-53879057D01*
X171537664Y-54021485D01*
X171540423Y-54031783D01*
X171540426Y-54031790D01*
X171619475Y-54168709D01*
X171619479Y-54168714D01*
X171619480Y-54168716D01*
X171731284Y-54280520D01*
X171731286Y-54280521D01*
X171731290Y-54280524D01*
X171761588Y-54298016D01*
X171868216Y-54359577D01*
X172020943Y-54400500D01*
X172020945Y-54400500D01*
X172179055Y-54400500D01*
X172179057Y-54400500D01*
X172331784Y-54359577D01*
X172468716Y-54280520D01*
X172580520Y-54168716D01*
X172659577Y-54031784D01*
X172700500Y-53879057D01*
X172700500Y-53817255D01*
X172720185Y-53750216D01*
X172736819Y-53729574D01*
X174229574Y-52236819D01*
X174290897Y-52203334D01*
X174317255Y-52200500D01*
X176199902Y-52200500D01*
X176266941Y-52220185D01*
X176287583Y-52236819D01*
X176331284Y-52280520D01*
X176331286Y-52280521D01*
X176331290Y-52280524D01*
X176424538Y-52334360D01*
X176468216Y-52359577D01*
X176620943Y-52400500D01*
X176620945Y-52400500D01*
X176779055Y-52400500D01*
X176779057Y-52400500D01*
X176931784Y-52359577D01*
X177068716Y-52280520D01*
X177180520Y-52168716D01*
X177259577Y-52031784D01*
X177300500Y-51879057D01*
X177300500Y-51720943D01*
X177259577Y-51568216D01*
X177259573Y-51568209D01*
X177180524Y-51431290D01*
X177180518Y-51431282D01*
X177068717Y-51319481D01*
X177068709Y-51319475D01*
X176931790Y-51240426D01*
X176931786Y-51240424D01*
X176931784Y-51240423D01*
X176779057Y-51199500D01*
X176620943Y-51199500D01*
X176468216Y-51240423D01*
X176468209Y-51240426D01*
X176331290Y-51319475D01*
X176331282Y-51319481D01*
X176287583Y-51363181D01*
X176226260Y-51396666D01*
X176199902Y-51399500D01*
X174047273Y-51399500D01*
X173945410Y-51426793D01*
X173854087Y-51479520D01*
X173854084Y-51479522D01*
X172170426Y-53163181D01*
X172109103Y-53196666D01*
X172082745Y-53199500D01*
X172020943Y-53199500D01*
X171868216Y-53240423D01*
X171868209Y-53240426D01*
X171731290Y-53319475D01*
X171731282Y-53319481D01*
X171619481Y-53431282D01*
X171619475Y-53431290D01*
X171540426Y-53568209D01*
X171540423Y-53568216D01*
X171499500Y-53720943D01*
X151999002Y-53720943D01*
X152005276Y-53714669D01*
X152034058Y-53671592D01*
X152052546Y-53643925D01*
X152076461Y-53608133D01*
X152076461Y-53608132D01*
X152076465Y-53608127D01*
X152125501Y-53489744D01*
X152142710Y-53403232D01*
X152150500Y-53364071D01*
X152150500Y-53235928D01*
X152125502Y-53110261D01*
X152125501Y-53110260D01*
X152125501Y-53110256D01*
X152076465Y-52991873D01*
X152076464Y-52991872D01*
X152076461Y-52991866D01*
X152005276Y-52885331D01*
X152005273Y-52885327D01*
X151914672Y-52794726D01*
X151914668Y-52794723D01*
X151808133Y-52723538D01*
X151808124Y-52723533D01*
X151689744Y-52674499D01*
X151689738Y-52674497D01*
X151564071Y-52649500D01*
X151564069Y-52649500D01*
X151435931Y-52649500D01*
X151435929Y-52649500D01*
X151310261Y-52674497D01*
X151310255Y-52674499D01*
X151191875Y-52723533D01*
X151191866Y-52723538D01*
X151085331Y-52794723D01*
X151085327Y-52794726D01*
X150994726Y-52885327D01*
X150994723Y-52885331D01*
X150923538Y-52991866D01*
X150923533Y-52991875D01*
X150874499Y-53110255D01*
X150874497Y-53110260D01*
X150871617Y-53124743D01*
X150839231Y-53186653D01*
X150778515Y-53221227D01*
X150708746Y-53217486D01*
X150652074Y-53176619D01*
X150628383Y-53124743D01*
X150625502Y-53110260D01*
X150625501Y-53110258D01*
X150625501Y-53110256D01*
X150576465Y-52991873D01*
X150576464Y-52991872D01*
X150576461Y-52991866D01*
X150505276Y-52885331D01*
X150505273Y-52885327D01*
X150414672Y-52794726D01*
X150414668Y-52794723D01*
X150308133Y-52723538D01*
X150308124Y-52723533D01*
X150189744Y-52674499D01*
X150189738Y-52674497D01*
X150064071Y-52649500D01*
X150064069Y-52649500D01*
X149935931Y-52649500D01*
X149935929Y-52649500D01*
X149810261Y-52674497D01*
X149810255Y-52674499D01*
X149691875Y-52723533D01*
X149691866Y-52723538D01*
X149585331Y-52794723D01*
X149585327Y-52794726D01*
X149494726Y-52885327D01*
X149494723Y-52885331D01*
X149423538Y-52991866D01*
X149423533Y-52991875D01*
X149374499Y-53110255D01*
X149374497Y-53110261D01*
X149349500Y-53235928D01*
X149349500Y-53235931D01*
X149349500Y-53364069D01*
X149349500Y-53364071D01*
X149349499Y-53364071D01*
X140359814Y-53364071D01*
X140360253Y-53333370D01*
X140398863Y-53275137D01*
X140459321Y-53247527D01*
X140532550Y-53235928D01*
X140619409Y-53222171D01*
X140791639Y-53166211D01*
X140952994Y-53083996D01*
X141099501Y-52977553D01*
X141227553Y-52849501D01*
X141333996Y-52702994D01*
X141416211Y-52541639D01*
X141472171Y-52369409D01*
X141487669Y-52271558D01*
X141500500Y-52190551D01*
X141500500Y-52009448D01*
X141479847Y-51879055D01*
X141472171Y-51830591D01*
X141444191Y-51744476D01*
X141416212Y-51658363D01*
X141416211Y-51658360D01*
X141387740Y-51602484D01*
X141333996Y-51497006D01*
X141286251Y-51431290D01*
X141227558Y-51350505D01*
X141227554Y-51350500D01*
X141099499Y-51222445D01*
X141099494Y-51222441D01*
X140952997Y-51116006D01*
X140952996Y-51116005D01*
X140952994Y-51116004D01*
X140901300Y-51089664D01*
X140791639Y-51033788D01*
X140791636Y-51033787D01*
X140619410Y-50977829D01*
X140440551Y-50949500D01*
X140440546Y-50949500D01*
X140259454Y-50949500D01*
X140259449Y-50949500D01*
X140080589Y-50977829D01*
X139908363Y-51033787D01*
X139908360Y-51033788D01*
X139747002Y-51116006D01*
X139600505Y-51222441D01*
X139600500Y-51222445D01*
X139472445Y-51350500D01*
X139472441Y-51350505D01*
X139366006Y-51497002D01*
X139283788Y-51658360D01*
X139283787Y-51658363D01*
X139227829Y-51830589D01*
X139199500Y-52009448D01*
X137203881Y-52009448D01*
X137214877Y-51981564D01*
X137225500Y-51893102D01*
X137225500Y-51106898D01*
X137214877Y-51018436D01*
X137159361Y-50877658D01*
X137159360Y-50877657D01*
X137159360Y-50877656D01*
X137067922Y-50757077D01*
X136947343Y-50665639D01*
X136806561Y-50610122D01*
X136760926Y-50604642D01*
X136718102Y-50599500D01*
X135381898Y-50599500D01*
X135342853Y-50604188D01*
X135293438Y-50610122D01*
X135152656Y-50665639D01*
X135032077Y-50757077D01*
X134940639Y-50877656D01*
X134885122Y-51018438D01*
X134879188Y-51067853D01*
X134874500Y-51106898D01*
X130200500Y-51106898D01*
X130200500Y-51103192D01*
X130200500Y-48386474D01*
X189194500Y-48386474D01*
X189194500Y-50687789D01*
X189195124Y-50700500D01*
X189195970Y-50717731D01*
X189198349Y-50741889D01*
X189198354Y-50741931D01*
X189202749Y-50771564D01*
X189218391Y-50850209D01*
X189218392Y-50850210D01*
X189218393Y-50850215D01*
X189226717Y-50877656D01*
X189235779Y-50907530D01*
X189254287Y-50952212D01*
X189254288Y-50952215D01*
X189282520Y-51005033D01*
X189320147Y-51061345D01*
X189320157Y-51061359D01*
X189358149Y-51107652D01*
X189392345Y-51141848D01*
X189392350Y-51141852D01*
X189392352Y-51141854D01*
X189438647Y-51179847D01*
X189494963Y-51217476D01*
X189494967Y-51217478D01*
X189494975Y-51217483D01*
X189547776Y-51245705D01*
X189547782Y-51245708D01*
X189592480Y-51264222D01*
X189649787Y-51281606D01*
X189728420Y-51297247D01*
X189728435Y-51297249D01*
X189728444Y-51297251D01*
X189746144Y-51299875D01*
X189758071Y-51301645D01*
X189782262Y-51304028D01*
X189812211Y-51305500D01*
X198322097Y-51305500D01*
X198389136Y-51325185D01*
X198409777Y-51341818D01*
X199687474Y-52619516D01*
X199709685Y-52639647D01*
X199728475Y-52655068D01*
X199752558Y-52672930D01*
X199819224Y-52717475D01*
X199872043Y-52745707D01*
X199916743Y-52764222D01*
X199974051Y-52781606D01*
X199974054Y-52781606D01*
X199974055Y-52781607D01*
X199990485Y-52784875D01*
X200052684Y-52797247D01*
X200052699Y-52797249D01*
X200052708Y-52797251D01*
X200070408Y-52799875D01*
X200082335Y-52801645D01*
X200106526Y-52804028D01*
X200136475Y-52805500D01*
X200136488Y-52805500D01*
X207187776Y-52805500D01*
X207187789Y-52805500D01*
X207217738Y-52804028D01*
X207241929Y-52801645D01*
X207271581Y-52797247D01*
X207350213Y-52781606D01*
X207407517Y-52764223D01*
X207452216Y-52745709D01*
X207505036Y-52717477D01*
X207561348Y-52679851D01*
X207607644Y-52641857D01*
X207641857Y-52607644D01*
X207679851Y-52561348D01*
X207717477Y-52505036D01*
X207739047Y-52467157D01*
X207754279Y-52435319D01*
X207761552Y-52418893D01*
X207762045Y-52416488D01*
X207764839Y-52405481D01*
X207781606Y-52350213D01*
X207797247Y-52271581D01*
X207801645Y-52241929D01*
X207804028Y-52217738D01*
X207805500Y-52187789D01*
X207805500Y-49081902D01*
X209999500Y-49081902D01*
X209999500Y-49318097D01*
X210036446Y-49551368D01*
X210109433Y-49775996D01*
X210216657Y-49986433D01*
X210355483Y-50177510D01*
X210522490Y-50344517D01*
X210713567Y-50483343D01*
X210812991Y-50534002D01*
X210924003Y-50590566D01*
X210924005Y-50590566D01*
X210924008Y-50590568D01*
X210984189Y-50610122D01*
X211148631Y-50663553D01*
X211381903Y-50700500D01*
X211381908Y-50700500D01*
X211618097Y-50700500D01*
X211851368Y-50663553D01*
X212075992Y-50590568D01*
X212286433Y-50483343D01*
X212477510Y-50344517D01*
X212644517Y-50177510D01*
X212783343Y-49986433D01*
X212890568Y-49775992D01*
X212963553Y-49551368D01*
X213000500Y-49318097D01*
X213000500Y-49081902D01*
X212963553Y-48848631D01*
X212890566Y-48624003D01*
X212783342Y-48413566D01*
X212644517Y-48222490D01*
X212477510Y-48055483D01*
X212286433Y-47916657D01*
X212075996Y-47809433D01*
X211851368Y-47736446D01*
X211618097Y-47699500D01*
X211618092Y-47699500D01*
X211381908Y-47699500D01*
X211381903Y-47699500D01*
X211148631Y-47736446D01*
X210924003Y-47809433D01*
X210713566Y-47916657D01*
X210604550Y-47995862D01*
X210522490Y-48055483D01*
X210522488Y-48055485D01*
X210522487Y-48055485D01*
X210355485Y-48222487D01*
X210355485Y-48222488D01*
X210355483Y-48222490D01*
X210335939Y-48249390D01*
X210216657Y-48413566D01*
X210109433Y-48624003D01*
X210036446Y-48848631D01*
X209999500Y-49081902D01*
X207805500Y-49081902D01*
X207805500Y-45812210D01*
X207804028Y-45782261D01*
X207801645Y-45758070D01*
X207797247Y-45728418D01*
X207781606Y-45649786D01*
X207764223Y-45592482D01*
X207764220Y-45592476D01*
X207764219Y-45592471D01*
X207745711Y-45547789D01*
X207745709Y-45547783D01*
X207717476Y-45494961D01*
X207679846Y-45438644D01*
X207653105Y-45404221D01*
X207653099Y-45404214D01*
X207653094Y-45404208D01*
X207629538Y-45377984D01*
X207629524Y-45377969D01*
X207617144Y-45364976D01*
X207615135Y-45363615D01*
X207606018Y-45356808D01*
X207561359Y-45320157D01*
X207561358Y-45320156D01*
X207561354Y-45320153D01*
X207505036Y-45282522D01*
X207505035Y-45282521D01*
X207505033Y-45282520D01*
X207460049Y-45258475D01*
X207452217Y-45254289D01*
X207442091Y-45250095D01*
X207407530Y-45235779D01*
X207407527Y-45235778D01*
X207350215Y-45218393D01*
X207350210Y-45218392D01*
X207350209Y-45218391D01*
X207271564Y-45202749D01*
X207241931Y-45198354D01*
X207241889Y-45198349D01*
X207217731Y-45195970D01*
X207206082Y-45195398D01*
X207187789Y-45194500D01*
X194636475Y-45194500D01*
X194619144Y-45195351D01*
X194606533Y-45195970D01*
X194582380Y-45198348D01*
X194582363Y-45198350D01*
X194582358Y-45198351D01*
X194572367Y-45199832D01*
X194552703Y-45202749D01*
X194474047Y-45218394D01*
X194474045Y-45218394D01*
X194416734Y-45235779D01*
X194372041Y-45254292D01*
X194319235Y-45282517D01*
X194252553Y-45327073D01*
X194228476Y-45344929D01*
X194228475Y-45344929D01*
X194209693Y-45360343D01*
X194187489Y-45380467D01*
X194187486Y-45380470D01*
X193909776Y-45658181D01*
X193848453Y-45691666D01*
X193822095Y-45694500D01*
X191886475Y-45694500D01*
X191869144Y-45695351D01*
X191856533Y-45695970D01*
X191832351Y-45698351D01*
X191802695Y-45702749D01*
X191724043Y-45718393D01*
X191681986Y-45729932D01*
X191681977Y-45729935D01*
X191648725Y-45741668D01*
X191632008Y-45748124D01*
X191629989Y-45749455D01*
X191620223Y-45755265D01*
X191569232Y-45782520D01*
X191569227Y-45782523D01*
X191502548Y-45827076D01*
X191478471Y-45844933D01*
X191478459Y-45844942D01*
X191459698Y-45860340D01*
X191459694Y-45860343D01*
X191437481Y-45880475D01*
X189380475Y-47937481D01*
X189360343Y-47959694D01*
X189360340Y-47959698D01*
X189344942Y-47978459D01*
X189344933Y-47978471D01*
X189327076Y-48002548D01*
X189282516Y-48069237D01*
X189254292Y-48122041D01*
X189235780Y-48166731D01*
X189218394Y-48224046D01*
X189218394Y-48224048D01*
X189202746Y-48302720D01*
X189198353Y-48332342D01*
X189198348Y-48332383D01*
X189195971Y-48356520D01*
X189195970Y-48356536D01*
X189195970Y-48356537D01*
X189194500Y-48386474D01*
X130200500Y-48386474D01*
X130200500Y-44502870D01*
X130200632Y-44497144D01*
X130202344Y-44460118D01*
X130208550Y-44325875D01*
X131399500Y-44325875D01*
X131399500Y-44674124D01*
X131438489Y-45020158D01*
X131438491Y-45020170D01*
X131515982Y-45359684D01*
X131515985Y-45359692D01*
X131630999Y-45688382D01*
X131782092Y-46002130D01*
X131967371Y-46296999D01*
X131967372Y-46297001D01*
X132184487Y-46569256D01*
X132430743Y-46815512D01*
X132702998Y-47032627D01*
X132703001Y-47032628D01*
X132703003Y-47032630D01*
X132997867Y-47217906D01*
X133311621Y-47369002D01*
X133558488Y-47455384D01*
X133640307Y-47484014D01*
X133640315Y-47484017D01*
X133640318Y-47484017D01*
X133640319Y-47484018D01*
X133979829Y-47561509D01*
X134325876Y-47600499D01*
X134325877Y-47600500D01*
X134325880Y-47600500D01*
X134674123Y-47600500D01*
X134674123Y-47600499D01*
X135020171Y-47561509D01*
X135359681Y-47484018D01*
X135688379Y-47369002D01*
X136002133Y-47217906D01*
X136296997Y-47032630D01*
X136481493Y-46885500D01*
X136569256Y-46815512D01*
X136569258Y-46815509D01*
X136569263Y-46815506D01*
X136815506Y-46569263D01*
X136857968Y-46516018D01*
X136981468Y-46361153D01*
X151679500Y-46361153D01*
X151679500Y-47618846D01*
X151710261Y-47773489D01*
X151710264Y-47773501D01*
X151770602Y-47919172D01*
X151770609Y-47919185D01*
X151858210Y-48050288D01*
X151858213Y-48050292D01*
X151969707Y-48161786D01*
X151969711Y-48161789D01*
X152100814Y-48249390D01*
X152100827Y-48249397D01*
X152229502Y-48302695D01*
X152246503Y-48309737D01*
X152401153Y-48340499D01*
X152401156Y-48340500D01*
X152401158Y-48340500D01*
X152558844Y-48340500D01*
X152558845Y-48340499D01*
X152713497Y-48309737D01*
X152859179Y-48249394D01*
X152990289Y-48161789D01*
X153101789Y-48050289D01*
X153189394Y-47919179D01*
X153249737Y-47773497D01*
X153280500Y-47618842D01*
X153280500Y-46683448D01*
X153300185Y-46616409D01*
X153352989Y-46570654D01*
X153422147Y-46560710D01*
X153485703Y-46589735D01*
X153511887Y-46621448D01*
X153513496Y-46624236D01*
X153513497Y-46624237D01*
X153569515Y-46721263D01*
X153648737Y-46800485D01*
X153745763Y-46856503D01*
X153853982Y-46885500D01*
X153853984Y-46885500D01*
X153966016Y-46885500D01*
X153966018Y-46885500D01*
X154074237Y-46856503D01*
X154171263Y-46800485D01*
X154250485Y-46721263D01*
X154306503Y-46624237D01*
X154335500Y-46516018D01*
X154335500Y-46403982D01*
X159264500Y-46403982D01*
X159264500Y-46516018D01*
X159293497Y-46624237D01*
X159349515Y-46721263D01*
X159428737Y-46800485D01*
X159525763Y-46856503D01*
X159633982Y-46885500D01*
X159633984Y-46885500D01*
X159746016Y-46885500D01*
X159746018Y-46885500D01*
X159854237Y-46856503D01*
X159951263Y-46800485D01*
X160030485Y-46721263D01*
X160086503Y-46624237D01*
X160086503Y-46624236D01*
X160088113Y-46621448D01*
X160138680Y-46573232D01*
X160207287Y-46560009D01*
X160272152Y-46585977D01*
X160312680Y-46642891D01*
X160319500Y-46683448D01*
X160319500Y-47618846D01*
X160350261Y-47773489D01*
X160350264Y-47773501D01*
X160410602Y-47919172D01*
X160410609Y-47919185D01*
X160498210Y-48050288D01*
X160498213Y-48050292D01*
X160609707Y-48161786D01*
X160609711Y-48161789D01*
X160740814Y-48249390D01*
X160740827Y-48249397D01*
X160869502Y-48302695D01*
X160886503Y-48309737D01*
X161041153Y-48340499D01*
X161041156Y-48340500D01*
X161041158Y-48340500D01*
X161198844Y-48340500D01*
X161198845Y-48340499D01*
X161353497Y-48309737D01*
X161395549Y-48292318D01*
X161448486Y-48270392D01*
X161499172Y-48249397D01*
X161499172Y-48249396D01*
X161499179Y-48249394D01*
X161630289Y-48161789D01*
X161741789Y-48050289D01*
X161829394Y-47919179D01*
X161889737Y-47773497D01*
X161920500Y-47618842D01*
X161920500Y-46361158D01*
X161920500Y-46361155D01*
X161920499Y-46361153D01*
X161889738Y-46206510D01*
X161889738Y-46206508D01*
X161889737Y-46206503D01*
X161889735Y-46206498D01*
X161829397Y-46060827D01*
X161829390Y-46060814D01*
X161741789Y-45929711D01*
X161741786Y-45929707D01*
X161630292Y-45818213D01*
X161630288Y-45818210D01*
X161499185Y-45730609D01*
X161499172Y-45730602D01*
X161353501Y-45670264D01*
X161353489Y-45670261D01*
X161198845Y-45639500D01*
X161198842Y-45639500D01*
X161041158Y-45639500D01*
X161041155Y-45639500D01*
X160886510Y-45670261D01*
X160886498Y-45670264D01*
X160740827Y-45730602D01*
X160740814Y-45730609D01*
X160609711Y-45818210D01*
X160609707Y-45818213D01*
X160498213Y-45929707D01*
X160498210Y-45929711D01*
X160410609Y-46060814D01*
X160410602Y-46060827D01*
X160350264Y-46206498D01*
X160350261Y-46206508D01*
X160331444Y-46301109D01*
X160299059Y-46363020D01*
X160238343Y-46397594D01*
X160168574Y-46393854D01*
X160111902Y-46352987D01*
X160090052Y-46309010D01*
X160087935Y-46301109D01*
X160086503Y-46295763D01*
X160030485Y-46198737D01*
X159951263Y-46119515D01*
X159854237Y-46063497D01*
X159746018Y-46034500D01*
X159633982Y-46034500D01*
X159525763Y-46063497D01*
X159525760Y-46063498D01*
X159428740Y-46119513D01*
X159428734Y-46119517D01*
X159349517Y-46198734D01*
X159349513Y-46198740D01*
X159293498Y-46295760D01*
X159293497Y-46295763D01*
X159264500Y-46403982D01*
X154335500Y-46403982D01*
X154306503Y-46295763D01*
X154250485Y-46198737D01*
X154171263Y-46119515D01*
X154074237Y-46063497D01*
X153966018Y-46034500D01*
X153853982Y-46034500D01*
X153745763Y-46063497D01*
X153745760Y-46063498D01*
X153648740Y-46119513D01*
X153648734Y-46119517D01*
X153569517Y-46198734D01*
X153569513Y-46198740D01*
X153513498Y-46295760D01*
X153513497Y-46295763D01*
X153509946Y-46309015D01*
X153473579Y-46368674D01*
X153410731Y-46399201D01*
X153341355Y-46390904D01*
X153287479Y-46346416D01*
X153268555Y-46301109D01*
X153249737Y-46206503D01*
X153249735Y-46206498D01*
X153189397Y-46060827D01*
X153189390Y-46060814D01*
X153101789Y-45929711D01*
X153101786Y-45929707D01*
X152990292Y-45818213D01*
X152990288Y-45818210D01*
X152859185Y-45730609D01*
X152859172Y-45730602D01*
X152713501Y-45670264D01*
X152713489Y-45670261D01*
X152558845Y-45639500D01*
X152558842Y-45639500D01*
X152401158Y-45639500D01*
X152401155Y-45639500D01*
X152246510Y-45670261D01*
X152246498Y-45670264D01*
X152100827Y-45730602D01*
X152100814Y-45730609D01*
X151969711Y-45818210D01*
X151969707Y-45818213D01*
X151858213Y-45929707D01*
X151858210Y-45929711D01*
X151770609Y-46060814D01*
X151770602Y-46060827D01*
X151710264Y-46206498D01*
X151710261Y-46206510D01*
X151679500Y-46361153D01*
X136981468Y-46361153D01*
X137032627Y-46297001D01*
X137032628Y-46296999D01*
X137032630Y-46296997D01*
X137035652Y-46292187D01*
X137037597Y-46289093D01*
X137144148Y-46119517D01*
X137217906Y-46002133D01*
X137369002Y-45688379D01*
X137484018Y-45359681D01*
X137561509Y-45020171D01*
X137600500Y-44674120D01*
X137600500Y-44325880D01*
X137600499Y-44325875D01*
X212399500Y-44325875D01*
X212399500Y-44674124D01*
X212438489Y-45020158D01*
X212438491Y-45020170D01*
X212515982Y-45359684D01*
X212515985Y-45359692D01*
X212630999Y-45688382D01*
X212782092Y-46002130D01*
X212967371Y-46296999D01*
X212967372Y-46297001D01*
X213184487Y-46569256D01*
X213430743Y-46815512D01*
X213702998Y-47032627D01*
X213703001Y-47032628D01*
X213703003Y-47032630D01*
X213997867Y-47217906D01*
X214311621Y-47369002D01*
X214558488Y-47455384D01*
X214640307Y-47484014D01*
X214640315Y-47484017D01*
X214640318Y-47484017D01*
X214640319Y-47484018D01*
X214979829Y-47561509D01*
X215325876Y-47600499D01*
X215325877Y-47600500D01*
X215325880Y-47600500D01*
X215674123Y-47600500D01*
X215674123Y-47600499D01*
X216020171Y-47561509D01*
X216359681Y-47484018D01*
X216688379Y-47369002D01*
X217002133Y-47217906D01*
X217296997Y-47032630D01*
X217481493Y-46885500D01*
X217569256Y-46815512D01*
X217569258Y-46815509D01*
X217569263Y-46815506D01*
X217815506Y-46569263D01*
X217857968Y-46516018D01*
X218032627Y-46297001D01*
X218032628Y-46296999D01*
X218032630Y-46296997D01*
X218217906Y-46002133D01*
X218369002Y-45688379D01*
X218484018Y-45359681D01*
X218561509Y-45020171D01*
X218600500Y-44674120D01*
X218600500Y-44325880D01*
X218561509Y-43979829D01*
X218484018Y-43640319D01*
X218369002Y-43311621D01*
X218217906Y-42997867D01*
X218032630Y-42703003D01*
X218032628Y-42703000D01*
X218032627Y-42702998D01*
X217815512Y-42430743D01*
X217569256Y-42184487D01*
X217297001Y-41967372D01*
X217296999Y-41967371D01*
X217002130Y-41782092D01*
X216688382Y-41630999D01*
X216359692Y-41515985D01*
X216359684Y-41515982D01*
X216105048Y-41457863D01*
X216020171Y-41438491D01*
X216020167Y-41438490D01*
X216020158Y-41438489D01*
X215674124Y-41399500D01*
X215674120Y-41399500D01*
X215325880Y-41399500D01*
X215325875Y-41399500D01*
X214979841Y-41438489D01*
X214979829Y-41438491D01*
X214640315Y-41515982D01*
X214640307Y-41515985D01*
X214311617Y-41630999D01*
X213997869Y-41782092D01*
X213703000Y-41967371D01*
X213702998Y-41967372D01*
X213430743Y-42184487D01*
X213184487Y-42430743D01*
X212967372Y-42702998D01*
X212967371Y-42703000D01*
X212782092Y-42997869D01*
X212630999Y-43311617D01*
X212515985Y-43640307D01*
X212515982Y-43640315D01*
X212438491Y-43979829D01*
X212438489Y-43979841D01*
X212399500Y-44325875D01*
X137600499Y-44325875D01*
X137561509Y-43979829D01*
X137484018Y-43640319D01*
X137369002Y-43311621D01*
X137217906Y-42997867D01*
X137032630Y-42703003D01*
X136815838Y-42431153D01*
X151679500Y-42431153D01*
X151679500Y-43188846D01*
X151710261Y-43343489D01*
X151710264Y-43343501D01*
X151770602Y-43489172D01*
X151770609Y-43489185D01*
X151858210Y-43620288D01*
X151858213Y-43620292D01*
X151969707Y-43731786D01*
X151969711Y-43731789D01*
X152100814Y-43819390D01*
X152100827Y-43819397D01*
X152246498Y-43879735D01*
X152246503Y-43879737D01*
X152401153Y-43910499D01*
X152401156Y-43910500D01*
X152401158Y-43910500D01*
X152558844Y-43910500D01*
X152558845Y-43910499D01*
X152713497Y-43879737D01*
X152859179Y-43819394D01*
X152990289Y-43731789D01*
X153101789Y-43620289D01*
X153189394Y-43489179D01*
X153249737Y-43343497D01*
X153280500Y-43188842D01*
X153280500Y-42431158D01*
X153280500Y-42431155D01*
X153280499Y-42431153D01*
X160319500Y-42431153D01*
X160319500Y-43188846D01*
X160350261Y-43343489D01*
X160350264Y-43343501D01*
X160410602Y-43489172D01*
X160410609Y-43489185D01*
X160498210Y-43620288D01*
X160498213Y-43620292D01*
X160609707Y-43731786D01*
X160609711Y-43731789D01*
X160740814Y-43819390D01*
X160740827Y-43819397D01*
X160886498Y-43879735D01*
X160886503Y-43879737D01*
X161041153Y-43910499D01*
X161041156Y-43910500D01*
X161041158Y-43910500D01*
X161198844Y-43910500D01*
X161198845Y-43910499D01*
X161353497Y-43879737D01*
X161499179Y-43819394D01*
X161630289Y-43731789D01*
X161741789Y-43620289D01*
X161829394Y-43489179D01*
X161889737Y-43343497D01*
X161920500Y-43188842D01*
X161920500Y-42431158D01*
X161920500Y-42431155D01*
X161920499Y-42431153D01*
X161920416Y-42430736D01*
X161889737Y-42276503D01*
X161851623Y-42184487D01*
X161829397Y-42130827D01*
X161829390Y-42130814D01*
X161741789Y-41999711D01*
X161741786Y-41999707D01*
X161630292Y-41888213D01*
X161630288Y-41888210D01*
X161499185Y-41800609D01*
X161499172Y-41800602D01*
X161353501Y-41740264D01*
X161353489Y-41740261D01*
X161198845Y-41709500D01*
X161198842Y-41709500D01*
X161041158Y-41709500D01*
X161041155Y-41709500D01*
X160886510Y-41740261D01*
X160886498Y-41740264D01*
X160740827Y-41800602D01*
X160740814Y-41800609D01*
X160609711Y-41888210D01*
X160609707Y-41888213D01*
X160498213Y-41999707D01*
X160498210Y-41999711D01*
X160410609Y-42130814D01*
X160410602Y-42130827D01*
X160350264Y-42276498D01*
X160350261Y-42276510D01*
X160319500Y-42431153D01*
X153280499Y-42431153D01*
X153280416Y-42430736D01*
X153249737Y-42276503D01*
X153211623Y-42184487D01*
X153189397Y-42130827D01*
X153189390Y-42130814D01*
X153101789Y-41999711D01*
X153101786Y-41999707D01*
X152990292Y-41888213D01*
X152990288Y-41888210D01*
X152859185Y-41800609D01*
X152859172Y-41800602D01*
X152713501Y-41740264D01*
X152713489Y-41740261D01*
X152558845Y-41709500D01*
X152558842Y-41709500D01*
X152401158Y-41709500D01*
X152401155Y-41709500D01*
X152246510Y-41740261D01*
X152246498Y-41740264D01*
X152100827Y-41800602D01*
X152100814Y-41800609D01*
X151969711Y-41888210D01*
X151969707Y-41888213D01*
X151858213Y-41999707D01*
X151858210Y-41999711D01*
X151770609Y-42130814D01*
X151770602Y-42130827D01*
X151710264Y-42276498D01*
X151710261Y-42276510D01*
X151679500Y-42431153D01*
X136815838Y-42431153D01*
X136815506Y-42430737D01*
X136569263Y-42184494D01*
X136569256Y-42184487D01*
X136297001Y-41967372D01*
X136296999Y-41967371D01*
X136002130Y-41782092D01*
X135688382Y-41630999D01*
X135359692Y-41515985D01*
X135359684Y-41515982D01*
X135105048Y-41457863D01*
X135020171Y-41438491D01*
X135020167Y-41438490D01*
X135020158Y-41438489D01*
X134674124Y-41399500D01*
X134674120Y-41399500D01*
X134325880Y-41399500D01*
X134325875Y-41399500D01*
X133979841Y-41438489D01*
X133979829Y-41438491D01*
X133640315Y-41515982D01*
X133640307Y-41515985D01*
X133311617Y-41630999D01*
X132997869Y-41782092D01*
X132703000Y-41967371D01*
X132702998Y-41967372D01*
X132430743Y-42184487D01*
X132184487Y-42430743D01*
X131967372Y-42702998D01*
X131967371Y-42703000D01*
X131782092Y-42997869D01*
X131630999Y-43311617D01*
X131515985Y-43640307D01*
X131515982Y-43640315D01*
X131438491Y-43979829D01*
X131438489Y-43979841D01*
X131399500Y-44325875D01*
X130208550Y-44325875D01*
X130218576Y-44109006D01*
X130219633Y-44097611D01*
X130272917Y-43715632D01*
X130275017Y-43704396D01*
X130363322Y-43328951D01*
X130366445Y-43317971D01*
X130489019Y-42952260D01*
X130493150Y-42941600D01*
X130648932Y-42588787D01*
X130654030Y-42578547D01*
X130841702Y-42241611D01*
X130847728Y-42231879D01*
X131065698Y-41913682D01*
X131072580Y-41904569D01*
X131318978Y-41607843D01*
X131326673Y-41599403D01*
X131599403Y-41326673D01*
X131607843Y-41318978D01*
X131904569Y-41072580D01*
X131913682Y-41065698D01*
X132231884Y-40847724D01*
X132241611Y-40841702D01*
X132578547Y-40654030D01*
X132588787Y-40648932D01*
X132941600Y-40493150D01*
X132952260Y-40489019D01*
X133317971Y-40366445D01*
X133328951Y-40363322D01*
X133704396Y-40275017D01*
X133715632Y-40272917D01*
X134097620Y-40219632D01*
X134109006Y-40218576D01*
X134497145Y-40200632D01*
X134502872Y-40200500D01*
X134539882Y-40200500D01*
X215460118Y-40200500D01*
X215497128Y-40200500D01*
X215502855Y-40200632D01*
G37*
%TD.AperFunction*%
%TD*%
%TA.AperFunction,Conductor*%
%TO.N,+1V1*%
G36*
X157918039Y-63119685D02*
G01*
X157963794Y-63172489D01*
X157975000Y-63224000D01*
X157975000Y-65600000D01*
X162438681Y-70063681D01*
X162472166Y-70125004D01*
X162475000Y-70151362D01*
X162475000Y-72448638D01*
X162455315Y-72515677D01*
X162438681Y-72536319D01*
X158311319Y-76663681D01*
X158249996Y-76697166D01*
X158223638Y-76700000D01*
X157399000Y-76700000D01*
X157331961Y-76680315D01*
X157286206Y-76627511D01*
X157275000Y-76576000D01*
X157275000Y-73124000D01*
X157294685Y-73056961D01*
X157347489Y-73011206D01*
X157399000Y-73000000D01*
X159375000Y-73000000D01*
X159375000Y-69000000D01*
X155375000Y-69000000D01*
X155375000Y-70376000D01*
X155355315Y-70443039D01*
X155302511Y-70488794D01*
X155251000Y-70500000D01*
X152299000Y-70500000D01*
X152231961Y-70480315D01*
X152186206Y-70427511D01*
X152175000Y-70376000D01*
X152175000Y-69651362D01*
X152194685Y-69584323D01*
X152211319Y-69563681D01*
X153173871Y-68601128D01*
X153176130Y-68598927D01*
X156975000Y-64994872D01*
X156975000Y-63224000D01*
X156994685Y-63156961D01*
X157047489Y-63111206D01*
X157099000Y-63100000D01*
X157851000Y-63100000D01*
X157918039Y-63119685D01*
G37*
%TD.AperFunction*%
%TD*%
M02*
