%TF.GenerationSoftware,KiCad,Pcbnew,9.0.2*%
%TF.CreationDate,2026-03-06T10:22:12-08:00*%
%TF.ProjectId,BLV_PCB,424c565f-5043-4422-9e6b-696361645f70,rev?*%
%TF.SameCoordinates,Original*%
%TF.FileFunction,Copper,L2,Inr*%
%TF.FilePolarity,Positive*%
%FSLAX46Y46*%
G04 Gerber Fmt 4.6, Leading zero omitted, Abs format (unit mm)*
G04 Created by KiCad (PCBNEW 9.0.2) date 2026-03-06 10:22:12*
%MOMM*%
%LPD*%
G01*
G04 APERTURE LIST*
G04 Aperture macros list*
%AMRoundRect*
0 Rectangle with rounded corners*
0 $1 Rounding radius*
0 $2 $3 $4 $5 $6 $7 $8 $9 X,Y pos of 4 corners*
0 Add a 4 corners polygon primitive as box body*
4,1,4,$2,$3,$4,$5,$6,$7,$8,$9,$2,$3,0*
0 Add four circle primitives for the rounded corners*
1,1,$1+$1,$2,$3*
1,1,$1+$1,$4,$5*
1,1,$1+$1,$6,$7*
1,1,$1+$1,$8,$9*
0 Add four rect primitives between the rounded corners*
20,1,$1+$1,$2,$3,$4,$5,0*
20,1,$1+$1,$4,$5,$6,$7,0*
20,1,$1+$1,$6,$7,$8,$9,0*
20,1,$1+$1,$8,$9,$2,$3,0*%
G04 Aperture macros list end*
%TA.AperFunction,ComponentPad*%
%ADD10C,5.600000*%
%TD*%
%TA.AperFunction,ComponentPad*%
%ADD11C,1.500000*%
%TD*%
%TA.AperFunction,ComponentPad*%
%ADD12RoundRect,0.250000X-0.625000X0.350000X-0.625000X-0.350000X0.625000X-0.350000X0.625000X0.350000X0*%
%TD*%
%TA.AperFunction,ComponentPad*%
%ADD13O,1.750000X1.200000*%
%TD*%
%TA.AperFunction,ComponentPad*%
%ADD14R,1.700000X1.700000*%
%TD*%
%TA.AperFunction,ComponentPad*%
%ADD15C,1.700000*%
%TD*%
%TA.AperFunction,ComponentPad*%
%ADD16C,3.300000*%
%TD*%
%TA.AperFunction,ComponentPad*%
%ADD17C,2.400000*%
%TD*%
%TA.AperFunction,ComponentPad*%
%ADD18O,3.500000X2.500000*%
%TD*%
%TA.AperFunction,HeatsinkPad*%
%ADD19O,1.000000X2.100000*%
%TD*%
%TA.AperFunction,HeatsinkPad*%
%ADD20O,1.000000X1.600000*%
%TD*%
%TA.AperFunction,ViaPad*%
%ADD21C,0.700000*%
%TD*%
%TA.AperFunction,ViaPad*%
%ADD22C,0.600000*%
%TD*%
G04 APERTURE END LIST*
D10*
%TO.N,N/C*%
%TO.C,H4*%
X134500000Y-125500000D03*
%TD*%
D11*
%TO.N,/GNSS & MicroSD/DAT1*%
%TO.C,TP65*%
X143000000Y-93000000D03*
%TD*%
%TO.N,/GNSS & MicroSD/EXTINT*%
%TO.C,TP62*%
X170000000Y-122000000D03*
%TD*%
D10*
%TO.N,N/C*%
%TO.C,H3*%
X215500000Y-125500000D03*
%TD*%
%TO.N,N/C*%
%TO.C,H2*%
X215500000Y-44500000D03*
%TD*%
D12*
%TO.N,/Cube2_UART_TX*%
%TO.C,J3*%
X136050000Y-82000000D03*
D13*
%TO.N,/Cube2_UART_RX*%
X136050000Y-84000000D03*
%TO.N,unconnected-(J3-Pin_3-Pad3)*%
X136050000Y-86000000D03*
%TO.N,GND*%
X136050000Y-88000000D03*
%TD*%
D12*
%TO.N,/Cube1_UART_TX*%
%TO.C,J2*%
X136050000Y-66740000D03*
D13*
%TO.N,/Cube1_UART_RX*%
X136050000Y-68740000D03*
%TO.N,unconnected-(J2-Pin_3-Pad3)*%
X136050000Y-70740000D03*
%TO.N,GND*%
X136050000Y-72740000D03*
%TD*%
D11*
%TO.N,/GNSS & MicroSD/~{SAFEBOOT}*%
%TO.C,TP63*%
X170000000Y-128000000D03*
%TD*%
D14*
%TO.N,GND*%
%TO.C,J6*%
X142000000Y-87040000D03*
D15*
%TO.N,/Cube2_UART_RX*%
X142000000Y-84500000D03*
%TO.N,/Cube2_UART_TX*%
X142000000Y-81960000D03*
%TD*%
D11*
%TO.N,/GNSS & MicroSD/DAT2*%
%TO.C,TP66*%
X137000000Y-113000000D03*
%TD*%
%TO.N,/GNSS & MicroSD/TIMEPULSE*%
%TO.C,TP61*%
X170000000Y-125000000D03*
%TD*%
D14*
%TO.N,+3V3*%
%TO.C,J31*%
X144775000Y-125000000D03*
D15*
%TO.N,GND*%
X142235000Y-125000000D03*
%TD*%
D16*
%TO.N,*%
%TO.C,U4*%
X211500000Y-112600000D03*
X195500000Y-57400000D03*
D17*
X211500000Y-49200000D03*
D18*
%TO.N,GND*%
X203500000Y-120720000D03*
%TO.N,+BATT*%
X203500000Y-49280000D03*
%TD*%
D14*
%TO.N,GND*%
%TO.C,J5*%
X140350000Y-72420000D03*
D15*
%TO.N,/Cube1_UART_RX*%
X140350000Y-69880000D03*
%TO.N,/Cube1_UART_TX*%
X140350000Y-67340000D03*
%TD*%
D14*
%TO.N,GND*%
%TO.C,J12*%
X154160000Y-88900000D03*
D15*
%TO.N,/MCU/SWCLK*%
X156700000Y-88900000D03*
%TO.N,/MCU/SWD*%
X159240000Y-88900000D03*
%TD*%
D14*
%TO.N,GND*%
%TO.C,J4*%
X140350000Y-57180000D03*
D15*
%TO.N,/Cube0_UART_RX*%
X140350000Y-54640000D03*
%TO.N,/Cube0_UART_TX*%
X140350000Y-52100000D03*
%TD*%
D11*
%TO.N,/GNSS & MicroSD/LNA_EN*%
%TO.C,TP64*%
X155200000Y-107200000D03*
%TD*%
D12*
%TO.N,/Cube0_UART_TX*%
%TO.C,J1*%
X136050000Y-51500000D03*
D13*
%TO.N,/Cube0_UART_RX*%
X136050000Y-53500000D03*
%TO.N,unconnected-(J1-Pin_3-Pad3)*%
X136050000Y-55500000D03*
%TO.N,GND*%
X136050000Y-57500000D03*
%TD*%
D10*
%TO.N,N/C*%
%TO.C,H1*%
X134500000Y-44500000D03*
%TD*%
D19*
%TO.N,unconnected-(J61-SHIELD-PadS1)_1*%
%TO.C,J61*%
X176180000Y-122670000D03*
D20*
%TO.N,unconnected-(J61-SHIELD-PadS1)_3*%
X176180000Y-126850000D03*
D19*
%TO.N,unconnected-(J61-SHIELD-PadS1)_2*%
X184820000Y-122670000D03*
D20*
%TO.N,unconnected-(J61-SHIELD-PadS1)*%
X184820000Y-126850000D03*
%TD*%
D19*
%TO.N,unconnected-(J8-SHIELD-PadS1)*%
%TO.C,J8*%
X161120000Y-46990000D03*
D20*
%TO.N,unconnected-(J8-SHIELD-PadS1)_3*%
X161120000Y-42810000D03*
D19*
%TO.N,unconnected-(J8-SHIELD-PadS1)_1*%
X152480000Y-46990000D03*
D20*
%TO.N,unconnected-(J8-SHIELD-PadS1)_2*%
X152480000Y-42810000D03*
%TD*%
D21*
%TO.N,GND*%
X153500000Y-86000000D03*
D22*
X144000000Y-117500000D03*
X131500000Y-88000000D03*
X131500000Y-82500000D03*
%TO.N,+3V3*%
X186000000Y-63750000D03*
D21*
X155200000Y-124100000D03*
X150000000Y-54800000D03*
D22*
X148800000Y-75000000D03*
D21*
X165493670Y-66482022D03*
D22*
X132500000Y-59800000D03*
D21*
X151500000Y-54800000D03*
X153000000Y-56300000D03*
D22*
X180000000Y-62000000D03*
X178000000Y-60400000D03*
X134700000Y-103600000D03*
X135500000Y-102800000D03*
X182000000Y-63750000D03*
X135500000Y-103600000D03*
X184000000Y-63750000D03*
X184000000Y-62000000D03*
X132600000Y-90300000D03*
D21*
X150000000Y-122500000D03*
D22*
X182000000Y-60400000D03*
D21*
X153000000Y-54800000D03*
D22*
X172500000Y-60500000D03*
X134700000Y-102800000D03*
X180000000Y-63750000D03*
D21*
X150000000Y-53300000D03*
X155200000Y-122500000D03*
D22*
X154500000Y-98600000D03*
D21*
X154400000Y-123300000D03*
X165500000Y-64500000D03*
X154400000Y-124100000D03*
X155200000Y-123300000D03*
D22*
X178000000Y-63750000D03*
X178000000Y-62000000D03*
D21*
X151500000Y-53300000D03*
X154400000Y-122500000D03*
X165500000Y-62500000D03*
D22*
X180000000Y-60400000D03*
X132600000Y-75100000D03*
X182000000Y-62000000D03*
D21*
X163500000Y-66500000D03*
X163500000Y-64500000D03*
D22*
X137200000Y-94000000D03*
D21*
X163500000Y-62500000D03*
D22*
%TO.N,+1V1*%
X162000000Y-70400000D03*
X157475000Y-64440000D03*
X157768413Y-76206587D03*
X152675000Y-70000000D03*
X157475000Y-63600000D03*
%TO.N,+BATT*%
X201000000Y-51500000D03*
X206250000Y-49250000D03*
X206250000Y-47000000D03*
X196000000Y-47500000D03*
X206250000Y-51500000D03*
X203500000Y-47000000D03*
X198500000Y-47500000D03*
X203500000Y-51500000D03*
X196000000Y-49500000D03*
X201000000Y-47000000D03*
X191250000Y-49500000D03*
X193750000Y-49500000D03*
X198500000Y-49500000D03*
X201000000Y-49250000D03*
X191250000Y-47500000D03*
X193750000Y-47500000D03*
%TO.N,GND*%
X131500000Y-71500000D03*
X206000000Y-86000000D03*
X141700000Y-101200000D03*
X178000000Y-66000000D03*
X172750000Y-66000000D03*
X138400000Y-52500000D03*
X131500000Y-62000000D03*
X211000000Y-127000000D03*
X181750000Y-118000000D03*
X158500000Y-127500000D03*
X201000000Y-43500000D03*
X206000000Y-56000000D03*
D21*
X151200000Y-111800000D03*
D22*
X201000000Y-101000000D03*
X217000000Y-106000000D03*
X138500000Y-127500000D03*
X164775000Y-70000000D03*
X162000000Y-104500000D03*
D21*
X161175000Y-64740000D03*
D22*
X162000000Y-99500000D03*
X158600000Y-69800000D03*
X206000000Y-111000000D03*
X171000000Y-106000000D03*
X191000000Y-123500000D03*
X176000000Y-43000000D03*
X206000000Y-106000000D03*
X194000000Y-70750000D03*
X171000000Y-81000000D03*
X138500000Y-41500000D03*
X171000000Y-86000000D03*
X142500000Y-95000000D03*
X206000000Y-96000000D03*
X149900000Y-70000000D03*
X211000000Y-96000000D03*
X211000000Y-121000000D03*
X148500000Y-127500000D03*
X217000000Y-66000000D03*
X133000000Y-107500000D03*
X137500000Y-79000000D03*
X211000000Y-43500000D03*
X191000000Y-66000000D03*
X186000000Y-91000000D03*
X178200000Y-128500000D03*
D21*
X149200000Y-62000000D03*
D22*
X206000000Y-43500000D03*
X146000000Y-78250000D03*
X196000000Y-116000000D03*
X131500000Y-66000000D03*
X206000000Y-91000000D03*
D21*
X147200000Y-62000000D03*
D22*
X143500000Y-41500000D03*
D21*
X160000000Y-86000000D03*
D22*
X168500000Y-58500000D03*
X217000000Y-71000000D03*
X176000000Y-73000000D03*
X145000000Y-109000000D03*
X211000000Y-106000000D03*
D21*
X154000000Y-78500000D03*
D22*
X201000000Y-116000000D03*
X182750000Y-116500000D03*
D21*
X153500000Y-84000000D03*
D22*
X211000000Y-66000000D03*
X131500000Y-76600000D03*
X145000000Y-106000000D03*
X158500000Y-58500000D03*
D21*
X149200000Y-59500000D03*
D22*
X217000000Y-111000000D03*
X178200000Y-126000000D03*
X186000000Y-96000000D03*
X171000000Y-96000000D03*
X165000000Y-96000000D03*
X131500000Y-94000000D03*
X138100000Y-101500000D03*
X143500000Y-51000000D03*
X163500000Y-93500000D03*
X206000000Y-76000000D03*
X168500000Y-64000000D03*
X157000000Y-109500000D03*
D21*
X153500000Y-80000000D03*
D22*
X168500000Y-53500000D03*
X175250000Y-70750000D03*
X201000000Y-106000000D03*
X206000000Y-116000000D03*
X163500000Y-48500000D03*
X178500000Y-111000000D03*
D21*
X158000000Y-86000000D03*
D22*
X138900000Y-103375000D03*
X211000000Y-91000000D03*
X196000000Y-61000000D03*
D21*
X148500000Y-64500000D03*
D22*
X194000000Y-72750000D03*
X154000000Y-41500000D03*
X191000000Y-127000000D03*
X181000000Y-91000000D03*
X183250000Y-56000000D03*
X159500000Y-91500000D03*
X165000000Y-101500000D03*
X148500000Y-112500000D03*
X194000000Y-68750000D03*
X175250000Y-66000000D03*
X138500000Y-122500000D03*
X145500000Y-93500000D03*
X196000000Y-101000000D03*
D21*
X149200000Y-57000000D03*
D22*
X148500000Y-46000000D03*
X190250000Y-68750000D03*
X196000000Y-123250000D03*
X139500000Y-90000000D03*
X168500000Y-69000000D03*
X138300000Y-63200000D03*
X178000000Y-70750000D03*
X162000000Y-114500000D03*
X196000000Y-81000000D03*
D21*
X147200000Y-59500000D03*
D22*
X211000000Y-71000000D03*
X156200000Y-71000000D03*
X198500000Y-118500000D03*
X217000000Y-121000000D03*
X211000000Y-76000000D03*
X186000000Y-43000000D03*
X143000000Y-127500000D03*
X133000000Y-121500000D03*
X196000000Y-121000000D03*
X133500000Y-48500000D03*
X138400000Y-54700000D03*
X176500000Y-113500000D03*
X201000000Y-56000000D03*
X131500000Y-52000000D03*
X208500000Y-121000000D03*
X181000000Y-106000000D03*
X171200000Y-111750000D03*
X201000000Y-123250000D03*
X206000000Y-61000000D03*
X206000000Y-101000000D03*
X201000000Y-81000000D03*
X156200000Y-72200000D03*
X171000000Y-101000000D03*
X140200000Y-60600000D03*
X176000000Y-96000000D03*
X198500000Y-123250000D03*
X183200000Y-128500000D03*
X191000000Y-116000000D03*
X171700000Y-114900000D03*
X144000000Y-112500000D03*
X176500000Y-111000000D03*
X206000000Y-81000000D03*
D21*
X147200000Y-57000000D03*
X161175000Y-63940000D03*
D22*
X196000000Y-111000000D03*
X217000000Y-51000000D03*
X172750000Y-70750000D03*
X171400000Y-109000000D03*
X143500000Y-46000000D03*
X173500000Y-48500000D03*
X206000000Y-118500000D03*
X174300000Y-116400000D03*
X179000000Y-53500000D03*
X203500000Y-123250000D03*
X142500000Y-108500000D03*
X206000000Y-127000000D03*
X154700000Y-60900000D03*
D21*
X151200000Y-115200000D03*
D22*
X196000000Y-127000000D03*
X163500000Y-127500000D03*
X150600000Y-67800000D03*
X206000000Y-121000000D03*
X164775000Y-68600000D03*
X155000000Y-53500000D03*
X211000000Y-101000000D03*
X161875000Y-66890000D03*
X162000000Y-119500000D03*
X157000000Y-114500000D03*
X211000000Y-61000000D03*
X185900000Y-55900000D03*
X153500000Y-127500000D03*
X178500000Y-113500000D03*
X181000000Y-101000000D03*
X198500000Y-121000000D03*
X158800000Y-78800000D03*
X185500000Y-70750000D03*
X201000000Y-96000000D03*
X171000000Y-91000000D03*
X176000000Y-86000000D03*
X134500000Y-108500000D03*
X159000000Y-41500000D03*
X201000000Y-86000000D03*
X164775000Y-71000000D03*
X183000000Y-66000000D03*
X201000000Y-61000000D03*
X186000000Y-86000000D03*
X168500000Y-103500000D03*
X158600000Y-72200000D03*
X173500000Y-127000000D03*
X181000000Y-43000000D03*
X171300000Y-43000000D03*
X190500000Y-43000000D03*
X146000000Y-88500000D03*
X211000000Y-81000000D03*
X208500000Y-49000000D03*
X196000000Y-76000000D03*
X181000000Y-96000000D03*
X148500000Y-41500000D03*
X217000000Y-61000000D03*
X196000000Y-96000000D03*
X208500000Y-118500000D03*
X164500000Y-42000000D03*
X181000000Y-73000000D03*
X140000000Y-65000000D03*
X133000000Y-117500000D03*
X138500000Y-117500000D03*
X141700000Y-103400000D03*
X196000000Y-86000000D03*
X217000000Y-116000000D03*
X208500000Y-47000000D03*
X176000000Y-81000000D03*
X138500000Y-46000000D03*
X157375000Y-71000000D03*
X174500000Y-57100000D03*
X191000000Y-91000000D03*
X156200000Y-69800000D03*
X143000000Y-58000000D03*
D21*
X160000000Y-84000000D03*
D22*
X163500000Y-58500000D03*
X201000000Y-71000000D03*
X146000000Y-83500000D03*
X133000000Y-112500000D03*
X192000000Y-68750000D03*
X211000000Y-116000000D03*
X176000000Y-101000000D03*
X158500000Y-53500000D03*
X217000000Y-91000000D03*
X208500000Y-51000000D03*
X183200000Y-126000000D03*
X171000000Y-76000000D03*
X201000000Y-91000000D03*
D21*
X153500000Y-82000000D03*
D22*
X206000000Y-66000000D03*
X163500000Y-88500000D03*
X175500000Y-57100000D03*
X217000000Y-86000000D03*
X191000000Y-111000000D03*
X211000000Y-86000000D03*
X180500000Y-70750000D03*
D21*
X160000000Y-82000000D03*
D22*
X155575000Y-78300000D03*
X217000000Y-76000000D03*
X139500000Y-75000000D03*
X206000000Y-71000000D03*
X184000000Y-118500000D03*
X142500000Y-98500000D03*
X173500000Y-123500000D03*
X196000000Y-66000000D03*
X157000000Y-99500000D03*
X175000000Y-57900000D03*
X186000000Y-106000000D03*
X157375000Y-69800000D03*
X201000000Y-121000000D03*
X158600000Y-71000000D03*
X168500000Y-48500000D03*
X148500000Y-51000000D03*
X196000000Y-106000000D03*
X196000000Y-71000000D03*
X186000000Y-81000000D03*
X183250000Y-53500000D03*
X181000000Y-76000000D03*
X201000000Y-66000000D03*
X157375000Y-72200000D03*
X148500000Y-117500000D03*
X183000000Y-70750000D03*
X162000000Y-124500000D03*
X157000000Y-119500000D03*
X172000000Y-73000000D03*
X211000000Y-123250000D03*
X203500000Y-118500000D03*
X201000000Y-111000000D03*
X144000000Y-122500000D03*
X180500000Y-66000000D03*
X181000000Y-81000000D03*
X191000000Y-56000000D03*
X163250000Y-76500000D03*
X186000000Y-116000000D03*
X176000000Y-108500000D03*
X148500000Y-122500000D03*
D21*
X159400000Y-80100000D03*
D22*
X201000000Y-118500000D03*
X211000000Y-56000000D03*
X208500000Y-123250000D03*
X162000000Y-109500000D03*
X176000000Y-76000000D03*
X195500000Y-43500000D03*
X133000000Y-99500000D03*
X206000000Y-123250000D03*
X183250000Y-58500000D03*
X186000000Y-121000000D03*
X217000000Y-81000000D03*
X135200000Y-63200000D03*
X217000000Y-101000000D03*
X147000000Y-76000000D03*
X150700000Y-72000000D03*
X211000000Y-118500000D03*
X201000000Y-76000000D03*
X131500000Y-57500000D03*
X176000000Y-91000000D03*
X176000000Y-106000000D03*
X191000000Y-61000000D03*
X217000000Y-96000000D03*
X157000000Y-124500000D03*
X201000000Y-127000000D03*
X196000000Y-118500000D03*
X175000000Y-56200000D03*
X138100000Y-100700000D03*
D21*
X156000000Y-86000000D03*
X151200000Y-108600000D03*
D22*
X186000000Y-101000000D03*
X196000000Y-91000000D03*
X133000000Y-103500000D03*
X157000000Y-104500000D03*
X217000000Y-56000000D03*
X143000000Y-59000000D03*
X181000000Y-86000000D03*
X140200000Y-59100000D03*
%TO.N,/GNSS & MicroSD/SPI_CS1*%
X153200000Y-116400000D03*
X153400000Y-96700000D03*
X153500000Y-75250000D03*
%TO.N,/MCU/RF_RXEN*%
X164800000Y-72800000D03*
X188800000Y-81800000D03*
%TO.N,/GNSS & MicroSD/SPI_MOSI*%
X152000000Y-104400000D03*
X148300000Y-104400000D03*
%TO.N,/GNSS & MicroSD/SPI_MISO*%
X149250000Y-100300000D03*
X149250000Y-103400000D03*
%TO.N,/MCU/RF_TXEN*%
X189000000Y-79800000D03*
X165200000Y-72000000D03*
%TO.N,/Power/Vin*%
X176700000Y-51800000D03*
X172100000Y-53800000D03*
%TO.N,/GNSS & MicroSD/SPI_CS0*%
X142100000Y-105400000D03*
X148300000Y-98200000D03*
%TO.N,/GNSS & MicroSD/LNA_EN*%
X154400000Y-111700000D03*
%TD*%
%TA.AperFunction,Conductor*%
%TO.N,+1V1*%
G36*
X157918039Y-63119685D02*
G01*
X157963794Y-63172489D01*
X157975000Y-63224000D01*
X157975000Y-65600000D01*
X162438681Y-70063681D01*
X162472166Y-70125004D01*
X162475000Y-70151362D01*
X162475000Y-72448638D01*
X162455315Y-72515677D01*
X162438681Y-72536319D01*
X158311319Y-76663681D01*
X158249996Y-76697166D01*
X158223638Y-76700000D01*
X157399000Y-76700000D01*
X157331961Y-76680315D01*
X157286206Y-76627511D01*
X157275000Y-76576000D01*
X157275000Y-73124000D01*
X157294685Y-73056961D01*
X157347489Y-73011206D01*
X157399000Y-73000000D01*
X159375000Y-73000000D01*
X159375000Y-69000000D01*
X155375000Y-69000000D01*
X155375000Y-70376000D01*
X155355315Y-70443039D01*
X155302511Y-70488794D01*
X155251000Y-70500000D01*
X152299000Y-70500000D01*
X152231961Y-70480315D01*
X152186206Y-70427511D01*
X152175000Y-70376000D01*
X152175000Y-69651362D01*
X152194685Y-69584323D01*
X152211319Y-69563681D01*
X153173871Y-68601128D01*
X153176130Y-68598927D01*
X156975000Y-64994872D01*
X156975000Y-63224000D01*
X156994685Y-63156961D01*
X157047489Y-63111206D01*
X157099000Y-63100000D01*
X157851000Y-63100000D01*
X157918039Y-63119685D01*
G37*
%TD.AperFunction*%
%TD*%
%TA.AperFunction,Conductor*%
%TO.N,GND*%
G36*
X215502855Y-40200632D02*
G01*
X215890991Y-40218576D01*
X215902381Y-40219632D01*
X216284363Y-40272916D01*
X216295607Y-40275018D01*
X216671043Y-40363320D01*
X216682033Y-40366447D01*
X217047732Y-40489017D01*
X217058399Y-40493150D01*
X217411212Y-40648932D01*
X217421465Y-40654037D01*
X217758382Y-40841699D01*
X217768120Y-40847728D01*
X218035848Y-41031126D01*
X218086303Y-41065688D01*
X218095443Y-41072591D01*
X218392143Y-41318968D01*
X218400607Y-41326684D01*
X218673315Y-41599392D01*
X218681031Y-41607856D01*
X218927408Y-41904556D01*
X218934311Y-41913696D01*
X219152271Y-42231879D01*
X219158300Y-42241617D01*
X219345962Y-42578534D01*
X219351067Y-42588787D01*
X219506849Y-42941600D01*
X219510987Y-42952280D01*
X219633548Y-43317953D01*
X219636682Y-43328969D01*
X219724979Y-43704384D01*
X219727084Y-43715643D01*
X219780366Y-44097611D01*
X219781423Y-44109016D01*
X219799366Y-44497143D01*
X219799498Y-44502869D01*
X219799496Y-125460113D01*
X219799496Y-125497124D01*
X219799364Y-125502851D01*
X219781419Y-125890980D01*
X219780362Y-125902384D01*
X219727080Y-126284352D01*
X219724975Y-126295611D01*
X219636679Y-126671027D01*
X219633545Y-126682043D01*
X219510984Y-127047715D01*
X219506847Y-127058395D01*
X219351065Y-127411209D01*
X219345959Y-127421462D01*
X219158297Y-127758379D01*
X219152268Y-127768117D01*
X218934308Y-128086300D01*
X218927405Y-128095440D01*
X218681028Y-128392141D01*
X218673312Y-128400605D01*
X218400605Y-128673312D01*
X218392141Y-128681028D01*
X218095440Y-128927405D01*
X218086300Y-128934308D01*
X217768117Y-129152268D01*
X217758379Y-129158297D01*
X217421462Y-129345959D01*
X217411209Y-129351065D01*
X217058395Y-129506847D01*
X217047715Y-129510984D01*
X216682043Y-129633545D01*
X216671027Y-129636679D01*
X216295611Y-129724975D01*
X216284352Y-129727080D01*
X215902384Y-129780362D01*
X215890980Y-129781419D01*
X215502851Y-129799364D01*
X215497124Y-129799496D01*
X134502872Y-129799496D01*
X134497145Y-129799364D01*
X134109015Y-129781419D01*
X134097611Y-129780362D01*
X133715643Y-129727080D01*
X133704384Y-129724975D01*
X133328969Y-129636678D01*
X133317953Y-129633544D01*
X132952272Y-129510980D01*
X132941592Y-129506842D01*
X132588796Y-129351067D01*
X132578548Y-129345964D01*
X132375212Y-129232707D01*
X132241618Y-129158295D01*
X132231880Y-129152266D01*
X131913698Y-128934307D01*
X131904558Y-128927404D01*
X131607857Y-128681027D01*
X131599393Y-128673311D01*
X131326687Y-128400604D01*
X131318971Y-128392140D01*
X131295774Y-128364205D01*
X131072591Y-128095435D01*
X131065690Y-128086298D01*
X131025741Y-128027980D01*
X130885725Y-127823581D01*
X130847731Y-127768116D01*
X130841702Y-127758378D01*
X130751561Y-127596545D01*
X130654028Y-127421440D01*
X130648936Y-127411213D01*
X130493150Y-127058390D01*
X130489022Y-127047736D01*
X130366450Y-126682029D01*
X130363323Y-126671039D01*
X130275021Y-126295603D01*
X130272918Y-126284352D01*
X130247684Y-126103454D01*
X130219636Y-125902377D01*
X130218580Y-125890980D01*
X130217907Y-125876418D01*
X130200634Y-125502829D01*
X130200503Y-125497187D01*
X130200503Y-125331491D01*
X131499500Y-125331491D01*
X131499500Y-125668508D01*
X131537231Y-126003381D01*
X131537233Y-126003397D01*
X131612223Y-126331953D01*
X131612227Y-126331965D01*
X131723532Y-126650054D01*
X131869752Y-126953683D01*
X131869754Y-126953686D01*
X132049054Y-127239039D01*
X132067124Y-127261698D01*
X132242662Y-127481817D01*
X132259175Y-127502523D01*
X132497477Y-127740825D01*
X132760961Y-127950946D01*
X133046314Y-128130246D01*
X133349949Y-128276469D01*
X133588848Y-128360063D01*
X133668034Y-128387772D01*
X133668046Y-128387776D01*
X133996606Y-128462767D01*
X134331492Y-128500499D01*
X134331493Y-128500500D01*
X134331496Y-128500500D01*
X134668507Y-128500500D01*
X134668507Y-128500499D01*
X135003394Y-128462767D01*
X135331954Y-128387776D01*
X135650051Y-128276469D01*
X135953686Y-128130246D01*
X136239039Y-127950946D01*
X136294924Y-127906379D01*
X169049500Y-127906379D01*
X169049500Y-128093620D01*
X169086025Y-128277243D01*
X169086027Y-128277251D01*
X169157676Y-128450228D01*
X169157681Y-128450237D01*
X169261697Y-128605907D01*
X169261700Y-128605911D01*
X169394088Y-128738299D01*
X169394092Y-128738302D01*
X169549762Y-128842318D01*
X169549768Y-128842321D01*
X169549769Y-128842322D01*
X169722749Y-128913973D01*
X169906379Y-128950499D01*
X169906383Y-128950500D01*
X169906384Y-128950500D01*
X170093617Y-128950500D01*
X170093618Y-128950499D01*
X170277251Y-128913973D01*
X170450231Y-128842322D01*
X170605908Y-128738302D01*
X170738302Y-128605908D01*
X170842322Y-128450231D01*
X170913973Y-128277251D01*
X170950500Y-128093616D01*
X170950500Y-127906384D01*
X170913973Y-127722749D01*
X170842322Y-127549769D01*
X170842321Y-127549768D01*
X170842318Y-127549762D01*
X170738302Y-127394092D01*
X170738299Y-127394088D01*
X170605911Y-127261700D01*
X170605907Y-127261697D01*
X170541999Y-127218995D01*
X175479499Y-127218995D01*
X175506418Y-127354322D01*
X175506421Y-127354332D01*
X175559221Y-127481804D01*
X175559228Y-127481817D01*
X175635885Y-127596541D01*
X175635888Y-127596545D01*
X175733454Y-127694111D01*
X175733458Y-127694114D01*
X175848182Y-127770771D01*
X175848195Y-127770778D01*
X175926820Y-127803345D01*
X175975672Y-127823580D01*
X175975676Y-127823580D01*
X175975677Y-127823581D01*
X176111004Y-127850500D01*
X176111007Y-127850500D01*
X176248995Y-127850500D01*
X176340041Y-127832389D01*
X176384328Y-127823580D01*
X176511811Y-127770775D01*
X176626542Y-127694114D01*
X176724114Y-127596542D01*
X176800775Y-127481811D01*
X176853580Y-127354328D01*
X176872005Y-127261700D01*
X176880500Y-127218995D01*
X184119499Y-127218995D01*
X184146418Y-127354322D01*
X184146421Y-127354332D01*
X184199221Y-127481804D01*
X184199228Y-127481817D01*
X184275885Y-127596541D01*
X184275888Y-127596545D01*
X184373454Y-127694111D01*
X184373458Y-127694114D01*
X184488182Y-127770771D01*
X184488195Y-127770778D01*
X184566820Y-127803345D01*
X184615672Y-127823580D01*
X184615676Y-127823580D01*
X184615677Y-127823581D01*
X184751004Y-127850500D01*
X184751007Y-127850500D01*
X184888995Y-127850500D01*
X184980041Y-127832389D01*
X185024328Y-127823580D01*
X185151811Y-127770775D01*
X185266542Y-127694114D01*
X185364114Y-127596542D01*
X185440775Y-127481811D01*
X185493580Y-127354328D01*
X185512005Y-127261700D01*
X185520500Y-127218995D01*
X185520500Y-126481004D01*
X185493581Y-126345677D01*
X185493580Y-126345676D01*
X185493580Y-126345672D01*
X185493578Y-126345667D01*
X185440778Y-126218195D01*
X185440771Y-126218182D01*
X185364114Y-126103458D01*
X185364111Y-126103454D01*
X185266545Y-126005888D01*
X185266541Y-126005885D01*
X185151817Y-125929228D01*
X185151804Y-125929221D01*
X185024332Y-125876421D01*
X185024322Y-125876418D01*
X184888995Y-125849500D01*
X184888993Y-125849500D01*
X184751007Y-125849500D01*
X184751005Y-125849500D01*
X184615677Y-125876418D01*
X184615667Y-125876421D01*
X184488195Y-125929221D01*
X184488182Y-125929228D01*
X184373458Y-126005885D01*
X184373454Y-126005888D01*
X184275888Y-126103454D01*
X184275885Y-126103458D01*
X184199228Y-126218182D01*
X184199221Y-126218195D01*
X184146421Y-126345667D01*
X184146418Y-126345677D01*
X184119500Y-126481004D01*
X184119500Y-126481007D01*
X184119500Y-127218993D01*
X184119500Y-127218995D01*
X184119499Y-127218995D01*
X176880500Y-127218995D01*
X176880500Y-126481004D01*
X176853581Y-126345677D01*
X176853580Y-126345676D01*
X176853580Y-126345672D01*
X176853578Y-126345667D01*
X176800778Y-126218195D01*
X176800771Y-126218182D01*
X176724114Y-126103458D01*
X176724111Y-126103454D01*
X176626545Y-126005888D01*
X176626541Y-126005885D01*
X176511817Y-125929228D01*
X176511804Y-125929221D01*
X176384332Y-125876421D01*
X176384322Y-125876418D01*
X176248995Y-125849500D01*
X176248993Y-125849500D01*
X176111007Y-125849500D01*
X176111005Y-125849500D01*
X175975677Y-125876418D01*
X175975667Y-125876421D01*
X175848195Y-125929221D01*
X175848182Y-125929228D01*
X175733458Y-126005885D01*
X175733454Y-126005888D01*
X175635888Y-126103454D01*
X175635885Y-126103458D01*
X175559228Y-126218182D01*
X175559221Y-126218195D01*
X175506421Y-126345667D01*
X175506418Y-126345677D01*
X175479500Y-126481004D01*
X175479500Y-126481007D01*
X175479500Y-127218993D01*
X175479500Y-127218995D01*
X175479499Y-127218995D01*
X170541999Y-127218995D01*
X170450237Y-127157681D01*
X170450228Y-127157676D01*
X170277251Y-127086027D01*
X170277243Y-127086025D01*
X170093620Y-127049500D01*
X170093616Y-127049500D01*
X169906384Y-127049500D01*
X169906379Y-127049500D01*
X169722756Y-127086025D01*
X169722748Y-127086027D01*
X169549771Y-127157676D01*
X169549762Y-127157681D01*
X169394092Y-127261697D01*
X169394088Y-127261700D01*
X169261700Y-127394088D01*
X169261697Y-127394092D01*
X169157681Y-127549762D01*
X169157676Y-127549771D01*
X169086027Y-127722748D01*
X169086025Y-127722756D01*
X169049500Y-127906379D01*
X136294924Y-127906379D01*
X136424125Y-127803344D01*
X136424127Y-127803344D01*
X136502516Y-127740831D01*
X136502518Y-127740828D01*
X136502523Y-127740825D01*
X136740825Y-127502523D01*
X136950946Y-127239039D01*
X137130246Y-126953686D01*
X137276469Y-126650051D01*
X137387776Y-126331954D01*
X137462767Y-126003394D01*
X137500500Y-125668504D01*
X137500500Y-125331496D01*
X137462767Y-124996606D01*
X137387776Y-124668046D01*
X137381636Y-124650500D01*
X137343152Y-124540517D01*
X137276469Y-124349949D01*
X137276466Y-124349944D01*
X137276464Y-124349937D01*
X137193645Y-124177961D01*
X137170667Y-124130247D01*
X143724500Y-124130247D01*
X143724500Y-125869752D01*
X143736131Y-125928229D01*
X143736132Y-125928230D01*
X143780447Y-125994552D01*
X143846769Y-126038867D01*
X143846770Y-126038868D01*
X143905247Y-126050499D01*
X143905250Y-126050500D01*
X143905252Y-126050500D01*
X145644750Y-126050500D01*
X145644751Y-126050499D01*
X145659568Y-126047552D01*
X145703229Y-126038868D01*
X145703229Y-126038867D01*
X145703231Y-126038867D01*
X145769552Y-125994552D01*
X145813867Y-125928231D01*
X145813867Y-125928229D01*
X145813868Y-125928229D01*
X145825499Y-125869752D01*
X145825500Y-125869750D01*
X145825500Y-124906379D01*
X169049500Y-124906379D01*
X169049500Y-125093620D01*
X169086025Y-125277243D01*
X169086027Y-125277251D01*
X169157676Y-125450228D01*
X169157681Y-125450237D01*
X169261697Y-125605907D01*
X169261700Y-125605911D01*
X169394088Y-125738299D01*
X169394092Y-125738302D01*
X169549762Y-125842318D01*
X169549768Y-125842321D01*
X169549769Y-125842322D01*
X169722749Y-125913973D01*
X169906379Y-125950499D01*
X169906383Y-125950500D01*
X169906384Y-125950500D01*
X170093617Y-125950500D01*
X170093618Y-125950499D01*
X170277251Y-125913973D01*
X170450231Y-125842322D01*
X170605908Y-125738302D01*
X170738302Y-125605908D01*
X170842322Y-125450231D01*
X170891506Y-125331491D01*
X212499500Y-125331491D01*
X212499500Y-125668508D01*
X212537231Y-126003381D01*
X212537233Y-126003397D01*
X212612223Y-126331953D01*
X212612227Y-126331965D01*
X212723532Y-126650054D01*
X212869752Y-126953683D01*
X212869754Y-126953686D01*
X213049054Y-127239039D01*
X213067124Y-127261698D01*
X213242662Y-127481817D01*
X213259175Y-127502523D01*
X213497477Y-127740825D01*
X213760961Y-127950946D01*
X214046314Y-128130246D01*
X214349949Y-128276469D01*
X214588848Y-128360063D01*
X214668034Y-128387772D01*
X214668046Y-128387776D01*
X214996606Y-128462767D01*
X215331492Y-128500499D01*
X215331493Y-128500500D01*
X215331496Y-128500500D01*
X215668507Y-128500500D01*
X215668507Y-128500499D01*
X216003394Y-128462767D01*
X216331954Y-128387776D01*
X216650051Y-128276469D01*
X216953686Y-128130246D01*
X217239039Y-127950946D01*
X217502523Y-127740825D01*
X217740825Y-127502523D01*
X217950946Y-127239039D01*
X218130246Y-126953686D01*
X218276469Y-126650051D01*
X218387776Y-126331954D01*
X218462767Y-126003394D01*
X218500500Y-125668504D01*
X218500500Y-125331496D01*
X218462767Y-124996606D01*
X218387776Y-124668046D01*
X218381636Y-124650500D01*
X218343152Y-124540517D01*
X218276469Y-124349949D01*
X218142505Y-124071770D01*
X218130247Y-124046316D01*
X218076722Y-123961132D01*
X217950946Y-123760961D01*
X217740825Y-123497477D01*
X217502523Y-123259175D01*
X217239039Y-123049054D01*
X216953686Y-122869754D01*
X216953683Y-122869752D01*
X216650054Y-122723532D01*
X216331965Y-122612227D01*
X216331953Y-122612223D01*
X216003397Y-122537233D01*
X216003381Y-122537231D01*
X215668508Y-122499500D01*
X215668504Y-122499500D01*
X215331496Y-122499500D01*
X215331491Y-122499500D01*
X214996618Y-122537231D01*
X214996602Y-122537233D01*
X214668046Y-122612223D01*
X214668034Y-122612227D01*
X214349945Y-122723532D01*
X214046316Y-122869752D01*
X213760962Y-123049053D01*
X213497477Y-123259174D01*
X213259174Y-123497477D01*
X213049053Y-123760962D01*
X212869752Y-124046316D01*
X212723532Y-124349945D01*
X212612227Y-124668034D01*
X212612223Y-124668046D01*
X212537233Y-124996602D01*
X212537231Y-124996618D01*
X212499500Y-125331491D01*
X170891506Y-125331491D01*
X170913973Y-125277251D01*
X170950500Y-125093616D01*
X170950500Y-124906384D01*
X170913973Y-124722749D01*
X170842322Y-124549769D01*
X170842321Y-124549768D01*
X170842318Y-124549762D01*
X170738302Y-124394092D01*
X170738299Y-124394088D01*
X170605911Y-124261700D01*
X170605907Y-124261697D01*
X170450237Y-124157681D01*
X170450228Y-124157676D01*
X170277251Y-124086027D01*
X170277243Y-124086025D01*
X170093620Y-124049500D01*
X170093616Y-124049500D01*
X169906384Y-124049500D01*
X169906379Y-124049500D01*
X169722756Y-124086025D01*
X169722748Y-124086027D01*
X169549771Y-124157676D01*
X169549762Y-124157681D01*
X169394092Y-124261697D01*
X169394088Y-124261700D01*
X169261700Y-124394088D01*
X169261697Y-124394092D01*
X169157681Y-124549762D01*
X169157676Y-124549771D01*
X169086027Y-124722748D01*
X169086025Y-124722756D01*
X169049500Y-124906379D01*
X145825500Y-124906379D01*
X145825500Y-124130249D01*
X145825499Y-124130247D01*
X145813868Y-124071770D01*
X145813867Y-124071769D01*
X145769552Y-124005447D01*
X145703230Y-123961132D01*
X145703229Y-123961131D01*
X145644752Y-123949500D01*
X145644748Y-123949500D01*
X143905252Y-123949500D01*
X143905247Y-123949500D01*
X143846770Y-123961131D01*
X143846769Y-123961132D01*
X143780447Y-124005447D01*
X143736132Y-124071769D01*
X143736131Y-124071770D01*
X143724500Y-124130247D01*
X137170667Y-124130247D01*
X137130247Y-124046316D01*
X137076722Y-123961132D01*
X136950946Y-123760961D01*
X136740825Y-123497477D01*
X136502523Y-123259175D01*
X136239039Y-123049054D01*
X135953686Y-122869754D01*
X135953683Y-122869752D01*
X135650054Y-122723532D01*
X135331965Y-122612227D01*
X135331953Y-122612223D01*
X135016784Y-122540289D01*
X135003398Y-122537233D01*
X135003381Y-122537231D01*
X134668508Y-122499500D01*
X134668504Y-122499500D01*
X134331496Y-122499500D01*
X134331491Y-122499500D01*
X133996618Y-122537231D01*
X133996602Y-122537233D01*
X133668046Y-122612223D01*
X133668034Y-122612227D01*
X133349945Y-122723532D01*
X133046316Y-122869752D01*
X132760962Y-123049053D01*
X132497477Y-123259174D01*
X132259174Y-123497477D01*
X132049053Y-123760962D01*
X131869752Y-124046316D01*
X131723532Y-124349945D01*
X131612227Y-124668034D01*
X131612223Y-124668046D01*
X131537233Y-124996602D01*
X131537231Y-124996618D01*
X131499500Y-125331491D01*
X130200503Y-125331491D01*
X130200503Y-122427525D01*
X149449500Y-122427525D01*
X149449500Y-122572475D01*
X149460151Y-122612223D01*
X149487017Y-122712488D01*
X149559488Y-122838011D01*
X149559490Y-122838013D01*
X149559491Y-122838015D01*
X149661985Y-122940509D01*
X149661986Y-122940510D01*
X149661988Y-122940511D01*
X149787511Y-123012982D01*
X149787512Y-123012982D01*
X149787515Y-123012984D01*
X149927525Y-123050500D01*
X149927528Y-123050500D01*
X150072472Y-123050500D01*
X150072475Y-123050500D01*
X150212485Y-123012984D01*
X150338015Y-122940509D01*
X150440509Y-122838015D01*
X150512984Y-122712485D01*
X150550500Y-122572475D01*
X150550500Y-122427525D01*
X153849500Y-122427525D01*
X153849500Y-122572475D01*
X153860151Y-122612223D01*
X153887017Y-122712488D01*
X153959482Y-122838000D01*
X153975955Y-122905900D01*
X153959482Y-122962000D01*
X153887017Y-123087511D01*
X153887016Y-123087515D01*
X153849500Y-123227525D01*
X153849500Y-123372475D01*
X153882995Y-123497477D01*
X153887017Y-123512488D01*
X153959482Y-123638000D01*
X153975955Y-123705900D01*
X153959482Y-123762000D01*
X153887017Y-123887511D01*
X153887016Y-123887515D01*
X153849500Y-124027525D01*
X153849500Y-124172475D01*
X153873408Y-124261698D01*
X153887017Y-124312488D01*
X153959488Y-124438011D01*
X153959490Y-124438013D01*
X153959491Y-124438015D01*
X154061985Y-124540509D01*
X154061986Y-124540510D01*
X154061988Y-124540511D01*
X154187511Y-124612982D01*
X154187512Y-124612982D01*
X154187515Y-124612984D01*
X154327525Y-124650500D01*
X154327528Y-124650500D01*
X154472472Y-124650500D01*
X154472475Y-124650500D01*
X154612485Y-124612984D01*
X154738002Y-124540516D01*
X154805899Y-124524044D01*
X154861996Y-124540515D01*
X154987515Y-124612984D01*
X155127525Y-124650500D01*
X155127528Y-124650500D01*
X155272472Y-124650500D01*
X155272475Y-124650500D01*
X155412485Y-124612984D01*
X155538015Y-124540509D01*
X155640509Y-124438015D01*
X155712984Y-124312485D01*
X155750500Y-124172475D01*
X155750500Y-124027525D01*
X155712984Y-123887515D01*
X155640516Y-123761997D01*
X155624044Y-123694101D01*
X155640515Y-123638003D01*
X155712984Y-123512485D01*
X155750500Y-123372475D01*
X155750500Y-123288995D01*
X175479499Y-123288995D01*
X175506418Y-123424322D01*
X175506421Y-123424332D01*
X175559221Y-123551804D01*
X175559228Y-123551817D01*
X175635885Y-123666541D01*
X175635888Y-123666545D01*
X175733454Y-123764111D01*
X175733458Y-123764114D01*
X175848182Y-123840771D01*
X175848195Y-123840778D01*
X175975667Y-123893578D01*
X175975672Y-123893580D01*
X175975676Y-123893580D01*
X175975677Y-123893581D01*
X176111004Y-123920500D01*
X176111007Y-123920500D01*
X176248995Y-123920500D01*
X176340041Y-123902389D01*
X176384328Y-123893580D01*
X176511811Y-123840775D01*
X176626542Y-123764114D01*
X176724114Y-123666542D01*
X176800775Y-123551811D01*
X176853580Y-123424328D01*
X176880500Y-123288993D01*
X176880500Y-123143982D01*
X177184500Y-123143982D01*
X177184500Y-123256018D01*
X177213497Y-123364237D01*
X177269515Y-123461263D01*
X177348737Y-123540485D01*
X177445763Y-123596503D01*
X177553982Y-123625500D01*
X177553984Y-123625500D01*
X177666016Y-123625500D01*
X177666018Y-123625500D01*
X177774237Y-123596503D01*
X177871263Y-123540485D01*
X177950485Y-123461263D01*
X178006503Y-123364237D01*
X178035500Y-123256018D01*
X178035500Y-123143982D01*
X182964500Y-123143982D01*
X182964500Y-123256018D01*
X182993497Y-123364237D01*
X183049515Y-123461263D01*
X183128737Y-123540485D01*
X183225763Y-123596503D01*
X183333982Y-123625500D01*
X183333984Y-123625500D01*
X183446016Y-123625500D01*
X183446018Y-123625500D01*
X183554237Y-123596503D01*
X183651263Y-123540485D01*
X183730485Y-123461263D01*
X183786503Y-123364237D01*
X183806664Y-123288995D01*
X184119499Y-123288995D01*
X184146418Y-123424322D01*
X184146421Y-123424332D01*
X184199221Y-123551804D01*
X184199228Y-123551817D01*
X184275885Y-123666541D01*
X184275888Y-123666545D01*
X184373454Y-123764111D01*
X184373458Y-123764114D01*
X184488182Y-123840771D01*
X184488195Y-123840778D01*
X184615667Y-123893578D01*
X184615672Y-123893580D01*
X184615676Y-123893580D01*
X184615677Y-123893581D01*
X184751004Y-123920500D01*
X184751007Y-123920500D01*
X184888995Y-123920500D01*
X184980041Y-123902389D01*
X185024328Y-123893580D01*
X185151811Y-123840775D01*
X185266542Y-123764114D01*
X185364114Y-123666542D01*
X185440775Y-123551811D01*
X185493580Y-123424328D01*
X185520500Y-123288993D01*
X185520500Y-122051007D01*
X185520500Y-122051004D01*
X185493581Y-121915677D01*
X185493580Y-121915676D01*
X185493580Y-121915672D01*
X185489731Y-121906379D01*
X185440778Y-121788195D01*
X185440771Y-121788182D01*
X185364114Y-121673458D01*
X185364111Y-121673454D01*
X185266545Y-121575888D01*
X185266541Y-121575885D01*
X185151817Y-121499228D01*
X185151804Y-121499221D01*
X185024332Y-121446421D01*
X185024322Y-121446418D01*
X184888995Y-121419500D01*
X184888993Y-121419500D01*
X184751007Y-121419500D01*
X184751005Y-121419500D01*
X184615677Y-121446418D01*
X184615667Y-121446421D01*
X184488195Y-121499221D01*
X184488182Y-121499228D01*
X184373458Y-121575885D01*
X184373454Y-121575888D01*
X184275888Y-121673454D01*
X184275885Y-121673458D01*
X184199228Y-121788182D01*
X184199221Y-121788195D01*
X184146421Y-121915667D01*
X184146418Y-121915677D01*
X184119500Y-122051004D01*
X184119500Y-122051007D01*
X184119500Y-123288993D01*
X184119500Y-123288995D01*
X184119499Y-123288995D01*
X183806664Y-123288995D01*
X183815500Y-123256018D01*
X183815500Y-123143982D01*
X183786503Y-123035763D01*
X183730485Y-122938737D01*
X183651263Y-122859515D01*
X183554237Y-122803497D01*
X183446018Y-122774500D01*
X183333982Y-122774500D01*
X183225763Y-122803497D01*
X183225760Y-122803498D01*
X183128740Y-122859513D01*
X183128734Y-122859517D01*
X183049517Y-122938734D01*
X183049513Y-122938740D01*
X182993498Y-123035760D01*
X182993497Y-123035763D01*
X182964500Y-123143982D01*
X178035500Y-123143982D01*
X178006503Y-123035763D01*
X177950485Y-122938737D01*
X177871263Y-122859515D01*
X177774237Y-122803497D01*
X177666018Y-122774500D01*
X177553982Y-122774500D01*
X177445763Y-122803497D01*
X177445760Y-122803498D01*
X177348740Y-122859513D01*
X177348734Y-122859517D01*
X177269517Y-122938734D01*
X177269513Y-122938740D01*
X177213498Y-123035760D01*
X177213497Y-123035763D01*
X177184500Y-123143982D01*
X176880500Y-123143982D01*
X176880500Y-122051007D01*
X176880500Y-122051004D01*
X176853581Y-121915677D01*
X176853580Y-121915676D01*
X176853580Y-121915672D01*
X176849731Y-121906379D01*
X176800778Y-121788195D01*
X176800771Y-121788182D01*
X176724114Y-121673458D01*
X176724111Y-121673454D01*
X176626545Y-121575888D01*
X176626541Y-121575885D01*
X176511817Y-121499228D01*
X176511804Y-121499221D01*
X176384332Y-121446421D01*
X176384322Y-121446418D01*
X176248995Y-121419500D01*
X176248993Y-121419500D01*
X176111007Y-121419500D01*
X176111005Y-121419500D01*
X175975677Y-121446418D01*
X175975667Y-121446421D01*
X175848195Y-121499221D01*
X175848182Y-121499228D01*
X175733458Y-121575885D01*
X175733454Y-121575888D01*
X175635888Y-121673454D01*
X175635885Y-121673458D01*
X175559228Y-121788182D01*
X175559221Y-121788195D01*
X175506421Y-121915667D01*
X175506418Y-121915677D01*
X175479500Y-122051004D01*
X175479500Y-122051007D01*
X175479500Y-123288993D01*
X175479500Y-123288995D01*
X175479499Y-123288995D01*
X155750500Y-123288995D01*
X155750500Y-123227525D01*
X155712984Y-123087515D01*
X155640516Y-122961997D01*
X155624044Y-122894101D01*
X155640515Y-122838003D01*
X155712984Y-122712485D01*
X155750500Y-122572475D01*
X155750500Y-122427525D01*
X155712984Y-122287515D01*
X155707053Y-122277243D01*
X155640511Y-122161988D01*
X155640506Y-122161982D01*
X155538017Y-122059493D01*
X155538015Y-122059491D01*
X155448273Y-122007678D01*
X155448272Y-122007677D01*
X155412488Y-121987017D01*
X155412489Y-121987017D01*
X155401006Y-121983940D01*
X155272475Y-121949500D01*
X155127525Y-121949500D01*
X154998993Y-121983940D01*
X154987511Y-121987017D01*
X154862000Y-122059482D01*
X154794100Y-122075955D01*
X154738000Y-122059482D01*
X154612488Y-121987017D01*
X154612489Y-121987017D01*
X154601006Y-121983940D01*
X154472475Y-121949500D01*
X154327525Y-121949500D01*
X154198993Y-121983940D01*
X154187511Y-121987017D01*
X154061988Y-122059488D01*
X154061982Y-122059493D01*
X153959493Y-122161982D01*
X153959488Y-122161988D01*
X153887017Y-122287511D01*
X153887016Y-122287515D01*
X153849500Y-122427525D01*
X150550500Y-122427525D01*
X150512984Y-122287515D01*
X150507053Y-122277243D01*
X150440511Y-122161988D01*
X150440506Y-122161982D01*
X150338017Y-122059493D01*
X150338011Y-122059488D01*
X150212488Y-121987017D01*
X150212489Y-121987017D01*
X150201006Y-121983940D01*
X150072475Y-121949500D01*
X149927525Y-121949500D01*
X149798993Y-121983940D01*
X149787511Y-121987017D01*
X149661988Y-122059488D01*
X149661982Y-122059493D01*
X149559493Y-122161982D01*
X149559488Y-122161988D01*
X149487017Y-122287511D01*
X149487016Y-122287515D01*
X149449500Y-122427525D01*
X130200503Y-122427525D01*
X130200503Y-121906379D01*
X169049500Y-121906379D01*
X169049500Y-122093620D01*
X169086025Y-122277243D01*
X169086027Y-122277251D01*
X169157676Y-122450228D01*
X169157681Y-122450237D01*
X169261697Y-122605907D01*
X169261700Y-122605911D01*
X169394088Y-122738299D01*
X169394092Y-122738302D01*
X169549762Y-122842318D01*
X169549768Y-122842321D01*
X169549769Y-122842322D01*
X169722749Y-122913973D01*
X169856166Y-122940511D01*
X169906379Y-122950499D01*
X169906383Y-122950500D01*
X169906384Y-122950500D01*
X170093617Y-122950500D01*
X170093618Y-122950499D01*
X170277251Y-122913973D01*
X170450231Y-122842322D01*
X170605908Y-122738302D01*
X170738302Y-122605908D01*
X170842322Y-122450231D01*
X170913973Y-122277251D01*
X170950500Y-122093616D01*
X170950500Y-121906384D01*
X170913973Y-121722749D01*
X170842322Y-121549769D01*
X170842321Y-121549768D01*
X170842318Y-121549762D01*
X170738302Y-121394092D01*
X170738299Y-121394088D01*
X170605911Y-121261700D01*
X170605907Y-121261697D01*
X170450237Y-121157681D01*
X170450228Y-121157676D01*
X170277251Y-121086027D01*
X170277243Y-121086025D01*
X170093620Y-121049500D01*
X170093616Y-121049500D01*
X169906384Y-121049500D01*
X169906379Y-121049500D01*
X169722756Y-121086025D01*
X169722748Y-121086027D01*
X169549771Y-121157676D01*
X169549762Y-121157681D01*
X169394092Y-121261697D01*
X169394088Y-121261700D01*
X169261700Y-121394088D01*
X169261697Y-121394092D01*
X169157681Y-121549762D01*
X169157676Y-121549771D01*
X169086027Y-121722748D01*
X169086025Y-121722756D01*
X169049500Y-121906379D01*
X130200503Y-121906379D01*
X130200502Y-116334108D01*
X152699500Y-116334108D01*
X152699500Y-116465891D01*
X152733608Y-116593187D01*
X152766554Y-116650250D01*
X152799500Y-116707314D01*
X152892686Y-116800500D01*
X153006814Y-116866392D01*
X153134108Y-116900500D01*
X153134110Y-116900500D01*
X153265890Y-116900500D01*
X153265892Y-116900500D01*
X153393186Y-116866392D01*
X153507314Y-116800500D01*
X153600500Y-116707314D01*
X153666392Y-116593186D01*
X153700500Y-116465892D01*
X153700500Y-116334108D01*
X153666392Y-116206814D01*
X153600500Y-116092686D01*
X153507314Y-115999500D01*
X153450250Y-115966554D01*
X153393187Y-115933608D01*
X153329539Y-115916554D01*
X153265892Y-115899500D01*
X153134108Y-115899500D01*
X153006812Y-115933608D01*
X152892686Y-115999500D01*
X152892683Y-115999502D01*
X152799502Y-116092683D01*
X152799500Y-116092686D01*
X152733608Y-116206812D01*
X152699500Y-116334108D01*
X130200502Y-116334108D01*
X130200502Y-112906379D01*
X136049500Y-112906379D01*
X136049500Y-113093620D01*
X136086025Y-113277243D01*
X136086027Y-113277251D01*
X136157676Y-113450228D01*
X136157681Y-113450237D01*
X136261697Y-113605907D01*
X136261700Y-113605911D01*
X136394088Y-113738299D01*
X136394092Y-113738302D01*
X136549762Y-113842318D01*
X136549768Y-113842321D01*
X136549769Y-113842322D01*
X136722749Y-113913973D01*
X136906379Y-113950499D01*
X136906383Y-113950500D01*
X136906384Y-113950500D01*
X137093617Y-113950500D01*
X137093618Y-113950499D01*
X137277251Y-113913973D01*
X137450231Y-113842322D01*
X137605908Y-113738302D01*
X137738302Y-113605908D01*
X137842322Y-113450231D01*
X137913973Y-113277251D01*
X137950500Y-113093616D01*
X137950500Y-112906384D01*
X137913973Y-112722749D01*
X137842322Y-112549769D01*
X137842320Y-112549766D01*
X137842317Y-112549761D01*
X137838164Y-112543545D01*
X137838163Y-112543544D01*
X137794843Y-112478711D01*
X209649500Y-112478711D01*
X209649500Y-112721288D01*
X209681161Y-112961785D01*
X209743947Y-113196104D01*
X209836773Y-113420205D01*
X209836776Y-113420212D01*
X209958064Y-113630289D01*
X209958066Y-113630292D01*
X209958067Y-113630293D01*
X210105733Y-113822736D01*
X210105739Y-113822743D01*
X210277256Y-113994260D01*
X210277262Y-113994265D01*
X210469711Y-114141936D01*
X210679788Y-114263224D01*
X210903900Y-114356054D01*
X211138211Y-114418838D01*
X211318586Y-114442584D01*
X211378711Y-114450500D01*
X211378712Y-114450500D01*
X211621289Y-114450500D01*
X211669388Y-114444167D01*
X211861789Y-114418838D01*
X212096100Y-114356054D01*
X212320212Y-114263224D01*
X212530289Y-114141936D01*
X212722738Y-113994265D01*
X212894265Y-113822738D01*
X213041936Y-113630289D01*
X213163224Y-113420212D01*
X213256054Y-113196100D01*
X213318838Y-112961789D01*
X213350500Y-112721288D01*
X213350500Y-112478712D01*
X213318838Y-112238211D01*
X213256054Y-112003900D01*
X213163224Y-111779788D01*
X213041936Y-111569711D01*
X212894265Y-111377262D01*
X212894260Y-111377256D01*
X212722743Y-111205739D01*
X212722736Y-111205733D01*
X212530293Y-111058067D01*
X212530292Y-111058066D01*
X212530289Y-111058064D01*
X212320212Y-110936776D01*
X212320205Y-110936773D01*
X212096104Y-110843947D01*
X211861785Y-110781161D01*
X211621289Y-110749500D01*
X211621288Y-110749500D01*
X211378712Y-110749500D01*
X211378711Y-110749500D01*
X211138214Y-110781161D01*
X210903895Y-110843947D01*
X210679794Y-110936773D01*
X210679785Y-110936777D01*
X210469706Y-111058067D01*
X210277263Y-111205733D01*
X210277256Y-111205739D01*
X210105739Y-111377256D01*
X210105733Y-111377263D01*
X209958067Y-111569706D01*
X209836777Y-111779785D01*
X209836773Y-111779794D01*
X209743947Y-112003895D01*
X209681161Y-112238214D01*
X209649500Y-112478711D01*
X137794843Y-112478711D01*
X137738302Y-112394092D01*
X137738299Y-112394088D01*
X137605911Y-112261700D01*
X137605907Y-112261697D01*
X137450237Y-112157681D01*
X137450228Y-112157676D01*
X137277251Y-112086027D01*
X137277243Y-112086025D01*
X137093620Y-112049500D01*
X137093616Y-112049500D01*
X136906384Y-112049500D01*
X136906379Y-112049500D01*
X136722756Y-112086025D01*
X136722748Y-112086027D01*
X136549771Y-112157676D01*
X136549762Y-112157681D01*
X136394092Y-112261697D01*
X136394088Y-112261700D01*
X136261700Y-112394088D01*
X136261697Y-112394092D01*
X136157681Y-112549762D01*
X136157676Y-112549771D01*
X136086027Y-112722748D01*
X136086025Y-112722756D01*
X136049500Y-112906379D01*
X130200502Y-112906379D01*
X130200502Y-111634108D01*
X153899500Y-111634108D01*
X153899500Y-111765892D01*
X153903225Y-111779794D01*
X153933608Y-111893187D01*
X153966554Y-111950250D01*
X153999500Y-112007314D01*
X154092686Y-112100500D01*
X154206814Y-112166392D01*
X154334108Y-112200500D01*
X154334110Y-112200500D01*
X154465890Y-112200500D01*
X154465892Y-112200500D01*
X154593186Y-112166392D01*
X154707314Y-112100500D01*
X154800500Y-112007314D01*
X154866392Y-111893186D01*
X154900500Y-111765892D01*
X154900500Y-111634108D01*
X154866392Y-111506814D01*
X154800500Y-111392686D01*
X154707314Y-111299500D01*
X154650250Y-111266554D01*
X154593187Y-111233608D01*
X154489176Y-111205739D01*
X154465892Y-111199500D01*
X154334108Y-111199500D01*
X154206812Y-111233608D01*
X154092686Y-111299500D01*
X154092683Y-111299502D01*
X153999502Y-111392683D01*
X153999500Y-111392686D01*
X153933608Y-111506812D01*
X153916756Y-111569706D01*
X153899500Y-111634108D01*
X130200502Y-111634108D01*
X130200502Y-107106379D01*
X154249500Y-107106379D01*
X154249500Y-107293620D01*
X154286025Y-107477243D01*
X154286027Y-107477251D01*
X154357676Y-107650228D01*
X154357681Y-107650237D01*
X154461697Y-107805907D01*
X154461700Y-107805911D01*
X154594088Y-107938299D01*
X154594092Y-107938302D01*
X154749762Y-108042318D01*
X154749768Y-108042321D01*
X154749769Y-108042322D01*
X154922749Y-108113973D01*
X155106379Y-108150499D01*
X155106383Y-108150500D01*
X155106384Y-108150500D01*
X155293617Y-108150500D01*
X155293618Y-108150499D01*
X155477251Y-108113973D01*
X155650231Y-108042322D01*
X155805908Y-107938302D01*
X155938302Y-107805908D01*
X156042322Y-107650231D01*
X156113973Y-107477251D01*
X156150500Y-107293616D01*
X156150500Y-107106384D01*
X156113973Y-106922749D01*
X156042322Y-106749769D01*
X156042321Y-106749768D01*
X156042318Y-106749762D01*
X155938302Y-106594092D01*
X155938299Y-106594088D01*
X155805911Y-106461700D01*
X155805907Y-106461697D01*
X155650237Y-106357681D01*
X155650228Y-106357676D01*
X155477251Y-106286027D01*
X155477243Y-106286025D01*
X155293620Y-106249500D01*
X155293616Y-106249500D01*
X155106384Y-106249500D01*
X155106379Y-106249500D01*
X154922756Y-106286025D01*
X154922748Y-106286027D01*
X154749771Y-106357676D01*
X154749762Y-106357681D01*
X154594092Y-106461697D01*
X154594088Y-106461700D01*
X154461700Y-106594088D01*
X154461697Y-106594092D01*
X154357681Y-106749762D01*
X154357676Y-106749771D01*
X154286027Y-106922748D01*
X154286025Y-106922756D01*
X154249500Y-107106379D01*
X130200502Y-107106379D01*
X130200502Y-105334108D01*
X141599500Y-105334108D01*
X141599500Y-105465891D01*
X141633608Y-105593187D01*
X141666554Y-105650250D01*
X141699500Y-105707314D01*
X141792686Y-105800500D01*
X141906814Y-105866392D01*
X142034108Y-105900500D01*
X142034110Y-105900500D01*
X142165890Y-105900500D01*
X142165892Y-105900500D01*
X142293186Y-105866392D01*
X142407314Y-105800500D01*
X142500500Y-105707314D01*
X142566392Y-105593186D01*
X142600500Y-105465892D01*
X142600500Y-105334108D01*
X142566392Y-105206814D01*
X142500500Y-105092686D01*
X142407314Y-104999500D01*
X142350250Y-104966554D01*
X142293187Y-104933608D01*
X142229539Y-104916554D01*
X142165892Y-104899500D01*
X142034108Y-104899500D01*
X141906812Y-104933608D01*
X141792686Y-104999500D01*
X141792683Y-104999502D01*
X141699502Y-105092683D01*
X141699500Y-105092686D01*
X141633608Y-105206812D01*
X141599500Y-105334108D01*
X130200502Y-105334108D01*
X130200502Y-104334108D01*
X147799500Y-104334108D01*
X147799500Y-104465891D01*
X147833608Y-104593187D01*
X147866554Y-104650250D01*
X147899500Y-104707314D01*
X147992686Y-104800500D01*
X148106814Y-104866392D01*
X148234108Y-104900500D01*
X148234110Y-104900500D01*
X148365890Y-104900500D01*
X148365892Y-104900500D01*
X148493186Y-104866392D01*
X148607314Y-104800500D01*
X148700500Y-104707314D01*
X148766392Y-104593186D01*
X148800500Y-104465892D01*
X148800500Y-104334108D01*
X151499500Y-104334108D01*
X151499500Y-104465891D01*
X151533608Y-104593187D01*
X151566554Y-104650250D01*
X151599500Y-104707314D01*
X151692686Y-104800500D01*
X151806814Y-104866392D01*
X151934108Y-104900500D01*
X151934110Y-104900500D01*
X152065890Y-104900500D01*
X152065892Y-104900500D01*
X152193186Y-104866392D01*
X152307314Y-104800500D01*
X152400500Y-104707314D01*
X152466392Y-104593186D01*
X152500500Y-104465892D01*
X152500500Y-104334108D01*
X152466392Y-104206814D01*
X152400500Y-104092686D01*
X152307314Y-103999500D01*
X152242380Y-103962010D01*
X152193187Y-103933608D01*
X152129539Y-103916554D01*
X152065892Y-103899500D01*
X151934108Y-103899500D01*
X151806812Y-103933608D01*
X151692686Y-103999500D01*
X151692683Y-103999502D01*
X151599502Y-104092683D01*
X151599500Y-104092686D01*
X151533608Y-104206812D01*
X151499500Y-104334108D01*
X148800500Y-104334108D01*
X148766392Y-104206814D01*
X148700500Y-104092686D01*
X148607314Y-103999500D01*
X148542380Y-103962010D01*
X148493187Y-103933608D01*
X148429539Y-103916554D01*
X148365892Y-103899500D01*
X148234108Y-103899500D01*
X148106812Y-103933608D01*
X147992686Y-103999500D01*
X147992683Y-103999502D01*
X147899502Y-104092683D01*
X147899500Y-104092686D01*
X147833608Y-104206812D01*
X147799500Y-104334108D01*
X130200502Y-104334108D01*
X130200502Y-102734108D01*
X134199500Y-102734108D01*
X134199500Y-102865891D01*
X134233608Y-102993187D01*
X134266554Y-103050250D01*
X134299500Y-103107314D01*
X134299502Y-103107316D01*
X134304505Y-103112319D01*
X134337990Y-103173642D01*
X134333006Y-103243334D01*
X134304505Y-103287681D01*
X134299502Y-103292683D01*
X134299500Y-103292686D01*
X134233608Y-103406812D01*
X134217778Y-103465892D01*
X134199500Y-103534108D01*
X134199500Y-103665892D01*
X134216554Y-103729539D01*
X134233608Y-103793187D01*
X134266554Y-103850250D01*
X134299500Y-103907314D01*
X134392686Y-104000500D01*
X134506814Y-104066392D01*
X134634108Y-104100500D01*
X134634110Y-104100500D01*
X134765890Y-104100500D01*
X134765892Y-104100500D01*
X134893186Y-104066392D01*
X135007314Y-104000500D01*
X135012319Y-103995495D01*
X135073642Y-103962010D01*
X135143334Y-103966994D01*
X135187681Y-103995495D01*
X135192686Y-104000500D01*
X135306814Y-104066392D01*
X135434108Y-104100500D01*
X135434110Y-104100500D01*
X135565890Y-104100500D01*
X135565892Y-104100500D01*
X135693186Y-104066392D01*
X135807314Y-104000500D01*
X135900500Y-103907314D01*
X135966392Y-103793186D01*
X136000500Y-103665892D01*
X136000500Y-103534108D01*
X135966392Y-103406814D01*
X135924415Y-103334108D01*
X148749500Y-103334108D01*
X148749500Y-103465891D01*
X148783608Y-103593187D01*
X148816554Y-103650250D01*
X148849500Y-103707314D01*
X148942686Y-103800500D01*
X149056814Y-103866392D01*
X149184108Y-103900500D01*
X149184110Y-103900500D01*
X149315890Y-103900500D01*
X149315892Y-103900500D01*
X149443186Y-103866392D01*
X149557314Y-103800500D01*
X149650500Y-103707314D01*
X149716392Y-103593186D01*
X149750500Y-103465892D01*
X149750500Y-103334108D01*
X149716392Y-103206814D01*
X149650500Y-103092686D01*
X149557314Y-102999500D01*
X149500250Y-102966554D01*
X149443187Y-102933608D01*
X149379539Y-102916554D01*
X149315892Y-102899500D01*
X149184108Y-102899500D01*
X149056812Y-102933608D01*
X148942686Y-102999500D01*
X148942683Y-102999502D01*
X148849502Y-103092683D01*
X148849500Y-103092686D01*
X148783608Y-103206812D01*
X148749500Y-103334108D01*
X135924415Y-103334108D01*
X135900500Y-103292686D01*
X135885759Y-103277945D01*
X135878397Y-103266312D01*
X135872421Y-103245425D01*
X135862010Y-103226358D01*
X135863001Y-103212497D01*
X135859179Y-103199137D01*
X135865444Y-103178336D01*
X135866994Y-103156666D01*
X135876362Y-103142089D01*
X135879330Y-103132236D01*
X135886792Y-103125860D01*
X135895495Y-103112319D01*
X135900500Y-103107314D01*
X135966392Y-102993186D01*
X136000500Y-102865892D01*
X136000500Y-102734108D01*
X135966392Y-102606814D01*
X135900500Y-102492686D01*
X135807314Y-102399500D01*
X135750250Y-102366554D01*
X135693187Y-102333608D01*
X135629539Y-102316554D01*
X135565892Y-102299500D01*
X135434108Y-102299500D01*
X135306812Y-102333608D01*
X135192686Y-102399500D01*
X135192683Y-102399502D01*
X135187681Y-102404505D01*
X135126358Y-102437990D01*
X135056666Y-102433006D01*
X135012319Y-102404505D01*
X135007316Y-102399502D01*
X135007314Y-102399500D01*
X134950250Y-102366554D01*
X134893187Y-102333608D01*
X134829539Y-102316554D01*
X134765892Y-102299500D01*
X134634108Y-102299500D01*
X134506812Y-102333608D01*
X134392686Y-102399500D01*
X134392683Y-102399502D01*
X134299502Y-102492683D01*
X134299500Y-102492686D01*
X134233608Y-102606812D01*
X134199500Y-102734108D01*
X130200502Y-102734108D01*
X130200502Y-100234108D01*
X148749500Y-100234108D01*
X148749500Y-100365891D01*
X148783608Y-100493187D01*
X148816554Y-100550250D01*
X148849500Y-100607314D01*
X148942686Y-100700500D01*
X149056814Y-100766392D01*
X149184108Y-100800500D01*
X149184110Y-100800500D01*
X149315890Y-100800500D01*
X149315892Y-100800500D01*
X149443186Y-100766392D01*
X149557314Y-100700500D01*
X149650500Y-100607314D01*
X149716392Y-100493186D01*
X149750500Y-100365892D01*
X149750500Y-100234108D01*
X149716392Y-100106814D01*
X149650500Y-99992686D01*
X149557314Y-99899500D01*
X149500250Y-99866554D01*
X149443187Y-99833608D01*
X149379539Y-99816554D01*
X149315892Y-99799500D01*
X149184108Y-99799500D01*
X149056812Y-99833608D01*
X148942686Y-99899500D01*
X148942683Y-99899502D01*
X148849502Y-99992683D01*
X148849500Y-99992686D01*
X148783608Y-100106812D01*
X148749500Y-100234108D01*
X130200502Y-100234108D01*
X130200502Y-98134108D01*
X147799500Y-98134108D01*
X147799500Y-98265892D01*
X147816554Y-98329539D01*
X147833608Y-98393187D01*
X147841475Y-98406812D01*
X147899500Y-98507314D01*
X147992686Y-98600500D01*
X148091521Y-98657563D01*
X148105944Y-98665890D01*
X148106814Y-98666392D01*
X148234108Y-98700500D01*
X148234110Y-98700500D01*
X148365890Y-98700500D01*
X148365892Y-98700500D01*
X148493186Y-98666392D01*
X148607314Y-98600500D01*
X148673706Y-98534108D01*
X153999500Y-98534108D01*
X153999500Y-98665891D01*
X154033608Y-98793187D01*
X154066554Y-98850250D01*
X154099500Y-98907314D01*
X154192686Y-99000500D01*
X154306814Y-99066392D01*
X154434108Y-99100500D01*
X154434110Y-99100500D01*
X154565890Y-99100500D01*
X154565892Y-99100500D01*
X154693186Y-99066392D01*
X154807314Y-99000500D01*
X154900500Y-98907314D01*
X154966392Y-98793186D01*
X155000500Y-98665892D01*
X155000500Y-98534108D01*
X154966392Y-98406814D01*
X154900500Y-98292686D01*
X154807314Y-98199500D01*
X154750250Y-98166554D01*
X154693187Y-98133608D01*
X154629539Y-98116554D01*
X154565892Y-98099500D01*
X154434108Y-98099500D01*
X154306812Y-98133608D01*
X154192686Y-98199500D01*
X154192683Y-98199502D01*
X154099502Y-98292683D01*
X154099500Y-98292686D01*
X154033608Y-98406812D01*
X153999500Y-98534108D01*
X148673706Y-98534108D01*
X148700500Y-98507314D01*
X148713023Y-98485622D01*
X148725520Y-98463980D01*
X148766390Y-98393189D01*
X148766392Y-98393186D01*
X148800500Y-98265892D01*
X148800500Y-98134108D01*
X148766392Y-98006814D01*
X148700500Y-97892686D01*
X148607314Y-97799500D01*
X148550250Y-97766554D01*
X148493187Y-97733608D01*
X148429539Y-97716554D01*
X148365892Y-97699500D01*
X148234108Y-97699500D01*
X148106812Y-97733608D01*
X147992686Y-97799500D01*
X147992683Y-97799502D01*
X147899502Y-97892683D01*
X147899500Y-97892686D01*
X147833608Y-98006812D01*
X147808773Y-98099500D01*
X147799500Y-98134108D01*
X130200502Y-98134108D01*
X130200502Y-96634108D01*
X152899500Y-96634108D01*
X152899500Y-96765891D01*
X152933608Y-96893187D01*
X152966554Y-96950250D01*
X152999500Y-97007314D01*
X153092686Y-97100500D01*
X153206814Y-97166392D01*
X153334108Y-97200500D01*
X153334110Y-97200500D01*
X153465890Y-97200500D01*
X153465892Y-97200500D01*
X153593186Y-97166392D01*
X153707314Y-97100500D01*
X153800500Y-97007314D01*
X153866392Y-96893186D01*
X153900500Y-96765892D01*
X153900500Y-96634108D01*
X153866392Y-96506814D01*
X153800500Y-96392686D01*
X153707314Y-96299500D01*
X153650250Y-96266554D01*
X153593187Y-96233608D01*
X153529539Y-96216554D01*
X153465892Y-96199500D01*
X153334108Y-96199500D01*
X153206812Y-96233608D01*
X153092686Y-96299500D01*
X153092683Y-96299502D01*
X152999502Y-96392683D01*
X152999500Y-96392686D01*
X152933608Y-96506812D01*
X152899500Y-96634108D01*
X130200502Y-96634108D01*
X130200502Y-93934108D01*
X136699500Y-93934108D01*
X136699500Y-94065891D01*
X136733608Y-94193187D01*
X136766554Y-94250250D01*
X136799500Y-94307314D01*
X136892686Y-94400500D01*
X137006814Y-94466392D01*
X137134108Y-94500500D01*
X137134110Y-94500500D01*
X137265890Y-94500500D01*
X137265892Y-94500500D01*
X137393186Y-94466392D01*
X137507314Y-94400500D01*
X137600500Y-94307314D01*
X137666392Y-94193186D01*
X137700500Y-94065892D01*
X137700500Y-93934108D01*
X137666392Y-93806814D01*
X137600500Y-93692686D01*
X137507314Y-93599500D01*
X137450250Y-93566554D01*
X137393187Y-93533608D01*
X137329539Y-93516554D01*
X137265892Y-93499500D01*
X137134108Y-93499500D01*
X137006812Y-93533608D01*
X136892686Y-93599500D01*
X136892683Y-93599502D01*
X136799502Y-93692683D01*
X136799500Y-93692686D01*
X136733608Y-93806812D01*
X136699500Y-93934108D01*
X130200502Y-93934108D01*
X130200502Y-92906379D01*
X142049500Y-92906379D01*
X142049500Y-93093620D01*
X142086025Y-93277243D01*
X142086027Y-93277251D01*
X142157676Y-93450228D01*
X142157681Y-93450237D01*
X142261697Y-93605907D01*
X142261700Y-93605911D01*
X142394088Y-93738299D01*
X142394092Y-93738302D01*
X142549762Y-93842318D01*
X142549768Y-93842321D01*
X142549769Y-93842322D01*
X142722749Y-93913973D01*
X142906379Y-93950499D01*
X142906383Y-93950500D01*
X142906384Y-93950500D01*
X143093617Y-93950500D01*
X143093618Y-93950499D01*
X143277251Y-93913973D01*
X143450231Y-93842322D01*
X143605908Y-93738302D01*
X143738302Y-93605908D01*
X143842322Y-93450231D01*
X143913973Y-93277251D01*
X143950500Y-93093616D01*
X143950500Y-92906384D01*
X143913973Y-92722749D01*
X143842322Y-92549769D01*
X143842321Y-92549768D01*
X143842318Y-92549762D01*
X143738302Y-92394092D01*
X143738299Y-92394088D01*
X143605911Y-92261700D01*
X143605907Y-92261697D01*
X143450237Y-92157681D01*
X143450228Y-92157676D01*
X143277251Y-92086027D01*
X143277243Y-92086025D01*
X143093620Y-92049500D01*
X143093616Y-92049500D01*
X142906384Y-92049500D01*
X142906379Y-92049500D01*
X142722756Y-92086025D01*
X142722748Y-92086027D01*
X142549771Y-92157676D01*
X142549762Y-92157681D01*
X142394092Y-92261697D01*
X142394088Y-92261700D01*
X142261700Y-92394088D01*
X142261697Y-92394092D01*
X142157681Y-92549762D01*
X142157676Y-92549771D01*
X142086027Y-92722748D01*
X142086025Y-92722756D01*
X142049500Y-92906379D01*
X130200502Y-92906379D01*
X130200502Y-90234108D01*
X132099500Y-90234108D01*
X132099500Y-90365891D01*
X132133608Y-90493187D01*
X132166554Y-90550250D01*
X132199500Y-90607314D01*
X132292686Y-90700500D01*
X132406814Y-90766392D01*
X132534108Y-90800500D01*
X132534110Y-90800500D01*
X132665890Y-90800500D01*
X132665892Y-90800500D01*
X132793186Y-90766392D01*
X132907314Y-90700500D01*
X133000500Y-90607314D01*
X133066392Y-90493186D01*
X133100500Y-90365892D01*
X133100500Y-90234108D01*
X133066392Y-90106814D01*
X133000500Y-89992686D01*
X132907314Y-89899500D01*
X132850250Y-89866554D01*
X132793187Y-89833608D01*
X132729539Y-89816554D01*
X132665892Y-89799500D01*
X132534108Y-89799500D01*
X132406812Y-89833608D01*
X132292686Y-89899500D01*
X132292683Y-89899502D01*
X132199502Y-89992683D01*
X132199500Y-89992686D01*
X132133608Y-90106812D01*
X132099500Y-90234108D01*
X130200502Y-90234108D01*
X130200502Y-88796530D01*
X155649500Y-88796530D01*
X155649500Y-89003469D01*
X155689868Y-89206412D01*
X155689870Y-89206420D01*
X155769058Y-89397596D01*
X155884024Y-89569657D01*
X156030342Y-89715975D01*
X156030345Y-89715977D01*
X156202402Y-89830941D01*
X156393580Y-89910130D01*
X156596530Y-89950499D01*
X156596534Y-89950500D01*
X156596535Y-89950500D01*
X156803466Y-89950500D01*
X156803467Y-89950499D01*
X157006420Y-89910130D01*
X157197598Y-89830941D01*
X157369655Y-89715977D01*
X157515977Y-89569655D01*
X157630941Y-89397598D01*
X157710130Y-89206420D01*
X157750500Y-89003465D01*
X157750500Y-88796535D01*
X157750499Y-88796530D01*
X158189500Y-88796530D01*
X158189500Y-89003469D01*
X158229868Y-89206412D01*
X158229870Y-89206420D01*
X158309058Y-89397596D01*
X158424024Y-89569657D01*
X158570342Y-89715975D01*
X158570345Y-89715977D01*
X158742402Y-89830941D01*
X158933580Y-89910130D01*
X159136530Y-89950499D01*
X159136534Y-89950500D01*
X159136535Y-89950500D01*
X159343466Y-89950500D01*
X159343467Y-89950499D01*
X159546420Y-89910130D01*
X159737598Y-89830941D01*
X159909655Y-89715977D01*
X160055977Y-89569655D01*
X160170941Y-89397598D01*
X160250130Y-89206420D01*
X160290500Y-89003465D01*
X160290500Y-88796535D01*
X160250130Y-88593580D01*
X160170941Y-88402402D01*
X160055977Y-88230345D01*
X160055975Y-88230342D01*
X159909657Y-88084024D01*
X159823626Y-88026541D01*
X159737598Y-87969059D01*
X159546420Y-87889870D01*
X159546412Y-87889868D01*
X159343469Y-87849500D01*
X159343465Y-87849500D01*
X159136535Y-87849500D01*
X159136530Y-87849500D01*
X158933587Y-87889868D01*
X158933579Y-87889870D01*
X158742403Y-87969058D01*
X158570342Y-88084024D01*
X158424024Y-88230342D01*
X158309058Y-88402403D01*
X158229870Y-88593579D01*
X158229868Y-88593587D01*
X158189500Y-88796530D01*
X157750499Y-88796530D01*
X157710130Y-88593580D01*
X157630941Y-88402402D01*
X157515977Y-88230345D01*
X157515975Y-88230342D01*
X157369657Y-88084024D01*
X157283626Y-88026541D01*
X157197598Y-87969059D01*
X157006420Y-87889870D01*
X157006412Y-87889868D01*
X156803469Y-87849500D01*
X156803465Y-87849500D01*
X156596535Y-87849500D01*
X156596530Y-87849500D01*
X156393587Y-87889868D01*
X156393579Y-87889870D01*
X156202403Y-87969058D01*
X156030342Y-88084024D01*
X155884024Y-88230342D01*
X155769058Y-88402403D01*
X155689870Y-88593579D01*
X155689868Y-88593587D01*
X155649500Y-88796530D01*
X130200502Y-88796530D01*
X130200501Y-85921153D01*
X134974500Y-85921153D01*
X134974500Y-86078846D01*
X135005261Y-86233489D01*
X135005264Y-86233501D01*
X135065602Y-86379172D01*
X135065609Y-86379185D01*
X135153210Y-86510288D01*
X135153213Y-86510292D01*
X135264707Y-86621786D01*
X135264711Y-86621789D01*
X135395814Y-86709390D01*
X135395827Y-86709397D01*
X135541498Y-86769735D01*
X135541503Y-86769737D01*
X135696153Y-86800499D01*
X135696156Y-86800500D01*
X135696158Y-86800500D01*
X136403844Y-86800500D01*
X136403845Y-86800499D01*
X136558497Y-86769737D01*
X136704179Y-86709394D01*
X136835289Y-86621789D01*
X136946789Y-86510289D01*
X137034394Y-86379179D01*
X137094737Y-86233497D01*
X137125500Y-86078842D01*
X137125500Y-85921158D01*
X137125500Y-85921155D01*
X137125499Y-85921153D01*
X137094738Y-85766510D01*
X137094737Y-85766503D01*
X137094735Y-85766498D01*
X137034397Y-85620827D01*
X137034390Y-85620814D01*
X136946789Y-85489711D01*
X136946786Y-85489707D01*
X136835292Y-85378213D01*
X136835288Y-85378210D01*
X136704185Y-85290609D01*
X136704172Y-85290602D01*
X136558501Y-85230264D01*
X136558489Y-85230261D01*
X136403845Y-85199500D01*
X136403842Y-85199500D01*
X135696158Y-85199500D01*
X135696155Y-85199500D01*
X135541510Y-85230261D01*
X135541498Y-85230264D01*
X135395827Y-85290602D01*
X135395814Y-85290609D01*
X135264711Y-85378210D01*
X135264707Y-85378213D01*
X135153213Y-85489707D01*
X135153210Y-85489711D01*
X135065609Y-85620814D01*
X135065602Y-85620827D01*
X135005264Y-85766498D01*
X135005261Y-85766510D01*
X134974500Y-85921153D01*
X130200501Y-85921153D01*
X130200501Y-83921153D01*
X134974500Y-83921153D01*
X134974500Y-84078846D01*
X135005261Y-84233489D01*
X135005264Y-84233501D01*
X135065602Y-84379172D01*
X135065609Y-84379185D01*
X135153210Y-84510288D01*
X135153213Y-84510292D01*
X135264707Y-84621786D01*
X135264711Y-84621789D01*
X135395814Y-84709390D01*
X135395827Y-84709397D01*
X135541498Y-84769735D01*
X135541503Y-84769737D01*
X135696153Y-84800499D01*
X135696156Y-84800500D01*
X135696158Y-84800500D01*
X136403844Y-84800500D01*
X136403845Y-84800499D01*
X136558497Y-84769737D01*
X136704179Y-84709394D01*
X136835289Y-84621789D01*
X136946789Y-84510289D01*
X137022800Y-84396530D01*
X140949500Y-84396530D01*
X140949500Y-84603469D01*
X140989868Y-84806412D01*
X140989870Y-84806420D01*
X141069058Y-84997596D01*
X141184024Y-85169657D01*
X141330342Y-85315975D01*
X141330345Y-85315977D01*
X141502402Y-85430941D01*
X141693580Y-85510130D01*
X141896530Y-85550499D01*
X141896534Y-85550500D01*
X141896535Y-85550500D01*
X142103466Y-85550500D01*
X142103467Y-85550499D01*
X142306420Y-85510130D01*
X142497598Y-85430941D01*
X142669655Y-85315977D01*
X142815977Y-85169655D01*
X142930941Y-84997598D01*
X143010130Y-84806420D01*
X143050500Y-84603465D01*
X143050500Y-84396535D01*
X143010130Y-84193580D01*
X142930941Y-84002402D01*
X142815977Y-83830345D01*
X142815975Y-83830342D01*
X142669657Y-83684024D01*
X142575055Y-83620814D01*
X142497598Y-83569059D01*
X142306420Y-83489870D01*
X142306412Y-83489868D01*
X142103469Y-83449500D01*
X142103465Y-83449500D01*
X141896535Y-83449500D01*
X141896530Y-83449500D01*
X141693587Y-83489868D01*
X141693579Y-83489870D01*
X141502403Y-83569058D01*
X141330342Y-83684024D01*
X141184024Y-83830342D01*
X141069058Y-84002403D01*
X140989870Y-84193579D01*
X140989868Y-84193587D01*
X140949500Y-84396530D01*
X137022800Y-84396530D01*
X137034394Y-84379179D01*
X137034397Y-84379172D01*
X137049384Y-84342991D01*
X137094735Y-84233501D01*
X137094737Y-84233497D01*
X137125500Y-84078842D01*
X137125500Y-83921158D01*
X137125500Y-83921155D01*
X137125499Y-83921153D01*
X137094738Y-83766510D01*
X137094737Y-83766503D01*
X137094735Y-83766498D01*
X137034397Y-83620827D01*
X137034390Y-83620814D01*
X136946789Y-83489711D01*
X136946786Y-83489707D01*
X136835292Y-83378213D01*
X136835288Y-83378210D01*
X136704185Y-83290609D01*
X136704172Y-83290602D01*
X136558501Y-83230264D01*
X136558489Y-83230261D01*
X136403845Y-83199500D01*
X136403842Y-83199500D01*
X135696158Y-83199500D01*
X135696155Y-83199500D01*
X135541510Y-83230261D01*
X135541498Y-83230264D01*
X135395827Y-83290602D01*
X135395814Y-83290609D01*
X135264711Y-83378210D01*
X135264707Y-83378213D01*
X135153213Y-83489707D01*
X135153210Y-83489711D01*
X135065609Y-83620814D01*
X135065602Y-83620827D01*
X135005264Y-83766498D01*
X135005261Y-83766510D01*
X134974500Y-83921153D01*
X130200501Y-83921153D01*
X130200501Y-81595730D01*
X134974500Y-81595730D01*
X134974500Y-82404269D01*
X134977353Y-82434699D01*
X134977353Y-82434701D01*
X135022206Y-82562880D01*
X135022207Y-82562882D01*
X135102850Y-82672150D01*
X135212118Y-82752793D01*
X135254845Y-82767744D01*
X135340299Y-82797646D01*
X135370730Y-82800500D01*
X135370734Y-82800500D01*
X136729270Y-82800500D01*
X136759699Y-82797646D01*
X136759701Y-82797646D01*
X136823790Y-82775219D01*
X136887882Y-82752793D01*
X136997150Y-82672150D01*
X137077793Y-82562882D01*
X137100219Y-82498790D01*
X137122646Y-82434701D01*
X137122646Y-82434699D01*
X137125500Y-82404269D01*
X137125500Y-81856530D01*
X140949500Y-81856530D01*
X140949500Y-82063469D01*
X140989868Y-82266412D01*
X140989870Y-82266420D01*
X141069058Y-82457596D01*
X141184024Y-82629657D01*
X141330342Y-82775975D01*
X141330345Y-82775977D01*
X141502402Y-82890941D01*
X141693580Y-82970130D01*
X141896530Y-83010499D01*
X141896534Y-83010500D01*
X141896535Y-83010500D01*
X142103466Y-83010500D01*
X142103467Y-83010499D01*
X142306420Y-82970130D01*
X142497598Y-82890941D01*
X142669655Y-82775977D01*
X142815977Y-82629655D01*
X142930941Y-82457598D01*
X143010130Y-82266420D01*
X143050500Y-82063465D01*
X143050500Y-81856535D01*
X143050352Y-81855792D01*
X143029344Y-81750172D01*
X143026148Y-81734108D01*
X188299500Y-81734108D01*
X188299500Y-81865891D01*
X188333608Y-81993187D01*
X188366554Y-82050250D01*
X188399500Y-82107314D01*
X188492686Y-82200500D01*
X188606814Y-82266392D01*
X188734108Y-82300500D01*
X188734110Y-82300500D01*
X188865890Y-82300500D01*
X188865892Y-82300500D01*
X188993186Y-82266392D01*
X189107314Y-82200500D01*
X189200500Y-82107314D01*
X189266392Y-81993186D01*
X189300500Y-81865892D01*
X189300500Y-81734108D01*
X189266392Y-81606814D01*
X189200500Y-81492686D01*
X189107314Y-81399500D01*
X189050250Y-81366554D01*
X188993187Y-81333608D01*
X188929539Y-81316554D01*
X188865892Y-81299500D01*
X188734108Y-81299500D01*
X188606812Y-81333608D01*
X188492686Y-81399500D01*
X188492683Y-81399502D01*
X188399502Y-81492683D01*
X188399500Y-81492686D01*
X188333608Y-81606812D01*
X188299500Y-81734108D01*
X143026148Y-81734108D01*
X143010131Y-81653587D01*
X143010130Y-81653580D01*
X142930941Y-81462402D01*
X142815977Y-81290345D01*
X142815975Y-81290342D01*
X142669657Y-81144024D01*
X142583626Y-81086541D01*
X142497598Y-81029059D01*
X142306420Y-80949870D01*
X142306412Y-80949868D01*
X142103469Y-80909500D01*
X142103465Y-80909500D01*
X141896535Y-80909500D01*
X141896530Y-80909500D01*
X141693587Y-80949868D01*
X141693579Y-80949870D01*
X141502403Y-81029058D01*
X141330342Y-81144024D01*
X141184024Y-81290342D01*
X141069058Y-81462403D01*
X140989870Y-81653579D01*
X140989868Y-81653587D01*
X140949500Y-81856530D01*
X137125500Y-81856530D01*
X137125500Y-81595730D01*
X137122646Y-81565300D01*
X137122646Y-81565298D01*
X137089006Y-81469163D01*
X137077793Y-81437118D01*
X136997150Y-81327850D01*
X136887882Y-81247207D01*
X136887880Y-81247206D01*
X136759700Y-81202353D01*
X136729270Y-81199500D01*
X136729266Y-81199500D01*
X135370734Y-81199500D01*
X135370730Y-81199500D01*
X135340300Y-81202353D01*
X135340298Y-81202353D01*
X135212119Y-81247206D01*
X135212117Y-81247207D01*
X135102850Y-81327850D01*
X135022207Y-81437117D01*
X135022206Y-81437119D01*
X134977353Y-81565298D01*
X134977353Y-81565300D01*
X134974500Y-81595730D01*
X130200501Y-81595730D01*
X130200501Y-79734108D01*
X188499500Y-79734108D01*
X188499500Y-79865891D01*
X188533608Y-79993187D01*
X188566554Y-80050250D01*
X188599500Y-80107314D01*
X188692686Y-80200500D01*
X188806814Y-80266392D01*
X188934108Y-80300500D01*
X188934110Y-80300500D01*
X189065890Y-80300500D01*
X189065892Y-80300500D01*
X189193186Y-80266392D01*
X189307314Y-80200500D01*
X189400500Y-80107314D01*
X189466392Y-79993186D01*
X189500500Y-79865892D01*
X189500500Y-79734108D01*
X189466392Y-79606814D01*
X189400500Y-79492686D01*
X189307314Y-79399500D01*
X189250250Y-79366554D01*
X189193187Y-79333608D01*
X189129539Y-79316554D01*
X189065892Y-79299500D01*
X188934108Y-79299500D01*
X188806812Y-79333608D01*
X188692686Y-79399500D01*
X188692683Y-79399502D01*
X188599502Y-79492683D01*
X188599500Y-79492686D01*
X188533608Y-79606812D01*
X188499500Y-79734108D01*
X130200501Y-79734108D01*
X130200501Y-75034108D01*
X132099500Y-75034108D01*
X132099500Y-75165892D01*
X132106813Y-75193186D01*
X132133608Y-75293187D01*
X132146717Y-75315892D01*
X132199500Y-75407314D01*
X132292686Y-75500500D01*
X132406814Y-75566392D01*
X132534108Y-75600500D01*
X132534110Y-75600500D01*
X132665890Y-75600500D01*
X132665892Y-75600500D01*
X132793186Y-75566392D01*
X132907314Y-75500500D01*
X133000500Y-75407314D01*
X133066392Y-75293186D01*
X133100500Y-75165892D01*
X133100500Y-75034108D01*
X133073705Y-74934108D01*
X148299500Y-74934108D01*
X148299500Y-75065891D01*
X148333608Y-75193187D01*
X148366554Y-75250250D01*
X148399500Y-75307314D01*
X148492686Y-75400500D01*
X148606814Y-75466392D01*
X148734108Y-75500500D01*
X148734110Y-75500500D01*
X148865890Y-75500500D01*
X148865892Y-75500500D01*
X148993186Y-75466392D01*
X149107314Y-75400500D01*
X149200500Y-75307314D01*
X149266392Y-75193186D01*
X149268824Y-75184108D01*
X152999500Y-75184108D01*
X152999500Y-75315891D01*
X153033608Y-75443187D01*
X153047005Y-75466391D01*
X153099500Y-75557314D01*
X153192686Y-75650500D01*
X153306814Y-75716392D01*
X153434108Y-75750500D01*
X153434110Y-75750500D01*
X153565890Y-75750500D01*
X153565892Y-75750500D01*
X153693186Y-75716392D01*
X153807314Y-75650500D01*
X153900500Y-75557314D01*
X153966392Y-75443186D01*
X154000500Y-75315892D01*
X154000500Y-75184108D01*
X153966392Y-75056814D01*
X153900500Y-74942686D01*
X153807314Y-74849500D01*
X153733380Y-74806814D01*
X153693187Y-74783608D01*
X153629539Y-74766554D01*
X153565892Y-74749500D01*
X153434108Y-74749500D01*
X153306812Y-74783608D01*
X153192686Y-74849500D01*
X153192683Y-74849502D01*
X153099502Y-74942683D01*
X153099500Y-74942686D01*
X153033608Y-75056812D01*
X152999500Y-75184108D01*
X149268824Y-75184108D01*
X149300500Y-75065892D01*
X149300500Y-74934108D01*
X149266392Y-74806814D01*
X149200500Y-74692686D01*
X149107314Y-74599500D01*
X149050250Y-74566554D01*
X148993187Y-74533608D01*
X148929539Y-74516554D01*
X148865892Y-74499500D01*
X148734108Y-74499500D01*
X148606812Y-74533608D01*
X148492686Y-74599500D01*
X148492683Y-74599502D01*
X148399502Y-74692683D01*
X148399500Y-74692686D01*
X148333608Y-74806812D01*
X148299500Y-74934108D01*
X133073705Y-74934108D01*
X133066392Y-74906814D01*
X133000500Y-74792686D01*
X132907314Y-74699500D01*
X132850250Y-74666554D01*
X132793187Y-74633608D01*
X132729539Y-74616554D01*
X132665892Y-74599500D01*
X132534108Y-74599500D01*
X132406812Y-74633608D01*
X132292686Y-74699500D01*
X132292683Y-74699502D01*
X132199502Y-74792683D01*
X132199500Y-74792686D01*
X132133608Y-74906812D01*
X132126294Y-74934110D01*
X132099500Y-75034108D01*
X130200501Y-75034108D01*
X130200501Y-70661153D01*
X134974500Y-70661153D01*
X134974500Y-70818846D01*
X135005261Y-70973489D01*
X135005264Y-70973501D01*
X135065602Y-71119172D01*
X135065609Y-71119185D01*
X135153210Y-71250288D01*
X135153213Y-71250292D01*
X135264707Y-71361786D01*
X135264711Y-71361789D01*
X135395814Y-71449390D01*
X135395827Y-71449397D01*
X135541498Y-71509735D01*
X135541503Y-71509737D01*
X135661510Y-71533608D01*
X135696153Y-71540499D01*
X135696156Y-71540500D01*
X135696158Y-71540500D01*
X136403844Y-71540500D01*
X136403845Y-71540499D01*
X136558497Y-71509737D01*
X136704179Y-71449394D01*
X136835289Y-71361789D01*
X136946789Y-71250289D01*
X137034394Y-71119179D01*
X137094737Y-70973497D01*
X137125500Y-70818842D01*
X137125500Y-70661158D01*
X137125500Y-70661155D01*
X137125499Y-70661153D01*
X137094737Y-70506503D01*
X137067578Y-70440935D01*
X137034397Y-70360827D01*
X137034390Y-70360814D01*
X136946789Y-70229711D01*
X136946786Y-70229707D01*
X136835292Y-70118213D01*
X136835288Y-70118210D01*
X136704185Y-70030609D01*
X136704172Y-70030602D01*
X136558501Y-69970264D01*
X136558489Y-69970261D01*
X136403845Y-69939500D01*
X136403842Y-69939500D01*
X135696158Y-69939500D01*
X135696155Y-69939500D01*
X135541510Y-69970261D01*
X135541498Y-69970264D01*
X135395827Y-70030602D01*
X135395814Y-70030609D01*
X135264711Y-70118210D01*
X135264707Y-70118213D01*
X135153213Y-70229707D01*
X135153210Y-70229711D01*
X135065609Y-70360814D01*
X135065602Y-70360827D01*
X135005264Y-70506498D01*
X135005261Y-70506510D01*
X134974500Y-70661153D01*
X130200501Y-70661153D01*
X130200501Y-69776530D01*
X139299500Y-69776530D01*
X139299500Y-69983469D01*
X139339868Y-70186412D01*
X139339870Y-70186420D01*
X139419058Y-70377596D01*
X139534024Y-70549657D01*
X139680342Y-70695975D01*
X139680345Y-70695977D01*
X139852402Y-70810941D01*
X140043580Y-70890130D01*
X140246530Y-70930499D01*
X140246534Y-70930500D01*
X140246535Y-70930500D01*
X140453466Y-70930500D01*
X140453467Y-70930499D01*
X140656420Y-70890130D01*
X140847598Y-70810941D01*
X141019655Y-70695977D01*
X141165977Y-70549655D01*
X141280941Y-70377598D01*
X141360130Y-70186420D01*
X141400500Y-69983465D01*
X141400500Y-69776535D01*
X141375602Y-69651362D01*
X151869500Y-69651362D01*
X151869500Y-70376000D01*
X151869501Y-70376009D01*
X151876481Y-70440935D01*
X151876483Y-70440947D01*
X151887688Y-70492453D01*
X151898644Y-70530654D01*
X151898646Y-70530658D01*
X151955323Y-70627568D01*
X151955325Y-70627571D01*
X152001081Y-70680376D01*
X152001091Y-70680387D01*
X152045807Y-70722548D01*
X152045809Y-70722549D01*
X152045813Y-70722553D01*
X152145889Y-70773439D01*
X152212928Y-70793124D01*
X152299000Y-70805500D01*
X152299003Y-70805500D01*
X155250990Y-70805500D01*
X155251000Y-70805500D01*
X155315941Y-70798518D01*
X155367452Y-70787312D01*
X155405658Y-70776354D01*
X155502571Y-70719675D01*
X155555375Y-70673920D01*
X155555382Y-70673912D01*
X155555387Y-70673908D01*
X155597548Y-70629192D01*
X155597553Y-70629187D01*
X155648439Y-70529111D01*
X155668124Y-70462072D01*
X155680500Y-70376000D01*
X155680500Y-69429500D01*
X155700185Y-69362461D01*
X155752989Y-69316706D01*
X155804500Y-69305500D01*
X158945500Y-69305500D01*
X159012539Y-69325185D01*
X159058294Y-69377989D01*
X159069500Y-69429500D01*
X159069500Y-72570500D01*
X159049815Y-72637539D01*
X158997011Y-72683294D01*
X158945500Y-72694500D01*
X157399000Y-72694500D01*
X157398991Y-72694500D01*
X157398990Y-72694501D01*
X157334064Y-72701481D01*
X157334052Y-72701483D01*
X157282546Y-72712688D01*
X157244345Y-72723644D01*
X157244341Y-72723646D01*
X157147431Y-72780323D01*
X157147428Y-72780325D01*
X157094623Y-72826081D01*
X157094612Y-72826091D01*
X157052451Y-72870807D01*
X157052445Y-72870816D01*
X157001560Y-72970890D01*
X156981877Y-73037921D01*
X156981876Y-73037928D01*
X156969500Y-73124000D01*
X156969500Y-76576000D01*
X156969501Y-76576009D01*
X156976481Y-76640935D01*
X156976483Y-76640947D01*
X156987688Y-76692453D01*
X156998644Y-76730654D01*
X156998646Y-76730658D01*
X157055323Y-76827568D01*
X157055325Y-76827571D01*
X157101081Y-76880376D01*
X157101091Y-76880387D01*
X157145807Y-76922548D01*
X157145809Y-76922549D01*
X157145813Y-76922553D01*
X157245889Y-76973439D01*
X157312928Y-76993124D01*
X157399000Y-77005500D01*
X157399003Y-77005500D01*
X158223639Y-77005500D01*
X158225559Y-77005397D01*
X158256297Y-77003749D01*
X158282655Y-77000915D01*
X158289660Y-77000080D01*
X158396407Y-76965297D01*
X158457730Y-76931812D01*
X158470099Y-76922553D01*
X158526425Y-76880387D01*
X158527340Y-76879702D01*
X162654702Y-72752340D01*
X162671079Y-72734108D01*
X164299500Y-72734108D01*
X164299500Y-72865892D01*
X164316554Y-72929539D01*
X164333608Y-72993187D01*
X164359436Y-73037921D01*
X164399500Y-73107314D01*
X164492686Y-73200500D01*
X164606814Y-73266392D01*
X164734108Y-73300500D01*
X164734110Y-73300500D01*
X164865890Y-73300500D01*
X164865892Y-73300500D01*
X164993186Y-73266392D01*
X165107314Y-73200500D01*
X165200500Y-73107314D01*
X165266392Y-72993186D01*
X165300500Y-72865892D01*
X165300500Y-72734108D01*
X165271873Y-72627269D01*
X165273536Y-72557420D01*
X165312699Y-72499558D01*
X165359549Y-72475404D01*
X165393186Y-72466392D01*
X165507314Y-72400500D01*
X165600500Y-72307314D01*
X165666392Y-72193186D01*
X165700500Y-72065892D01*
X165700500Y-71934108D01*
X165666392Y-71806814D01*
X165600500Y-71692686D01*
X165507314Y-71599500D01*
X165450250Y-71566554D01*
X165393187Y-71533608D01*
X165304090Y-71509735D01*
X165265892Y-71499500D01*
X165134108Y-71499500D01*
X165006812Y-71533608D01*
X164892686Y-71599500D01*
X164892683Y-71599502D01*
X164799502Y-71692683D01*
X164799500Y-71692686D01*
X164733608Y-71806812D01*
X164699500Y-71934108D01*
X164699500Y-72065893D01*
X164728126Y-72172730D01*
X164726463Y-72242580D01*
X164687300Y-72300442D01*
X164640446Y-72324596D01*
X164606814Y-72333608D01*
X164606812Y-72333608D01*
X164606812Y-72333609D01*
X164492686Y-72399500D01*
X164492683Y-72399502D01*
X164399502Y-72492683D01*
X164399500Y-72492686D01*
X164333608Y-72606812D01*
X164306676Y-72707325D01*
X164299500Y-72734108D01*
X162671079Y-72734108D01*
X162676558Y-72728008D01*
X162693192Y-72707366D01*
X162697553Y-72701825D01*
X162748439Y-72601749D01*
X162768124Y-72534710D01*
X162780500Y-72448638D01*
X162780500Y-70151362D01*
X162778749Y-70118703D01*
X162775915Y-70092345D01*
X162775080Y-70085340D01*
X162740297Y-69978593D01*
X162740295Y-69978588D01*
X162706810Y-69917266D01*
X162654710Y-69847670D01*
X162654705Y-69847665D01*
X162654702Y-69847660D01*
X162654698Y-69847656D01*
X162654692Y-69847649D01*
X159234568Y-66427525D01*
X162949500Y-66427525D01*
X162949500Y-66572475D01*
X162982199Y-66694507D01*
X162987017Y-66712488D01*
X163059488Y-66838011D01*
X163059490Y-66838013D01*
X163059491Y-66838015D01*
X163161985Y-66940509D01*
X163161986Y-66940510D01*
X163161988Y-66940511D01*
X163287511Y-67012982D01*
X163287512Y-67012982D01*
X163287515Y-67012984D01*
X163427525Y-67050500D01*
X163427528Y-67050500D01*
X163572472Y-67050500D01*
X163572475Y-67050500D01*
X163712485Y-67012984D01*
X163838015Y-66940509D01*
X163940509Y-66838015D01*
X164012984Y-66712485D01*
X164050500Y-66572475D01*
X164050500Y-66427525D01*
X164045683Y-66409547D01*
X164943170Y-66409547D01*
X164943170Y-66554497D01*
X164974211Y-66670342D01*
X164980687Y-66694510D01*
X165053158Y-66820033D01*
X165053160Y-66820035D01*
X165053161Y-66820037D01*
X165155655Y-66922531D01*
X165155656Y-66922532D01*
X165155658Y-66922533D01*
X165281181Y-66995004D01*
X165281182Y-66995004D01*
X165281185Y-66995006D01*
X165421195Y-67032522D01*
X165421198Y-67032522D01*
X165566142Y-67032522D01*
X165566145Y-67032522D01*
X165706155Y-66995006D01*
X165831685Y-66922531D01*
X165934179Y-66820037D01*
X166006654Y-66694507D01*
X166044170Y-66554497D01*
X166044170Y-66409547D01*
X166006654Y-66269537D01*
X165953296Y-66177119D01*
X165934181Y-66144010D01*
X165934176Y-66144004D01*
X165831687Y-66041515D01*
X165831681Y-66041510D01*
X165706158Y-65969039D01*
X165706159Y-65969039D01*
X165694676Y-65965962D01*
X165566145Y-65931522D01*
X165421195Y-65931522D01*
X165292663Y-65965962D01*
X165281181Y-65969039D01*
X165155658Y-66041510D01*
X165155652Y-66041515D01*
X165053163Y-66144004D01*
X165053158Y-66144010D01*
X164980687Y-66269533D01*
X164980686Y-66269537D01*
X164943170Y-66409547D01*
X164045683Y-66409547D01*
X164012984Y-66287515D01*
X164002604Y-66269537D01*
X163940511Y-66161988D01*
X163940506Y-66161982D01*
X163838017Y-66059493D01*
X163838011Y-66059488D01*
X163712488Y-65987017D01*
X163712489Y-65987017D01*
X163701006Y-65983940D01*
X163572475Y-65949500D01*
X163427525Y-65949500D01*
X163298993Y-65983940D01*
X163287511Y-65987017D01*
X163161988Y-66059488D01*
X163161982Y-66059493D01*
X163059493Y-66161982D01*
X163059488Y-66161988D01*
X162987017Y-66287511D01*
X162987016Y-66287515D01*
X162949500Y-66427525D01*
X159234568Y-66427525D01*
X158316819Y-65509776D01*
X158283334Y-65448453D01*
X158280500Y-65422095D01*
X158280500Y-64427525D01*
X162949500Y-64427525D01*
X162949500Y-64572475D01*
X162987016Y-64712485D01*
X162987017Y-64712488D01*
X163059488Y-64838011D01*
X163059490Y-64838013D01*
X163059491Y-64838015D01*
X163161985Y-64940509D01*
X163161986Y-64940510D01*
X163161988Y-64940511D01*
X163287511Y-65012982D01*
X163287512Y-65012982D01*
X163287515Y-65012984D01*
X163427525Y-65050500D01*
X163427528Y-65050500D01*
X163572472Y-65050500D01*
X163572475Y-65050500D01*
X163712485Y-65012984D01*
X163838015Y-64940509D01*
X163940509Y-64838015D01*
X164012984Y-64712485D01*
X164050500Y-64572475D01*
X164050500Y-64427525D01*
X164949500Y-64427525D01*
X164949500Y-64572475D01*
X164987016Y-64712485D01*
X164987017Y-64712488D01*
X165059488Y-64838011D01*
X165059490Y-64838013D01*
X165059491Y-64838015D01*
X165161985Y-64940509D01*
X165161986Y-64940510D01*
X165161988Y-64940511D01*
X165287511Y-65012982D01*
X165287512Y-65012982D01*
X165287515Y-65012984D01*
X165427525Y-65050500D01*
X165427528Y-65050500D01*
X165572472Y-65050500D01*
X165572475Y-65050500D01*
X165712485Y-65012984D01*
X165838015Y-64940509D01*
X165940509Y-64838015D01*
X166012984Y-64712485D01*
X166050500Y-64572475D01*
X166050500Y-64427525D01*
X166012984Y-64287515D01*
X165991613Y-64250500D01*
X165940511Y-64161988D01*
X165940506Y-64161982D01*
X165838017Y-64059493D01*
X165838011Y-64059488D01*
X165712488Y-63987017D01*
X165712489Y-63987017D01*
X165701006Y-63983940D01*
X165572475Y-63949500D01*
X165427525Y-63949500D01*
X165298993Y-63983940D01*
X165287511Y-63987017D01*
X165161988Y-64059488D01*
X165161982Y-64059493D01*
X165059493Y-64161982D01*
X165059488Y-64161988D01*
X164987017Y-64287511D01*
X164987016Y-64287515D01*
X164949500Y-64427525D01*
X164050500Y-64427525D01*
X164012984Y-64287515D01*
X163991613Y-64250500D01*
X163940511Y-64161988D01*
X163940506Y-64161982D01*
X163838017Y-64059493D01*
X163838011Y-64059488D01*
X163712488Y-63987017D01*
X163712489Y-63987017D01*
X163701006Y-63983940D01*
X163572475Y-63949500D01*
X163427525Y-63949500D01*
X163298993Y-63983940D01*
X163287511Y-63987017D01*
X163161988Y-64059488D01*
X163161982Y-64059493D01*
X163059493Y-64161982D01*
X163059488Y-64161988D01*
X162987017Y-64287511D01*
X162987016Y-64287515D01*
X162949500Y-64427525D01*
X158280500Y-64427525D01*
X158280500Y-63684108D01*
X177499500Y-63684108D01*
X177499500Y-63815891D01*
X177533608Y-63943187D01*
X177537253Y-63949500D01*
X177599500Y-64057314D01*
X177692686Y-64150500D01*
X177806814Y-64216392D01*
X177934108Y-64250500D01*
X177934110Y-64250500D01*
X178065890Y-64250500D01*
X178065892Y-64250500D01*
X178193186Y-64216392D01*
X178307314Y-64150500D01*
X178400500Y-64057314D01*
X178466392Y-63943186D01*
X178500500Y-63815892D01*
X178500500Y-63684108D01*
X179499500Y-63684108D01*
X179499500Y-63815891D01*
X179533608Y-63943187D01*
X179537253Y-63949500D01*
X179599500Y-64057314D01*
X179692686Y-64150500D01*
X179806814Y-64216392D01*
X179934108Y-64250500D01*
X179934110Y-64250500D01*
X180065890Y-64250500D01*
X180065892Y-64250500D01*
X180193186Y-64216392D01*
X180307314Y-64150500D01*
X180400500Y-64057314D01*
X180466392Y-63943186D01*
X180500500Y-63815892D01*
X180500500Y-63684108D01*
X181499500Y-63684108D01*
X181499500Y-63815891D01*
X181533608Y-63943187D01*
X181537253Y-63949500D01*
X181599500Y-64057314D01*
X181692686Y-64150500D01*
X181806814Y-64216392D01*
X181934108Y-64250500D01*
X181934110Y-64250500D01*
X182065890Y-64250500D01*
X182065892Y-64250500D01*
X182193186Y-64216392D01*
X182307314Y-64150500D01*
X182400500Y-64057314D01*
X182466392Y-63943186D01*
X182500500Y-63815892D01*
X182500500Y-63684108D01*
X183499500Y-63684108D01*
X183499500Y-63815891D01*
X183533608Y-63943187D01*
X183537253Y-63949500D01*
X183599500Y-64057314D01*
X183692686Y-64150500D01*
X183806814Y-64216392D01*
X183934108Y-64250500D01*
X183934110Y-64250500D01*
X184065890Y-64250500D01*
X184065892Y-64250500D01*
X184193186Y-64216392D01*
X184307314Y-64150500D01*
X184400500Y-64057314D01*
X184466392Y-63943186D01*
X184500500Y-63815892D01*
X184500500Y-63684108D01*
X185499500Y-63684108D01*
X185499500Y-63815891D01*
X185533608Y-63943187D01*
X185537253Y-63949500D01*
X185599500Y-64057314D01*
X185692686Y-64150500D01*
X185806814Y-64216392D01*
X185934108Y-64250500D01*
X185934110Y-64250500D01*
X186065890Y-64250500D01*
X186065892Y-64250500D01*
X186193186Y-64216392D01*
X186307314Y-64150500D01*
X186400500Y-64057314D01*
X186466392Y-63943186D01*
X186500500Y-63815892D01*
X186500500Y-63684108D01*
X186466392Y-63556814D01*
X186400500Y-63442686D01*
X186307314Y-63349500D01*
X186250250Y-63316554D01*
X186193187Y-63283608D01*
X186129539Y-63266554D01*
X186065892Y-63249500D01*
X185934108Y-63249500D01*
X185806812Y-63283608D01*
X185692686Y-63349500D01*
X185692683Y-63349502D01*
X185599502Y-63442683D01*
X185599500Y-63442686D01*
X185533608Y-63556812D01*
X185499500Y-63684108D01*
X184500500Y-63684108D01*
X184466392Y-63556814D01*
X184400500Y-63442686D01*
X184307314Y-63349500D01*
X184250250Y-63316554D01*
X184193187Y-63283608D01*
X184129539Y-63266554D01*
X184065892Y-63249500D01*
X183934108Y-63249500D01*
X183806812Y-63283608D01*
X183692686Y-63349500D01*
X183692683Y-63349502D01*
X183599502Y-63442683D01*
X183599500Y-63442686D01*
X183533608Y-63556812D01*
X183499500Y-63684108D01*
X182500500Y-63684108D01*
X182466392Y-63556814D01*
X182400500Y-63442686D01*
X182307314Y-63349500D01*
X182250250Y-63316554D01*
X182193187Y-63283608D01*
X182129539Y-63266554D01*
X182065892Y-63249500D01*
X181934108Y-63249500D01*
X181806812Y-63283608D01*
X181692686Y-63349500D01*
X181692683Y-63349502D01*
X181599502Y-63442683D01*
X181599500Y-63442686D01*
X181533608Y-63556812D01*
X181499500Y-63684108D01*
X180500500Y-63684108D01*
X180466392Y-63556814D01*
X180400500Y-63442686D01*
X180307314Y-63349500D01*
X180250250Y-63316554D01*
X180193187Y-63283608D01*
X180129539Y-63266554D01*
X180065892Y-63249500D01*
X179934108Y-63249500D01*
X179806812Y-63283608D01*
X179692686Y-63349500D01*
X179692683Y-63349502D01*
X179599502Y-63442683D01*
X179599500Y-63442686D01*
X179533608Y-63556812D01*
X179499500Y-63684108D01*
X178500500Y-63684108D01*
X178466392Y-63556814D01*
X178400500Y-63442686D01*
X178307314Y-63349500D01*
X178250250Y-63316554D01*
X178193187Y-63283608D01*
X178129539Y-63266554D01*
X178065892Y-63249500D01*
X177934108Y-63249500D01*
X177806812Y-63283608D01*
X177692686Y-63349500D01*
X177692683Y-63349502D01*
X177599502Y-63442683D01*
X177599500Y-63442686D01*
X177533608Y-63556812D01*
X177499500Y-63684108D01*
X158280500Y-63684108D01*
X158280500Y-63224010D01*
X158280500Y-63224000D01*
X158273518Y-63159059D01*
X158262312Y-63107548D01*
X158251354Y-63069342D01*
X158194675Y-62972429D01*
X158148920Y-62919625D01*
X158148918Y-62919623D01*
X158148908Y-62919612D01*
X158104192Y-62877451D01*
X158104189Y-62877449D01*
X158104187Y-62877447D01*
X158004111Y-62826561D01*
X158004110Y-62826560D01*
X158004109Y-62826560D01*
X157937078Y-62806877D01*
X157937072Y-62806876D01*
X157851000Y-62794500D01*
X157099000Y-62794500D01*
X157098991Y-62794500D01*
X157098990Y-62794501D01*
X157034064Y-62801481D01*
X157034052Y-62801483D01*
X156982546Y-62812688D01*
X156944345Y-62823644D01*
X156944341Y-62823646D01*
X156847431Y-62880323D01*
X156847428Y-62880325D01*
X156794623Y-62926081D01*
X156794612Y-62926091D01*
X156752451Y-62970807D01*
X156752445Y-62970816D01*
X156701560Y-63070890D01*
X156681877Y-63137921D01*
X156681876Y-63137928D01*
X156669502Y-63223990D01*
X156669500Y-63224002D01*
X156669500Y-64810310D01*
X156649815Y-64877349D01*
X156630844Y-64900267D01*
X152965961Y-68377207D01*
X152962949Y-68380102D01*
X152960619Y-68382371D01*
X152957827Y-68385129D01*
X151995311Y-69347646D01*
X151995295Y-69347663D01*
X151973440Y-69371993D01*
X151956775Y-69392674D01*
X151952448Y-69398172D01*
X151952447Y-69398174D01*
X151901560Y-69498252D01*
X151881877Y-69565283D01*
X151881876Y-69565290D01*
X151869500Y-69651362D01*
X141375602Y-69651362D01*
X141360130Y-69573580D01*
X141280941Y-69382402D01*
X141165977Y-69210345D01*
X141165975Y-69210342D01*
X141019657Y-69064024D01*
X140884160Y-68973489D01*
X140847598Y-68949059D01*
X140656420Y-68869870D01*
X140656412Y-68869868D01*
X140453469Y-68829500D01*
X140453465Y-68829500D01*
X140246535Y-68829500D01*
X140246530Y-68829500D01*
X140043587Y-68869868D01*
X140043579Y-68869870D01*
X139852403Y-68949058D01*
X139680342Y-69064024D01*
X139534024Y-69210342D01*
X139419058Y-69382403D01*
X139339870Y-69573579D01*
X139339868Y-69573587D01*
X139299500Y-69776530D01*
X130200501Y-69776530D01*
X130200501Y-68661153D01*
X134974500Y-68661153D01*
X134974500Y-68818846D01*
X135005261Y-68973489D01*
X135005264Y-68973501D01*
X135065602Y-69119172D01*
X135065609Y-69119185D01*
X135153210Y-69250288D01*
X135153213Y-69250292D01*
X135264707Y-69361786D01*
X135264711Y-69361789D01*
X135395814Y-69449390D01*
X135395827Y-69449397D01*
X135541498Y-69509735D01*
X135541503Y-69509737D01*
X135696153Y-69540499D01*
X135696156Y-69540500D01*
X135696158Y-69540500D01*
X136403844Y-69540500D01*
X136403845Y-69540499D01*
X136558497Y-69509737D01*
X136704179Y-69449394D01*
X136835289Y-69361789D01*
X136946789Y-69250289D01*
X137034394Y-69119179D01*
X137094737Y-68973497D01*
X137125500Y-68818842D01*
X137125500Y-68661158D01*
X137125500Y-68661155D01*
X137125499Y-68661153D01*
X137094738Y-68506510D01*
X137094737Y-68506503D01*
X137094735Y-68506498D01*
X137034397Y-68360827D01*
X137034390Y-68360814D01*
X136946789Y-68229711D01*
X136946786Y-68229707D01*
X136835292Y-68118213D01*
X136835288Y-68118210D01*
X136704185Y-68030609D01*
X136704172Y-68030602D01*
X136558501Y-67970264D01*
X136558489Y-67970261D01*
X136403845Y-67939500D01*
X136403842Y-67939500D01*
X135696158Y-67939500D01*
X135696155Y-67939500D01*
X135541510Y-67970261D01*
X135541498Y-67970264D01*
X135395827Y-68030602D01*
X135395814Y-68030609D01*
X135264711Y-68118210D01*
X135264707Y-68118213D01*
X135153213Y-68229707D01*
X135153210Y-68229711D01*
X135065609Y-68360814D01*
X135065602Y-68360827D01*
X135005264Y-68506498D01*
X135005261Y-68506510D01*
X134974500Y-68661153D01*
X130200501Y-68661153D01*
X130200501Y-66335730D01*
X134974500Y-66335730D01*
X134974500Y-67144269D01*
X134977353Y-67174699D01*
X134977353Y-67174701D01*
X135022206Y-67302880D01*
X135022207Y-67302882D01*
X135102850Y-67412150D01*
X135212118Y-67492793D01*
X135254845Y-67507744D01*
X135340299Y-67537646D01*
X135370730Y-67540500D01*
X135370734Y-67540500D01*
X136729270Y-67540500D01*
X136759699Y-67537646D01*
X136759701Y-67537646D01*
X136823790Y-67515219D01*
X136887882Y-67492793D01*
X136997150Y-67412150D01*
X137077793Y-67302882D01*
X137101010Y-67236530D01*
X139299500Y-67236530D01*
X139299500Y-67443469D01*
X139339868Y-67646412D01*
X139339870Y-67646420D01*
X139419058Y-67837596D01*
X139534024Y-68009657D01*
X139680342Y-68155975D01*
X139680345Y-68155977D01*
X139852402Y-68270941D01*
X140043580Y-68350130D01*
X140219533Y-68385129D01*
X140246530Y-68390499D01*
X140246534Y-68390500D01*
X140246535Y-68390500D01*
X140453466Y-68390500D01*
X140453467Y-68390499D01*
X140656420Y-68350130D01*
X140847598Y-68270941D01*
X141019655Y-68155977D01*
X141165977Y-68009655D01*
X141280941Y-67837598D01*
X141360130Y-67646420D01*
X141400500Y-67443465D01*
X141400500Y-67236535D01*
X141360130Y-67033580D01*
X141280941Y-66842402D01*
X141165977Y-66670345D01*
X141165975Y-66670342D01*
X141019657Y-66524024D01*
X140933626Y-66466541D01*
X140847598Y-66409059D01*
X140656420Y-66329870D01*
X140656412Y-66329868D01*
X140453469Y-66289500D01*
X140453465Y-66289500D01*
X140246535Y-66289500D01*
X140246530Y-66289500D01*
X140043587Y-66329868D01*
X140043579Y-66329870D01*
X139852403Y-66409058D01*
X139680342Y-66524024D01*
X139534024Y-66670342D01*
X139419058Y-66842403D01*
X139339870Y-67033579D01*
X139339869Y-67033583D01*
X139299500Y-67236530D01*
X137101010Y-67236530D01*
X137122646Y-67174699D01*
X137125500Y-67144266D01*
X137125500Y-66335734D01*
X137122646Y-66305301D01*
X137122646Y-66305300D01*
X137122646Y-66305298D01*
X137077793Y-66177119D01*
X137077792Y-66177117D01*
X136997150Y-66067850D01*
X136887882Y-65987207D01*
X136887880Y-65987206D01*
X136759700Y-65942353D01*
X136729270Y-65939500D01*
X136729266Y-65939500D01*
X135370734Y-65939500D01*
X135370730Y-65939500D01*
X135340300Y-65942353D01*
X135340298Y-65942353D01*
X135212119Y-65987206D01*
X135212117Y-65987207D01*
X135102850Y-66067850D01*
X135022207Y-66177117D01*
X135022206Y-66177119D01*
X134977353Y-66305298D01*
X134977353Y-66305300D01*
X134974500Y-66335730D01*
X130200501Y-66335730D01*
X130200501Y-62427525D01*
X162949500Y-62427525D01*
X162949500Y-62572475D01*
X162987016Y-62712485D01*
X162987017Y-62712488D01*
X163059488Y-62838011D01*
X163059490Y-62838013D01*
X163059491Y-62838015D01*
X163161985Y-62940509D01*
X163161986Y-62940510D01*
X163161988Y-62940511D01*
X163287511Y-63012982D01*
X163287512Y-63012982D01*
X163287515Y-63012984D01*
X163427525Y-63050500D01*
X163427528Y-63050500D01*
X163572472Y-63050500D01*
X163572475Y-63050500D01*
X163712485Y-63012984D01*
X163838015Y-62940509D01*
X163940509Y-62838015D01*
X164012984Y-62712485D01*
X164050500Y-62572475D01*
X164050500Y-62427525D01*
X164949500Y-62427525D01*
X164949500Y-62572475D01*
X164987016Y-62712485D01*
X164987017Y-62712488D01*
X165059488Y-62838011D01*
X165059490Y-62838013D01*
X165059491Y-62838015D01*
X165161985Y-62940509D01*
X165161986Y-62940510D01*
X165161988Y-62940511D01*
X165287511Y-63012982D01*
X165287512Y-63012982D01*
X165287515Y-63012984D01*
X165427525Y-63050500D01*
X165427528Y-63050500D01*
X165572472Y-63050500D01*
X165572475Y-63050500D01*
X165712485Y-63012984D01*
X165838015Y-62940509D01*
X165940509Y-62838015D01*
X166012984Y-62712485D01*
X166050500Y-62572475D01*
X166050500Y-62427525D01*
X166012984Y-62287515D01*
X165940509Y-62161985D01*
X165838015Y-62059491D01*
X165712485Y-61987016D01*
X165572475Y-61949500D01*
X165427525Y-61949500D01*
X165298993Y-61983940D01*
X165287511Y-61987017D01*
X165161988Y-62059488D01*
X165161982Y-62059493D01*
X165059493Y-62161982D01*
X165059488Y-62161988D01*
X164987017Y-62287511D01*
X164987016Y-62287515D01*
X164949500Y-62427525D01*
X164050500Y-62427525D01*
X164012984Y-62287515D01*
X163940509Y-62161985D01*
X163838015Y-62059491D01*
X163838012Y-62059489D01*
X163838011Y-62059488D01*
X163712488Y-61987017D01*
X163712489Y-61987017D01*
X163701006Y-61983940D01*
X163572475Y-61949500D01*
X163427525Y-61949500D01*
X163298993Y-61983940D01*
X163287511Y-61987017D01*
X163161988Y-62059488D01*
X163161982Y-62059493D01*
X163059493Y-62161982D01*
X163059488Y-62161988D01*
X162987017Y-62287511D01*
X162987016Y-62287515D01*
X162949500Y-62427525D01*
X130200501Y-62427525D01*
X130200501Y-61934108D01*
X177499500Y-61934108D01*
X177499500Y-62065891D01*
X177533608Y-62193187D01*
X177566554Y-62250250D01*
X177599500Y-62307314D01*
X177692686Y-62400500D01*
X177806814Y-62466392D01*
X177934108Y-62500500D01*
X177934110Y-62500500D01*
X178065890Y-62500500D01*
X178065892Y-62500500D01*
X178193186Y-62466392D01*
X178307314Y-62400500D01*
X178400500Y-62307314D01*
X178466392Y-62193186D01*
X178500500Y-62065892D01*
X178500500Y-61934108D01*
X179499500Y-61934108D01*
X179499500Y-62065891D01*
X179533608Y-62193187D01*
X179566554Y-62250250D01*
X179599500Y-62307314D01*
X179692686Y-62400500D01*
X179806814Y-62466392D01*
X179934108Y-62500500D01*
X179934110Y-62500500D01*
X180065890Y-62500500D01*
X180065892Y-62500500D01*
X180193186Y-62466392D01*
X180307314Y-62400500D01*
X180400500Y-62307314D01*
X180466392Y-62193186D01*
X180500500Y-62065892D01*
X180500500Y-61934108D01*
X181499500Y-61934108D01*
X181499500Y-62065891D01*
X181533608Y-62193187D01*
X181566554Y-62250250D01*
X181599500Y-62307314D01*
X181692686Y-62400500D01*
X181806814Y-62466392D01*
X181934108Y-62500500D01*
X181934110Y-62500500D01*
X182065890Y-62500500D01*
X182065892Y-62500500D01*
X182193186Y-62466392D01*
X182307314Y-62400500D01*
X182400500Y-62307314D01*
X182466392Y-62193186D01*
X182500500Y-62065892D01*
X182500500Y-61934108D01*
X183499500Y-61934108D01*
X183499500Y-62065891D01*
X183533608Y-62193187D01*
X183566554Y-62250250D01*
X183599500Y-62307314D01*
X183692686Y-62400500D01*
X183806814Y-62466392D01*
X183934108Y-62500500D01*
X183934110Y-62500500D01*
X184065890Y-62500500D01*
X184065892Y-62500500D01*
X184193186Y-62466392D01*
X184307314Y-62400500D01*
X184400500Y-62307314D01*
X184466392Y-62193186D01*
X184500500Y-62065892D01*
X184500500Y-61934108D01*
X184466392Y-61806814D01*
X184400500Y-61692686D01*
X184307314Y-61599500D01*
X184250250Y-61566554D01*
X184193187Y-61533608D01*
X184129539Y-61516554D01*
X184065892Y-61499500D01*
X183934108Y-61499500D01*
X183806812Y-61533608D01*
X183692686Y-61599500D01*
X183692683Y-61599502D01*
X183599502Y-61692683D01*
X183599500Y-61692686D01*
X183533608Y-61806812D01*
X183499500Y-61934108D01*
X182500500Y-61934108D01*
X182466392Y-61806814D01*
X182400500Y-61692686D01*
X182307314Y-61599500D01*
X182250250Y-61566554D01*
X182193187Y-61533608D01*
X182129539Y-61516554D01*
X182065892Y-61499500D01*
X181934108Y-61499500D01*
X181806812Y-61533608D01*
X181692686Y-61599500D01*
X181692683Y-61599502D01*
X181599502Y-61692683D01*
X181599500Y-61692686D01*
X181533608Y-61806812D01*
X181499500Y-61934108D01*
X180500500Y-61934108D01*
X180466392Y-61806814D01*
X180400500Y-61692686D01*
X180307314Y-61599500D01*
X180250250Y-61566554D01*
X180193187Y-61533608D01*
X180129539Y-61516554D01*
X180065892Y-61499500D01*
X179934108Y-61499500D01*
X179806812Y-61533608D01*
X179692686Y-61599500D01*
X179692683Y-61599502D01*
X179599502Y-61692683D01*
X179599500Y-61692686D01*
X179533608Y-61806812D01*
X179499500Y-61934108D01*
X178500500Y-61934108D01*
X178466392Y-61806814D01*
X178400500Y-61692686D01*
X178307314Y-61599500D01*
X178250250Y-61566554D01*
X178193187Y-61533608D01*
X178129539Y-61516554D01*
X178065892Y-61499500D01*
X177934108Y-61499500D01*
X177806812Y-61533608D01*
X177692686Y-61599500D01*
X177692683Y-61599502D01*
X177599502Y-61692683D01*
X177599500Y-61692686D01*
X177533608Y-61806812D01*
X177499500Y-61934108D01*
X130200501Y-61934108D01*
X130200501Y-60434108D01*
X171999500Y-60434108D01*
X171999500Y-60565891D01*
X172033608Y-60693187D01*
X172041766Y-60707316D01*
X172099500Y-60807314D01*
X172192686Y-60900500D01*
X172306814Y-60966392D01*
X172434108Y-61000500D01*
X172434110Y-61000500D01*
X172565890Y-61000500D01*
X172565892Y-61000500D01*
X172693186Y-60966392D01*
X172807314Y-60900500D01*
X172900500Y-60807314D01*
X172966392Y-60693186D01*
X173000500Y-60565892D01*
X173000500Y-60434108D01*
X172973705Y-60334108D01*
X177499500Y-60334108D01*
X177499500Y-60465891D01*
X177533608Y-60593187D01*
X177566554Y-60650250D01*
X177599500Y-60707314D01*
X177692686Y-60800500D01*
X177806814Y-60866392D01*
X177934108Y-60900500D01*
X177934110Y-60900500D01*
X178065890Y-60900500D01*
X178065892Y-60900500D01*
X178193186Y-60866392D01*
X178307314Y-60800500D01*
X178400500Y-60707314D01*
X178466392Y-60593186D01*
X178500500Y-60465892D01*
X178500500Y-60334108D01*
X179499500Y-60334108D01*
X179499500Y-60465891D01*
X179533608Y-60593187D01*
X179566554Y-60650250D01*
X179599500Y-60707314D01*
X179692686Y-60800500D01*
X179806814Y-60866392D01*
X179934108Y-60900500D01*
X179934110Y-60900500D01*
X180065890Y-60900500D01*
X180065892Y-60900500D01*
X180193186Y-60866392D01*
X180307314Y-60800500D01*
X180400500Y-60707314D01*
X180466392Y-60593186D01*
X180500500Y-60465892D01*
X180500500Y-60334108D01*
X181499500Y-60334108D01*
X181499500Y-60465891D01*
X181533608Y-60593187D01*
X181566554Y-60650250D01*
X181599500Y-60707314D01*
X181692686Y-60800500D01*
X181806814Y-60866392D01*
X181934108Y-60900500D01*
X181934110Y-60900500D01*
X182065890Y-60900500D01*
X182065892Y-60900500D01*
X182193186Y-60866392D01*
X182307314Y-60800500D01*
X182400500Y-60707314D01*
X182466392Y-60593186D01*
X182500500Y-60465892D01*
X182500500Y-60334108D01*
X182466392Y-60206814D01*
X182400500Y-60092686D01*
X182307314Y-59999500D01*
X182250250Y-59966554D01*
X182193187Y-59933608D01*
X182129539Y-59916554D01*
X182065892Y-59899500D01*
X181934108Y-59899500D01*
X181806812Y-59933608D01*
X181692686Y-59999500D01*
X181692683Y-59999502D01*
X181599502Y-60092683D01*
X181599500Y-60092686D01*
X181533608Y-60206812D01*
X181499500Y-60334108D01*
X180500500Y-60334108D01*
X180466392Y-60206814D01*
X180400500Y-60092686D01*
X180307314Y-59999500D01*
X180250250Y-59966554D01*
X180193187Y-59933608D01*
X180129539Y-59916554D01*
X180065892Y-59899500D01*
X179934108Y-59899500D01*
X179806812Y-59933608D01*
X179692686Y-59999500D01*
X179692683Y-59999502D01*
X179599502Y-60092683D01*
X179599500Y-60092686D01*
X179533608Y-60206812D01*
X179499500Y-60334108D01*
X178500500Y-60334108D01*
X178466392Y-60206814D01*
X178400500Y-60092686D01*
X178307314Y-59999500D01*
X178250250Y-59966554D01*
X178193187Y-59933608D01*
X178129539Y-59916554D01*
X178065892Y-59899500D01*
X177934108Y-59899500D01*
X177806812Y-59933608D01*
X177692686Y-59999500D01*
X177692683Y-59999502D01*
X177599502Y-60092683D01*
X177599500Y-60092686D01*
X177533608Y-60206812D01*
X177499500Y-60334108D01*
X172973705Y-60334108D01*
X172966392Y-60306814D01*
X172900500Y-60192686D01*
X172807314Y-60099500D01*
X172750250Y-60066554D01*
X172693187Y-60033608D01*
X172629539Y-60016554D01*
X172565892Y-59999500D01*
X172434108Y-59999500D01*
X172306812Y-60033608D01*
X172192686Y-60099500D01*
X172192683Y-60099502D01*
X172099502Y-60192683D01*
X172099500Y-60192686D01*
X172033608Y-60306812D01*
X171999500Y-60434108D01*
X130200501Y-60434108D01*
X130200501Y-59734108D01*
X131999500Y-59734108D01*
X131999500Y-59865891D01*
X132033608Y-59993187D01*
X132056946Y-60033608D01*
X132099500Y-60107314D01*
X132192686Y-60200500D01*
X132306814Y-60266392D01*
X132434108Y-60300500D01*
X132434110Y-60300500D01*
X132565890Y-60300500D01*
X132565892Y-60300500D01*
X132693186Y-60266392D01*
X132807314Y-60200500D01*
X132900500Y-60107314D01*
X132966392Y-59993186D01*
X133000500Y-59865892D01*
X133000500Y-59734108D01*
X132966392Y-59606814D01*
X132900500Y-59492686D01*
X132807314Y-59399500D01*
X132750250Y-59366554D01*
X132693187Y-59333608D01*
X132629539Y-59316554D01*
X132565892Y-59299500D01*
X132434108Y-59299500D01*
X132306812Y-59333608D01*
X132192686Y-59399500D01*
X132192683Y-59399502D01*
X132099502Y-59492683D01*
X132099500Y-59492686D01*
X132033608Y-59606812D01*
X131999500Y-59734108D01*
X130200501Y-59734108D01*
X130200500Y-57278711D01*
X193649500Y-57278711D01*
X193649500Y-57521288D01*
X193681161Y-57761785D01*
X193743947Y-57996104D01*
X193836773Y-58220205D01*
X193836776Y-58220212D01*
X193958064Y-58430289D01*
X193958066Y-58430292D01*
X193958067Y-58430293D01*
X194105733Y-58622736D01*
X194105739Y-58622743D01*
X194277256Y-58794260D01*
X194277262Y-58794265D01*
X194469711Y-58941936D01*
X194679788Y-59063224D01*
X194903900Y-59156054D01*
X195138211Y-59218838D01*
X195318586Y-59242584D01*
X195378711Y-59250500D01*
X195378712Y-59250500D01*
X195621289Y-59250500D01*
X195669388Y-59244167D01*
X195861789Y-59218838D01*
X196096100Y-59156054D01*
X196320212Y-59063224D01*
X196530289Y-58941936D01*
X196722738Y-58794265D01*
X196894265Y-58622738D01*
X197041936Y-58430289D01*
X197163224Y-58220212D01*
X197256054Y-57996100D01*
X197318838Y-57761789D01*
X197350500Y-57521288D01*
X197350500Y-57278712D01*
X197318838Y-57038211D01*
X197256054Y-56803900D01*
X197163224Y-56579788D01*
X197041936Y-56369711D01*
X196894265Y-56177262D01*
X196894260Y-56177256D01*
X196722743Y-56005739D01*
X196722736Y-56005733D01*
X196530293Y-55858067D01*
X196530292Y-55858066D01*
X196530289Y-55858064D01*
X196320212Y-55736776D01*
X196320205Y-55736773D01*
X196096104Y-55643947D01*
X195861785Y-55581161D01*
X195621289Y-55549500D01*
X195621288Y-55549500D01*
X195378712Y-55549500D01*
X195378711Y-55549500D01*
X195138214Y-55581161D01*
X194903895Y-55643947D01*
X194679794Y-55736773D01*
X194679785Y-55736777D01*
X194469706Y-55858067D01*
X194277263Y-56005733D01*
X194277256Y-56005739D01*
X194105739Y-56177256D01*
X194105733Y-56177263D01*
X193958067Y-56369706D01*
X193836777Y-56579785D01*
X193836773Y-56579794D01*
X193743947Y-56803895D01*
X193681161Y-57038214D01*
X193649500Y-57278711D01*
X130200500Y-57278711D01*
X130200500Y-55421153D01*
X134974500Y-55421153D01*
X134974500Y-55578846D01*
X135005261Y-55733489D01*
X135005264Y-55733501D01*
X135065602Y-55879172D01*
X135065609Y-55879185D01*
X135153210Y-56010288D01*
X135153213Y-56010292D01*
X135264707Y-56121786D01*
X135264711Y-56121789D01*
X135395814Y-56209390D01*
X135395827Y-56209397D01*
X135541498Y-56269735D01*
X135541503Y-56269737D01*
X135696153Y-56300499D01*
X135696156Y-56300500D01*
X135696158Y-56300500D01*
X136403844Y-56300500D01*
X136403845Y-56300499D01*
X136558497Y-56269737D01*
X136660407Y-56227525D01*
X152449500Y-56227525D01*
X152449500Y-56372475D01*
X152487016Y-56512485D01*
X152487017Y-56512488D01*
X152559488Y-56638011D01*
X152559490Y-56638013D01*
X152559491Y-56638015D01*
X152661985Y-56740509D01*
X152661986Y-56740510D01*
X152661988Y-56740511D01*
X152787511Y-56812982D01*
X152787512Y-56812982D01*
X152787515Y-56812984D01*
X152927525Y-56850500D01*
X152927528Y-56850500D01*
X153072472Y-56850500D01*
X153072475Y-56850500D01*
X153212485Y-56812984D01*
X153338015Y-56740509D01*
X153440509Y-56638015D01*
X153512984Y-56512485D01*
X153550500Y-56372475D01*
X153550500Y-56227525D01*
X153512984Y-56087515D01*
X153468397Y-56010289D01*
X153440511Y-55961988D01*
X153440506Y-55961982D01*
X153338017Y-55859493D01*
X153338011Y-55859488D01*
X153212488Y-55787017D01*
X153212489Y-55787017D01*
X153201006Y-55783940D01*
X153072475Y-55749500D01*
X152927525Y-55749500D01*
X152798993Y-55783940D01*
X152787511Y-55787017D01*
X152661988Y-55859488D01*
X152661982Y-55859493D01*
X152559493Y-55961982D01*
X152559488Y-55961988D01*
X152487017Y-56087511D01*
X152487016Y-56087515D01*
X152449500Y-56227525D01*
X136660407Y-56227525D01*
X136704179Y-56209394D01*
X136835289Y-56121789D01*
X136946789Y-56010289D01*
X137034394Y-55879179D01*
X137094737Y-55733497D01*
X137125500Y-55578842D01*
X137125500Y-55421158D01*
X137125500Y-55421155D01*
X137125499Y-55421153D01*
X137111445Y-55350500D01*
X137094737Y-55266503D01*
X137041516Y-55138015D01*
X137034397Y-55120827D01*
X137034390Y-55120814D01*
X136946789Y-54989711D01*
X136946786Y-54989707D01*
X136835292Y-54878213D01*
X136835288Y-54878210D01*
X136704185Y-54790609D01*
X136704172Y-54790602D01*
X136558501Y-54730264D01*
X136558489Y-54730261D01*
X136403845Y-54699500D01*
X136403842Y-54699500D01*
X135696158Y-54699500D01*
X135696155Y-54699500D01*
X135541510Y-54730261D01*
X135541498Y-54730264D01*
X135395827Y-54790602D01*
X135395814Y-54790609D01*
X135264711Y-54878210D01*
X135264707Y-54878213D01*
X135153213Y-54989707D01*
X135153210Y-54989711D01*
X135065609Y-55120814D01*
X135065602Y-55120827D01*
X135005264Y-55266498D01*
X135005261Y-55266510D01*
X134974500Y-55421153D01*
X130200500Y-55421153D01*
X130200500Y-54536530D01*
X139299500Y-54536530D01*
X139299500Y-54743469D01*
X139339868Y-54946412D01*
X139339870Y-54946420D01*
X139419058Y-55137596D01*
X139534024Y-55309657D01*
X139680342Y-55455975D01*
X139680345Y-55455977D01*
X139852402Y-55570941D01*
X140043580Y-55650130D01*
X140246530Y-55690499D01*
X140246534Y-55690500D01*
X140246535Y-55690500D01*
X140453466Y-55690500D01*
X140453467Y-55690499D01*
X140656420Y-55650130D01*
X140847598Y-55570941D01*
X141019655Y-55455977D01*
X141165977Y-55309655D01*
X141280941Y-55137598D01*
X141360130Y-54946420D01*
X141400500Y-54743465D01*
X141400500Y-54727525D01*
X149449500Y-54727525D01*
X149449500Y-54872475D01*
X149451038Y-54878213D01*
X149487017Y-55012488D01*
X149559488Y-55138011D01*
X149559490Y-55138013D01*
X149559491Y-55138015D01*
X149661985Y-55240509D01*
X149661986Y-55240510D01*
X149661988Y-55240511D01*
X149787511Y-55312982D01*
X149787512Y-55312982D01*
X149787515Y-55312984D01*
X149927525Y-55350500D01*
X149927528Y-55350500D01*
X150072472Y-55350500D01*
X150072475Y-55350500D01*
X150212485Y-55312984D01*
X150338015Y-55240509D01*
X150440509Y-55138015D01*
X150512984Y-55012485D01*
X150550500Y-54872475D01*
X150550500Y-54727525D01*
X150949500Y-54727525D01*
X150949500Y-54872475D01*
X150951038Y-54878213D01*
X150987017Y-55012488D01*
X151059488Y-55138011D01*
X151059490Y-55138013D01*
X151059491Y-55138015D01*
X151161985Y-55240509D01*
X151161986Y-55240510D01*
X151161988Y-55240511D01*
X151287511Y-55312982D01*
X151287512Y-55312982D01*
X151287515Y-55312984D01*
X151427525Y-55350500D01*
X151427528Y-55350500D01*
X151572472Y-55350500D01*
X151572475Y-55350500D01*
X151712485Y-55312984D01*
X151838015Y-55240509D01*
X151940509Y-55138015D01*
X152012984Y-55012485D01*
X152050500Y-54872475D01*
X152050500Y-54727525D01*
X152449500Y-54727525D01*
X152449500Y-54872475D01*
X152451038Y-54878213D01*
X152487017Y-55012488D01*
X152559488Y-55138011D01*
X152559490Y-55138013D01*
X152559491Y-55138015D01*
X152661985Y-55240509D01*
X152661986Y-55240510D01*
X152661988Y-55240511D01*
X152787511Y-55312982D01*
X152787512Y-55312982D01*
X152787515Y-55312984D01*
X152927525Y-55350500D01*
X152927528Y-55350500D01*
X153072472Y-55350500D01*
X153072475Y-55350500D01*
X153212485Y-55312984D01*
X153338015Y-55240509D01*
X153440509Y-55138015D01*
X153512984Y-55012485D01*
X153550500Y-54872475D01*
X153550500Y-54727525D01*
X153512984Y-54587515D01*
X153440509Y-54461985D01*
X153338015Y-54359491D01*
X153338013Y-54359490D01*
X153338011Y-54359488D01*
X153212488Y-54287017D01*
X153212489Y-54287017D01*
X153201006Y-54283940D01*
X153072475Y-54249500D01*
X152927525Y-54249500D01*
X152798993Y-54283940D01*
X152787511Y-54287017D01*
X152661988Y-54359488D01*
X152661982Y-54359493D01*
X152559493Y-54461982D01*
X152559488Y-54461988D01*
X152487017Y-54587511D01*
X152487016Y-54587515D01*
X152449500Y-54727525D01*
X152050500Y-54727525D01*
X152012984Y-54587515D01*
X151940509Y-54461985D01*
X151838015Y-54359491D01*
X151838013Y-54359490D01*
X151838011Y-54359488D01*
X151712488Y-54287017D01*
X151712489Y-54287017D01*
X151701006Y-54283940D01*
X151572475Y-54249500D01*
X151427525Y-54249500D01*
X151298993Y-54283940D01*
X151287511Y-54287017D01*
X151161988Y-54359488D01*
X151161982Y-54359493D01*
X151059493Y-54461982D01*
X151059488Y-54461988D01*
X150987017Y-54587511D01*
X150987016Y-54587515D01*
X150949500Y-54727525D01*
X150550500Y-54727525D01*
X150512984Y-54587515D01*
X150440509Y-54461985D01*
X150338015Y-54359491D01*
X150338013Y-54359490D01*
X150338011Y-54359488D01*
X150212488Y-54287017D01*
X150212489Y-54287017D01*
X150201006Y-54283940D01*
X150072475Y-54249500D01*
X149927525Y-54249500D01*
X149798993Y-54283940D01*
X149787511Y-54287017D01*
X149661988Y-54359488D01*
X149661982Y-54359493D01*
X149559493Y-54461982D01*
X149559488Y-54461988D01*
X149487017Y-54587511D01*
X149487016Y-54587515D01*
X149449500Y-54727525D01*
X141400500Y-54727525D01*
X141400500Y-54536535D01*
X141360130Y-54333580D01*
X141280941Y-54142402D01*
X141165977Y-53970345D01*
X141165975Y-53970342D01*
X141019657Y-53824024D01*
X140933626Y-53766541D01*
X140847598Y-53709059D01*
X140676088Y-53638017D01*
X140656420Y-53629870D01*
X140656412Y-53629868D01*
X140453469Y-53589500D01*
X140453465Y-53589500D01*
X140246535Y-53589500D01*
X140246530Y-53589500D01*
X140043587Y-53629868D01*
X140043579Y-53629870D01*
X139852403Y-53709058D01*
X139680342Y-53824024D01*
X139534024Y-53970342D01*
X139419058Y-54142403D01*
X139339870Y-54333579D01*
X139339868Y-54333587D01*
X139299500Y-54536530D01*
X130200500Y-54536530D01*
X130200500Y-53421153D01*
X134974500Y-53421153D01*
X134974500Y-53578846D01*
X135005261Y-53733489D01*
X135005264Y-53733501D01*
X135065602Y-53879172D01*
X135065609Y-53879185D01*
X135153210Y-54010288D01*
X135153213Y-54010292D01*
X135264707Y-54121786D01*
X135264711Y-54121789D01*
X135395814Y-54209390D01*
X135395827Y-54209397D01*
X135492646Y-54249500D01*
X135541503Y-54269737D01*
X135696153Y-54300499D01*
X135696156Y-54300500D01*
X135696158Y-54300500D01*
X136403844Y-54300500D01*
X136403845Y-54300499D01*
X136558497Y-54269737D01*
X136704179Y-54209394D01*
X136835289Y-54121789D01*
X136946789Y-54010289D01*
X137034394Y-53879179D01*
X137039899Y-53865890D01*
X137061813Y-53812982D01*
X137094737Y-53733497D01*
X137125500Y-53578842D01*
X137125500Y-53421158D01*
X137125500Y-53421155D01*
X137125499Y-53421153D01*
X137108085Y-53333608D01*
X137094737Y-53266503D01*
X137078592Y-53227525D01*
X149449500Y-53227525D01*
X149449500Y-53372475D01*
X149462545Y-53421158D01*
X149487017Y-53512488D01*
X149559488Y-53638011D01*
X149559490Y-53638013D01*
X149559491Y-53638015D01*
X149661985Y-53740509D01*
X149661986Y-53740510D01*
X149661988Y-53740511D01*
X149787511Y-53812982D01*
X149787512Y-53812982D01*
X149787515Y-53812984D01*
X149927525Y-53850500D01*
X149927528Y-53850500D01*
X150072472Y-53850500D01*
X150072475Y-53850500D01*
X150212485Y-53812984D01*
X150338015Y-53740509D01*
X150440509Y-53638015D01*
X150512984Y-53512485D01*
X150550500Y-53372475D01*
X150550500Y-53227525D01*
X150949500Y-53227525D01*
X150949500Y-53372475D01*
X150962545Y-53421158D01*
X150987017Y-53512488D01*
X151059488Y-53638011D01*
X151059490Y-53638013D01*
X151059491Y-53638015D01*
X151161985Y-53740509D01*
X151161986Y-53740510D01*
X151161988Y-53740511D01*
X151287511Y-53812982D01*
X151287512Y-53812982D01*
X151287515Y-53812984D01*
X151427525Y-53850500D01*
X151427528Y-53850500D01*
X151572472Y-53850500D01*
X151572475Y-53850500D01*
X151712485Y-53812984D01*
X151838015Y-53740509D01*
X151844416Y-53734108D01*
X171599500Y-53734108D01*
X171599500Y-53865892D01*
X171603060Y-53879179D01*
X171633608Y-53993187D01*
X171643482Y-54010289D01*
X171699500Y-54107314D01*
X171792686Y-54200500D01*
X171906814Y-54266392D01*
X172034108Y-54300500D01*
X172034110Y-54300500D01*
X172165890Y-54300500D01*
X172165892Y-54300500D01*
X172293186Y-54266392D01*
X172407314Y-54200500D01*
X172500500Y-54107314D01*
X172566392Y-53993186D01*
X172600500Y-53865892D01*
X172600500Y-53734108D01*
X172566392Y-53606814D01*
X172500500Y-53492686D01*
X172407314Y-53399500D01*
X172350250Y-53366554D01*
X172293187Y-53333608D01*
X172229539Y-53316554D01*
X172165892Y-53299500D01*
X172034108Y-53299500D01*
X171906812Y-53333608D01*
X171792686Y-53399500D01*
X171792683Y-53399502D01*
X171699502Y-53492683D01*
X171699500Y-53492686D01*
X171633608Y-53606812D01*
X171625247Y-53638017D01*
X171599500Y-53734108D01*
X151844416Y-53734108D01*
X151940509Y-53638015D01*
X152012984Y-53512485D01*
X152050500Y-53372475D01*
X152050500Y-53227525D01*
X152012984Y-53087515D01*
X151956514Y-52989707D01*
X151940511Y-52961988D01*
X151940506Y-52961982D01*
X151838017Y-52859493D01*
X151838011Y-52859488D01*
X151712488Y-52787017D01*
X151712489Y-52787017D01*
X151701006Y-52783940D01*
X151572475Y-52749500D01*
X151427525Y-52749500D01*
X151298993Y-52783940D01*
X151287511Y-52787017D01*
X151161988Y-52859488D01*
X151161982Y-52859493D01*
X151059493Y-52961982D01*
X151059488Y-52961988D01*
X150987017Y-53087511D01*
X150987016Y-53087515D01*
X150949500Y-53227525D01*
X150550500Y-53227525D01*
X150512984Y-53087515D01*
X150456514Y-52989707D01*
X150440511Y-52961988D01*
X150440506Y-52961982D01*
X150338017Y-52859493D01*
X150338011Y-52859488D01*
X150212488Y-52787017D01*
X150212489Y-52787017D01*
X150201006Y-52783940D01*
X150072475Y-52749500D01*
X149927525Y-52749500D01*
X149798993Y-52783940D01*
X149787511Y-52787017D01*
X149661988Y-52859488D01*
X149661982Y-52859493D01*
X149559493Y-52961982D01*
X149559488Y-52961988D01*
X149487017Y-53087511D01*
X149487016Y-53087515D01*
X149449500Y-53227525D01*
X137078592Y-53227525D01*
X137034397Y-53120827D01*
X137034390Y-53120814D01*
X136946789Y-52989711D01*
X136946786Y-52989707D01*
X136835292Y-52878213D01*
X136835288Y-52878210D01*
X136704185Y-52790609D01*
X136704172Y-52790602D01*
X136558501Y-52730264D01*
X136558489Y-52730261D01*
X136403845Y-52699500D01*
X136403842Y-52699500D01*
X135696158Y-52699500D01*
X135696155Y-52699500D01*
X135541510Y-52730261D01*
X135541498Y-52730264D01*
X135395827Y-52790602D01*
X135395814Y-52790609D01*
X135264711Y-52878210D01*
X135264707Y-52878213D01*
X135153213Y-52989707D01*
X135153210Y-52989711D01*
X135065609Y-53120814D01*
X135065602Y-53120827D01*
X135005264Y-53266498D01*
X135005261Y-53266510D01*
X134974500Y-53421153D01*
X130200500Y-53421153D01*
X130200500Y-51095730D01*
X134974500Y-51095730D01*
X134974500Y-51904269D01*
X134977353Y-51934699D01*
X134977353Y-51934701D01*
X135022206Y-52062880D01*
X135022207Y-52062882D01*
X135102850Y-52172150D01*
X135212118Y-52252793D01*
X135250979Y-52266391D01*
X135340299Y-52297646D01*
X135370730Y-52300500D01*
X135370734Y-52300500D01*
X136729270Y-52300500D01*
X136759699Y-52297646D01*
X136759701Y-52297646D01*
X136823790Y-52275219D01*
X136887882Y-52252793D01*
X136997150Y-52172150D01*
X137077793Y-52062882D01*
X137101010Y-51996530D01*
X139299500Y-51996530D01*
X139299500Y-52203469D01*
X139339868Y-52406412D01*
X139339870Y-52406420D01*
X139419058Y-52597596D01*
X139534024Y-52769657D01*
X139680342Y-52915975D01*
X139680345Y-52915977D01*
X139852402Y-53030941D01*
X140043580Y-53110130D01*
X140246530Y-53150499D01*
X140246534Y-53150500D01*
X140246535Y-53150500D01*
X140453466Y-53150500D01*
X140453467Y-53150499D01*
X140656420Y-53110130D01*
X140847598Y-53030941D01*
X141019655Y-52915977D01*
X141165977Y-52769655D01*
X141280941Y-52597598D01*
X141360130Y-52406420D01*
X141400500Y-52203465D01*
X141400500Y-51996535D01*
X141360130Y-51793580D01*
X141335496Y-51734108D01*
X176199500Y-51734108D01*
X176199500Y-51865891D01*
X176233608Y-51993187D01*
X176266554Y-52050250D01*
X176299500Y-52107314D01*
X176392686Y-52200500D01*
X176506814Y-52266392D01*
X176634108Y-52300500D01*
X176634110Y-52300500D01*
X176765890Y-52300500D01*
X176765892Y-52300500D01*
X176893186Y-52266392D01*
X177007314Y-52200500D01*
X177100500Y-52107314D01*
X177166392Y-51993186D01*
X177200500Y-51865892D01*
X177200500Y-51734108D01*
X177166392Y-51606814D01*
X177163845Y-51602403D01*
X177100503Y-51492691D01*
X177100502Y-51492690D01*
X177100500Y-51492686D01*
X177041922Y-51434108D01*
X200499500Y-51434108D01*
X200499500Y-51565891D01*
X200533608Y-51693187D01*
X200566554Y-51750250D01*
X200599500Y-51807314D01*
X200692686Y-51900500D01*
X200806814Y-51966392D01*
X200934108Y-52000500D01*
X200934110Y-52000500D01*
X201065890Y-52000500D01*
X201065892Y-52000500D01*
X201193186Y-51966392D01*
X201307314Y-51900500D01*
X201400500Y-51807314D01*
X201466392Y-51693186D01*
X201500500Y-51565892D01*
X201500500Y-51434108D01*
X202999500Y-51434108D01*
X202999500Y-51565891D01*
X203033608Y-51693187D01*
X203066554Y-51750250D01*
X203099500Y-51807314D01*
X203192686Y-51900500D01*
X203306814Y-51966392D01*
X203434108Y-52000500D01*
X203434110Y-52000500D01*
X203565890Y-52000500D01*
X203565892Y-52000500D01*
X203693186Y-51966392D01*
X203807314Y-51900500D01*
X203900500Y-51807314D01*
X203966392Y-51693186D01*
X204000500Y-51565892D01*
X204000500Y-51434108D01*
X205749500Y-51434108D01*
X205749500Y-51565891D01*
X205783608Y-51693187D01*
X205816554Y-51750250D01*
X205849500Y-51807314D01*
X205942686Y-51900500D01*
X206056814Y-51966392D01*
X206184108Y-52000500D01*
X206184110Y-52000500D01*
X206315890Y-52000500D01*
X206315892Y-52000500D01*
X206443186Y-51966392D01*
X206557314Y-51900500D01*
X206650500Y-51807314D01*
X206716392Y-51693186D01*
X206750500Y-51565892D01*
X206750500Y-51434108D01*
X206716392Y-51306814D01*
X206650500Y-51192686D01*
X206557314Y-51099500D01*
X206470712Y-51049500D01*
X206443187Y-51033608D01*
X206379539Y-51016554D01*
X206315892Y-50999500D01*
X206184108Y-50999500D01*
X206056812Y-51033608D01*
X205942686Y-51099500D01*
X205942683Y-51099502D01*
X205849502Y-51192683D01*
X205849500Y-51192686D01*
X205783608Y-51306812D01*
X205749500Y-51434108D01*
X204000500Y-51434108D01*
X203966392Y-51306814D01*
X203900500Y-51192686D01*
X203807314Y-51099500D01*
X203720712Y-51049500D01*
X203693187Y-51033608D01*
X203629539Y-51016554D01*
X203565892Y-50999500D01*
X203434108Y-50999500D01*
X203306812Y-51033608D01*
X203192686Y-51099500D01*
X203192683Y-51099502D01*
X203099502Y-51192683D01*
X203099500Y-51192686D01*
X203033608Y-51306812D01*
X202999500Y-51434108D01*
X201500500Y-51434108D01*
X201466392Y-51306814D01*
X201400500Y-51192686D01*
X201307314Y-51099500D01*
X201220712Y-51049500D01*
X201193187Y-51033608D01*
X201129539Y-51016554D01*
X201065892Y-50999500D01*
X200934108Y-50999500D01*
X200806812Y-51033608D01*
X200692686Y-51099500D01*
X200692683Y-51099502D01*
X200599502Y-51192683D01*
X200599500Y-51192686D01*
X200533608Y-51306812D01*
X200499500Y-51434108D01*
X177041922Y-51434108D01*
X177007314Y-51399500D01*
X176950250Y-51366554D01*
X176893187Y-51333608D01*
X176793188Y-51306814D01*
X176765892Y-51299500D01*
X176634108Y-51299500D01*
X176506812Y-51333608D01*
X176392686Y-51399500D01*
X176392683Y-51399502D01*
X176299502Y-51492683D01*
X176299500Y-51492686D01*
X176233608Y-51606812D01*
X176199500Y-51734108D01*
X141335496Y-51734108D01*
X141280941Y-51602402D01*
X141165977Y-51430345D01*
X141165975Y-51430342D01*
X141019657Y-51284024D01*
X140933626Y-51226541D01*
X140847598Y-51169059D01*
X140656420Y-51089870D01*
X140656412Y-51089868D01*
X140453469Y-51049500D01*
X140453465Y-51049500D01*
X140246535Y-51049500D01*
X140246530Y-51049500D01*
X140043587Y-51089868D01*
X140043579Y-51089870D01*
X139852403Y-51169058D01*
X139680342Y-51284024D01*
X139534024Y-51430342D01*
X139419058Y-51602403D01*
X139339870Y-51793579D01*
X139339868Y-51793587D01*
X139299500Y-51996530D01*
X137101010Y-51996530D01*
X137122646Y-51934699D01*
X137125500Y-51904266D01*
X137125500Y-51095734D01*
X137122646Y-51065301D01*
X137122646Y-51065300D01*
X137122646Y-51065298D01*
X137077793Y-50937119D01*
X137077792Y-50937117D01*
X136997150Y-50827850D01*
X136887882Y-50747207D01*
X136887880Y-50747206D01*
X136759700Y-50702353D01*
X136729270Y-50699500D01*
X136729266Y-50699500D01*
X135370734Y-50699500D01*
X135370730Y-50699500D01*
X135340300Y-50702353D01*
X135340298Y-50702353D01*
X135212119Y-50747206D01*
X135212117Y-50747207D01*
X135102850Y-50827850D01*
X135022207Y-50937117D01*
X135022206Y-50937119D01*
X134977353Y-51065298D01*
X134977353Y-51065300D01*
X134974500Y-51095730D01*
X130200500Y-51095730D01*
X130200500Y-49434108D01*
X190749500Y-49434108D01*
X190749500Y-49565892D01*
X190755863Y-49589639D01*
X190783608Y-49693187D01*
X190797005Y-49716391D01*
X190849500Y-49807314D01*
X190942686Y-49900500D01*
X191056814Y-49966392D01*
X191184108Y-50000500D01*
X191184110Y-50000500D01*
X191315890Y-50000500D01*
X191315892Y-50000500D01*
X191443186Y-49966392D01*
X191557314Y-49900500D01*
X191650500Y-49807314D01*
X191716392Y-49693186D01*
X191750500Y-49565892D01*
X191750500Y-49434108D01*
X193249500Y-49434108D01*
X193249500Y-49565892D01*
X193255863Y-49589639D01*
X193283608Y-49693187D01*
X193297005Y-49716391D01*
X193349500Y-49807314D01*
X193442686Y-49900500D01*
X193556814Y-49966392D01*
X193684108Y-50000500D01*
X193684110Y-50000500D01*
X193815890Y-50000500D01*
X193815892Y-50000500D01*
X193943186Y-49966392D01*
X194057314Y-49900500D01*
X194150500Y-49807314D01*
X194216392Y-49693186D01*
X194250500Y-49565892D01*
X194250500Y-49434108D01*
X195499500Y-49434108D01*
X195499500Y-49565892D01*
X195505863Y-49589639D01*
X195533608Y-49693187D01*
X195547005Y-49716391D01*
X195599500Y-49807314D01*
X195692686Y-49900500D01*
X195806814Y-49966392D01*
X195934108Y-50000500D01*
X195934110Y-50000500D01*
X196065890Y-50000500D01*
X196065892Y-50000500D01*
X196193186Y-49966392D01*
X196307314Y-49900500D01*
X196400500Y-49807314D01*
X196466392Y-49693186D01*
X196500500Y-49565892D01*
X196500500Y-49434108D01*
X197999500Y-49434108D01*
X197999500Y-49565892D01*
X198005863Y-49589639D01*
X198033608Y-49693187D01*
X198047005Y-49716391D01*
X198099500Y-49807314D01*
X198192686Y-49900500D01*
X198306814Y-49966392D01*
X198434108Y-50000500D01*
X198434110Y-50000500D01*
X198565890Y-50000500D01*
X198565892Y-50000500D01*
X198693186Y-49966392D01*
X198807314Y-49900500D01*
X198900500Y-49807314D01*
X198966392Y-49693186D01*
X199000500Y-49565892D01*
X199000500Y-49434108D01*
X198966392Y-49306814D01*
X198900500Y-49192686D01*
X198891922Y-49184108D01*
X200499500Y-49184108D01*
X200499500Y-49315891D01*
X200533608Y-49443187D01*
X200566554Y-49500250D01*
X200599500Y-49557314D01*
X200692686Y-49650500D01*
X200806814Y-49716392D01*
X200934108Y-49750500D01*
X200934110Y-49750500D01*
X201065890Y-49750500D01*
X201065892Y-49750500D01*
X201193186Y-49716392D01*
X201307314Y-49650500D01*
X201381547Y-49576266D01*
X201442866Y-49542784D01*
X201512558Y-49547768D01*
X201568492Y-49589639D01*
X201587156Y-49625631D01*
X201655770Y-49836803D01*
X201759421Y-50040228D01*
X201893621Y-50224937D01*
X202055063Y-50386379D01*
X202239772Y-50520579D01*
X202328943Y-50566014D01*
X202443196Y-50624229D01*
X202443198Y-50624229D01*
X202443201Y-50624231D01*
X202559592Y-50662049D01*
X202660339Y-50694784D01*
X202885838Y-50730500D01*
X202885843Y-50730500D01*
X204114162Y-50730500D01*
X204339660Y-50694784D01*
X204556799Y-50624231D01*
X204760228Y-50520579D01*
X204944937Y-50386379D01*
X205106379Y-50224937D01*
X205240579Y-50040228D01*
X205344231Y-49836799D01*
X205414784Y-49619660D01*
X205419539Y-49589639D01*
X205450500Y-49394162D01*
X205450500Y-49184108D01*
X205749500Y-49184108D01*
X205749500Y-49315891D01*
X205783608Y-49443187D01*
X205816554Y-49500250D01*
X205849500Y-49557314D01*
X205942686Y-49650500D01*
X206056814Y-49716392D01*
X206184108Y-49750500D01*
X206184110Y-49750500D01*
X206315890Y-49750500D01*
X206315892Y-49750500D01*
X206443186Y-49716392D01*
X206557314Y-49650500D01*
X206650500Y-49557314D01*
X206716392Y-49443186D01*
X206750500Y-49315892D01*
X206750500Y-49184108D01*
X206725225Y-49089778D01*
X210099500Y-49089778D01*
X210099500Y-49310221D01*
X210133985Y-49527952D01*
X210202103Y-49737603D01*
X210202104Y-49737606D01*
X210302187Y-49934025D01*
X210431752Y-50112358D01*
X210431756Y-50112363D01*
X210587636Y-50268243D01*
X210587641Y-50268247D01*
X210743192Y-50381260D01*
X210765978Y-50397815D01*
X210894375Y-50463237D01*
X210962393Y-50497895D01*
X210962396Y-50497896D01*
X211032206Y-50520578D01*
X211172049Y-50566015D01*
X211389778Y-50600500D01*
X211389779Y-50600500D01*
X211610221Y-50600500D01*
X211610222Y-50600500D01*
X211827951Y-50566015D01*
X212037606Y-50497895D01*
X212234022Y-50397815D01*
X212412365Y-50268242D01*
X212568242Y-50112365D01*
X212697815Y-49934022D01*
X212797895Y-49737606D01*
X212866015Y-49527951D01*
X212900500Y-49310222D01*
X212900500Y-49089778D01*
X212866015Y-48872049D01*
X212817652Y-48723201D01*
X212797896Y-48662396D01*
X212797895Y-48662393D01*
X212763237Y-48594375D01*
X212697815Y-48465978D01*
X212681260Y-48443192D01*
X212568247Y-48287641D01*
X212568243Y-48287636D01*
X212412363Y-48131756D01*
X212412358Y-48131752D01*
X212234025Y-48002187D01*
X212234024Y-48002186D01*
X212234022Y-48002185D01*
X212163773Y-47966391D01*
X212037606Y-47902104D01*
X212037603Y-47902103D01*
X211827952Y-47833985D01*
X211659551Y-47807313D01*
X211610222Y-47799500D01*
X211389778Y-47799500D01*
X211340449Y-47807313D01*
X211172047Y-47833985D01*
X210962396Y-47902103D01*
X210962393Y-47902104D01*
X210765974Y-48002187D01*
X210587641Y-48131752D01*
X210587636Y-48131756D01*
X210431756Y-48287636D01*
X210431752Y-48287641D01*
X210302187Y-48465974D01*
X210202104Y-48662393D01*
X210202103Y-48662396D01*
X210133985Y-48872047D01*
X210099500Y-49089778D01*
X206725225Y-49089778D01*
X206716392Y-49056814D01*
X206650500Y-48942686D01*
X206557314Y-48849500D01*
X206500250Y-48816554D01*
X206443187Y-48783608D01*
X206379539Y-48766554D01*
X206315892Y-48749500D01*
X206184108Y-48749500D01*
X206056812Y-48783608D01*
X205942686Y-48849500D01*
X205942683Y-48849502D01*
X205849502Y-48942683D01*
X205849500Y-48942686D01*
X205783608Y-49056812D01*
X205749500Y-49184108D01*
X205450500Y-49184108D01*
X205450500Y-49165837D01*
X205414784Y-48940339D01*
X205344229Y-48723196D01*
X205240578Y-48519771D01*
X205201492Y-48465974D01*
X205106379Y-48335063D01*
X204944937Y-48173621D01*
X204760228Y-48039421D01*
X204556803Y-47935770D01*
X204339660Y-47865215D01*
X204114162Y-47829500D01*
X204114157Y-47829500D01*
X202885843Y-47829500D01*
X202885838Y-47829500D01*
X202660339Y-47865215D01*
X202443196Y-47935770D01*
X202239771Y-48039421D01*
X202055061Y-48173622D01*
X201893622Y-48335061D01*
X201759421Y-48519771D01*
X201655770Y-48723196D01*
X201601870Y-48889082D01*
X201562432Y-48946757D01*
X201498073Y-48973955D01*
X201429227Y-48962040D01*
X201396258Y-48938444D01*
X201307316Y-48849502D01*
X201307314Y-48849500D01*
X201250250Y-48816554D01*
X201193187Y-48783608D01*
X201129539Y-48766554D01*
X201065892Y-48749500D01*
X200934108Y-48749500D01*
X200806812Y-48783608D01*
X200692686Y-48849500D01*
X200692683Y-48849502D01*
X200599502Y-48942683D01*
X200599500Y-48942686D01*
X200533608Y-49056812D01*
X200499500Y-49184108D01*
X198891922Y-49184108D01*
X198807314Y-49099500D01*
X198733380Y-49056814D01*
X198693187Y-49033608D01*
X198629539Y-49016554D01*
X198565892Y-48999500D01*
X198434108Y-48999500D01*
X198306812Y-49033608D01*
X198192686Y-49099500D01*
X198192683Y-49099502D01*
X198099502Y-49192683D01*
X198099500Y-49192686D01*
X198033608Y-49306812D01*
X198010205Y-49394157D01*
X197999500Y-49434108D01*
X196500500Y-49434108D01*
X196466392Y-49306814D01*
X196400500Y-49192686D01*
X196307314Y-49099500D01*
X196233380Y-49056814D01*
X196193187Y-49033608D01*
X196129539Y-49016554D01*
X196065892Y-48999500D01*
X195934108Y-48999500D01*
X195806812Y-49033608D01*
X195692686Y-49099500D01*
X195692683Y-49099502D01*
X195599502Y-49192683D01*
X195599500Y-49192686D01*
X195533608Y-49306812D01*
X195510205Y-49394157D01*
X195499500Y-49434108D01*
X194250500Y-49434108D01*
X194216392Y-49306814D01*
X194150500Y-49192686D01*
X194057314Y-49099500D01*
X193983380Y-49056814D01*
X193943187Y-49033608D01*
X193879539Y-49016554D01*
X193815892Y-48999500D01*
X193684108Y-48999500D01*
X193556812Y-49033608D01*
X193442686Y-49099500D01*
X193442683Y-49099502D01*
X193349502Y-49192683D01*
X193349500Y-49192686D01*
X193283608Y-49306812D01*
X193260205Y-49394157D01*
X193249500Y-49434108D01*
X191750500Y-49434108D01*
X191716392Y-49306814D01*
X191650500Y-49192686D01*
X191557314Y-49099500D01*
X191483380Y-49056814D01*
X191443187Y-49033608D01*
X191379539Y-49016554D01*
X191315892Y-48999500D01*
X191184108Y-48999500D01*
X191056812Y-49033608D01*
X190942686Y-49099500D01*
X190942683Y-49099502D01*
X190849502Y-49192683D01*
X190849500Y-49192686D01*
X190783608Y-49306812D01*
X190760205Y-49394157D01*
X190749500Y-49434108D01*
X130200500Y-49434108D01*
X130200500Y-47608995D01*
X151779499Y-47608995D01*
X151806418Y-47744322D01*
X151806421Y-47744332D01*
X151859221Y-47871804D01*
X151859228Y-47871817D01*
X151935885Y-47986541D01*
X151935888Y-47986545D01*
X152033454Y-48084111D01*
X152033458Y-48084114D01*
X152148182Y-48160771D01*
X152148195Y-48160778D01*
X152275667Y-48213578D01*
X152275672Y-48213580D01*
X152275676Y-48213580D01*
X152275677Y-48213581D01*
X152411004Y-48240500D01*
X152411007Y-48240500D01*
X152548995Y-48240500D01*
X152640041Y-48222389D01*
X152684328Y-48213580D01*
X152811811Y-48160775D01*
X152926542Y-48084114D01*
X153024114Y-47986542D01*
X153100775Y-47871811D01*
X153153580Y-47744328D01*
X153180500Y-47608995D01*
X160419499Y-47608995D01*
X160446418Y-47744322D01*
X160446421Y-47744332D01*
X160499221Y-47871804D01*
X160499228Y-47871817D01*
X160575885Y-47986541D01*
X160575888Y-47986545D01*
X160673454Y-48084111D01*
X160673458Y-48084114D01*
X160788182Y-48160771D01*
X160788195Y-48160778D01*
X160915667Y-48213578D01*
X160915672Y-48213580D01*
X160915676Y-48213580D01*
X160915677Y-48213581D01*
X161051004Y-48240500D01*
X161051007Y-48240500D01*
X161188995Y-48240500D01*
X161280041Y-48222389D01*
X161324328Y-48213580D01*
X161451811Y-48160775D01*
X161566542Y-48084114D01*
X161664114Y-47986542D01*
X161740775Y-47871811D01*
X161793580Y-47744328D01*
X161820500Y-47608993D01*
X161820500Y-47434108D01*
X190749500Y-47434108D01*
X190749500Y-47565891D01*
X190783608Y-47693187D01*
X190813131Y-47744322D01*
X190849500Y-47807314D01*
X190942686Y-47900500D01*
X191056814Y-47966392D01*
X191184108Y-48000500D01*
X191184110Y-48000500D01*
X191315890Y-48000500D01*
X191315892Y-48000500D01*
X191443186Y-47966392D01*
X191557314Y-47900500D01*
X191650500Y-47807314D01*
X191716392Y-47693186D01*
X191750500Y-47565892D01*
X191750500Y-47434108D01*
X193249500Y-47434108D01*
X193249500Y-47565891D01*
X193283608Y-47693187D01*
X193313131Y-47744322D01*
X193349500Y-47807314D01*
X193442686Y-47900500D01*
X193556814Y-47966392D01*
X193684108Y-48000500D01*
X193684110Y-48000500D01*
X193815890Y-48000500D01*
X193815892Y-48000500D01*
X193943186Y-47966392D01*
X194057314Y-47900500D01*
X194150500Y-47807314D01*
X194216392Y-47693186D01*
X194250500Y-47565892D01*
X194250500Y-47434108D01*
X195499500Y-47434108D01*
X195499500Y-47565891D01*
X195533608Y-47693187D01*
X195563131Y-47744322D01*
X195599500Y-47807314D01*
X195692686Y-47900500D01*
X195806814Y-47966392D01*
X195934108Y-48000500D01*
X195934110Y-48000500D01*
X196065890Y-48000500D01*
X196065892Y-48000500D01*
X196193186Y-47966392D01*
X196307314Y-47900500D01*
X196400500Y-47807314D01*
X196466392Y-47693186D01*
X196500500Y-47565892D01*
X196500500Y-47434108D01*
X197999500Y-47434108D01*
X197999500Y-47565891D01*
X198033608Y-47693187D01*
X198063131Y-47744322D01*
X198099500Y-47807314D01*
X198192686Y-47900500D01*
X198306814Y-47966392D01*
X198434108Y-48000500D01*
X198434110Y-48000500D01*
X198565890Y-48000500D01*
X198565892Y-48000500D01*
X198693186Y-47966392D01*
X198807314Y-47900500D01*
X198900500Y-47807314D01*
X198966392Y-47693186D01*
X199000500Y-47565892D01*
X199000500Y-47434108D01*
X198966392Y-47306814D01*
X198900500Y-47192686D01*
X198807314Y-47099500D01*
X198693186Y-47033608D01*
X198565892Y-46999500D01*
X198434108Y-46999500D01*
X198306812Y-47033608D01*
X198192686Y-47099500D01*
X198192683Y-47099502D01*
X198099502Y-47192683D01*
X198099500Y-47192686D01*
X198033608Y-47306812D01*
X197999500Y-47434108D01*
X196500500Y-47434108D01*
X196466392Y-47306814D01*
X196400500Y-47192686D01*
X196307314Y-47099500D01*
X196249100Y-47065890D01*
X196193187Y-47033608D01*
X196129539Y-47016554D01*
X196065892Y-46999500D01*
X195934108Y-46999500D01*
X195806812Y-47033608D01*
X195692686Y-47099500D01*
X195692683Y-47099502D01*
X195599502Y-47192683D01*
X195599500Y-47192686D01*
X195533608Y-47306812D01*
X195499500Y-47434108D01*
X194250500Y-47434108D01*
X194216392Y-47306814D01*
X194150500Y-47192686D01*
X194057314Y-47099500D01*
X193999100Y-47065890D01*
X193943187Y-47033608D01*
X193879539Y-47016554D01*
X193815892Y-46999500D01*
X193684108Y-46999500D01*
X193556812Y-47033608D01*
X193442686Y-47099500D01*
X193442683Y-47099502D01*
X193349502Y-47192683D01*
X193349500Y-47192686D01*
X193283608Y-47306812D01*
X193249500Y-47434108D01*
X191750500Y-47434108D01*
X191716392Y-47306814D01*
X191650500Y-47192686D01*
X191557314Y-47099500D01*
X191499100Y-47065890D01*
X191443187Y-47033608D01*
X191379539Y-47016554D01*
X191315892Y-46999500D01*
X191184108Y-46999500D01*
X191056812Y-47033608D01*
X190942686Y-47099500D01*
X190942683Y-47099502D01*
X190849502Y-47192683D01*
X190849500Y-47192686D01*
X190783608Y-47306812D01*
X190749500Y-47434108D01*
X161820500Y-47434108D01*
X161820500Y-46934108D01*
X200499500Y-46934108D01*
X200499500Y-47065891D01*
X200533608Y-47193187D01*
X200566554Y-47250250D01*
X200599500Y-47307314D01*
X200692686Y-47400500D01*
X200791521Y-47457563D01*
X200800533Y-47462766D01*
X200806814Y-47466392D01*
X200934108Y-47500500D01*
X200934110Y-47500500D01*
X201065890Y-47500500D01*
X201065892Y-47500500D01*
X201193186Y-47466392D01*
X201307314Y-47400500D01*
X201400500Y-47307314D01*
X201466392Y-47193186D01*
X201500500Y-47065892D01*
X201500500Y-46934108D01*
X202999500Y-46934108D01*
X202999500Y-47065891D01*
X203033608Y-47193187D01*
X203066554Y-47250250D01*
X203099500Y-47307314D01*
X203192686Y-47400500D01*
X203291521Y-47457563D01*
X203300533Y-47462766D01*
X203306814Y-47466392D01*
X203434108Y-47500500D01*
X203434110Y-47500500D01*
X203565890Y-47500500D01*
X203565892Y-47500500D01*
X203693186Y-47466392D01*
X203807314Y-47400500D01*
X203900500Y-47307314D01*
X203966392Y-47193186D01*
X204000500Y-47065892D01*
X204000500Y-46934108D01*
X205749500Y-46934108D01*
X205749500Y-47065891D01*
X205783608Y-47193187D01*
X205816554Y-47250250D01*
X205849500Y-47307314D01*
X205942686Y-47400500D01*
X206041521Y-47457563D01*
X206050533Y-47462766D01*
X206056814Y-47466392D01*
X206184108Y-47500500D01*
X206184110Y-47500500D01*
X206315890Y-47500500D01*
X206315892Y-47500500D01*
X206443186Y-47466392D01*
X206557314Y-47400500D01*
X206650500Y-47307314D01*
X206716392Y-47193186D01*
X206750500Y-47065892D01*
X206750500Y-46934108D01*
X206716392Y-46806814D01*
X206650500Y-46692686D01*
X206557314Y-46599500D01*
X206500250Y-46566554D01*
X206443187Y-46533608D01*
X206377531Y-46516016D01*
X206315892Y-46499500D01*
X206184108Y-46499500D01*
X206056812Y-46533608D01*
X205942686Y-46599500D01*
X205942683Y-46599502D01*
X205849502Y-46692683D01*
X205849500Y-46692686D01*
X205783608Y-46806812D01*
X205749500Y-46934108D01*
X204000500Y-46934108D01*
X203966392Y-46806814D01*
X203900500Y-46692686D01*
X203807314Y-46599500D01*
X203750250Y-46566554D01*
X203693187Y-46533608D01*
X203627531Y-46516016D01*
X203565892Y-46499500D01*
X203434108Y-46499500D01*
X203306812Y-46533608D01*
X203192686Y-46599500D01*
X203192683Y-46599502D01*
X203099502Y-46692683D01*
X203099500Y-46692686D01*
X203033608Y-46806812D01*
X202999500Y-46934108D01*
X201500500Y-46934108D01*
X201466392Y-46806814D01*
X201400500Y-46692686D01*
X201307314Y-46599500D01*
X201250250Y-46566554D01*
X201193187Y-46533608D01*
X201127531Y-46516016D01*
X201065892Y-46499500D01*
X200934108Y-46499500D01*
X200806812Y-46533608D01*
X200692686Y-46599500D01*
X200692683Y-46599502D01*
X200599502Y-46692683D01*
X200599500Y-46692686D01*
X200533608Y-46806812D01*
X200499500Y-46934108D01*
X161820500Y-46934108D01*
X161820500Y-46371007D01*
X161820500Y-46371004D01*
X161793581Y-46235677D01*
X161793580Y-46235676D01*
X161793580Y-46235672D01*
X161793578Y-46235667D01*
X161740778Y-46108195D01*
X161740771Y-46108182D01*
X161664114Y-45993458D01*
X161664111Y-45993454D01*
X161566545Y-45895888D01*
X161566541Y-45895885D01*
X161451817Y-45819228D01*
X161451804Y-45819221D01*
X161324332Y-45766421D01*
X161324322Y-45766418D01*
X161188995Y-45739500D01*
X161188993Y-45739500D01*
X161051007Y-45739500D01*
X161051005Y-45739500D01*
X160915677Y-45766418D01*
X160915667Y-45766421D01*
X160788195Y-45819221D01*
X160788182Y-45819228D01*
X160673458Y-45895885D01*
X160673454Y-45895888D01*
X160575888Y-45993454D01*
X160575885Y-45993458D01*
X160499228Y-46108182D01*
X160499221Y-46108195D01*
X160446421Y-46235667D01*
X160446418Y-46235677D01*
X160419500Y-46371004D01*
X160419500Y-46371007D01*
X160419500Y-47608993D01*
X160419500Y-47608995D01*
X160419499Y-47608995D01*
X153180500Y-47608995D01*
X153180500Y-47608993D01*
X153180500Y-46403982D01*
X153484500Y-46403982D01*
X153484500Y-46516018D01*
X153513497Y-46624237D01*
X153569515Y-46721263D01*
X153648737Y-46800485D01*
X153745763Y-46856503D01*
X153853982Y-46885500D01*
X153853984Y-46885500D01*
X153966016Y-46885500D01*
X153966018Y-46885500D01*
X154074237Y-46856503D01*
X154171263Y-46800485D01*
X154250485Y-46721263D01*
X154306503Y-46624237D01*
X154335500Y-46516018D01*
X154335500Y-46403982D01*
X159264500Y-46403982D01*
X159264500Y-46516018D01*
X159293497Y-46624237D01*
X159349515Y-46721263D01*
X159428737Y-46800485D01*
X159525763Y-46856503D01*
X159633982Y-46885500D01*
X159633984Y-46885500D01*
X159746016Y-46885500D01*
X159746018Y-46885500D01*
X159854237Y-46856503D01*
X159951263Y-46800485D01*
X160030485Y-46721263D01*
X160086503Y-46624237D01*
X160115500Y-46516018D01*
X160115500Y-46403982D01*
X160086503Y-46295763D01*
X160030485Y-46198737D01*
X159951263Y-46119515D01*
X159854237Y-46063497D01*
X159746018Y-46034500D01*
X159633982Y-46034500D01*
X159525763Y-46063497D01*
X159525760Y-46063498D01*
X159428740Y-46119513D01*
X159428734Y-46119517D01*
X159349517Y-46198734D01*
X159349513Y-46198740D01*
X159293498Y-46295760D01*
X159293497Y-46295763D01*
X159264500Y-46403982D01*
X154335500Y-46403982D01*
X154306503Y-46295763D01*
X154250485Y-46198737D01*
X154171263Y-46119515D01*
X154074237Y-46063497D01*
X153966018Y-46034500D01*
X153853982Y-46034500D01*
X153745763Y-46063497D01*
X153745760Y-46063498D01*
X153648740Y-46119513D01*
X153648734Y-46119517D01*
X153569517Y-46198734D01*
X153569513Y-46198740D01*
X153513498Y-46295760D01*
X153513497Y-46295763D01*
X153484500Y-46403982D01*
X153180500Y-46403982D01*
X153180500Y-46371007D01*
X153180500Y-46371004D01*
X153153581Y-46235677D01*
X153153580Y-46235676D01*
X153153580Y-46235672D01*
X153153578Y-46235667D01*
X153100778Y-46108195D01*
X153100771Y-46108182D01*
X153024114Y-45993458D01*
X153024111Y-45993454D01*
X152926545Y-45895888D01*
X152926541Y-45895885D01*
X152811817Y-45819228D01*
X152811804Y-45819221D01*
X152684332Y-45766421D01*
X152684322Y-45766418D01*
X152548995Y-45739500D01*
X152548993Y-45739500D01*
X152411007Y-45739500D01*
X152411005Y-45739500D01*
X152275677Y-45766418D01*
X152275667Y-45766421D01*
X152148195Y-45819221D01*
X152148182Y-45819228D01*
X152033458Y-45895885D01*
X152033454Y-45895888D01*
X151935888Y-45993454D01*
X151935885Y-45993458D01*
X151859228Y-46108182D01*
X151859221Y-46108195D01*
X151806421Y-46235667D01*
X151806418Y-46235677D01*
X151779500Y-46371004D01*
X151779500Y-46371007D01*
X151779500Y-47608993D01*
X151779500Y-47608995D01*
X151779499Y-47608995D01*
X130200500Y-47608995D01*
X130200500Y-44502869D01*
X130200632Y-44497143D01*
X130208291Y-44331491D01*
X131499500Y-44331491D01*
X131499500Y-44668508D01*
X131537231Y-45003381D01*
X131537233Y-45003397D01*
X131612223Y-45331953D01*
X131612227Y-45331965D01*
X131723532Y-45650054D01*
X131869752Y-45953683D01*
X131920533Y-46034500D01*
X132049054Y-46239039D01*
X132259175Y-46502523D01*
X132497477Y-46740825D01*
X132760961Y-46950946D01*
X133046314Y-47130246D01*
X133349949Y-47276469D01*
X133588848Y-47360063D01*
X133668034Y-47387772D01*
X133668046Y-47387776D01*
X133996606Y-47462767D01*
X134331492Y-47500499D01*
X134331493Y-47500500D01*
X134331496Y-47500500D01*
X134668507Y-47500500D01*
X134668507Y-47500499D01*
X135003394Y-47462767D01*
X135331954Y-47387776D01*
X135650051Y-47276469D01*
X135953686Y-47130246D01*
X136239039Y-46950946D01*
X136502523Y-46740825D01*
X136740825Y-46502523D01*
X136824971Y-46397008D01*
X136912218Y-46287603D01*
X136912218Y-46287602D01*
X136950946Y-46239039D01*
X137130246Y-45953686D01*
X137276469Y-45650051D01*
X137387776Y-45331954D01*
X137462767Y-45003394D01*
X137500500Y-44668504D01*
X137500500Y-44331496D01*
X137500499Y-44331491D01*
X212499500Y-44331491D01*
X212499500Y-44668508D01*
X212537231Y-45003381D01*
X212537233Y-45003397D01*
X212612223Y-45331953D01*
X212612227Y-45331965D01*
X212723532Y-45650054D01*
X212869752Y-45953683D01*
X212920533Y-46034500D01*
X213049054Y-46239039D01*
X213259175Y-46502523D01*
X213497477Y-46740825D01*
X213760961Y-46950946D01*
X214046314Y-47130246D01*
X214349949Y-47276469D01*
X214588848Y-47360063D01*
X214668034Y-47387772D01*
X214668046Y-47387776D01*
X214996606Y-47462767D01*
X215331492Y-47500499D01*
X215331493Y-47500500D01*
X215331496Y-47500500D01*
X215668507Y-47500500D01*
X215668507Y-47500499D01*
X216003394Y-47462767D01*
X216331954Y-47387776D01*
X216650051Y-47276469D01*
X216953686Y-47130246D01*
X217239039Y-46950946D01*
X217502523Y-46740825D01*
X217740825Y-46502523D01*
X217950946Y-46239039D01*
X218130246Y-45953686D01*
X218276469Y-45650051D01*
X218387776Y-45331954D01*
X218462767Y-45003394D01*
X218500500Y-44668504D01*
X218500500Y-44331496D01*
X218462767Y-43996606D01*
X218387776Y-43668046D01*
X218276469Y-43349949D01*
X218130246Y-43046314D01*
X217950946Y-42760961D01*
X217740825Y-42497477D01*
X217502523Y-42259175D01*
X217239039Y-42049054D01*
X216984674Y-41889225D01*
X216953683Y-41869752D01*
X216650054Y-41723532D01*
X216331965Y-41612227D01*
X216331953Y-41612223D01*
X216003397Y-41537233D01*
X216003381Y-41537231D01*
X215668508Y-41499500D01*
X215668504Y-41499500D01*
X215331496Y-41499500D01*
X215331491Y-41499500D01*
X214996618Y-41537231D01*
X214996602Y-41537233D01*
X214668046Y-41612223D01*
X214668034Y-41612227D01*
X214349945Y-41723532D01*
X214046316Y-41869752D01*
X213760962Y-42049053D01*
X213497477Y-42259174D01*
X213259174Y-42497477D01*
X213049053Y-42760962D01*
X212869752Y-43046316D01*
X212723532Y-43349945D01*
X212612227Y-43668034D01*
X212612223Y-43668046D01*
X212537233Y-43996602D01*
X212537231Y-43996618D01*
X212499500Y-44331491D01*
X137500499Y-44331491D01*
X137462767Y-43996606D01*
X137387776Y-43668046D01*
X137276469Y-43349949D01*
X137194142Y-43178995D01*
X151779499Y-43178995D01*
X151806418Y-43314322D01*
X151806421Y-43314332D01*
X151859221Y-43441804D01*
X151859228Y-43441817D01*
X151935885Y-43556541D01*
X151935888Y-43556545D01*
X152033454Y-43654111D01*
X152033458Y-43654114D01*
X152148182Y-43730771D01*
X152148195Y-43730778D01*
X152275667Y-43783578D01*
X152275672Y-43783580D01*
X152275676Y-43783580D01*
X152275677Y-43783581D01*
X152411004Y-43810500D01*
X152411007Y-43810500D01*
X152548995Y-43810500D01*
X152640041Y-43792389D01*
X152684328Y-43783580D01*
X152811811Y-43730775D01*
X152926542Y-43654114D01*
X153024114Y-43556542D01*
X153100775Y-43441811D01*
X153153580Y-43314328D01*
X153180500Y-43178995D01*
X160419499Y-43178995D01*
X160446418Y-43314322D01*
X160446421Y-43314332D01*
X160499221Y-43441804D01*
X160499228Y-43441817D01*
X160575885Y-43556541D01*
X160575888Y-43556545D01*
X160673454Y-43654111D01*
X160673458Y-43654114D01*
X160788182Y-43730771D01*
X160788195Y-43730778D01*
X160915667Y-43783578D01*
X160915672Y-43783580D01*
X160915676Y-43783580D01*
X160915677Y-43783581D01*
X161051004Y-43810500D01*
X161051007Y-43810500D01*
X161188995Y-43810500D01*
X161280041Y-43792389D01*
X161324328Y-43783580D01*
X161451811Y-43730775D01*
X161566542Y-43654114D01*
X161664114Y-43556542D01*
X161740775Y-43441811D01*
X161793580Y-43314328D01*
X161820500Y-43178993D01*
X161820500Y-42441007D01*
X161820500Y-42441004D01*
X161793581Y-42305677D01*
X161793580Y-42305676D01*
X161793580Y-42305672D01*
X161793578Y-42305667D01*
X161740778Y-42178195D01*
X161740771Y-42178182D01*
X161664114Y-42063458D01*
X161664111Y-42063454D01*
X161566545Y-41965888D01*
X161566541Y-41965885D01*
X161451817Y-41889228D01*
X161451804Y-41889221D01*
X161324332Y-41836421D01*
X161324322Y-41836418D01*
X161188995Y-41809500D01*
X161188993Y-41809500D01*
X161051007Y-41809500D01*
X161051005Y-41809500D01*
X160915677Y-41836418D01*
X160915667Y-41836421D01*
X160788195Y-41889221D01*
X160788182Y-41889228D01*
X160673458Y-41965885D01*
X160673454Y-41965888D01*
X160575888Y-42063454D01*
X160575885Y-42063458D01*
X160499228Y-42178182D01*
X160499221Y-42178195D01*
X160446421Y-42305667D01*
X160446418Y-42305677D01*
X160419500Y-42441004D01*
X160419500Y-42441007D01*
X160419500Y-43178993D01*
X160419500Y-43178995D01*
X160419499Y-43178995D01*
X153180500Y-43178995D01*
X153180500Y-43178993D01*
X153180500Y-42441007D01*
X153180500Y-42441004D01*
X153153581Y-42305677D01*
X153153580Y-42305676D01*
X153153580Y-42305672D01*
X153153578Y-42305667D01*
X153100778Y-42178195D01*
X153100771Y-42178182D01*
X153024114Y-42063458D01*
X153024111Y-42063454D01*
X152926545Y-41965888D01*
X152926541Y-41965885D01*
X152811817Y-41889228D01*
X152811804Y-41889221D01*
X152684332Y-41836421D01*
X152684322Y-41836418D01*
X152548995Y-41809500D01*
X152548993Y-41809500D01*
X152411007Y-41809500D01*
X152411005Y-41809500D01*
X152275677Y-41836418D01*
X152275667Y-41836421D01*
X152148195Y-41889221D01*
X152148182Y-41889228D01*
X152033458Y-41965885D01*
X152033454Y-41965888D01*
X151935888Y-42063454D01*
X151935885Y-42063458D01*
X151859228Y-42178182D01*
X151859221Y-42178195D01*
X151806421Y-42305667D01*
X151806418Y-42305677D01*
X151779500Y-42441004D01*
X151779500Y-42441007D01*
X151779500Y-43178993D01*
X151779500Y-43178995D01*
X151779499Y-43178995D01*
X137194142Y-43178995D01*
X137130246Y-43046314D01*
X136950946Y-42760961D01*
X136950944Y-42760958D01*
X136950943Y-42760956D01*
X136752592Y-42512230D01*
X136752590Y-42512229D01*
X136740826Y-42497478D01*
X136502522Y-42259174D01*
X136400977Y-42178195D01*
X136239039Y-42049054D01*
X135984674Y-41889225D01*
X135953683Y-41869752D01*
X135650054Y-41723532D01*
X135331965Y-41612227D01*
X135331953Y-41612223D01*
X135003397Y-41537233D01*
X135003381Y-41537231D01*
X134668508Y-41499500D01*
X134668504Y-41499500D01*
X134331496Y-41499500D01*
X134331491Y-41499500D01*
X133996618Y-41537231D01*
X133996602Y-41537233D01*
X133668046Y-41612223D01*
X133668034Y-41612227D01*
X133349945Y-41723532D01*
X133046316Y-41869752D01*
X132760962Y-42049053D01*
X132497477Y-42259174D01*
X132259174Y-42497477D01*
X132049053Y-42760962D01*
X131869752Y-43046316D01*
X131723532Y-43349945D01*
X131612227Y-43668034D01*
X131612223Y-43668046D01*
X131537233Y-43996602D01*
X131537231Y-43996618D01*
X131499500Y-44331491D01*
X130208291Y-44331491D01*
X130208716Y-44322290D01*
X130218576Y-44109015D01*
X130219633Y-44097611D01*
X130233723Y-43996606D01*
X130272917Y-43715632D01*
X130275017Y-43704396D01*
X130363322Y-43328951D01*
X130366445Y-43317971D01*
X130489019Y-42952260D01*
X130493150Y-42941600D01*
X130648932Y-42588787D01*
X130654030Y-42578547D01*
X130841702Y-42241611D01*
X130847728Y-42231879D01*
X131065698Y-41913682D01*
X131072580Y-41904569D01*
X131318978Y-41607843D01*
X131326673Y-41599403D01*
X131599403Y-41326673D01*
X131607843Y-41318978D01*
X131904569Y-41072580D01*
X131913682Y-41065698D01*
X132231884Y-40847724D01*
X132241611Y-40841702D01*
X132578547Y-40654030D01*
X132588787Y-40648932D01*
X132941600Y-40493150D01*
X132952260Y-40489019D01*
X133317971Y-40366445D01*
X133328951Y-40363322D01*
X133704396Y-40275017D01*
X133715632Y-40272917D01*
X134097620Y-40219632D01*
X134109006Y-40218576D01*
X134497145Y-40200632D01*
X134502872Y-40200500D01*
X134539882Y-40200500D01*
X215460118Y-40200500D01*
X215497128Y-40200500D01*
X215502855Y-40200632D01*
G37*
%TD.AperFunction*%
%TD*%
M02*
